<svg width="1138" height="1138" viewBox="0 0 1138 1138" fill="none" xmlns="http://www.w3.org/2000/svg">
<path d="M568.212 1135.51C881.673 1135.51 1135.78 881.398 1135.78 567.937C1135.78 254.476 881.673 0.365906 568.212 0.365906C254.751 0.365906 0.641113 254.476 0.641113 567.937C0.641113 881.398 254.751 1135.51 568.212 1135.51Z" fill="#8F5D17"/>
<path d="M568.212 1135.51C881.673 1135.51 1135.78 881.398 1135.78 567.937C1135.78 254.476 881.673 0.365906 568.212 0.365906C254.751 0.365906 0.641113 254.476 0.641113 567.937C0.641113 881.398 254.751 1135.51 568.212 1135.51Z" fill="#8F5D17"/>
<path opacity="0.44" d="M376.698 308.526C341.878 226.698 247.863 296.339 336.655 341.605C329.691 350.31 326.209 365.979 319.245 372.943C374.957 406.022 421.965 355.533 394.108 299.821L376.698 308.526Z" fill="#321C13"/>
<path opacity="0.44" d="M636.105 266.741C623.918 244.108 613.472 216.252 603.026 193.619C637.846 167.504 656.997 177.95 651.774 223.216C672.666 224.957 757.976 233.662 773.645 249.331C860.696 336.382 663.961 463.476 627.4 292.857L636.105 266.741Z" fill="#321C13"/>
<path opacity="0.44" d="M460.269 466.957C474.197 473.921 484.643 479.145 500.312 473.921C510.758 433.878 486.384 395.576 442.858 402.54C380.182 411.245 406.297 466.957 394.11 501.777C383.664 529.634 347.103 519.188 361.031 569.677C369.736 606.239 416.743 628.872 449.823 627.131C540.355 621.908 524.686 529.634 484.643 475.662L460.269 466.957Z" fill="#321C13"/>
<path opacity="0.44" d="M576.919 442.583C545.581 482.627 547.322 536.598 608.258 533.116C625.668 496.555 611.74 459.993 583.883 433.878L576.919 442.583Z" fill="#321C13"/>
<path opacity="0.44" d="M770.171 451.289C752.761 411.245 717.941 421.692 700.531 459.994C672.674 522.67 735.351 508.743 747.538 541.822C763.207 587.088 717.941 613.203 728.387 644.542C740.574 682.844 791.063 691.549 811.956 653.247C810.215 651.506 811.956 674.139 811.956 670.657C857.222 656.729 827.625 607.98 810.215 604.498C853.74 585.347 900.747 491.332 838.071 510.483C918.158 491.332 801.51 388.612 763.207 470.44L770.171 451.289Z" fill="#321C13"/>
<path opacity="0.44" d="M185.192 425.174C192.156 426.915 193.897 439.102 209.566 432.138C228.717 341.605 101.623 397.318 134.703 463.477C112.069 428.656 42.4287 501.779 112.069 545.304C185.192 592.311 260.056 489.592 178.228 449.548L185.192 425.174Z" fill="#321C13"/>
<path opacity="0.44" d="M367.997 884.801C280.946 966.629 112.068 754.225 218.27 719.405C272.241 701.995 265.277 771.635 310.544 780.34C333.177 785.563 460.271 724.628 401.076 823.866C472.458 771.635 503.796 973.593 367.997 884.801Z" fill="#321C13"/>
<path opacity="0.44" d="M293.131 701.995C294.872 776.859 366.254 726.37 307.059 688.067C286.167 693.29 300.095 698.513 293.131 710.7V701.995Z" fill="#321C13"/>
<path opacity="0.44" d="M618.696 684.585C590.84 715.923 599.545 757.708 650.034 759.449C665.703 740.298 670.926 719.405 667.444 695.031C644.811 686.326 641.329 696.772 627.401 710.7L618.696 684.585Z" fill="#321C13"/>
<path opacity="0.44" d="M785.837 985.78C791.06 997.967 782.355 999.708 792.801 1010.15C832.844 992.744 841.549 938.773 785.837 943.996V985.78Z" fill="#321C13"/>
<path opacity="0.44" d="M919.896 735.074C921.637 743.779 919.896 750.743 921.637 759.448C954.717 752.484 961.681 726.369 946.012 695.031C926.861 695.031 928.602 707.218 919.896 719.405V735.074Z" fill="#321C13"/>
<path opacity="0.44" d="M968.646 419.951L952.977 416.469C949.495 446.066 956.459 472.182 975.61 491.333C991.279 463.477 991.279 442.584 968.646 419.951Z" fill="#321C13"/>
<path opacity="0.44" d="M475.943 111.791C472.461 106.568 465.497 103.086 458.533 103.086C455.051 103.086 453.31 103.086 449.828 103.086C449.828 103.086 449.828 103.086 451.569 103.086C449.828 103.086 449.828 103.086 448.087 103.086H446.346C437.641 103.086 430.677 108.309 425.453 113.532C420.23 117.014 416.748 122.238 415.007 127.461C413.266 132.684 413.266 141.389 415.007 146.612C418.489 157.058 428.936 165.763 439.382 165.763C441.123 165.763 442.864 165.763 444.605 165.763H446.346C451.569 167.504 458.533 165.763 462.015 162.281C467.238 158.799 470.72 155.317 472.461 150.094C474.202 143.13 477.684 137.907 479.425 130.943C481.166 122.237 481.166 117.014 475.943 111.791Z" fill="#321C13"/>
<path opacity="0.44" d="M503.787 263.259C495.082 256.295 479.413 261.517 479.413 275.445C479.413 289.374 495.082 294.597 503.787 287.633C517.715 284.151 517.715 266.741 503.787 263.259Z" fill="#321C13"/>
<path opacity="0.44" d="M627.407 43.8914C609.997 43.8914 609.997 71.7477 627.407 71.7477C644.817 71.7477 644.817 43.8914 627.407 43.8914Z" fill="#321C13"/>
<path opacity="0.44" d="M794.546 144.871C777.136 144.871 777.136 172.727 794.546 172.727C811.956 172.727 811.956 144.871 794.546 144.871Z" fill="#321C13"/>
<path opacity="0.44" d="M569.949 902.211C561.244 884.801 538.611 895.247 536.87 910.916C536.87 916.139 535.129 923.103 535.129 928.326C531.647 931.808 526.424 937.031 522.942 942.254C517.719 952.701 524.683 966.629 536.87 966.629C536.87 970.111 538.611 973.593 540.352 977.075C545.575 989.262 564.726 985.78 568.208 973.593C569.949 968.369 569.949 963.147 569.949 957.923C575.172 954.441 578.654 950.959 580.395 947.477C589.1 931.808 576.913 914.398 569.949 902.211Z" fill="#321C13"/>
<path opacity="0.44" d="M472.455 916.14C467.232 916.14 465.491 914.399 462.009 910.917C456.786 905.694 448.081 905.694 444.599 910.917C439.376 916.14 439.376 923.104 444.599 928.327C451.563 935.291 460.268 940.514 470.714 938.773C475.937 938.773 481.16 935.291 482.901 928.327C481.16 923.104 477.678 916.14 472.455 916.14Z" fill="#321C13"/>
<path opacity="0.44" d="M690.081 827.349C690.081 811.68 665.706 811.68 663.965 827.349C663.965 832.572 663.965 836.054 667.447 841.277C670.929 848.241 683.116 848.241 688.339 841.277C690.08 836.054 690.081 832.572 690.081 827.349Z" fill="#321C13"/>
<path opacity="0.44" d="M860.701 813.42C845.032 813.42 843.291 839.535 860.701 839.535C878.112 839.535 878.112 813.42 860.701 813.42Z" fill="#321C13"/>
<path opacity="0.44" d="M902.496 663.692C886.827 663.692 886.827 689.808 902.496 689.808C919.906 689.808 919.906 663.692 902.496 663.692Z" fill="#321C13"/>
<path opacity="0.44" d="M1052.22 620.167C1043.51 623.649 1034.81 627.131 1027.84 634.095C1019.14 642.8 1015.65 653.246 1012.17 663.692C1008.69 670.656 1013.91 681.102 1020.88 684.584C1022.62 684.584 1022.62 684.584 1024.36 686.325C1027.84 693.289 1034.81 696.771 1043.51 693.289C1055.7 688.066 1073.11 684.584 1076.59 670.656C1078.33 667.174 1076.59 663.692 1076.59 658.469C1076.59 649.764 1076.59 646.282 1078.33 639.318C1081.81 623.649 1066.14 613.203 1052.22 620.167Z" fill="#321C13"/>
<path opacity="0.44" d="M697.048 1024.08C697.048 1022.34 697.048 1018.86 697.048 1017.12C697.048 1011.9 695.307 1004.93 693.566 999.709C691.825 991.004 681.379 985.782 674.415 987.523C670.933 987.523 667.451 985.782 663.969 987.523C650.041 991.005 636.113 996.227 629.149 1010.16C623.926 1020.6 623.926 1032.79 629.149 1041.49C629.149 1043.23 630.89 1043.23 632.631 1044.98C632.631 1048.46 634.372 1051.94 634.372 1055.42C636.113 1067.61 655.264 1071.09 663.969 1062.39C670.933 1053.68 681.379 1046.72 684.861 1036.27C693.566 1038.01 700.53 1032.79 697.048 1024.08Z" fill="#321C13"/>
<path opacity="0.44" d="M341.868 947.478C341.868 945.737 340.127 942.255 340.127 940.514C338.386 933.55 331.422 930.068 324.458 930.068C317.494 931.809 310.53 937.032 312.271 943.996C314.012 956.183 315.753 970.111 324.458 978.816C329.681 984.039 338.386 985.78 345.35 982.298C352.314 977.075 355.796 970.111 355.796 961.406C357.537 950.96 350.573 947.478 341.868 947.478Z" fill="#321C13"/>
<path opacity="0.44" d="M773.643 1027.57C771.902 1011.9 751.01 1011.9 749.269 1027.57C749.269 1032.79 749.269 1036.27 751.01 1041.49C754.492 1050.2 768.42 1050.2 771.902 1041.49C773.643 1036.27 773.643 1032.79 773.643 1027.57Z" fill="#321C13"/>
<path opacity="0.44" d="M515.982 708.959C512.5 701.995 509.018 691.549 498.572 688.067C495.09 688.067 491.608 688.067 488.126 688.067V686.326C486.385 681.103 477.68 679.362 472.457 681.103C468.975 682.844 465.493 686.326 465.493 691.549C460.27 698.513 458.529 708.959 460.27 715.923C465.493 733.333 486.385 733.333 500.313 733.333C514.241 733.333 521.205 719.405 515.982 708.959Z" fill="#321C13"/>
<path opacity="0.44" d="M237.419 623.649C237.419 621.908 235.678 621.908 235.678 620.167C233.937 618.426 233.937 618.426 232.196 616.685C232.196 613.203 232.196 607.98 230.455 604.498C225.232 597.534 211.304 594.052 206.081 604.498C206.081 606.239 204.34 606.239 204.34 607.98C202.599 607.98 202.599 607.98 200.858 609.721C195.634 613.203 193.894 621.908 197.376 627.131C199.117 630.613 202.599 632.354 206.081 635.836C206.081 635.836 206.081 635.837 207.822 637.578C209.563 641.06 213.045 642.801 214.786 646.283C220.009 651.506 228.714 653.247 233.937 648.024C239.16 639.319 242.642 630.613 237.419 623.649Z" fill="#321C13"/>
<path opacity="0.44" d="M206.074 602.758C207.815 599.276 206.074 601.017 206.074 602.758V602.758Z" fill="#321C13"/>
<path opacity="0.44" d="M91.1676 604.498C85.9446 595.793 72.0165 594.051 65.0524 602.757C59.8294 599.275 51.1243 601.015 47.6423 607.979C35.4552 642.8 45.9012 682.843 75.4985 703.735C82.4625 708.958 92.9086 705.476 96.3906 698.512C113.801 667.174 112.06 632.354 91.1676 604.498Z" fill="#321C13"/>
<path opacity="0.44" d="M923.385 242.367C923.385 242.367 923.385 240.626 923.385 242.367C925.126 237.144 926.867 231.921 923.385 226.698C921.644 224.957 919.903 223.216 918.162 221.475C916.421 217.993 911.198 214.511 907.716 212.77C905.975 209.288 904.234 204.064 900.752 200.582C892.047 188.395 871.155 191.877 871.155 209.287C871.155 217.992 872.896 224.957 878.119 230.18C883.342 244.108 888.565 256.295 902.493 263.259C916.421 268.482 930.349 256.295 923.385 242.367Z" fill="#321C13"/>
<path opacity="0.44" d="M1071.36 395.575C1069.62 393.834 1067.88 390.352 1066.14 388.611C1066.14 386.87 1066.14 385.129 1066.14 385.129C1067.88 372.942 1053.95 369.46 1045.25 374.683C1038.28 374.683 1033.06 381.647 1034.8 388.611C1029.58 395.575 1026.1 404.28 1026.1 411.244C1024.35 428.654 1043.51 435.619 1057.43 439.101C1064.4 440.842 1073.1 437.36 1074.84 428.654C1078.33 418.208 1078.33 406.021 1071.36 395.575Z" fill="#321C13"/>
<path opacity="0.44" d="M455.041 1048.46C451.559 1036.27 435.89 1027.57 425.443 1038.01C418.479 1044.98 421.961 1058.9 430.667 1062.39C432.408 1064.13 434.148 1065.87 435.89 1067.61C444.595 1076.31 455.041 1067.61 453.3 1057.16C455.041 1055.42 456.782 1051.94 455.041 1048.46Z" fill="#321C13"/>
<path opacity="0.44" d="M197.378 903.952C195.637 898.729 190.414 895.248 186.932 891.766C173.004 877.838 150.37 900.47 166.04 912.658C169.522 916.14 173.004 919.622 178.227 923.104C190.414 928.327 202.601 916.14 197.378 903.952Z" fill="#321C13"/>
<path opacity="0.44" d="M308.796 151.834C307.055 137.906 287.904 134.424 282.681 148.352C282.681 150.093 280.94 153.575 280.94 157.057C270.494 150.093 258.307 165.762 268.753 174.467C268.753 176.208 268.753 177.949 268.753 177.949C268.753 181.432 270.494 184.914 272.235 186.655C279.199 197.101 293.127 195.359 303.573 191.877C308.796 190.136 312.278 184.913 312.278 179.69C312.278 172.726 308.796 162.28 308.796 151.834Z" fill="#321C13"/>
<path opacity="0.44" d="M181.712 296.338C178.23 284.151 162.56 266.741 148.632 280.669C145.15 284.151 143.409 292.856 145.15 298.079C145.15 301.561 146.891 306.784 148.632 312.007C152.114 322.453 167.784 322.453 171.266 313.748C178.23 312.007 183.453 305.043 181.712 296.338Z" fill="#321C13"/>
<path opacity="0.44" d="M681.383 587.089C681.383 581.866 677.901 576.642 674.419 574.901V573.16C679.642 559.232 662.232 548.786 650.044 554.009C646.562 557.491 641.339 559.232 637.857 562.714C634.375 562.714 632.634 562.714 630.893 562.714C625.67 562.714 620.447 569.678 620.447 573.16C620.447 578.383 620.447 581.866 623.929 587.089C623.929 592.312 627.411 595.793 630.893 599.275C632.634 602.757 636.116 606.239 641.339 607.98C648.303 614.945 655.268 621.909 663.973 618.427C665.714 618.427 667.455 616.686 667.455 616.686C669.196 616.686 672.678 614.945 674.419 613.204C681.383 606.24 683.124 595.794 681.383 587.089Z" fill="#321C13"/>
<path opacity="0.44" d="M822.401 719.405C794.545 715.923 764.947 721.146 742.314 740.297C731.868 749.003 726.645 757.708 723.163 769.895C717.94 778.6 712.717 787.305 709.235 797.751C705.753 806.456 712.717 820.384 723.163 822.125C724.904 822.125 728.386 822.125 730.127 822.125C735.35 825.607 742.314 827.348 749.278 829.089C759.724 829.089 766.688 822.125 775.393 816.902C804.991 806.456 827.624 780.341 838.07 745.52C839.811 733.333 832.847 719.405 822.401 719.405Z" fill="#321C13"/>
<path opacity="0.44" d="M935.558 860.427C925.112 860.427 916.407 865.65 911.184 874.355C909.443 877.837 907.702 879.578 907.702 883.06C905.961 883.06 905.96 884.801 904.219 886.542C902.478 888.283 900.737 891.765 900.737 890.024C902.478 888.283 900.738 890.024 898.996 891.765C898.996 893.506 897.255 895.247 897.255 896.988C897.255 898.729 897.255 902.211 897.255 903.952V905.693C897.255 902.211 897.255 903.952 897.255 907.434C897.255 909.175 897.255 912.657 898.996 914.398C902.479 924.844 916.407 930.067 925.112 921.362C935.558 910.916 944.263 900.47 951.227 886.542C956.45 876.096 947.745 860.427 935.558 860.427Z" fill="#321C13"/>
<path opacity="0.2" d="M552.548 33.4454C488.13 -20.526 427.195 45.6326 368 70.0069C294.878 99.6041 207.827 103.086 200.863 214.511C19.7971 261.518 52.8764 545.304 148.632 641.06C348.849 839.535 669.196 693.29 611.742 400.8C660.491 419.951 721.426 374.685 717.944 317.231C785.844 350.311 838.074 278.929 836.333 211.029C831.11 75.23 677.901 33.4454 552.548 33.4454Z" fill="#F96974"/>
<path opacity="0.3" d="M568.218 1135.51C881.601 1135.51 1135.79 881.319 1135.79 567.937C1135.79 334.641 994.767 134.424 792.809 47.3729C796.291 57.819 801.514 66.5241 806.737 78.7112C829.371 117.014 867.673 148.352 888.565 190.136C921.644 259.777 899.011 226.697 886.824 294.597C874.637 355.533 907.716 378.166 909.457 435.619C911.198 473.922 879.86 505.26 883.342 552.268C724.91 548.786 857.227 742.038 775.399 778.6C744.061 792.528 705.758 761.189 670.938 762.93C620.449 766.412 592.593 773.377 576.923 830.83C533.398 820.384 468.98 754.225 456.793 844.758C395.858 834.312 340.145 848.24 291.397 806.455C258.318 778.599 263.541 742.038 225.238 724.628C179.972 703.736 126 738.556 82.4751 722.887C40.6907 707.218 38.9497 663.692 4.12939 649.764C45.9138 923.103 282.692 1135.51 568.218 1135.51Z" fill="#50005B"/>
<path opacity="0.2" d="M1137.52 567.937C1137.52 470.44 1113.15 379.907 1069.62 299.82C1076.58 327.677 1083.55 355.533 1085.29 376.425C1095.73 482.627 1085.29 581.865 1043.5 679.361C918.151 970.111 618.697 1116.36 314.019 1032.79C284.422 1024.08 232.192 1001.45 181.702 985.78C282.681 1079.79 418.48 1137.25 568.208 1137.25C883.331 1135.51 1137.52 881.319 1137.52 567.937Z" fill="#F96974"/>
<path opacity="0.2" d="M576.916 174.468C599.549 49.1148 423.707 47.3738 399.332 148.353C263.533 80.4531 91.1726 268.483 125.993 409.505C209.562 729.852 672.672 515.707 576.916 174.468Z" fill="#FFB6BF"/>
<path opacity="0.17" d="M385.404 317.23C519.462 212.769 367.994 73.4877 242.641 209.287C82.4671 383.388 369.735 550.526 418.483 317.23H385.404Z" fill="#FFB6BF"/>
<path opacity="0.17" d="M195.637 388.612C193.896 388.612 193.896 390.353 195.637 392.094C206.083 397.317 211.306 406.022 209.565 418.21C207.824 430.397 199.119 439.102 186.932 430.397C185.191 428.656 183.449 428.655 181.708 432.137C179.967 439.102 176.485 446.066 179.967 454.771C183.449 449.548 183.45 442.584 185.191 437.361C214.788 456.512 230.457 386.871 195.637 388.612Z" fill="#FFB6BF"/>
<path opacity="0.17" d="M204.355 465.217C202.614 463.476 200.873 465.217 200.873 466.958C202.614 477.404 209.578 482.627 211.319 491.333C220.024 515.707 199.132 541.822 178.24 552.268C153.866 566.196 113.822 560.973 91.189 543.563C110.34 567.937 155.606 573.16 181.722 557.491C199.132 547.045 214.801 527.894 220.024 508.743C225.247 491.333 213.06 479.145 204.355 465.217Z" fill="#FFB6BF"/>
<path opacity="0.17" d="M395.849 305.043C394.108 303.302 392.367 305.043 392.367 306.784C392.367 327.676 406.295 343.345 394.108 364.238C374.957 395.576 343.618 388.612 315.762 374.684C340.136 395.576 371.475 399.058 394.108 374.684C411.518 357.274 411.518 324.194 395.849 305.043Z" fill="#FFB6BF"/>
<path opacity="0.17" d="M361.029 275.445C350.583 268.481 338.396 264.999 326.208 266.74C336.655 268.481 345.36 271.964 354.065 277.187C359.288 280.669 362.77 284.151 366.252 289.374C369.734 292.856 369.734 298.079 371.475 303.302C373.216 305.043 374.957 305.043 374.957 303.302C380.18 291.115 369.734 280.669 361.029 275.445Z" fill="#FFB6BF"/>
<path opacity="0.17" d="M660.484 193.618C657.002 184.913 648.297 179.69 639.592 176.208C646.556 181.431 655.261 188.395 657.002 197.1C658.743 205.805 653.52 212.77 653.52 221.475C653.52 223.216 655.261 223.215 657.002 223.215C662.225 216.251 663.966 202.323 660.484 193.618Z" fill="#FFB6BF"/>
<path opacity="0.17" d="M756.245 237.145C756.245 235.404 756.245 237.145 756.245 237.145C784.101 265.001 810.217 292.857 782.36 332.901C766.691 357.275 738.835 364.239 712.72 376.426C709.238 378.167 712.72 381.649 714.461 381.649C749.281 376.426 787.584 353.793 798.03 317.232C810.217 280.67 789.325 249.332 756.245 237.145Z" fill="#FFB6BF"/>
<path opacity="0.17" d="M448.072 99.6033C446.331 99.6033 446.331 101.344 448.072 99.6033C458.518 101.344 470.705 103.085 475.928 113.531C479.41 118.755 479.41 125.719 477.669 130.942C475.928 136.165 472.446 137.906 470.705 141.388C465.482 150.093 472.446 160.539 460.259 165.762C451.554 169.244 439.367 165.762 432.403 164.021C430.662 164.021 428.921 165.762 430.662 167.503C439.367 174.467 456.777 174.467 467.223 169.244C479.41 164.021 475.928 150.093 481.151 141.388C493.338 117.014 474.187 96.1213 448.072 99.6033Z" fill="#FFB6BF"/>
<path opacity="0.17" d="M510.764 261.518C509.023 261.518 509.023 263.259 509.023 263.259C512.506 266.741 515.988 268.482 515.988 271.965C517.729 275.447 515.987 280.669 512.505 284.151C505.541 291.115 495.095 287.633 486.39 285.892C484.649 285.892 484.649 287.634 486.39 287.634C496.836 291.116 512.505 296.338 519.47 284.151C524.693 277.187 521.211 263.259 510.764 261.518Z" fill="#FFB6BF"/>
<path opacity="0.17" d="M301.836 136.165C308.8 148.352 315.764 167.503 310.541 181.431C305.318 198.841 286.167 195.359 272.238 195.359C270.497 195.359 270.497 197.1 272.238 198.841C284.425 205.805 307.059 202.323 314.023 188.395C322.728 170.985 314.023 148.352 301.836 136.165Z" fill="#FFB6BF"/>
<path opacity="0.17" d="M152.104 271.964C152.104 271.964 152.104 273.705 152.104 271.964C160.809 277.187 172.997 284.151 176.479 294.597C183.443 306.784 166.033 322.454 153.845 322.454C150.363 322.454 150.363 327.676 153.845 327.676C167.774 331.158 183.443 313.748 183.443 301.561C183.443 285.892 164.292 273.705 152.104 271.964Z" fill="#FFB6BF"/>
<path opacity="0.17" d="M85.9546 595.793C84.2136 595.793 82.4726 597.534 84.2136 597.534C106.847 616.685 108.588 635.836 106.847 663.692C105.106 674.139 106.847 686.326 101.624 696.772C89.4366 722.887 59.8394 691.548 51.1343 677.62C63.3214 698.513 98.1417 729.851 108.588 691.549C113.811 661.952 119.034 611.462 85.9546 595.793Z" fill="#FFB6BF"/>
<path opacity="0.17" d="M235.684 620.167C242.648 611.462 237.425 601.016 226.979 594.052C225.238 592.311 221.756 595.793 223.497 597.534C228.72 604.498 239.166 609.721 228.72 618.426C226.979 620.167 228.72 621.908 230.461 623.649C240.907 627.131 237.425 642.8 228.72 644.541C218.274 648.023 207.828 635.836 202.604 628.872C209.569 641.059 223.497 658.469 237.425 646.282C244.389 637.577 244.389 625.39 235.684 620.167Z" fill="#FFB6BF"/>
<path opacity="0.17" d="M510.765 519.188C507.283 510.483 505.542 501.778 500.319 494.814C489.873 479.145 493.355 487.85 496.837 482.627C498.578 479.145 503.801 479.145 507.283 473.922C514.247 458.253 500.319 432.137 495.096 418.209C493.355 414.727 488.132 416.468 489.873 419.95C491.614 428.656 512.506 480.886 489.873 473.922C486.391 473.922 484.65 475.663 486.391 479.145C507.283 515.706 528.175 566.196 498.578 604.498C477.686 632.354 442.865 623.649 413.268 623.649C437.642 632.354 472.463 637.577 495.096 620.167C521.211 597.534 522.952 550.526 510.765 519.188Z" fill="#FFB6BF"/>
<path opacity="0.17" d="M583.878 437.361C604.77 453.03 615.216 468.699 616.957 494.814C616.957 505.26 618.698 519.189 608.252 526.153C597.806 533.117 587.36 526.153 575.173 526.153C573.432 526.153 571.691 529.635 573.432 531.376C583.878 536.599 601.288 543.562 611.735 536.598C622.181 529.634 622.181 515.706 622.181 505.26C623.922 472.181 613.475 446.066 583.878 437.361Z" fill="#FFB6BF"/>
<path opacity="0.17" d="M688.337 585.348C686.596 580.125 684.855 578.383 681.373 573.16C677.891 567.937 679.632 573.161 679.632 567.938C679.632 566.197 681.373 564.455 681.373 562.714C683.114 554.009 676.15 550.528 669.186 552.269C681.373 554.01 679.632 564.455 674.409 571.419C674.409 573.16 674.409 573.161 674.409 574.902C686.596 581.866 688.337 592.312 679.632 602.758C672.668 611.463 663.962 613.204 653.516 611.463C651.775 611.463 651.775 613.204 651.775 614.945C667.445 623.65 691.819 606.24 688.337 585.348Z" fill="#FFB6BF"/>
<path opacity="0.17" d="M825.884 602.757C820.66 569.678 904.229 527.893 857.222 496.555C867.668 489.591 867.668 479.145 862.445 465.217C848.517 439.102 818.919 437.361 792.804 439.102C806.732 440.843 829.366 442.583 839.812 451.289C848.517 456.512 872.891 482.627 848.517 493.073C845.035 494.814 843.294 498.296 846.776 500.037C888.56 522.671 829.366 566.195 817.178 588.829C813.696 595.793 810.214 599.275 811.955 607.98C811.955 613.203 818.92 613.203 820.661 616.685C829.366 627.131 832.848 639.318 829.366 651.505C825.884 665.433 817.178 670.657 801.509 668.915C798.027 667.174 792.804 668.916 796.286 672.398C808.473 688.067 822.402 681.102 831.107 667.174C838.071 656.728 839.812 644.541 838.071 632.354C838.071 620.167 827.625 613.203 825.884 602.757Z" fill="#FFB6BF"/>
<path opacity="0.17" d="M637.842 42.1505C637.842 42.1505 636.101 42.1505 637.842 42.1505C643.065 49.1145 643.065 61.3016 639.583 68.2657C634.36 76.9708 625.655 71.7479 616.95 71.7479C616.95 71.7479 615.209 73.4888 616.95 73.4888C625.655 78.7118 637.842 78.7118 643.065 68.2657C646.547 61.3016 644.806 47.3735 637.842 42.1505Z" fill="#FFB6BF"/>
<path opacity="0.17" d="M806.731 150.093C806.731 148.352 804.99 150.093 804.99 150.093C806.731 157.057 804.99 164.021 801.508 170.985C798.026 179.69 791.062 179.69 784.098 172.726C789.321 179.69 796.285 181.431 803.249 176.208C808.472 169.244 811.954 158.798 806.731 150.093Z" fill="#FFB6BF"/>
<path opacity="0.17" d="M926.868 247.59C925.127 244.108 925.127 238.885 925.127 233.662C923.386 223.216 916.422 212.77 905.976 207.547C904.235 205.806 902.494 209.288 902.494 211.029C909.458 217.993 916.422 223.216 918.163 233.662C919.904 238.885 921.645 245.849 921.645 251.072C921.645 258.036 916.422 265 909.458 263.259C904.235 261.518 900.753 258.037 897.271 256.295C892.048 251.072 888.566 245.849 883.343 244.108C892.048 251.072 895.53 261.518 904.235 266.741C912.94 271.964 921.645 268.482 926.868 259.777C930.35 256.295 928.609 252.813 926.868 247.59Z" fill="#FFB6BF"/>
<path opacity="0.17" d="M942.54 696.771C942.54 696.771 940.799 696.771 942.54 696.771C947.763 710.699 952.986 717.664 949.504 733.333C946.022 747.261 937.317 757.707 921.648 761.189C919.907 761.189 919.907 762.93 921.648 762.93C937.317 761.189 947.763 749.002 951.245 735.074C956.468 722.887 956.468 701.994 942.54 696.771Z" fill="#FFB6BF"/>
<path opacity="0.17" d="M1062.66 621.908C1060.92 621.908 1062.66 625.389 1064.4 623.648C1083.56 616.684 1078.33 651.505 1076.59 661.951C1074.85 674.138 1071.37 684.584 1059.18 688.066C1050.48 691.548 1041.77 691.548 1033.07 695.03C1045.25 693.289 1060.92 695.03 1071.37 686.325C1080.07 679.361 1080.07 668.915 1081.81 658.468C1081.81 646.281 1083.56 606.238 1062.66 621.908Z" fill="#FFB6BF"/>
<path opacity="0.17" d="M993.024 442.583C989.542 432.137 980.837 412.986 966.909 418.209C980.837 416.468 987.801 437.361 989.542 447.807C991.283 465.217 982.578 480.886 972.132 493.073C970.391 494.814 972.132 496.555 975.614 496.555C991.283 484.368 998.247 461.735 993.024 442.583Z" fill="#FFB6BF"/>
<path opacity="0.17" d="M1074.86 385.13C1073.12 374.684 1069.64 371.202 1059.19 369.461C1057.45 369.461 1057.45 371.202 1059.19 371.202C1076.6 371.202 1067.9 385.13 1067.9 392.094C1067.9 393.835 1069.64 393.835 1069.64 395.576C1071.38 402.54 1074.86 407.763 1076.6 416.468C1078.34 430.396 1067.9 442.583 1053.97 437.36C1047 435.619 1041.78 428.655 1034.82 425.173C1033.08 425.173 1031.34 426.914 1033.08 428.655C1041.78 435.619 1048.75 444.324 1060.93 442.583C1071.38 440.842 1080.08 435.619 1081.82 425.173C1083.57 411.245 1076.6 397.317 1074.86 385.13Z" fill="#FFB6BF"/>
<path opacity="0.17" d="M656.993 688.066C655.252 688.066 655.252 691.548 656.993 691.548C674.403 693.289 665.698 714.181 663.957 726.368C663.957 731.591 663.957 736.814 660.475 743.778C658.734 747.26 655.252 749.001 653.511 752.483C651.77 755.965 650.029 757.706 650.029 761.188C634.36 759.447 620.431 757.706 606.503 749.001C606.503 749.001 604.762 749.001 606.503 749.001C620.431 761.188 634.359 761.188 651.77 764.67C653.511 764.67 655.252 764.67 655.252 762.929C656.993 752.483 667.439 747.26 670.921 735.073C672.662 724.627 674.403 715.922 674.403 705.476C676.144 695.03 670.921 684.584 656.993 688.066Z" fill="#FFB6BF"/>
<path opacity="0.17" d="M625.655 689.808C623.914 686.326 620.432 684.585 616.95 682.844C616.95 682.844 615.209 684.584 616.95 684.584C620.432 686.325 622.173 689.807 622.173 693.289C622.173 696.771 622.173 700.254 622.173 703.736C622.173 705.477 623.914 705.477 625.655 703.736C627.396 700.254 627.396 695.031 625.655 689.808Z" fill="#FFB6BF"/>
<path opacity="0.17" d="M832.853 710.7C831.112 707.218 827.63 712.441 829.371 714.182C852.004 743.78 818.925 776.859 798.033 797.751C785.845 809.938 771.917 822.125 752.766 823.866C735.356 825.607 719.687 818.643 704.018 815.161C702.277 815.161 702.277 816.902 704.018 816.902C721.428 825.607 742.32 834.313 761.471 830.831C782.363 827.349 796.291 811.679 810.22 797.751C831.112 775.118 858.968 740.297 832.853 710.7Z" fill="#FFB6BF"/>
<path opacity="0.17" d="M448.077 813.42C439.372 808.197 414.998 820.384 411.516 811.679C409.775 808.196 421.962 797.75 421.962 792.527C421.962 785.563 420.221 785.563 416.739 778.599C414.998 776.858 411.516 778.599 413.257 782.081C420.221 792.527 404.552 809.937 402.811 820.384C402.811 822.125 402.811 823.865 406.293 823.865C413.257 823.865 420.221 820.383 425.444 818.642C460.264 813.419 460.264 848.24 453.3 870.873C448.077 891.765 437.631 902.211 414.998 902.211C397.588 902.211 378.436 896.988 364.508 884.801C362.767 883.06 361.026 883.06 361.026 884.801C301.832 916.139 263.529 876.096 216.522 844.758C258.306 879.578 286.163 912.657 345.357 898.729C355.803 896.988 359.285 893.506 369.731 896.988C381.918 900.47 388.882 905.693 401.07 907.434C413.257 909.175 430.667 910.916 442.854 903.952C463.746 891.765 472.451 827.348 448.077 813.42Z" fill="#FFB6BF"/>
<path opacity="0.17" d="M185.19 886.543C183.449 886.543 183.449 888.284 185.19 888.284C195.637 893.507 204.342 905.694 199.119 917.882C190.413 937.033 173.003 917.882 164.298 909.176C164.298 909.176 162.557 909.176 164.298 909.176C173.003 919.623 190.414 940.514 202.601 919.622C207.824 910.917 199.119 888.284 185.19 886.543Z" fill="#FFB6BF"/>
<path opacity="0.17" d="M361.037 952.701C359.296 949.219 355.814 945.737 350.591 943.996C345.368 942.255 341.885 940.514 338.403 937.032C336.662 935.291 334.921 933.55 333.18 931.809C331.439 930.068 329.698 933.55 331.439 933.55C336.662 940.514 340.144 943.996 347.108 947.478C361.037 950.96 362.778 964.888 357.555 977.075C348.849 996.227 327.957 985.78 317.511 975.334C326.216 987.521 347.109 999.708 359.296 984.039C364.519 973.593 366.26 961.406 361.037 952.701Z" fill="#FFB6BF"/>
<path opacity="0.17" d="M481.156 916.14C474.192 910.917 467.228 907.435 462.005 900.471C460.264 898.73 458.523 900.47 458.523 902.211C458.523 914.398 477.674 917.881 482.897 926.586C484.638 930.068 482.897 935.291 479.415 938.773C475.933 940.514 468.969 940.514 465.487 940.514C458.523 938.773 451.559 937.032 442.854 938.773C456.782 942.255 484.638 954.442 489.861 933.55C489.861 926.586 484.638 921.363 481.156 916.14Z" fill="#FFB6BF"/>
<path opacity="0.17" d="M585.632 914.399C582.15 902.212 578.668 890.025 564.74 888.284C575.186 895.248 578.668 902.212 582.15 914.399C583.891 917.881 585.632 923.104 585.632 928.327C587.373 933.55 585.632 937.032 582.15 940.514C582.15 947.478 578.668 950.96 573.445 952.701C571.704 954.442 569.963 956.183 568.222 957.924C566.481 959.665 568.222 961.406 566.481 963.147C559.517 968.37 552.553 971.852 547.33 977.075C543.848 973.593 540.366 970.111 536.884 966.629C535.143 964.888 533.402 966.629 533.402 968.37C538.625 978.816 547.33 987.521 559.517 984.039C564.74 982.298 568.222 977.075 569.963 971.852C571.704 968.37 569.963 964.888 571.704 963.147C578.668 947.478 576.927 957.924 582.15 952.701C594.337 942.255 589.114 930.068 585.632 914.399Z" fill="#FFB6BF"/>
<path opacity="0.17" d="M453.305 1038.01C451.564 1038.01 449.823 1038.01 451.564 1039.75C455.046 1048.46 462.01 1057.16 456.787 1067.61C451.564 1081.54 435.895 1065.87 427.19 1062.39C434.154 1069.35 448.082 1083.28 458.528 1071.09C463.751 1064.13 462.01 1044.98 453.305 1038.01Z" fill="#FFB6BF"/>
<path opacity="0.17" d="M691.831 991.003C690.09 989.262 688.349 991.003 688.349 992.744C693.572 1003.19 698.795 1015.38 695.313 1027.56C691.831 1034.53 683.126 1038.01 679.644 1043.23C674.421 1048.46 672.68 1053.68 669.198 1058.9C660.493 1071.09 643.083 1072.83 632.636 1060.64C632.636 1060.64 630.896 1060.64 630.896 1062.38C634.378 1072.83 643.083 1074.57 651.788 1072.83C665.716 1071.09 670.939 1064.13 679.644 1051.94C686.608 1043.23 698.795 1038.01 702.277 1027.56C705.759 1015.38 702.277 999.708 691.831 991.003Z" fill="#FFB6BF"/>
<path opacity="0.17" d="M770.167 1017.12C768.426 1017.12 768.426 1017.12 768.426 1018.86C771.909 1025.82 773.649 1031.05 771.908 1039.75C770.167 1043.23 768.426 1046.72 766.685 1048.46C763.203 1050.2 757.98 1048.46 754.498 1046.71C752.757 1046.71 752.757 1046.72 752.757 1048.46C759.721 1057.16 768.426 1053.68 773.649 1044.97C777.131 1036.27 778.873 1022.34 770.167 1017.12Z" fill="#FFB6BF"/>
<path opacity="0.17" d="M808.467 942.256C806.726 942.256 806.726 943.997 808.467 943.997C850.251 950.961 815.431 1027.57 789.316 1011.9C804.985 1029.31 822.395 997.968 827.618 985.781C832.841 971.853 832.841 938.774 808.467 942.256Z" fill="#FFB6BF"/>
<path opacity="0.17" d="M939.043 856.945C937.302 856.945 937.302 858.685 939.043 860.426C958.194 862.167 944.266 893.506 939.043 902.211C930.338 921.362 914.669 933.549 893.777 923.103C911.187 945.736 935.561 917.88 944.266 900.47C949.489 895.247 961.676 849.981 939.043 856.945Z" fill="#FFB6BF"/>
<path opacity="0.17" d="M315.764 689.808C314.023 689.808 312.282 691.549 315.764 689.808C324.469 700.254 333.174 710.7 333.174 724.628C333.174 735.074 324.469 745.52 312.282 742.038C303.577 740.297 296.613 733.333 293.131 726.369C300.095 740.297 322.728 754.225 333.174 735.074C341.879 721.146 327.951 698.513 315.764 689.808Z" fill="#FFB6BF"/>
<path opacity="0.17" d="M519.46 707.218C515.978 698.513 512.496 688.067 505.532 682.844C503.791 681.103 502.05 684.584 503.791 684.584C509.014 696.771 524.684 712.441 515.979 728.11C509.014 740.297 482.899 731.592 472.453 728.11C482.899 736.815 509.014 745.52 519.46 731.592C524.684 726.369 522.943 715.923 519.46 707.218Z" fill="#FFB6BF"/>
<path opacity="0.17" d="M688.347 816.902C686.606 816.902 686.606 816.902 688.347 816.902C691.829 823.866 691.829 830.83 688.347 837.794C686.606 841.276 684.865 844.758 683.124 846.499C679.642 848.24 677.901 846.499 674.419 848.24C674.419 848.24 672.678 849.981 674.419 849.981C679.642 856.945 690.088 848.24 691.829 843.017C695.311 834.312 697.052 820.384 688.347 816.902Z" fill="#FFB6BF"/>
<path opacity="0.17" d="M867.669 815.161C867.669 815.161 865.928 816.902 867.669 815.161C869.41 820.384 874.633 825.607 872.892 832.571C871.151 841.276 858.964 839.536 852 837.795C852 837.795 850.259 839.536 852 839.536C857.223 839.536 860.705 843.017 865.928 843.017C869.41 843.017 872.892 841.277 874.633 837.795C878.115 829.089 874.633 820.384 867.669 815.161Z" fill="#FFB6BF"/>
<path opacity="0.17" d="M267.005 184.913C233.925 214.51 207.81 258.035 202.587 301.561C197.364 338.122 211.292 385.13 247.853 400.799C251.335 402.54 253.076 397.317 251.335 395.576C185.177 339.863 213.033 249.33 268.746 197.1C296.602 170.984 397.581 130.941 418.473 184.913C418.473 186.654 420.214 184.913 420.214 184.913C408.027 122.236 296.602 158.798 267.005 184.913Z" fill="#FFB6BF"/>
<path opacity="0.17" d="M392.377 143.13C362.78 139.648 343.629 130.943 314.031 134.425C286.175 137.907 258.319 151.835 235.686 167.504C192.16 200.583 159.081 256.296 138.189 305.044C117.297 353.793 120.779 406.023 141.671 454.771C162.563 505.261 202.606 534.858 249.614 555.75C253.096 557.491 256.578 552.268 253.096 550.527C233.945 536.599 211.311 527.894 192.16 512.225C171.268 494.815 155.599 468.699 145.153 442.584C126.002 388.613 127.743 339.865 152.117 289.375C173.009 245.85 200.865 198.842 240.909 170.986C265.283 153.576 293.139 141.389 322.736 137.907C348.852 136.166 369.744 144.871 392.377 143.13C394.118 143.13 394.118 143.13 392.377 143.13Z" fill="#FFB6BF"/>
<path opacity="0.17" d="M253.089 686.326C206.082 668.916 169.521 649.764 138.183 609.721C113.808 576.642 91.1751 541.821 78.988 503.519C51.1317 419.95 73.7649 322.453 131.218 258.036C66.8009 320.712 44.1677 421.692 70.2829 507.001C84.211 552.268 112.067 594.052 141.665 630.613C171.262 667.175 207.823 679.362 251.348 691.549C253.09 689.808 254.831 686.326 253.089 686.326Z" fill="#FFB6BF"/>
<path opacity="0.17" d="M914.674 463.477C923.379 444.326 926.861 421.693 923.379 402.542C923.379 397.319 914.674 399.06 914.674 404.283C918.156 435.621 905.969 456.513 888.558 480.887C876.371 496.556 879.853 507.002 876.371 524.413C874.63 533.118 867.666 554.01 860.702 560.974C855.479 566.197 846.774 566.197 839.81 569.679C834.587 573.161 829.364 574.902 824.141 578.384C813.695 587.089 808.472 601.017 803.249 614.945C792.803 648.024 794.544 677.622 796.285 710.701C798.026 726.37 798.026 747.263 789.321 761.191C773.651 785.565 730.126 778.6 705.752 771.636C690.083 766.413 679.637 757.709 662.226 761.191C643.075 762.932 622.183 769.896 604.773 778.601C580.399 790.788 575.176 822.126 540.355 809.939C524.686 804.716 514.24 792.529 495.089 792.529C484.643 792.529 477.679 797.752 470.715 804.716C456.787 816.903 453.305 827.349 434.153 829.09C421.966 830.831 409.779 830.831 397.592 830.831C367.995 830.831 336.657 827.349 310.541 813.421C287.908 801.234 273.98 782.083 260.052 762.931C233.937 728.111 209.562 712.442 164.296 715.924C131.217 719.406 96.3965 728.111 66.7993 708.96C44.1661 695.032 30.238 670.658 11.0868 653.248C11.0868 653.248 9.3457 653.248 9.3457 654.989C33.7199 682.845 54.6121 719.406 94.6555 726.37C124.253 731.594 153.85 721.147 185.188 722.888C221.75 724.629 239.16 749.004 260.052 776.86C286.167 811.68 315.764 832.572 359.29 837.795C394.11 843.018 441.118 848.241 467.233 823.867C488.125 804.716 498.571 794.27 524.686 809.939C531.65 813.421 536.873 818.644 545.578 822.126C559.507 827.349 571.694 825.608 582.14 813.421C590.845 804.716 594.327 794.27 606.514 787.306C616.96 780.342 632.629 776.86 644.816 773.378C676.155 764.672 700.529 782.083 731.867 785.565C757.982 789.047 789.321 787.306 801.508 759.45C815.436 728.111 801.508 693.291 803.249 661.953C804.99 627.132 817.177 588.83 850.256 573.161C864.184 566.197 878.112 560.974 883.335 545.304C886.817 533.117 883.335 520.93 885.076 510.484C892.04 486.11 905.969 480.887 914.674 463.477Z" fill="#FFB6BF"/>
<path opacity="0.17" d="M54.6101 500.037C40.682 493.073 31.9769 507.001 30.2359 520.929C26.7538 526.152 26.7538 533.116 31.9768 538.339V540.08C31.9768 543.562 33.7179 545.303 37.1999 545.303C40.682 547.044 44.164 548.785 47.646 545.303C49.387 543.562 51.128 541.821 52.869 538.339C65.0561 527.893 70.2792 507.001 54.6101 500.037Z" fill="#FFB6BF"/>
<path opacity="0.17" d="M38.9436 470.441C37.2026 468.7 35.4615 468.699 35.4615 468.699V470.441C28.4974 477.405 45.9076 477.405 38.9436 470.441Z" fill="#FFB6BF"/>
<path opacity="0.17" d="M277.466 117.014C275.725 115.273 273.984 113.532 272.243 113.532C270.502 113.532 268.761 113.532 267.02 113.532C267.02 113.532 265.279 113.532 265.279 115.273C263.538 115.273 261.797 117.014 260.056 118.755C256.574 120.496 256.574 123.978 260.056 125.719C260.056 125.719 260.056 125.719 261.797 125.719C261.797 125.719 261.797 125.719 263.538 125.719C268.761 127.46 273.984 125.719 279.207 123.978C277.466 123.978 279.207 118.755 277.466 117.014Z" fill="#FFB6BF"/>
<path opacity="0.17" d="M421.959 75.2287C418.477 73.4877 413.254 75.2287 409.772 75.2287C406.29 75.2287 402.808 76.9696 401.067 76.9696C392.362 80.4516 383.657 92.6387 387.139 103.085L385.398 104.826C381.916 108.308 385.398 115.272 390.621 113.531C392.362 113.531 395.844 111.79 397.585 110.049H399.326C406.29 108.308 411.513 103.085 414.995 97.862C418.477 94.38 421.959 89.1569 421.959 83.9338C421.959 83.9338 421.959 82.1927 423.7 82.1927C427.182 82.1927 425.441 76.9698 421.959 75.2287Z" fill="#FFB6BF"/>
<path opacity="0.17" d="M529.905 325.936C528.164 325.936 528.165 325.936 526.424 324.195C526.424 322.454 524.683 322.454 524.683 320.713C522.942 317.231 517.718 315.49 514.236 318.972C507.272 322.454 505.531 327.677 505.531 336.382C505.531 338.123 505.531 339.864 507.272 339.864V341.605C507.272 343.346 507.272 343.346 507.272 345.087C507.272 346.828 507.272 346.828 509.013 348.569C510.754 353.792 515.977 357.274 521.2 355.533C529.905 353.792 531.646 341.606 531.646 334.642C533.387 329.418 533.388 327.677 529.905 325.936Z" fill="#FFB6BF"/>
<path opacity="0.17" d="M336.654 477.404C331.431 477.404 331.431 482.627 334.913 486.109C334.913 486.109 336.654 486.109 338.395 486.109C341.877 482.627 341.877 477.404 336.654 477.404Z" fill="#FFB6BF"/>
<path opacity="0.17" d="M282.69 461.735C280.949 458.252 277.467 458.252 273.985 459.993C265.28 463.475 261.797 470.44 260.056 479.145C256.574 486.109 256.574 493.073 258.315 500.037C258.315 501.778 261.798 503.519 263.539 503.519C282.69 503.519 293.136 477.404 282.69 461.735Z" fill="#FFB6BF"/>
<path opacity="0.17" d="M317.507 513.965C314.025 513.965 312.284 513.965 308.802 515.706C307.061 515.706 303.579 519.188 305.32 522.67C305.32 522.67 305.32 524.411 307.061 524.411C303.579 526.152 307.061 531.375 310.543 531.375C317.507 529.634 317.507 526.152 320.989 522.67C324.471 519.188 320.989 513.965 317.507 513.965Z" fill="#FFB6BF"/>
<path opacity="0.17" d="M470.719 327.677C470.719 325.936 468.978 325.936 467.237 324.195C462.014 318.972 455.05 320.713 453.308 327.677C451.567 329.418 451.568 331.159 451.568 332.9C451.568 336.382 451.568 338.123 451.568 341.605C448.085 355.533 448.086 385.131 467.237 378.167C482.906 372.944 475.942 339.864 470.719 327.677Z" fill="#FFB6BF"/>
<path opacity="0.17" d="M428.932 353.792C428.932 353.792 428.932 355.533 428.932 353.792C430.673 355.533 430.673 355.533 430.673 353.792C437.637 350.31 423.709 350.31 428.932 353.792Z" fill="#FFB6BF"/>
<path opacity="0.17" d="M573.434 205.805C571.693 195.359 564.729 181.431 552.542 186.654C540.355 191.878 536.873 207.547 536.873 219.734C536.873 224.957 538.614 230.18 542.096 233.662C543.837 240.626 545.578 245.849 550.801 249.331C556.024 252.813 561.247 252.813 564.729 247.59C566.47 245.849 566.47 244.108 568.211 242.367C580.398 237.144 580.398 219.733 573.434 205.805Z" fill="#FFB6BF"/>
<path opacity="0.17" d="M482.898 207.546C475.934 205.805 465.488 209.287 467.229 217.992C467.229 219.733 468.97 221.474 470.711 223.215C470.711 224.956 472.452 226.697 474.193 226.697C475.934 228.438 479.416 228.438 481.157 226.697C486.381 223.215 495.086 211.028 482.898 207.546Z" fill="#FFB6BF"/>
<path opacity="0.17" d="M550.808 108.31C549.067 104.828 543.844 104.828 540.362 106.569C538.621 106.569 538.621 108.31 536.88 108.31C535.139 108.31 535.139 110.051 533.398 110.051C533.398 110.051 531.657 110.051 529.916 110.051C528.175 113.533 524.692 117.015 522.951 120.497C519.469 125.72 517.729 130.943 517.729 136.166C517.729 137.907 517.729 139.648 517.729 141.389C517.729 151.835 524.693 160.54 535.139 157.058C547.326 151.835 559.513 139.648 561.254 125.72C564.736 117.015 559.513 110.051 550.808 108.31Z" fill="#FFB6BF"/>
<path opacity="0.17" d="M260.043 278.929C258.302 277.188 254.82 275.447 253.079 277.188C251.338 278.929 249.597 280.67 247.856 282.411C242.633 284.152 239.151 292.857 240.892 298.08C240.892 301.562 240.892 305.045 240.892 308.527C242.633 312.009 246.115 313.749 249.597 312.008C253.079 310.267 256.561 305.045 260.043 299.822C263.526 294.599 265.267 285.893 260.043 278.929Z" fill="#FFB6BF"/>
<path opacity="0.17" d="M300.095 348.568C300.095 345.086 300.095 341.604 300.095 338.122C300.095 332.899 294.872 329.417 289.649 331.158C289.649 331.158 289.649 331.158 287.908 331.158C284.426 331.158 279.203 332.9 277.462 334.641C273.98 338.123 273.98 343.346 273.98 350.31C268.757 360.756 273.98 379.907 286.167 376.425C287.908 376.425 289.649 376.425 289.649 374.684C300.095 367.72 301.836 357.274 300.095 348.568Z" fill="#FFB6BF"/>
<path opacity="0.17" d="M364.511 237.144C357.547 237.144 357.547 247.59 364.511 247.59C371.475 245.849 371.475 237.144 364.511 237.144Z" fill="#FFB6BF"/>
<path opacity="0.17" d="M282.694 308.525C282.694 306.784 279.212 305.043 277.471 305.043C273.989 305.043 270.507 306.784 270.507 310.266C270.507 310.266 270.507 312.007 268.766 312.007C267.025 315.489 272.248 318.971 275.73 317.23C277.471 317.23 277.471 317.23 279.212 317.23C282.694 317.23 284.435 313.748 284.435 310.266C282.694 312.007 282.694 310.266 282.694 308.525Z" fill="#FFB6BF"/>
<path opacity="0.17" d="M413.254 247.591C411.513 247.591 409.772 247.591 409.772 247.591C408.031 244.109 406.29 240.627 401.067 238.886C392.362 237.145 383.657 244.109 383.657 252.814C383.657 258.037 387.139 263.26 392.362 265.001C392.362 266.742 392.362 268.483 392.362 270.224C394.103 275.447 401.067 277.188 404.549 271.965C404.549 270.224 404.549 270.224 406.29 268.483C411.513 266.742 416.736 258.037 418.477 252.814C418.477 252.814 416.736 249.332 413.254 247.591Z" fill="#FFB6BF"/>
<path opacity="0.17" d="M397.588 188.395C388.883 188.395 381.919 198.841 383.66 207.546C383.66 209.287 383.66 211.028 385.401 214.51C387.142 217.992 390.624 217.992 392.365 216.251C395.847 216.251 399.329 216.251 401.07 214.51C402.811 214.51 402.811 214.51 404.552 214.51C406.293 214.51 408.034 212.77 409.775 212.77C413.257 202.324 409.775 188.395 397.588 188.395Z" fill="#FFB6BF"/>
<path opacity="0.17" d="M310.541 235.403C310.541 233.662 308.801 231.921 307.06 231.921C307.06 230.18 305.318 230.18 305.318 231.921C303.577 231.921 303.577 231.921 301.836 231.921C298.354 231.921 294.872 237.144 298.354 240.626C301.836 242.367 303.577 244.108 307.06 242.367C310.542 240.626 312.282 237.144 310.541 235.403Z" fill="#FFB6BF"/>
<path opacity="0.17" d="M354.07 167.503C347.106 169.244 336.66 179.69 343.624 186.654C345.365 188.395 347.106 188.395 348.847 186.654C350.588 184.913 350.588 183.172 352.329 181.431C354.07 183.172 355.811 183.172 357.552 181.431C359.293 177.949 359.293 176.208 361.034 172.726C361.034 169.244 357.552 165.762 354.07 167.503Z" fill="#FFB6BF"/>
<path opacity="0.17" d="M387.151 435.619C385.41 433.878 385.41 433.878 387.151 435.619C385.41 432.137 383.669 430.396 381.928 430.396C380.187 430.396 380.187 428.655 378.446 428.655C376.705 426.914 373.222 428.655 371.481 432.137C369.74 433.878 369.74 435.619 369.74 437.36C366.258 442.583 364.517 447.806 364.517 454.77C362.776 461.735 364.517 477.403 374.963 477.403C385.41 477.403 388.892 463.476 390.633 456.512C388.892 447.807 388.892 440.842 387.151 435.619Z" fill="#FFB6BF"/>
<path opacity="0.17" d="M524.693 404.281C521.211 400.799 517.729 402.54 517.729 406.022C517.729 412.986 519.47 414.727 526.434 418.209C529.916 419.95 531.657 418.209 533.398 414.727C535.139 411.245 535.139 409.504 535.139 406.022C533.398 402.54 528.175 400.799 524.693 404.281Z" fill="#FFB6BF"/>
<path opacity="0.17" d="M327.951 621.908C327.951 621.908 327.951 620.167 327.951 621.908C329.692 616.685 326.21 611.462 320.987 611.462C320.987 611.462 320.987 611.462 319.246 611.462C315.764 609.721 308.8 609.721 303.577 613.203C298.354 616.685 294.872 623.649 294.872 630.613C294.872 634.095 296.613 639.318 298.354 642.8C298.354 644.541 298.354 644.541 300.095 646.282C301.836 651.505 308.8 651.505 312.282 648.023L314.023 646.282C320.987 644.541 326.21 639.318 327.951 632.354C329.692 628.872 327.951 625.39 327.951 621.908Z" fill="#FFB6BF"/>
<path opacity="0.17" d="M157.339 360.756L155.598 362.497C153.857 362.497 152.116 365.979 152.116 367.72C152.116 369.461 153.857 371.202 155.598 371.202C157.339 371.202 159.08 372.943 159.08 371.202C160.821 369.461 160.821 367.72 160.821 365.979C164.303 360.756 159.08 357.274 157.339 360.756Z" fill="#FFB6BF"/>
<path opacity="0.17" d="M705.755 61.3014C761.468 80.4526 731.87 169.244 677.899 153.575C658.748 148.352 643.079 130.942 648.302 110.05C651.784 90.8987 672.676 73.4886 691.827 75.2296C717.942 78.7116 724.906 104.827 707.496 123.978C700.532 130.942 662.23 150.093 665.712 120.496C667.453 111.791 677.899 104.827 684.863 101.345C686.604 99.6038 684.863 96.1218 683.122 97.8628C670.935 101.345 657.007 115.273 660.489 129.201C663.971 144.87 686.604 144.87 698.791 139.647C733.612 122.237 733.611 70.0065 688.345 70.0065C650.043 70.0065 625.669 120.496 655.266 146.611C679.64 169.244 716.201 164.021 733.612 136.165C751.022 106.568 742.317 70.0065 705.755 61.3014Z" fill="#FFB6BF"/>
<path opacity="0.17" d="M672.666 430.398C663.961 426.916 648.292 428.657 643.069 439.103C637.846 447.808 646.551 456.512 655.256 458.253C656.997 458.253 656.997 456.513 656.997 454.772C653.515 451.29 650.033 451.29 648.292 444.326C648.292 439.102 648.292 439.103 653.515 437.362C658.738 433.88 665.702 433.879 670.925 435.62C684.853 439.102 693.558 454.772 683.112 465.218C670.925 477.405 646.551 479.146 634.363 465.218C627.399 454.772 627.399 440.844 634.363 430.398C643.069 416.469 658.738 412.987 674.407 416.469C674.407 416.469 676.148 416.469 674.407 414.728C658.738 409.505 639.587 411.246 629.141 426.915C622.176 439.102 620.435 456.513 629.141 468.7C641.328 484.369 665.702 484.369 679.63 473.923C700.522 459.995 693.558 437.362 672.666 430.398Z" fill="#FFB6BF"/>
<path opacity="0.17" d="M427.19 658.469C416.744 654.987 404.557 660.21 395.852 661.951C387.146 663.692 371.477 665.433 380.182 648.023C383.664 642.8 388.887 639.318 394.111 635.836C397.593 634.095 402.816 632.354 406.298 632.354C416.744 632.354 416.744 635.836 408.039 642.8C406.298 642.8 406.298 648.023 408.039 646.282C430.672 642.8 418.485 623.649 401.074 625.39C387.146 627.131 354.067 654.987 378.441 665.433C387.146 668.915 397.593 663.692 404.557 661.951C415.003 660.21 425.449 656.728 430.672 667.174C437.636 677.62 428.931 691.548 420.226 696.771C404.557 705.476 381.923 696.771 367.995 686.325C359.29 679.361 350.585 670.656 350.585 658.469C350.585 641.059 366.254 625.39 381.923 623.649C354.067 621.908 336.657 654.987 350.585 677.62C362.772 696.771 395.851 712.44 418.485 703.735C439.377 698.512 449.823 668.915 427.19 658.469Z" fill="#FFB6BF"/>
<path opacity="0.17" d="M150.366 743.78C125.992 752.485 132.956 794.269 155.589 799.492C159.071 799.492 160.812 796.01 157.33 794.269C146.884 790.787 139.92 782.082 141.661 769.895C141.661 761.19 146.884 745.52 159.071 749.002C179.963 752.484 183.445 797.751 174.74 811.679C164.294 829.089 143.402 820.384 131.215 809.938C120.769 799.492 115.546 787.305 115.546 773.377C115.546 747.261 146.884 701.995 178.222 721.146C166.035 708.959 145.143 715.923 132.956 724.628C115.546 738.556 106.841 762.931 110.323 783.823C115.546 809.938 160.812 849.982 179.963 813.42C186.927 797.751 181.704 733.334 150.366 743.78Z" fill="#FFB6BF"/>
<path opacity="0.17" d="M885.079 359.016C865.928 327.677 841.553 365.98 864.187 374.685C865.928 374.685 867.669 374.685 865.928 372.944C860.705 364.239 858.964 364.238 869.41 362.497C881.597 359.015 879.856 362.498 885.079 372.944C888.561 379.908 890.302 388.613 890.302 397.318C892.043 418.21 871.151 418.21 858.964 407.764C846.776 399.059 841.553 385.131 838.071 371.202C834.589 353.792 838.071 322.454 858.964 315.49C883.338 308.526 886.82 339.864 893.784 355.533C888.561 343.346 890.302 322.454 876.374 313.749C864.187 306.785 850.258 312.008 843.294 322.454C818.92 352.052 832.848 406.023 869.41 419.951C907.712 433.879 897.266 376.426 885.079 359.016Z" fill="#FFB6BF"/>
<path opacity="0.17" d="M632.63 804.715C613.479 785.564 585.622 799.491 587.363 827.348C587.363 855.204 620.443 877.837 630.889 843.017C630.889 841.276 627.407 839.535 627.407 841.276C596.068 890.024 578.658 783.823 622.184 804.715C643.076 815.161 646.558 853.463 632.63 870.873C613.479 893.506 589.104 867.391 583.881 848.24C580.399 830.83 582.14 808.197 592.586 794.269C576.917 811.679 571.694 841.276 582.14 862.168C590.845 883.06 618.702 898.729 636.112 879.578C653.522 860.427 650.04 822.125 632.63 804.715Z" fill="#FFB6BF"/>
<path opacity="0.17" d="M946.014 559.231C926.863 536.598 885.078 538.339 865.927 557.49C865.927 557.49 865.927 559.231 865.927 557.49C888.56 541.821 940.791 541.821 946.014 576.641C949.496 601.016 923.381 616.685 900.748 611.462C885.078 607.98 871.15 588.828 895.524 580.123C899.006 578.382 904.23 576.642 907.712 578.383C914.676 578.383 918.158 583.606 916.417 594.052C912.935 594.052 911.194 594.052 907.712 594.052C905.971 594.052 904.23 597.533 905.971 599.274C914.676 604.498 928.604 599.275 928.604 587.088C928.604 571.419 909.453 569.677 899.007 571.418C886.819 573.159 867.668 581.864 872.891 597.533C876.373 611.461 895.525 618.426 907.712 618.426C942.532 621.908 970.388 587.088 946.014 559.231Z" fill="#FFB6BF"/>
<path opacity="0.17" d="M1013.92 259.777C1001.73 245.849 987.802 247.59 977.356 261.518C959.946 284.152 954.723 339.864 984.32 355.533C1013.92 371.202 1010.44 317.231 1006.95 301.562C1005.21 292.856 1001.73 273.706 987.802 280.67C973.874 287.634 980.838 313.749 987.802 322.454C989.543 324.195 993.025 322.454 991.284 320.713C989.543 315.49 984.32 308.526 986.061 301.562C984.32 294.597 987.802 292.856 998.248 292.856C998.248 294.597 999.989 298.08 999.989 299.821C1001.73 306.785 1003.47 312.008 1003.47 318.972C1003.47 325.936 1003.47 336.382 1001.73 343.346C993.025 364.238 977.356 343.346 973.874 331.159C966.91 312.008 966.91 289.375 977.356 271.965C980.838 266.742 984.32 259.777 989.543 258.036C1003.47 252.813 1012.18 263.26 1017.4 273.706C1022.62 285.893 1022.62 301.562 1020.88 313.749C1026.1 296.339 1026.1 273.705 1013.92 259.777Z" fill="#FFB6BF"/>
<path opacity="0.17" d="M507.28 23C505.539 21.259 502.057 19.518 500.316 19.518C495.093 21.259 489.869 24.7409 488.128 29.9639C488.128 31.705 488.128 31.7049 488.128 33.4459C486.387 36.9279 486.388 40.4101 489.87 43.8921C491.611 45.6331 493.351 45.6331 495.093 43.8921H496.833C498.575 43.8921 502.057 43.892 503.798 42.151C505.539 40.41 505.539 40.41 507.28 38.669C509.021 35.187 509.021 29.964 507.28 23Z" fill="#FFB6BF"/>
<path opacity="0.17" d="M573.425 57.8203C571.684 57.8203 571.684 57.8203 573.425 57.8203C566.461 54.3382 566.461 64.7843 571.684 61.3023C571.684 61.3023 571.684 61.3023 573.425 61.3023C573.425 61.3023 573.425 59.5613 573.425 57.8203Z" fill="#FFB6BF"/>
<path opacity="0.17" d="M616.963 127.459C604.776 127.459 596.071 144.869 603.035 155.316C606.517 160.539 613.481 160.539 618.704 157.057C620.445 157.057 622.186 155.316 623.927 153.575C630.891 144.87 627.409 127.459 616.963 127.459Z" fill="#FFB6BF"/>
<path opacity="0.17" d="M623.921 367.721C618.698 372.944 627.403 378.167 630.885 372.944C632.626 369.462 627.403 364.239 623.921 367.721Z" fill="#FFB6BF"/>
<path opacity="0.17" d="M557.774 574.901C554.292 573.16 549.069 574.901 545.587 578.383C543.846 580.124 542.105 583.606 540.364 585.347C540.364 587.088 538.623 587.088 538.623 588.829C536.882 594.052 535.141 601.016 536.882 606.239C536.882 609.721 538.623 611.462 540.364 611.462C542.105 614.944 547.328 616.685 550.81 613.203C552.551 613.203 554.292 613.203 556.033 611.462C568.22 601.016 571.702 583.606 557.774 574.901Z" fill="#FFB6BF"/>
<path opacity="0.17" d="M578.66 707.218C578.66 703.736 575.178 700.254 571.696 700.254C557.768 700.254 552.545 715.923 554.286 728.11C556.027 733.333 564.732 733.333 566.473 728.11V726.369H568.214C578.66 722.887 580.401 714.182 578.66 707.218Z" fill="#FFB6BF"/>
<path opacity="0.17" d="M72.0286 759.448C70.2876 754.225 68.5466 750.743 65.0645 747.261C63.3235 745.52 56.3595 745.52 54.6185 749.002C49.3954 759.448 56.3594 771.635 66.8055 775.117C68.5465 775.117 68.5465 776.859 70.2875 776.859C73.7695 780.341 78.9926 775.117 77.2516 771.635C77.2516 766.412 73.7696 762.93 72.0286 759.448Z" fill="#FFB6BF"/>
<path opacity="0.17" d="M254.833 909.176C251.351 909.176 247.869 910.916 247.869 912.657C246.128 919.621 247.869 928.326 256.574 930.067C258.315 930.067 260.056 930.067 260.056 928.326L261.797 930.067C265.279 933.549 270.503 930.068 268.762 926.586C268.762 917.881 263.539 910.917 254.833 909.176Z" fill="#FFB6BF"/>
<path opacity="0.17" d="M803.247 383.389C796.283 388.612 794.542 397.317 798.024 404.281C799.765 409.504 808.47 406.022 808.47 400.799C810.211 400.799 810.211 399.058 810.211 397.317C810.211 393.835 810.211 390.353 810.211 385.13C811.952 383.389 806.729 381.648 803.247 383.389Z" fill="#FFB6BF"/>
<path opacity="0.17" d="M1027.84 557.49C1027.84 555.749 1027.84 554.008 1026.1 554.008C1024.36 550.526 1020.88 548.785 1017.4 552.267C1012.17 557.49 1008.69 566.195 1015.66 571.418C1017.4 573.159 1019.14 573.159 1020.88 571.418C1024.36 573.159 1027.84 571.418 1027.84 567.936C1027.84 564.454 1027.84 560.972 1027.84 557.49Z" fill="#FFB6BF"/>
<path opacity="0.17" d="M1008.69 832.571C1008.69 829.089 1008.69 827.348 1006.95 823.866C1006.95 816.902 994.759 816.902 996.5 823.866V825.607C996.5 827.348 996.5 827.349 996.5 829.09C996.5 830.831 996.5 830.831 998.241 830.831C998.241 832.572 998.241 832.571 999.982 834.312C999.982 839.535 1008.69 837.794 1008.69 832.571Z" fill="#FFB6BF"/>
<path opacity="0.17" d="M1100.96 540.08C1099.22 540.08 1099.22 540.08 1097.47 540.08C1093.99 540.08 1093.99 545.303 1097.47 545.303C1099.22 545.303 1099.22 545.303 1100.96 545.303C1104.44 543.562 1104.44 540.08 1100.96 540.08Z" fill="#FFB6BF"/>
<path opacity="0.17" d="M406.297 968.37C401.074 968.37 399.333 971.852 399.333 977.075C401.074 984.04 402.815 989.263 406.297 994.486C406.297 994.486 406.297 996.227 408.038 996.227C409.779 997.968 411.52 997.967 413.261 997.967C415.002 999.708 418.484 1001.45 420.225 1001.45C423.707 1001.45 427.189 999.708 427.189 997.967C430.671 982.298 421.966 966.629 406.297 968.37Z" fill="#FFB6BF"/>
<path opacity="0.17" d="M583.885 1105.91C585.626 1105.91 587.367 1104.17 587.367 1104.17C589.108 1086.76 568.216 1109.39 583.885 1105.91Z" fill="#FFB6BF"/>
<path opacity="0.17" d="M324.463 1050.2C319.24 1046.72 314.017 1044.98 308.794 1043.23C303.571 1041.49 296.607 1048.46 300.089 1053.68C303.571 1057.16 308.794 1062.39 314.017 1060.64C315.758 1060.64 317.499 1060.64 317.499 1062.39C326.204 1064.13 329.686 1055.42 324.463 1050.2Z" fill="#FFB6BF"/>
<path opacity="0.17" d="M756.252 876.096C740.582 877.837 728.395 891.766 723.172 905.694C721.431 909.176 723.172 912.658 726.654 914.399C740.582 919.622 756.252 909.176 759.734 895.248C761.475 891.766 763.216 890.025 764.957 886.543C766.698 879.578 761.475 874.355 756.252 876.096Z" fill="#FFB6BF"/>
<path opacity="0.17" d="M1046.99 752.485C1046.99 750.744 1046.99 747.262 1046.99 745.521C1046.99 745.521 1046.99 745.521 1046.99 743.78C1046.99 743.78 1046.99 743.78 1046.99 742.039C1046.99 740.298 1045.25 740.298 1043.51 740.298C1041.77 740.298 1040.03 740.298 1040.03 742.039C1036.54 745.521 1036.54 750.744 1040.03 754.226C1041.77 755.967 1041.77 755.967 1043.51 754.226C1043.51 755.967 1046.99 754.226 1046.99 752.485Z" fill="#FFB6BF"/>
<path opacity="0.17" d="M1050.47 468.699C1046.99 466.958 1041.77 468.699 1040.03 472.181C1036.55 480.886 1040.03 489.591 1043.51 496.555C1045.25 500.037 1046.99 500.038 1048.73 500.038C1052.22 503.52 1059.18 501.778 1059.18 496.555C1062.66 487.85 1062.66 473.922 1050.47 468.699Z" fill="#FFB6BF"/>
<path opacity="0.17" d="M923.381 160.538C921.64 155.315 918.158 151.833 912.935 151.833C911.194 150.092 909.453 150.092 907.712 148.351C904.23 146.61 899.007 150.092 899.007 153.574C899.007 164.02 904.23 176.208 914.676 177.949C916.417 181.431 918.158 183.171 921.64 184.913C925.122 186.654 930.345 186.653 930.345 183.171C933.827 176.207 930.345 167.502 923.381 160.538Z" fill="#FFB6BF"/>
<path opacity="0.17" d="M872.888 123.978C872.888 123.978 871.147 123.978 872.888 123.978C869.406 125.719 869.405 130.942 871.146 132.683C871.146 132.683 871.147 132.683 872.888 132.683C883.334 137.906 883.334 118.755 872.888 123.978Z" fill="#FFB6BF"/>
<path opacity="0.17" d="M935.562 348.569C935.562 346.828 933.821 345.087 933.821 346.828C932.08 345.087 928.598 346.828 926.857 348.569C923.375 353.792 923.375 359.015 925.116 364.238C925.116 365.979 926.857 367.72 928.598 367.72C930.339 371.202 933.821 372.943 937.303 369.461C942.526 364.238 940.785 355.533 935.562 348.569Z" fill="#FFB6BF"/>
<path opacity="0.17" d="M637.853 943.996C632.63 943.996 627.407 947.478 627.407 952.701C627.407 954.442 627.407 956.182 629.148 956.182V957.923C630.889 959.664 630.889 961.406 632.63 961.406C634.371 963.147 636.112 963.147 637.853 961.406C643.076 957.924 646.559 952.7 646.559 945.736C646.559 942.254 641.335 940.514 637.853 943.996Z" fill="#FFB6BF"/>
<path opacity="0.17" d="M183.439 179.69C183.439 177.949 181.698 177.949 181.698 177.949C179.957 176.208 176.475 176.208 174.734 177.949C174.734 177.949 172.993 177.949 172.993 179.69C169.511 183.172 166.029 186.654 166.029 191.877C166.029 195.359 166.029 198.842 169.511 202.324C169.511 204.065 171.252 204.065 172.993 204.065C174.734 204.065 176.475 204.065 178.216 202.324C181.699 197.101 185.181 193.619 186.922 186.655C185.181 183.173 185.18 181.431 183.439 179.69Z" fill="#FFB6BF"/>
<path opacity="0.17" d="M747.538 70.007C693.567 35.1867 634.372 38.6687 571.696 29.9636C562.991 28.2226 556.026 29.9636 547.321 26.4816C536.875 22.9996 531.652 16.0355 521.206 12.5534C498.573 7.33039 475.94 14.2946 455.048 22.9996C428.932 33.4457 404.558 45.6328 380.184 61.3019C362.774 71.748 345.364 83.9352 326.213 89.1583C312.284 94.3813 296.615 94.3812 282.687 96.1222C240.903 103.086 200.859 137.907 209.564 184.914C214.788 148.353 232.198 117.014 268.759 104.827C291.392 97.8632 314.025 99.6042 336.659 90.8991C381.925 73.489 420.227 40.4096 467.235 24.7405C477.681 21.2585 489.868 16.0354 502.055 16.0354C524.688 14.2944 533.393 28.2226 552.545 35.1867C562.991 40.4097 578.66 36.9278 590.847 36.9278C620.444 38.6688 648.3 38.6687 677.898 43.8918C702.272 49.1148 724.905 59.561 747.538 71.7481C749.279 75.2301 751.02 71.748 747.538 70.007Z" fill="#FFB6BF"/>
<path opacity="0.3" d="M409.78 430.396C404.557 440.842 402.816 454.769 401.075 466.956C395.852 493.072 395.852 507 376.701 524.41C359.291 540.079 357.55 562.712 376.701 580.122C378.442 580.122 378.442 580.123 378.442 578.382C361.032 548.785 387.147 533.115 399.334 513.964C406.298 501.777 406.298 484.367 409.78 470.439C413.262 456.511 415.003 439.1 423.708 426.913C448.082 397.316 484.644 418.208 491.608 449.546C491.608 453.028 496.831 451.287 498.572 449.546C498.572 395.575 428.931 388.611 409.78 430.396Z" fill="#321C13"/>
<path opacity="0.3" d="M599.549 520.93C592.585 519.189 583.88 519.189 576.916 513.966C568.211 508.743 566.47 498.297 566.47 487.85C566.47 472.181 575.175 456.512 585.621 446.066C585.621 446.066 585.621 444.325 583.88 444.325C566.47 447.807 557.765 480.886 559.506 496.556C561.247 515.707 580.398 531.376 599.549 524.412C599.549 522.671 601.29 520.93 599.549 520.93Z" fill="#321C13"/>
<path opacity="0.3" d="M712.719 367.72C690.086 365.979 670.935 359.015 655.266 341.605C636.114 320.713 634.373 303.303 639.596 277.187C641.337 265 641.337 254.554 636.114 242.367C629.15 224.957 601.294 202.324 623.927 186.655C623.927 186.655 623.927 184.914 623.927 186.655C611.74 191.878 606.517 193.619 608.258 207.547C609.999 216.252 618.704 223.216 622.186 230.18C630.891 244.109 637.855 259.777 634.373 277.187C632.632 287.634 629.15 292.857 629.15 305.044C632.632 341.605 676.158 385.131 712.719 374.684C716.201 371.202 714.46 367.72 712.719 367.72Z" fill="#321C13"/>
<path opacity="0.3" d="M329.692 285.893C341.879 285.893 348.843 294.598 357.548 299.821C355.807 278.929 319.246 270.224 307.059 287.634C298.354 299.821 303.577 315.491 312.282 324.196C320.987 332.901 333.174 336.383 329.692 352.052C327.951 360.757 322.728 367.721 324.469 376.426C326.21 379.908 329.692 379.908 331.433 376.426C334.915 365.98 341.879 352.052 340.138 341.606C338.397 329.419 326.21 325.936 319.246 318.972C307.059 305.044 310.541 284.152 329.692 285.893Z" fill="#321C13"/>
<path opacity="0.3" d="M188.682 388.612C164.308 390.353 134.711 407.763 127.747 433.878C126.006 442.583 127.747 454.771 119.042 459.994C119.042 459.994 105.114 461.735 103.373 463.476C94.6675 466.958 89.4445 473.922 85.9625 482.627C65.0703 524.411 117.301 580.124 159.085 554.008C162.567 552.267 160.826 547.044 157.344 548.785C138.193 554.008 117.301 550.526 103.373 536.598C82.4804 519.188 84.2215 463.476 126.006 468.699C127.747 468.699 129.488 468.699 129.488 466.958C132.97 458.252 131.229 451.288 132.97 442.583C138.193 414.727 162.567 397.317 188.682 392.094C190.423 390.353 190.423 388.612 188.682 388.612Z" fill="#321C13"/>
<path opacity="0.3" d="M811.94 440.842C803.235 439.101 768.415 440.842 775.379 458.252C775.379 459.993 777.12 459.993 778.861 458.252C784.084 454.77 785.825 449.547 791.048 447.806C798.012 444.324 806.717 446.065 813.681 446.065C831.091 447.806 841.537 454.77 850.242 468.698C855.466 453.029 824.127 442.583 811.94 440.842Z" fill="#321C13"/>
<path opacity="0.3" d="M766.689 660.21C744.056 663.692 735.351 653.246 735.351 628.872C738.833 620.166 742.315 613.203 745.797 604.497C749.279 599.274 751.02 594.051 752.761 587.087C757.984 573.159 761.466 555.749 756.243 541.821C752.761 531.375 744.056 526.151 737.092 519.187C719.681 505.259 704.012 501.777 709.235 470.439C710.976 453.029 731.868 418.208 754.502 440.842C756.243 442.583 756.243 440.842 756.243 439.101C745.797 416.468 723.163 428.655 710.976 444.324C691.825 470.439 695.307 496.554 719.681 517.447C728.386 524.411 738.833 529.633 744.056 538.339C754.502 557.49 745.797 580.123 737.092 599.274C730.127 613.202 719.681 628.871 724.904 644.541C730.128 661.951 752.761 675.879 768.43 663.692C771.912 663.692 768.43 660.21 766.689 660.21Z" fill="#321C13"/>
<path opacity="0.3" d="M824.135 729.851C811.948 708.959 770.164 722.887 754.495 731.592C738.826 740.297 733.603 755.967 724.898 769.895C717.933 782.082 710.969 789.046 717.933 802.974C717.933 787.305 723.156 780.341 731.861 766.413C738.826 754.226 744.049 742.039 756.236 735.075C773.646 724.629 801.502 719.405 818.912 731.592C822.394 735.074 825.876 733.333 824.135 729.851Z" fill="#321C13"/>
<path opacity="0.3" d="M1069.63 621.908C1057.44 613.203 1040.03 621.908 1031.33 630.614C1020.88 641.06 1015.66 654.987 1022.62 668.916H1024.36C1020.88 656.728 1027.85 642.8 1038.29 634.095C1047 625.39 1059.18 623.649 1071.37 623.649C1069.63 625.39 1069.63 623.65 1069.63 621.908Z" fill="#321C13"/>
<path opacity="0.3" d="M975.613 482.627C966.908 463.476 956.462 451.288 961.685 428.655C961.685 426.914 959.944 426.914 958.203 428.655C951.239 447.806 959.944 468.698 972.131 484.367C973.872 486.108 977.354 484.368 975.613 482.627Z" fill="#321C13"/>
<path opacity="0.3" d="M804.986 510.483C815.432 494.814 794.54 486.109 782.353 489.591C761.461 494.814 766.684 517.447 784.094 526.153C808.468 538.34 841.548 515.706 832.842 489.591C824.137 461.735 785.835 463.476 766.684 479.145C752.756 489.591 747.533 505.26 756.238 520.929C766.684 536.598 787.576 541.821 804.986 540.08C806.727 540.08 806.727 538.339 804.986 538.339C792.799 536.598 778.871 534.858 768.425 526.153C754.497 513.965 756.238 496.555 770.166 486.109C780.612 479.145 792.799 475.663 804.986 479.145C817.173 482.627 825.878 494.814 820.655 508.742C815.432 519.188 803.245 524.411 791.058 520.929C785.835 519.188 771.907 510.483 777.13 503.519C782.353 494.814 803.245 498.296 798.022 510.483C796.281 510.483 803.245 512.224 804.986 510.483Z" fill="#321C13"/>
<path opacity="0.3" d="M484.643 524.412C474.197 498.297 451.563 487.851 439.376 519.189C434.153 533.117 434.153 566.196 453.304 571.419C468.973 574.901 470.714 548.786 470.714 540.081C470.714 536.599 465.491 536.599 465.491 540.081C465.491 543.563 465.491 552.268 462.009 555.75C448.081 559.232 441.117 554.009 442.858 541.822C442.858 536.599 442.858 529.635 446.34 524.412C455.045 505.261 467.232 507.002 474.197 522.671C481.161 538.34 486.384 560.974 481.161 578.384C474.197 599.276 451.563 609.722 434.153 592.312C421.966 578.384 416.743 557.491 416.743 540.081C416.743 522.671 420.225 505.261 428.93 489.592C441.117 466.959 456.786 472.182 474.197 482.628C474.197 482.628 475.938 482.628 474.197 482.628C465.491 473.923 453.304 463.476 439.376 468.7C420.225 475.664 413.261 505.261 409.779 522.671C404.556 550.527 416.743 623.65 462.009 609.722C498.571 595.794 495.089 550.527 484.643 524.412Z" fill="#321C13"/>
<path opacity="0.3" d="M730.125 258.036C702.269 251.071 658.743 256.295 662.225 292.856C665.707 216.251 815.435 285.892 745.794 332.9C726.643 345.087 690.082 350.31 672.672 332.9C644.815 305.043 710.974 270.223 723.161 312.007C724.902 315.489 728.384 313.748 728.384 312.007C731.866 280.669 683.118 280.669 667.449 296.338C644.815 317.23 663.966 345.087 688.341 350.31C714.456 357.274 752.758 348.569 764.945 322.453C782.356 292.856 756.24 265 730.125 258.036Z" fill="#321C13"/>
<path opacity="0.3" d="M373.213 336.381C371.472 332.899 366.249 329.417 362.767 331.158C357.544 332.899 355.803 338.122 354.062 343.345C355.803 339.863 361.026 332.899 366.249 336.381C369.731 338.122 371.472 341.604 371.472 345.086C373.213 353.791 369.731 364.237 362.767 369.46C359.285 372.942 352.321 374.683 347.098 371.201C341.875 367.719 348.839 360.755 352.321 357.273C354.062 355.532 352.321 353.791 350.58 353.791C343.616 357.273 334.911 367.719 343.616 374.683C350.58 381.647 362.767 378.165 369.731 372.942C376.695 362.496 380.177 346.827 373.213 336.381Z" fill="#321C13"/>
<path opacity="0.3" d="M394.106 764.671C376.696 761.189 355.803 773.376 340.134 778.599C300.091 789.045 287.904 761.189 263.53 738.555C246.12 721.145 221.745 714.181 204.335 735.074C190.407 752.484 188.666 782.081 204.335 799.491C204.335 799.491 206.076 799.491 204.335 799.491C190.407 769.894 206.076 707.217 249.601 736.814C268.753 750.742 279.199 775.117 300.091 787.304C317.501 796.009 333.17 790.786 350.58 785.563C357.544 783.822 385.401 771.635 392.365 775.117C399.329 778.599 394.106 797.75 392.365 802.973C392.365 806.455 387.142 813.419 385.401 816.901C383.66 822.124 392.365 825.606 394.106 820.383C399.329 802.973 425.444 769.894 394.106 764.671Z" fill="#321C13"/>
<path opacity="0.3" d="M92.922 607.981C89.44 604.499 84.2169 601.017 78.9939 601.017C73.7708 601.017 72.0298 604.498 68.5478 606.239C65.0658 606.239 63.3248 604.498 58.1017 606.239C54.6197 607.98 52.8787 611.463 51.1376 616.686C40.6915 639.319 47.6556 675.88 68.5478 691.55C70.2888 693.291 72.0299 689.808 72.0299 688.067C61.5838 674.139 52.8786 660.211 52.8786 642.801C52.8786 632.355 52.8787 607.981 68.5478 613.204C70.2888 613.204 70.2889 613.204 72.0299 611.463C77.2529 604.499 85.958 606.24 92.922 607.981C92.922 607.981 92.922 609.722 92.922 607.981Z" fill="#321C13"/>
<path opacity="0.3" d="M453.303 104.827C442.857 104.827 432.411 108.309 425.447 117.014C413.26 130.942 415.001 164.021 439.375 160.539C430.67 157.057 423.706 151.834 423.706 143.129C423.706 136.165 425.447 127.46 430.67 122.237C435.893 117.014 444.598 113.532 451.562 113.532C460.267 113.532 463.749 117.014 468.972 123.978C470.713 123.978 472.454 123.978 472.454 123.978C472.454 111.791 462.008 104.827 453.303 104.827Z" fill="#321C13"/>
<path opacity="0.3" d="M293.133 141.388C282.687 141.388 282.687 151.834 282.687 158.798C279.205 157.057 275.723 157.057 272.241 155.316C270.5 155.316 270.5 155.316 268.759 155.316C260.054 165.762 270.5 198.842 284.428 186.655V184.913C275.723 184.913 272.241 179.69 272.241 170.985C272.241 169.244 270.5 164.021 272.241 162.28C273.982 160.539 272.241 160.539 273.982 162.28C277.464 162.28 280.946 165.762 284.428 167.503C286.169 169.244 289.651 167.503 289.651 164.021C289.651 158.798 287.91 141.388 298.356 150.093C301.838 153.575 303.579 158.798 305.32 162.28C307.061 164.021 310.543 164.021 310.543 160.539C307.061 153.575 301.838 141.388 293.133 141.388Z" fill="#321C13"/>
<path opacity="0.3" d="M623.926 49.1136C616.961 50.8547 608.256 64.7826 616.961 68.2646C616.961 68.2646 618.702 68.2648 618.702 66.5238C618.702 63.0418 616.961 61.3007 618.702 57.8187C618.702 56.0777 620.444 52.5956 623.926 52.5956C629.149 49.1136 632.631 50.8547 632.631 57.8187C637.854 50.8547 630.89 45.6316 623.926 49.1136Z" fill="#321C13"/>
<path opacity="0.3" d="M789.32 148.352C782.356 151.834 778.874 164.021 787.579 169.244C789.32 169.244 791.061 169.244 791.061 167.503C789.32 162.28 787.579 157.057 792.802 153.575C798.025 150.093 801.508 155.316 803.249 158.798C803.249 158.798 803.249 158.798 804.99 158.798C806.731 150.093 796.285 144.87 789.32 148.352Z" fill="#321C13"/>
<path opacity="0.3" d="M890.306 193.618C883.342 190.136 876.378 191.877 871.155 198.841C862.45 212.769 874.637 237.143 885.083 247.589C886.824 249.33 890.306 247.589 890.306 244.107C885.083 233.661 876.378 223.215 876.378 211.028C876.378 207.546 876.378 204.064 879.86 200.582C883.342 197.1 888.565 198.841 892.047 202.323C895.529 205.805 899.011 211.028 902.493 214.51H904.234C900.752 205.805 897.27 198.841 890.306 193.618Z" fill="#321C13"/>
<path opacity="0.3" d="M1047 371.202C1038.29 376.425 1033.07 386.871 1038.29 395.576C1034.81 399.058 1031.33 404.281 1029.59 409.504C1029.59 414.727 1031.33 421.691 1036.55 419.95C1036.55 419.95 1038.29 419.95 1036.55 418.209C1034.81 414.727 1033.07 412.986 1033.07 407.763C1034.81 402.54 1036.55 399.058 1041.77 397.317C1043.52 395.576 1043.52 393.835 1041.77 393.835C1036.55 386.871 1041.77 379.907 1048.74 376.425C1057.44 372.943 1062.67 378.166 1064.41 386.871C1064.41 388.612 1067.89 388.612 1067.89 386.871C1069.63 372.943 1059.18 364.238 1047 371.202Z" fill="#321C13"/>
<path opacity="0.3" d="M167.776 289.375C164.294 287.634 162.553 284.152 159.071 282.411C152.107 278.929 146.884 280.669 141.661 285.892V287.634C143.402 292.857 146.884 299.821 150.366 305.044C150.366 301.562 148.625 298.08 146.884 296.339C146.884 294.598 143.402 291.116 145.143 289.375C146.884 282.411 155.589 285.893 159.071 287.634C164.294 291.116 169.517 299.821 176.481 299.821C178.222 299.821 178.222 298.08 178.222 296.339C174.74 292.857 171.258 291.116 167.776 289.375Z" fill="#321C13"/>
</svg>
