<svg width="1456" height="1456" viewBox="0 0 1456 1456" fill="none" xmlns="http://www.w3.org/2000/svg">
<path d="M1291.25 892.455C1381.88 581.346 1203.15 255.67 892.043 165.036C580.934 74.403 255.258 253.134 164.625 564.242C73.9915 875.351 252.722 1201.03 563.831 1291.66C874.939 1382.29 1200.62 1203.56 1291.25 892.455Z" fill="#3264AE"/>
<path d="M563.32 435.948C629.479 446.395 693.897 462.064 761.797 462.064C829.696 463.805 887.149 444.654 949.826 422.02C981.164 409.833 1012.5 399.387 1045.58 397.646C1085.63 394.164 1120.45 409.833 1155.27 425.502C1186.6 439.43 1214.46 446.395 1244.06 444.654C1244.06 442.913 1242.32 441.171 1242.32 439.43C1228.39 439.43 1214.46 437.689 1200.53 434.207C1153.53 422.02 1113.48 390.682 1064.73 388.941C1010.76 387.2 960.272 409.833 911.523 428.985C847.106 453.359 784.43 458.582 716.53 451.618C659.077 444.653 601.623 430.725 544.17 425.502C465.824 418.538 389.219 455.1 316.097 477.733C274.312 491.661 229.046 505.589 183.779 509.071C182.038 510.812 182.038 514.294 180.297 516.035C303.909 510.812 444.931 418.538 563.32 435.948Z" fill="#3264AE"/>
<path d="M300.425 1128.87C350.915 1127.13 401.404 1121.91 451.893 1113.2C484.973 1107.98 519.793 1099.28 552.873 1095.79C603.362 1090.57 648.628 1109.72 695.635 1127.13C796.614 1165.43 894.112 1156.73 996.831 1134.1C1059.51 1120.17 1123.92 1107.98 1186.6 1094.05C1188.34 1092.31 1190.08 1088.83 1193.57 1085.35C1148.3 1095.79 1104.77 1106.24 1059.51 1114.94C949.824 1137.58 836.658 1167.18 726.974 1130.61C686.931 1116.69 648.628 1097.53 606.844 1090.57C572.023 1085.35 538.944 1090.57 505.865 1097.53C436.224 1111.46 366.584 1121.91 296.943 1123.65C296.943 1127.13 298.684 1127.13 300.425 1128.87Z" fill="#3264AE"/>
<path opacity="0.47" d="M1003.8 939.102C993.35 940.843 996.833 956.512 1007.28 956.512C1062.99 956.512 1116.96 949.548 1170.93 958.253C1143.08 977.404 1099.55 973.922 1069.96 984.368C1019.47 1000.04 979.422 1026.15 925.451 1019.19C894.113 1013.97 866.257 1008.74 834.919 1015.71C780.947 1026.15 753.091 1034.86 702.601 1010.48C636.443 979.145 566.802 993.073 497.162 1000.04C484.974 1001.78 364.844 1000.04 366.585 1017.45C366.585 1019.19 366.585 1020.93 366.585 1020.93C366.585 1026.15 370.067 1029.63 373.549 1031.38C439.708 1059.23 514.572 1043.56 584.212 1043.56C652.112 1043.56 720.011 1083.61 786.17 1066.2C805.321 1060.97 822.731 1052.27 841.882 1048.79C873.221 1041.82 899.336 1050.53 930.675 1054.01C963.754 1057.49 993.351 1048.79 1024.69 1036.6C1068.21 1019.19 1104.78 1008.74 1150.04 998.296C1176.16 991.332 1191.83 980.886 1205.75 959.994C1210.98 953.03 1204.01 942.584 1197.05 942.584C1136.11 921.692 1066.47 926.915 1003.8 939.102Z" fill="#60BFEE"/>
<path opacity="0.47" d="M951.565 498.625C890.63 514.294 831.436 500.366 770.501 509.071C716.529 517.776 678.226 571.747 624.255 566.524C584.212 563.042 544.168 549.114 502.384 545.632C457.117 542.15 410.11 540.409 364.844 547.373C307.39 556.078 190.742 583.934 183.778 655.316C182.037 664.021 190.742 674.467 201.188 670.985C230.786 658.798 255.16 639.647 284.757 627.46C321.318 613.532 359.621 608.309 397.923 601.345C437.966 594.38 476.269 585.675 516.312 582.193C558.097 578.711 598.14 594.381 638.183 589.157C671.263 585.675 690.414 564.783 716.529 547.373C768.759 512.553 827.954 524.74 887.149 522.999C988.128 521.258 1083.88 444.653 1177.9 514.294C1184.86 519.517 1193.57 510.812 1186.6 503.848C1120.44 439.43 1028.17 479.474 951.565 498.625Z" fill="#60BFEE"/>
<path opacity="0.47" d="M1019.47 709.289C975.941 717.994 946.343 747.592 899.336 751.074C854.07 754.556 807.063 747.592 760.055 747.592C666.04 747.592 577.248 771.966 486.716 794.599C385.737 818.973 284.758 827.679 180.297 838.125C161.146 839.866 155.923 871.204 176.815 874.686C277.794 892.096 382.255 869.463 478.011 838.125C587.695 803.304 685.191 768.484 801.839 770.225C847.106 770.225 894.113 777.189 937.638 761.52C988.128 744.11 1021.21 714.513 1080.4 724.959C1150.04 737.146 1217.94 763.261 1275.4 705.807C1280.62 700.584 1273.65 691.879 1266.69 697.102C1184.86 765.002 1108.26 690.138 1019.47 709.289Z" fill="#60BFEE"/>
<path opacity="0.47" d="M777.467 296.668C744.388 301.891 726.978 328.006 699.122 345.416C631.222 390.683 561.582 355.862 488.459 350.639C434.487 345.416 382.257 355.862 331.768 373.272V375.013C411.854 347.157 481.495 352.38 563.322 368.05C606.848 375.014 650.373 380.237 690.417 357.603C709.568 347.157 723.496 328.006 740.906 315.819C773.985 294.927 807.065 296.668 843.626 308.855C890.634 322.783 923.713 336.711 965.497 303.632V301.891C901.08 355.862 843.626 286.222 777.467 296.668Z" fill="#60BFEE"/>
<path opacity="0.47" d="M1033.39 1165.43C1007.27 1222.89 960.265 1203.74 911.517 1212.44C869.732 1219.41 840.136 1254.23 800.092 1266.41C739.157 1283.82 688.667 1247.26 629.473 1236.82C585.947 1229.85 540.681 1229.85 497.155 1233.33V1235.07C570.278 1228.11 636.436 1238.56 706.077 1262.93C744.379 1275.12 779.2 1282.08 817.503 1264.67C841.877 1252.48 861.028 1233.33 887.143 1222.89C914.999 1210.7 941.114 1215.92 970.712 1214.18C1003.79 1210.7 1021.2 1196.77 1033.39 1165.43C1035.13 1163.69 1035.13 1165.43 1033.39 1165.43Z" fill="#60BFEE"/>
<path opacity="0.3" d="M302.165 667.505C284.755 674.469 277.792 691.879 283.015 707.548C283.015 717.994 289.979 730.181 298.684 737.145C319.576 751.074 347.432 759.779 373.547 759.779C403.144 766.743 432.742 761.52 451.893 735.404C462.339 721.476 462.339 704.066 450.152 691.879C411.849 653.577 349.173 648.354 302.165 667.505Z" fill="#60BFEE"/>
<path opacity="0.3" d="M535.465 702.324C537.206 721.475 565.062 719.734 563.321 700.583C561.58 683.173 533.724 684.914 535.465 702.324Z" fill="#60BFEE"/>
<path opacity="0.3" d="M1009.03 564.783C965.503 547.373 895.862 552.596 906.308 610.05C916.754 664.021 986.395 662.28 1035.14 648.352C1089.12 691.877 1195.32 683.172 1179.65 596.122C1163.98 512.553 1049.07 503.848 1009.03 564.783Z" fill="#60BFEE"/>
<path opacity="0.3" d="M1000.32 512.554C995.094 516.036 993.352 523 995.093 528.223C998.575 535.187 1009.02 535.187 1010.76 528.223C1010.76 528.223 1012.5 528.223 1012.5 526.482C1014.24 524.741 1014.24 524.741 1014.24 523C1015.99 521.259 1015.99 517.777 1014.24 516.036C1012.5 510.813 1005.54 509.072 1000.32 512.554Z" fill="#60BFEE"/>
<path opacity="0.3" d="M800.11 848.571C796.628 850.312 793.146 853.794 791.405 857.276C779.218 862.499 767.031 871.204 758.325 881.65C754.843 885.132 753.102 888.614 751.361 893.837C749.62 895.578 747.88 895.578 744.398 897.319C742.657 899.06 740.915 900.801 740.915 902.542C746.138 937.362 787.923 963.478 822.743 968.701C859.305 973.924 902.83 944.326 906.312 906.024C909.794 872.945 880.196 853.794 850.599 848.571C847.117 848.571 843.635 848.571 841.894 848.571C829.707 841.607 814.038 839.866 800.11 848.571Z" fill="#60BFEE"/>
<path opacity="0.3" d="M1146.56 810.267C1146.56 818.972 1148.3 825.936 1153.53 832.901C1155.27 834.642 1155.27 836.383 1157.01 838.124C1157.01 839.865 1158.75 839.865 1158.75 841.606C1158.75 843.347 1162.23 846.828 1158.75 843.346C1163.97 853.793 1176.16 864.239 1188.35 857.275C1198.79 852.052 1209.24 845.087 1214.46 834.641C1217.94 827.677 1216.2 817.231 1210.98 810.267C1207.5 805.044 1202.27 803.303 1197.05 803.303C1191.83 794.598 1181.38 789.375 1170.94 787.634C1158.75 787.634 1144.82 796.339 1146.56 810.267Z" fill="#60BFEE"/>
<path opacity="0.3" d="M251.684 1007C251.684 1015.71 255.167 1024.41 256.908 1033.12C260.39 1059.23 279.541 1080.12 305.656 1087.09H307.397C317.843 1090.57 330.03 1090.57 340.476 1085.35C352.663 1078.38 350.922 1062.71 342.217 1054.01C338.735 1050.53 333.512 1047.05 330.03 1045.3C324.807 1019.19 309.138 998.297 283.023 986.11C269.095 979.146 249.943 989.592 251.684 1007Z" fill="#60BFEE"/>
<path opacity="0.3" d="M606.845 225.286C596.399 228.768 589.435 235.732 580.73 240.955C570.284 247.919 566.802 265.329 577.248 274.034C585.953 280.998 594.659 286.221 605.105 286.221C613.81 286.221 620.774 280.998 627.738 277.516C632.961 274.034 634.702 270.552 636.443 265.329C643.407 265.329 650.371 260.106 653.853 253.142C657.335 244.437 653.853 232.25 645.148 228.768C634.702 225.286 620.773 220.063 606.845 225.286Z" fill="#60BFEE"/>
<path opacity="0.3" d="M763.537 620.496C763.537 636.165 789.652 636.165 789.652 618.755C787.911 603.086 763.537 603.086 763.537 620.496Z" fill="#60BFEE"/>
<path opacity="0.3" d="M996.849 268.812L998.59 272.294C1005.55 287.963 1026.45 286.222 1031.67 270.553L1033.41 267.071C1036.89 254.884 1026.45 244.438 1014.26 244.438C1002.07 246.179 991.626 258.366 996.849 268.812Z" fill="#60BFEE"/>
<path opacity="0.3" d="M821 223.544C815.777 227.026 812.296 232.249 814.037 239.213C815.778 246.177 822.742 247.918 827.965 247.918C836.67 246.177 840.152 237.472 834.929 232.249C834.929 230.508 834.929 228.767 833.188 227.026C831.447 221.803 826.223 220.062 821 223.544Z" fill="#60BFEE"/>
<path opacity="0.3" d="M606.846 1153.25C671.263 1188.07 777.466 1222.89 848.847 1196.77C859.293 1193.29 859.293 1177.62 847.106 1174.14C808.803 1163.69 767.019 1170.66 728.717 1163.69C690.415 1156.73 652.113 1144.54 613.81 1134.1C603.364 1130.61 598.141 1148.02 606.846 1153.25Z" fill="#60BFEE"/>
<path opacity="0.26" d="M1029.91 225.286C934.153 167.833 819.246 136.494 699.116 141.718C375.287 157.387 126.322 432.467 141.991 756.296C145.473 813.749 155.919 869.462 173.329 921.692C302.165 989.592 465.82 993.074 606.842 951.29C955.045 852.052 1139.59 495.143 1029.91 225.286Z" fill="#60BFEE"/>
<path opacity="0.47" d="M1179.64 354.122C1177.9 355.863 1177.9 359.345 1176.15 361.086C1146.56 428.985 1153.52 521.259 1122.18 596.123C1064.73 735.404 979.42 855.534 843.621 928.657C622.512 1047.05 415.331 1066.2 215.114 1012.23C319.575 1202 526.756 1325.61 758.311 1315.16C1082.14 1299.49 1331.1 1024.41 1315.44 700.584C1308.47 568.267 1257.98 448.137 1179.64 354.122Z" fill="#329693"/>
<path opacity="0.47" d="M1315.43 700.582C1311.95 629.201 1296.28 563.042 1270.17 500.365C1245.79 575.229 1238.83 657.057 1209.23 731.921C1165.71 841.605 1096.06 928.655 1002.05 1000.04C894.107 1081.86 744.38 1132.35 613.804 1163.69C514.566 1188.07 432.738 1189.81 350.911 1179.36C370.062 1195.03 389.213 1208.96 410.105 1222.89C575.501 1255.97 751.344 1240.3 906.294 1174.14C1068.21 1104.5 1198.78 1017.45 1273.65 852.051C1282.35 832.899 1299.76 789.374 1315.43 740.626C1315.43 724.956 1315.43 712.769 1315.43 700.582Z" fill="#329693"/>
<path opacity="0.26" d="M716.537 232.25C638.192 173.055 484.982 256.624 417.083 303.631C309.14 378.495 185.527 554.337 260.391 691.877C326.55 813.748 488.464 808.525 594.666 758.036C699.127 709.288 784.437 644.87 834.927 538.668C888.898 422.02 878.452 256.624 716.537 232.25Z" fill="#60BFEE"/>
<path opacity="0.26" d="M455.378 287.964C330.025 324.525 204.672 613.534 422.299 594.383C643.408 576.972 617.292 214.841 455.378 287.964Z" fill="#60BFEE"/>
</svg>
