<svg width="2315" height="1469" viewBox="0 0 2315 1469" fill="none" xmlns="http://www.w3.org/2000/svg">
<path d="M1367.82 1259.88C1649.97 1144.54 1782.56 815.811 1663.94 525.64C1545.33 235.47 1220.44 93.7404 938.277 209.079C656.117 324.418 523.537 653.149 642.151 943.32C760.764 1233.49 1085.66 1375.22 1367.82 1259.88Z" fill="#31ADE0"/>
<path opacity="0.76" d="M851.785 1204.72C898.792 1236.05 951.023 1262.17 1004.99 1277.84C1032.85 1276.1 1058.97 1272.62 1083.34 1269.13C1126.87 1262.17 1341.01 1197.75 1328.82 1138.56C1311.41 1145.52 1294 1150.74 1274.85 1154.23C1368.87 1082.85 1574.31 1037.58 1612.61 910.485C1598.68 915.708 1577.79 915.708 1563.86 919.19C1602.16 873.924 1656.13 833.88 1703.14 788.614C1704.88 762.499 1704.88 736.383 1703.14 710.268C1586.49 826.916 1450.69 933.118 1302.71 990.572C1346.23 941.823 1565.6 846.067 1532.52 757.275C1393.24 816.47 1285.3 954.01 1161.69 1039.32C1081.6 1093.29 999.771 1147.26 910.979 1183.82C893.569 1192.53 872.677 1199.49 851.785 1204.72Z" fill="#60BFEE"/>
<path opacity="0.76" d="M609.792 609.29C588.9 712.01 595.864 821.694 634.166 924.414C688.138 865.219 728.181 772.945 787.375 725.938C816.973 703.305 1057.23 569.247 1039.82 527.462C1015.45 471.75 850.052 598.844 813.491 579.693C895.318 503.088 1013.71 435.189 1119.91 398.627C1173.88 379.476 1234.82 363.807 1290.53 353.361C1332.31 346.397 1384.54 353.361 1422.85 328.987C1450.7 311.577 1466.37 295.907 1473.34 280.238C1442 255.864 1407.18 236.713 1370.62 219.302C1370.62 219.302 1370.62 219.302 1368.87 219.302C1238.3 231.49 1102.5 302.871 987.592 356.843C836.124 428.224 703.807 506.57 609.792 609.29Z" fill="#60BFEE"/>
<path opacity="0.76" d="M862.24 1007.98C978.888 985.349 1118.17 913.967 1212.18 840.844C1269.64 797.319 1375.84 727.678 1389.77 654.556C1344.5 677.189 1234.82 779.909 1191.29 753.794C1231.34 692.858 1314.9 654.556 1374.1 614.512C1398.47 598.843 1518.6 551.836 1513.38 510.052C1502.93 445.634 1220.89 611.031 1196.52 624.959C1039.82 713.75 853.535 811.247 862.24 1007.98Z" fill="#60BFEE"/>
<path opacity="0.76" d="M778.688 1063.69C796.099 1046.28 876.185 931.376 822.214 913.966C773.465 898.297 655.076 1081.1 749.091 1091.55L778.688 1063.69Z" fill="#60BFEE"/>
<path opacity="0.76" d="M1515.12 637.147C1556.9 633.664 1666.58 588.398 1670.07 536.168C1617.84 513.535 1534.27 577.952 1504.67 617.995L1515.12 637.147Z" fill="#60BFEE"/>
<path opacity="0.76" d="M815.24 591.879C857.024 595.361 893.585 570.987 930.147 551.836C940.593 546.613 1025.9 503.087 1027.64 530.943C1027.64 534.425 1032.87 536.166 1032.87 532.684C1045.05 501.346 998.046 513.533 984.118 517.015C924.924 536.166 874.434 574.469 813.499 588.397C813.499 588.397 813.499 591.879 815.24 591.879Z" fill="#60BFEE"/>
<path opacity="0.76" d="M785.642 459.562C742.117 492.642 695.109 520.498 658.548 560.541C658.548 560.541 658.548 562.282 660.289 560.541C700.332 520.498 752.563 492.642 797.829 459.562C844.836 426.483 891.844 396.886 944.074 370.771C1060.72 311.576 1182.59 273.273 1304.46 228.007C1307.95 226.266 1306.21 221.043 1302.72 222.784C1177.37 247.158 1052.02 306.353 938.851 363.807C884.88 391.663 834.39 423.001 785.642 459.562Z" fill="#60BFEE"/>
<path opacity="0.76" d="M761.268 947.047C750.822 960.975 738.634 974.903 729.929 990.572C717.742 1011.46 721.224 1035.84 710.778 1056.73C716.001 1049.77 717.742 1044.54 719.483 1035.84C724.706 1011.46 731.671 994.054 745.599 974.903C763.009 950.528 787.383 908.744 823.944 917.449C827.426 919.19 829.167 912.226 825.685 910.485C797.829 903.521 776.937 926.155 761.268 947.047Z" fill="#60BFEE"/>
<path opacity="0.76" d="M961.475 781.651C893.575 840.846 865.719 917.45 865.719 1009.72C872.683 964.457 877.907 917.45 898.799 875.666C919.691 833.881 952.77 802.543 989.331 774.687C1053.75 724.197 1125.13 678.931 1194.77 637.147C1213.92 624.959 1487.26 456.081 1513.38 504.829C1516.86 511.793 1527.31 506.57 1523.82 499.606C1497.71 435.189 1271.38 577.952 1241.78 595.362C1144.28 651.075 1045.04 708.528 961.475 781.651Z" fill="#60BFEE"/>
<path opacity="0.76" d="M1504.68 621.475C1504.68 623.216 1504.68 621.475 1504.68 621.475C1494.24 600.583 1610.89 546.612 1624.81 534.424C1628.3 530.942 1623.07 527.461 1619.59 529.202C1605.66 534.425 1483.79 607.547 1504.68 621.475Z" fill="#60BFEE"/>
<path opacity="0.76" d="M1193.03 757.275C1269.63 795.578 1332.31 684.153 1391.5 659.779C1396.73 658.038 1394.99 649.333 1389.76 651.074C1363.65 654.556 1344.5 677.189 1325.34 694.599C1290.52 727.679 1243.52 765.981 1193.03 753.794C1193.03 752.053 1191.29 755.534 1193.03 757.275Z" fill="#60BFEE"/>
<path opacity="0.76" d="M1370.62 861.737C1314.91 907.003 1267.9 957.492 1210.44 1001.02C1158.21 1039.32 1105.98 1077.62 1050.27 1112.44C1003.26 1142.04 951.033 1192.53 893.58 1199.49C893.58 1199.49 891.839 1201.23 893.58 1201.23C933.623 1204.72 966.703 1182.08 998.041 1159.45C1055.49 1121.15 1116.43 1086.33 1173.88 1044.54C1229.6 1004.5 1285.31 964.457 1335.8 915.708C1396.73 856.514 1468.11 812.988 1537.76 767.722C1546.46 762.499 1537.76 750.312 1529.05 755.535C1476.82 788.614 1421.11 821.693 1370.62 861.737Z" fill="#60BFEE"/>
<path opacity="0.76" d="M1690.97 706.786C1638.74 771.204 1586.5 828.658 1518.6 877.406C1455.93 922.672 1386.29 950.528 1318.39 987.09V988.831C1473.34 966.198 1607.4 832.139 1701.41 717.232C1708.38 708.527 1697.93 698.081 1690.97 706.786Z" fill="#60BFEE"/>
<path opacity="0.76" d="M1276.59 1157.71C1283.56 1162.93 1294 1155.97 1300.97 1152.49C1306.19 1150.75 1332.31 1133.34 1332.31 1143.78C1332.31 1143.78 1332.31 1143.78 1334.05 1143.78C1335.79 1140.3 1337.53 1140.3 1337.53 1136.82C1337.53 1135.08 1337.53 1133.34 1335.79 1133.34C1325.34 1133.34 1316.64 1136.82 1307.93 1142.04C1302.71 1145.52 1297.49 1147.26 1292.26 1150.75C1287.04 1152.49 1283.56 1152.49 1278.33 1154.23C1274.85 1154.23 1274.85 1157.71 1276.59 1157.71Z" fill="#60BFEE"/>
<path opacity="0.76" d="M1570.84 919.19C1570.84 920.931 1570.84 922.672 1572.58 922.672C1577.8 924.413 1584.76 919.19 1589.99 915.708C1595.21 913.967 1605.66 908.744 1610.88 912.227C1607.4 910.486 1607.4 908.744 1603.92 907.003C1600.43 905.262 1596.95 907.003 1591.73 907.003C1586.51 908.744 1574.32 913.967 1570.84 919.19Z" fill="#60BFEE"/>
<path opacity="0.76" d="M1537.76 907.003C1497.72 934.859 1452.45 950.529 1421.11 988.831C1417.63 992.313 1419.37 997.536 1424.59 999.277C1438.52 1002.76 1447.23 1001.02 1459.42 997.536C1468.12 994.054 1475.08 988.831 1483.79 987.09C1489.01 981.867 1495.98 980.126 1502.94 983.608C1515.13 983.608 1515.13 987.09 1502.94 994.054C1489.01 1021.91 1435.04 1037.58 1408.93 1046.28C1381.07 1054.99 1351.47 1061.95 1321.87 1070.66C1198.26 1105.48 1104.25 1197.75 980.636 1234.31V1236.05C1104.25 1209.94 1196.52 1119.41 1316.65 1086.33C1361.92 1072.4 1410.67 1065.44 1454.19 1042.8C1478.57 1030.62 1523.83 1007.98 1529.06 976.644C1529.06 973.162 1529.06 971.421 1525.57 969.68C1509.9 960.975 1494.24 969.68 1478.57 976.644C1469.86 980.126 1462.9 983.608 1454.19 987.09C1433.3 992.313 1431.56 988.831 1447.23 978.385C1459.42 962.716 1483.79 952.27 1501.2 943.565C1570.84 903.521 1619.59 842.586 1677.04 786.873C1680.52 783.391 1675.3 778.168 1671.82 779.909C1623.07 816.47 1588.25 870.442 1537.76 907.003Z" fill="#60BFEE"/>
<path opacity="0.76" d="M1398.47 877.406C1396.73 879.147 1398.47 884.37 1401.96 882.629C1429.81 880.888 1447.22 858.254 1462.89 837.362C1466.37 833.88 1459.41 828.657 1457.67 832.139C1448.96 844.327 1436.78 863.478 1422.85 868.701C1388.03 884.37 1431.55 846.067 1436.78 839.103C1448.96 828.657 1504.68 783.391 1508.16 804.283C1516.86 846.067 1410.66 896.557 1382.81 910.485C1354.95 926.154 1193.03 1006.24 1231.34 1032.36C1248.75 1044.54 1299.24 1020.17 1316.65 1013.2C1325.35 1009.72 1384.55 987.09 1384.55 999.277C1382.81 1016.69 1332.32 1020.17 1316.65 1023.65C1255.71 1039.32 1198.26 1074.14 1144.29 1107.22C1078.13 1147.26 1013.71 1209.94 933.624 1216.9C994.559 1218.64 1041.57 1180.34 1090.31 1150.75C1158.21 1108.96 1233.08 1060.21 1309.68 1037.58C1320.13 1034.1 1447.22 1004.5 1389.77 981.867C1363.65 971.421 1318.39 1001.02 1295.75 1009.72C1264.42 1020.17 1212.19 1035.84 1266.16 992.313C1292.27 971.42 1323.61 955.751 1351.47 940.082C1405.44 908.744 1523.83 866.96 1518.6 786.873C1518.6 783.391 1515.12 781.65 1511.64 781.65C1468.12 795.578 1412.4 833.881 1398.47 877.406Z" fill="#60BFEE"/>
<path opacity="0.76" d="M1018.93 1251.72C1017.19 1251.72 1017.19 1253.46 1018.93 1253.46C1062.46 1263.91 1105.98 1249.98 1147.77 1239.54C1180.85 1232.57 1253.97 1220.39 1271.38 1182.08C1290.53 1138.56 1208.7 1155.97 1189.55 1161.19C1173.88 1166.41 1085.09 1196.01 1112.95 1225.61C1137.32 1251.72 1215.67 1204.72 1231.34 1182.08C1233.08 1180.34 1231.34 1176.86 1227.86 1175.12C1206.96 1168.15 1187.81 1178.6 1170.4 1190.79C1166.92 1192.53 1170.4 1199.49 1173.88 1196.01C1189.55 1187.31 1229.6 1176.86 1196.52 1197.75C1184.33 1204.72 1159.96 1220.39 1142.55 1220.39C1128.62 1218.64 1112.95 1218.64 1128.62 1197.75C1132.1 1192.53 1142.55 1189.05 1147.77 1187.31C1163.44 1180.34 1179.11 1173.38 1194.78 1168.15C1206.96 1164.67 1231.34 1155.97 1245.27 1161.19C1288.79 1182.08 1196.52 1218.64 1175.63 1223.87C1128.62 1237.8 1071.16 1255.21 1018.93 1251.72Z" fill="#60BFEE"/>
<path opacity="0.76" d="M1163.42 403.85C1161.68 407.332 1161.68 410.814 1165.16 412.555C1198.24 419.519 1156.46 433.447 1146.01 438.67C1126.86 447.375 1102.48 447.375 1083.33 452.598C1050.25 463.044 1020.66 475.231 992.8 496.123C991.059 497.864 991.059 501.347 992.8 501.347C1020.66 523.98 1062.44 494.383 1088.56 511.793C1147.75 551.836 910.972 696.34 884.857 717.233C837.85 752.053 641.115 875.665 684.64 962.716C651.561 877.406 839.59 760.758 888.339 724.196C954.498 675.448 1071.15 626.7 1104.22 544.872C1116.41 515.275 1100.74 506.569 1072.89 504.828C1058.96 504.828 1045.03 506.569 1032.84 504.828C985.836 497.864 1038.07 478.713 1062.44 470.008C1109.45 454.339 1159.94 452.598 1201.72 424.742C1205.2 423.001 1205.2 419.519 1201.72 416.037C1206.94 421.26 1182.57 395.145 1180.83 402.109C1182.57 386.44 1233.06 381.217 1241.77 379.476C1273.1 375.994 1302.7 377.735 1334.04 379.476C1388.01 381.217 1448.95 379.476 1466.36 318.54C1468.1 313.317 1459.39 311.576 1457.65 316.799C1419.35 433.447 1229.58 320.281 1163.42 403.85Z" fill="#60BFEE"/>
<path opacity="0.76" d="M998.048 234.971C984.119 261.086 1001.53 276.755 970.191 299.389C951.04 315.058 917.961 315.058 895.327 320.281C853.543 330.727 813.5 341.173 790.867 379.475C789.126 381.216 790.867 384.698 792.608 386.439C815.241 402.108 836.133 384.698 857.025 377.734C890.104 367.288 863.989 379.475 846.579 388.18C829.169 396.885 811.759 402.108 794.349 410.813C763.01 424.742 689.888 447.375 698.593 494.382C698.593 497.864 702.075 499.605 705.557 499.605C724.708 494.382 724.708 492.641 709.039 504.828C698.593 511.792 686.406 517.015 674.219 522.238C656.808 530.943 641.139 539.648 628.952 557.059C625.47 560.541 630.693 565.764 634.175 562.282C665.513 529.203 712.521 523.979 742.118 489.159C745.6 485.677 742.118 478.713 736.895 480.454C688.147 494.382 728.19 457.821 747.341 445.634C768.233 433.447 792.608 424.742 815.241 414.296C841.356 403.85 874.435 393.404 893.587 372.511C897.069 369.029 895.328 363.806 890.105 363.806C877.918 362.065 870.953 362.065 858.766 365.547C855.284 367.288 830.91 381.216 827.428 379.475C832.651 369.029 837.874 356.842 844.838 346.396C851.802 342.914 860.507 341.173 869.212 337.691C904.033 327.245 959.745 327.245 985.86 297.647C994.566 287.201 994.565 276.755 999.788 266.309C1011.98 238.453 985.86 255.863 1036.35 229.748C1069.43 214.079 1067.69 212.338 1097.29 221.043C1151.26 236.712 1179.11 226.266 1231.34 205.374C1196.52 214.079 1163.44 231.489 1126.88 224.525C1104.25 219.302 1083.36 207.115 1060.72 207.115C1034.61 205.374 1008.49 214.079 998.048 234.971Z" fill="#60BFEE"/>
<path opacity="0.76" d="M1572.57 450.857C1595.2 499.605 1560.38 525.721 1525.56 553.577C1502.93 570.987 1476.81 581.433 1455.92 600.584C1429.8 623.217 1448.95 649.332 1436.77 680.671C1410.65 748.57 1346.23 767.722 1300.97 812.988C1287.04 828.657 1288.78 830.398 1288.78 847.808C1290.52 849.549 1292.26 849.549 1294 851.291C1306.19 854.773 1306.19 866.959 1295.74 887.851C1288.78 901.78 1259.18 919.19 1245.26 926.154C1201.73 950.528 1158.2 952.269 1111.2 962.715C1053.74 974.902 1022.41 1020.17 980.621 1060.21C963.211 1077.62 834.376 1185.57 818.707 1112.44C827.412 1185.57 947.542 1095.03 968.434 1077.62C1008.48 1042.8 1041.56 992.312 1093.79 974.902C1133.83 960.974 1175.61 964.456 1213.92 948.787C1243.51 936.6 1311.41 907.003 1313.16 863.477C1313.16 847.808 1299.23 853.031 1300.97 835.621C1300.97 807.765 1346.23 792.096 1367.13 776.427C1405.43 745.088 1448.95 694.599 1459.4 644.109C1459.4 640.627 1454.18 635.405 1454.18 633.664C1457.66 602.325 1464.62 605.807 1485.52 591.879C1513.37 574.469 1539.49 555.318 1563.86 532.684C1576.05 522.238 1603.9 497.864 1603.9 478.713C1602.16 456.08 1542.97 433.447 1588.24 403.849C1591.72 402.108 1588.24 395.145 1584.75 398.627C1553.42 414.296 1560.38 424.742 1572.57 450.857Z" fill="#60BFEE"/>
<path opacity="0.76" d="M1482.05 703.305C1462.9 717.233 1450.71 739.866 1431.56 755.535C1415.89 767.723 1398.48 778.169 1381.07 790.356C1372.36 797.32 1354.95 807.766 1353.21 819.953C1351.47 839.104 1360.18 840.845 1375.85 837.363C1395 832.14 1424.59 802.543 1438.52 790.356C1471.6 762.499 1502.94 732.902 1544.72 715.492C1546.46 715.492 1544.72 713.751 1544.72 713.751C1492.49 725.938 1450.71 765.982 1408.92 799.061C1396.74 807.766 1358.43 837.363 1379.33 800.801C1389.77 783.391 1421.11 771.204 1436.78 759.017C1468.12 732.902 1489.01 699.823 1530.8 687.635C1555.17 680.671 1579.54 680.671 1602.18 670.225C1630.03 658.038 1661.37 638.887 1664.85 604.067C1645.7 691.118 1532.54 663.262 1482.05 703.305Z" fill="#60BFEE"/>
<path opacity="0.76" d="M1342.76 407.331C1318.38 407.331 1297.49 405.59 1285.3 429.964C1283.56 433.446 1287.04 436.928 1290.53 436.928C1306.19 438.669 1320.12 435.187 1334.05 435.187C1339.27 435.187 1360.17 429.964 1363.65 433.446C1356.68 445.634 1349.72 459.561 1344.5 471.749C1339.27 471.749 1335.79 471.749 1330.57 471.749C1300.97 478.713 1264.41 464.784 1233.07 470.007C1151.24 482.194 1233.07 517.015 1206.96 562.282C1194.77 581.433 1156.47 598.843 1135.57 609.289C1104.24 624.958 1072.9 638.886 1041.56 652.814C996.294 673.706 957.991 699.821 921.43 731.16C874.422 772.944 834.379 819.952 792.595 865.218C783.89 873.923 752.551 919.19 740.364 919.19C735.141 910.485 729.918 903.521 722.954 894.816C728.177 889.592 735.141 884.369 740.364 879.146C750.81 870.441 762.998 863.477 776.926 858.254C747.329 870.441 703.803 893.074 705.544 931.376C705.544 933.117 707.285 933.118 707.285 933.118C757.775 936.6 803.041 865.218 832.638 833.88C870.941 793.837 907.502 752.052 949.286 718.973C991.071 685.894 1038.08 665.002 1086.83 642.368C1123.39 624.958 1220.88 591.879 1231.33 543.13C1236.55 522.238 1224.37 527.461 1219.14 513.533C1201.73 464.784 1260.93 475.231 1287.04 476.972C1311.42 478.713 1391.5 489.159 1394.99 443.892C1396.73 416.036 1363.65 421.259 1344.5 421.259C1332.31 421.259 1316.64 426.482 1304.45 424.741C1271.37 419.518 1339.27 416.036 1347.98 416.036C1379.32 414.295 1403.69 416.036 1435.03 403.849C1459.4 393.403 1513.38 363.806 1504.67 327.244C1504.67 323.762 1501.19 323.762 1497.71 323.762C1489 325.503 1492.48 325.503 1482.04 332.467C1478.56 335.949 1482.04 342.913 1487.26 339.431C1490.74 337.69 1482.04 360.324 1480.3 362.065C1468.11 379.475 1436.77 393.403 1417.62 398.626C1393.25 410.813 1368.87 409.072 1342.76 407.331Z" fill="#60BFEE"/>
<path opacity="0.76" d="M1205.22 684.154C1151.24 715.492 1093.79 732.902 1041.56 767.723C1038.08 769.464 1038.08 776.428 1043.3 776.428C1058.97 778.169 1072.9 774.687 1088.57 772.946C1116.42 769.464 1140.8 776.428 1118.17 809.507C1107.72 825.176 1079.86 830.399 1062.45 835.622C1032.86 846.068 959.733 856.515 951.028 894.817C945.805 917.45 961.474 919.191 982.366 917.45C1045.04 913.968 1088.57 868.701 1137.32 837.363C1104.24 858.255 1074.64 886.112 1038.08 900.04C1024.15 905.263 996.294 915.709 982.366 912.227C917.948 891.335 1060.71 847.81 1079.86 840.845C1100.76 833.881 1182.58 786.874 1137.32 760.759C1123.39 753.795 1065.93 776.428 1060.71 767.723C1062.45 769.464 1201.73 699.823 1222.63 687.636C1276.6 654.556 1316.64 605.808 1370.61 574.47C1388.02 564.024 1407.17 551.837 1424.58 544.873C1450.7 534.427 1464.63 537.909 1440.25 562.283C1428.07 574.47 1400.21 577.952 1384.54 583.175C1379.32 584.916 1382.8 591.88 1386.28 590.139C1422.84 583.175 1457.66 570.988 1475.07 536.168C1476.81 534.427 1475.07 529.204 1473.33 529.204C1428.07 510.053 1356.68 567.506 1325.35 591.88C1281.82 621.477 1248.74 659.78 1205.22 684.154Z" fill="#60BFEE"/>
<path opacity="0.76" d="M728.189 562.282C729.93 572.729 745.599 572.729 749.081 579.693C757.786 604.067 672.476 647.592 658.548 665.002C656.807 666.743 656.807 668.484 658.548 670.225C696.851 696.34 738.635 680.671 775.196 661.52C803.052 647.592 830.909 630.182 858.765 614.513C869.211 609.29 952.78 551.836 954.521 588.398C956.262 607.549 816.98 678.93 799.57 689.376C766.491 710.269 729.93 732.902 703.814 764.24C677.699 797.32 662.03 837.363 639.397 873.924C639.397 875.665 641.138 875.665 641.138 875.665C665.512 842.586 681.181 800.801 707.297 769.463C742.117 727.679 792.606 703.305 836.132 673.707C870.952 651.074 938.852 628.441 959.744 590.139C968.449 572.729 966.708 565.765 947.557 564.024C933.628 562.283 916.218 574.47 904.031 581.434C869.211 598.844 836.132 619.736 801.311 638.887C776.937 652.815 740.376 678.931 710.779 677.19C689.887 675.449 679.44 659.779 693.369 642.369C698.592 637.146 710.779 631.923 716.002 628.441C726.448 621.477 747.34 612.772 752.563 600.585C764.75 574.469 729.93 570.987 742.117 548.354C749.081 536.167 785.642 522.239 797.829 515.275C818.722 503.088 839.614 489.16 858.765 476.973C902.29 450.858 945.816 426.483 991.082 402.109C1076.39 353.36 1153 309.835 1248.75 283.72C1287.05 273.274 1320.13 268.051 1360.18 276.756C1401.96 287.202 1365.4 311.576 1342.77 315.058C1323.62 318.54 1299.24 311.576 1278.35 308.094C1203.49 299.389 1133.85 330.727 1072.91 370.771C1069.43 372.512 1072.91 377.735 1076.39 375.994C1153 330.727 1220.9 309.835 1307.95 320.281C1330.58 322.023 1384.55 334.209 1398.48 308.094C1433.3 245.418 1264.42 268.051 1245.27 273.274C1086.84 318.54 949.298 410.814 811.758 497.865C799.571 506.57 724.707 534.426 728.189 562.282Z" fill="#60BFEE"/>
<path opacity="0.76" d="M735.148 1027.13C735.148 1028.87 736.889 1030.61 738.63 1030.61C768.228 1032.36 799.566 973.161 803.048 948.787C803.048 947.046 801.307 945.305 799.566 945.305C796.084 947.046 794.343 947.046 792.602 948.787C801.307 940.082 813.494 927.895 820.458 940.082C825.681 950.528 811.753 971.42 806.53 980.125C799.566 992.313 757.782 1060.21 738.63 1051.51C738.63 1051.51 736.889 1053.25 738.63 1053.25C763.005 1056.73 787.379 1020.17 799.566 1002.76C810.012 988.83 837.868 954.01 823.94 934.859C797.825 900.039 738.63 1007.98 735.148 1027.13ZM794.343 954.01C794.343 957.492 789.12 964.456 789.12 967.938C783.897 976.643 778.674 985.348 773.451 994.053C768.228 1001.02 764.746 1006.24 759.523 1011.46C756.041 1014.95 750.818 1020.17 747.335 1021.91C742.112 1023.65 743.854 1027.13 743.854 1023.65C742.112 1016.69 757.782 997.535 759.523 992.312C766.487 981.866 771.71 971.42 780.415 962.715H782.156C787.379 959.233 792.602 954.01 797.825 950.528C796.084 950.528 794.343 952.269 794.343 954.01Z" fill="#60BFEE"/>
<path opacity="0.76" d="M1690.96 812.988C1671.81 837.363 1645.69 853.032 1626.54 877.406C1624.8 879.147 1626.54 884.37 1628.28 884.37C1638.73 886.111 1643.95 882.629 1652.66 884.37C1666.58 886.111 1661.36 865.219 1663.1 891.334C1664.84 907.003 1652.66 920.931 1643.95 931.377C1626.54 955.751 1602.17 974.903 1586.5 1001.02C1584.76 1002.76 1586.5 1006.24 1588.24 1007.98C1610.87 1020.17 1522.08 1077.62 1511.63 1082.85C1464.63 1108.96 1410.66 1114.18 1367.13 1143.78C1365.39 1145.52 1365.39 1149 1367.13 1150.75C1379.32 1164.67 1382.8 1157.71 1394.99 1164.67C1421.1 1176.86 1419.36 1180.34 1391.5 1199.49C1374.09 1213.42 1354.94 1222.13 1335.79 1232.57C1314.9 1243.02 1295.75 1255.21 1274.86 1265.65C1260.93 1272.62 1247 1279.58 1231.33 1284.8C1222.63 1288.29 1213.92 1290.03 1205.22 1290.03C1194.77 1260.43 1205.22 1249.98 1240.04 1260.43C1241.78 1260.43 1241.78 1258.69 1240.04 1258.69C1212.18 1253.47 1186.06 1262.17 1168.65 1283.06C1168.65 1284.8 1166.91 1286.54 1168.65 1286.54C1199.99 1309.18 1241.78 1290.03 1271.37 1274.36C1328.83 1246.5 1394.99 1220.39 1433.29 1168.16C1435.03 1166.41 1435.03 1162.93 1431.55 1161.19C1417.62 1152.49 1384.54 1162.93 1384.54 1142.04C1384.54 1131.59 1494.22 1103.74 1506.41 1096.77C1532.53 1082.85 1583.02 1058.47 1596.94 1030.62C1600.43 1023.65 1598.68 1016.69 1600.43 1009.72C1600.43 1007.98 1595.2 1004.5 1595.2 1002.76C1596.94 992.313 1610.87 980.126 1617.84 973.162C1640.47 947.047 1680.51 910.485 1670.07 870.442C1670.07 866.96 1666.58 866.96 1663.1 868.701C1657.88 873.924 1650.92 875.665 1645.69 872.183C1626.54 872.183 1633.51 863.478 1664.84 847.809C1678.77 833.881 1678.77 835.621 1689.22 819.952C1697.92 812.988 1694.44 809.506 1690.96 812.988Z" fill="#60BFEE"/>
<path opacity="0.76" d="M1300.98 1136.82C1299.24 1136.82 1299.24 1136.82 1300.98 1136.82C1295.76 1135.08 1294.02 1135.08 1300.98 1136.82Z" fill="#60BFEE"/>
<path opacity="0.76" d="M1299.23 1136.82C1304.45 1138.56 1313.15 1140.3 1311.41 1140.3C1323.6 1135.08 1323.6 1138.56 1314.9 1150.74C1313.15 1159.45 1307.93 1166.41 1299.23 1169.9C1273.11 1197.75 1231.33 1211.68 1196.51 1225.61C1137.31 1249.98 1078.12 1270.87 1011.96 1272.62C1011.96 1272.62 1010.22 1274.36 1011.96 1274.36C1055.48 1284.8 1100.75 1270.88 1142.54 1258.69C1193.02 1243.02 1247 1223.87 1292.26 1194.27C1306.19 1185.57 1354.94 1155.97 1344.49 1131.59C1335.79 1112.44 1316.64 1126.37 1300.97 1124.63C1294 1124.63 1294 1133.33 1299.23 1136.82Z" fill="#60BFEE"/>
<path opacity="0.76" d="M1595.21 896.557C1593.47 900.039 1595.21 905.262 1598.69 907.003C1656.14 931.377 1508.16 1028.87 1485.52 1039.32C1440.26 1060.21 1389.77 1074.14 1351.47 1108.96V1110.7C1436.78 1063.69 1569.09 1041.06 1621.32 947.047C1631.77 927.895 1630.03 920.931 1624.81 903.521C1623.06 893.075 1616.1 907.003 1617.84 891.334C1617.84 880.888 1635.25 870.442 1640.47 863.478C1657.89 847.808 1677.04 833.88 1692.71 818.211C1697.93 812.988 1690.96 806.024 1685.74 809.506C1652.66 832.139 1617.84 863.477 1595.21 896.557Z" fill="#60BFEE"/>
<path opacity="0.76" d="M1532.52 755.535C1598.68 819.953 1354.94 955.752 1313.16 985.349C1311.41 985.349 1313.16 988.831 1314.9 987.09C1379.31 950.529 1443.73 913.967 1499.44 863.478C1520.34 846.068 1544.71 823.435 1553.42 795.578C1556.9 785.132 1548.19 746.83 1548.19 746.83C1553.42 743.348 1546.45 736.384 1541.23 739.866C1537.75 741.607 1536.01 743.348 1532.52 745.089C1529.04 748.571 1529.04 753.794 1532.52 755.535Z" fill="#60BFEE"/>
<path opacity="0.76" d="M1388.02 659.78C1389.76 708.528 1347.98 743.348 1314.9 772.946C1273.12 811.248 1227.85 846.068 1177.36 875.665C1079.86 934.86 973.661 960.975 869.2 1006.24C869.2 1006.24 869.2 1007.98 869.2 1006.24C992.812 992.313 1123.39 927.896 1226.11 858.255C1285.3 818.212 1403.69 743.348 1398.47 658.038C1400.21 651.074 1388.02 651.074 1388.02 659.78Z" fill="#60BFEE"/>
<path opacity="0.76" d="M1029.38 517.015C1060.72 555.318 846.575 666.743 832.647 675.448C785.639 703.304 750.819 738.124 719.481 783.391C689.883 826.916 670.732 880.888 632.43 915.708C630.689 915.708 632.43 917.449 634.171 917.449C653.322 907.003 665.509 891.334 677.696 872.183C700.329 835.621 722.963 800.801 749.078 767.722C808.272 696.34 888.359 671.966 959.741 619.735C978.892 605.807 1081.61 532.685 1038.09 506.569C1031.12 504.828 1024.16 511.792 1029.38 517.015Z" fill="#60BFEE"/>
<path opacity="0.76" d="M813.499 577.951C813.499 577.951 815.24 577.951 813.499 577.951C910.996 485.677 1024.16 435.188 1151.26 395.144C1219.16 374.252 1285.31 363.806 1354.95 355.101C1400.22 348.137 1433.3 330.727 1466.38 299.389C1473.34 292.424 1462.9 283.719 1455.93 288.942C1398.48 342.914 1332.32 337.691 1259.2 351.619C1193.04 363.806 1128.62 386.439 1064.21 409.072C971.931 442.152 870.952 490.9 813.499 577.951Z" fill="#60BFEE"/>
<path opacity="0.76" d="M1076.38 1032.36C1043.3 1035.84 1024.15 1044.54 1005 1072.4C987.585 1096.77 975.398 1122.89 952.765 1142.04C914.463 1173.38 865.714 1182.08 818.707 1159.45C863.973 1187.31 916.204 1178.6 956.247 1147.26C971.916 1135.08 982.362 1117.67 994.549 1100.26C1017.18 1067.18 1034.59 1042.8 1078.12 1039.32C1092.05 1037.58 1105.97 1039.32 1118.16 1035.84C1166.91 1023.65 1166.91 978.386 1208.69 964.457C1264.41 947.047 1304.45 933.119 1334.05 877.407C1335.79 875.666 1332.31 873.925 1330.57 875.666C1307.93 912.227 1276.59 943.565 1234.81 954.011C1219.14 957.493 1196.51 954.011 1184.32 962.716C1177.36 967.939 1177.36 973.162 1173.87 976.644C1172.13 981.867 1168.65 988.831 1166.91 994.054C1154.72 1013.21 1139.05 1023.65 1118.16 1027.13C1102.49 1032.36 1090.31 1032.36 1076.38 1032.36Z" fill="#60BFEE"/>
<path opacity="0.76" d="M1457.67 407.333C1469.86 428.225 1452.45 450.858 1436.78 459.563C1426.33 464.786 1415.89 470.009 1405.44 473.491C1388.03 478.714 1367.14 476.973 1349.73 483.937C1328.83 492.642 1335.8 494.383 1330.58 506.57C1318.39 536.168 1327.09 534.427 1300.98 546.614C1290.53 551.837 1280.09 555.319 1269.64 558.801C1253.97 564.024 1241.78 570.988 1227.86 579.693C1172.14 609.29 1116.43 631.923 1065.94 670.226C999.782 720.715 898.804 774.687 869.206 858.256C851.796 905.263 867.465 960.976 844.832 1006.24C829.163 1037.58 792.602 1056.73 787.379 1093.29C787.379 1095.03 789.12 1096.77 790.861 1096.77C808.271 1096.77 816.976 1093.29 830.904 1082.85C832.645 1082.85 830.904 1081.11 829.163 1081.11C803.048 1077.62 797.825 1068.92 813.494 1058.47C816.976 1054.99 818.717 1051.51 822.199 1049.77C830.904 1041.06 839.609 1032.36 846.573 1021.91C857.019 1004.5 862.242 981.868 863.983 960.976C869.207 922.673 863.983 884.371 881.394 849.551C898.804 812.989 931.883 785.133 963.221 760.759C1027.64 712.01 1090.32 656.298 1163.44 621.477C1193.04 607.549 1220.89 591.88 1250.49 577.952C1274.86 567.506 1302.72 562.283 1325.35 546.614C1337.54 537.909 1339.28 532.685 1346.24 522.239C1349.73 517.016 1344.5 515.276 1346.24 511.794C1351.47 499.607 1370.62 492.642 1388.03 487.419C1414.14 480.455 1459.41 471.75 1473.34 442.153C1478.56 433.448 1473.34 424.743 1476.82 416.038C1480.3 407.333 1469.86 412.556 1476.82 403.851C1480.3 398.628 1502.94 398.628 1508.16 396.887C1530.79 391.664 1558.65 384.699 1553.43 356.843C1551.68 351.62 1542.98 353.361 1544.72 358.584C1549.94 388.181 1480.3 391.664 1464.63 396.887C1457.67 400.369 1455.93 403.851 1457.67 407.333Z" fill="#60BFEE"/>
<path opacity="0.47" d="M874.43 240.193C609.796 391.662 519.263 736.383 672.473 1007.98C679.437 1020.17 686.401 1030.61 693.365 1041.06C710.775 1051.51 728.185 1060.21 749.077 1067.18C886.617 1112.44 1052.01 1079.36 1161.7 988.83C1266.16 901.779 1344.5 739.865 1358.43 604.066C1368.88 503.087 1353.21 391.662 1302.72 301.129C1267.9 238.452 1222.63 196.668 1170.4 168.812C1069.42 165.33 966.704 187.963 874.43 240.193Z" fill="#60BFEE"/>
<path opacity="0.42" d="M1631.76 461.304C1569.09 349.879 1476.81 268.051 1368.87 219.302C1368.87 221.044 1370.61 221.044 1370.61 222.785C1490.74 421.26 1489 691.118 1342.76 870.442C1273.12 954.011 1179.1 1032.36 1083.34 1082.85C985.848 1135.08 877.905 1154.23 773.444 1142.04C947.546 1309.18 1212.18 1352.7 1428.07 1229.09C1694.44 1077.62 1784.97 734.643 1631.76 461.304Z" fill="#1A7AA0"/>
<path opacity="0.42" d="M1631.78 461.303C1610.88 423 1584.77 388.18 1556.91 356.842C1558.65 365.547 1560.39 374.252 1562.14 381.217C1602.18 569.246 1605.66 748.571 1497.72 908.744C1466.38 954.01 1442.01 1002.76 1403.7 1042.8C1363.66 1082.85 1316.65 1115.92 1267.9 1143.78C1224.38 1168.16 1179.11 1185.57 1132.1 1202.98C1052.02 1232.57 991.083 1243.02 919.701 1243.02C961.485 1263.91 1006.75 1279.58 1052.02 1288.28C1105.99 1286.54 1159.96 1277.84 1205.23 1267.39C1257.46 1255.21 1302.72 1232.57 1346.25 1199.49C1403.7 1155.97 1464.64 1112.44 1511.65 1058.47C1548.21 1016.69 1584.77 974.903 1616.11 929.636C1666.6 856.514 1680.52 786.873 1685.75 698.081C1687.49 665.002 1689.23 631.923 1689.23 598.843C1675.3 551.836 1657.89 506.569 1631.78 461.303Z" fill="#1A7AA0"/>
<path d="M1591.73 398.626C1603.91 414.295 1616.1 431.705 1626.55 450.856C1821.54 395.144 1953.86 377.734 1969.53 414.295C1995.64 476.972 1650.92 675.447 1203.48 858.254C756.039 1041.06 371.275 1140.3 345.159 1077.62C331.231 1042.8 437.433 960.974 615.017 865.218C609.794 844.326 606.312 825.175 602.83 804.282C223.288 988.83 -23.9358 1154.23 2.17946 1218.64C38.7408 1307.44 583.678 1166.41 1222.63 907.002C1859.84 645.85 2347.33 363.806 2312.51 275.014C2284.65 208.855 1992.16 264.568 1591.73 398.626Z" fill="#6CD4F4"/>
<path opacity="0.47" d="M893.579 316.798C832.644 295.906 749.075 403.849 724.701 447.374C665.506 557.058 644.614 706.786 728.183 814.729C766.485 865.218 837.867 865.218 893.579 851.29C978.889 830.398 1055.49 778.167 1099.02 701.563C1146.03 621.476 1172.14 539.648 1149.51 445.633C1139.06 403.849 1125.13 362.064 1086.83 339.431C1041.57 309.834 971.925 306.352 893.579 316.798Z" fill="#60BFEE"/>
<path opacity="0.47" d="M780.42 464.786C745.6 501.347 710.779 612.772 792.607 616.254C897.068 619.736 870.953 428.224 780.42 464.786Z" fill="#60BFEE"/>
<path opacity="0.51" d="M1609.13 424.742C1614.35 431.706 1619.57 440.411 1623.06 447.375C1906.84 351.619 2105.32 306.352 2119.25 342.914C2141.88 396.885 1724.04 619.735 1187.8 839.103C651.57 1058.47 198.906 1192.53 176.273 1138.56C162.345 1102 336.447 994.053 611.527 861.736C609.786 853.031 608.045 844.326 606.304 835.621C296.403 987.089 97.9274 1115.92 117.079 1162.93C144.935 1232.57 628.937 1098.51 1198.25 866.959C1767.56 633.663 2206.3 389.921 2178.44 320.281C2161.03 271.532 1932.96 316.799 1609.13 424.742Z" fill="#B3EDFF"/>
<path opacity="0.62" d="M1633.51 464.786C1642.22 478.714 1649.18 494.383 1656.14 508.311C1685.74 504.829 1703.15 506.57 1706.63 515.275C1720.56 550.096 1485.53 680.672 1182.59 804.284C877.911 927.896 620.241 1001.02 606.313 964.457C602.831 955.752 613.277 941.824 635.91 924.414C630.687 908.745 625.464 893.076 620.241 877.407C460.068 962.716 362.571 1030.62 374.758 1058.47C395.65 1108.96 763.004 1006.24 1194.78 830.399C1626.55 654.557 1960.82 470.009 1939.93 419.519C1926 393.404 1809.35 412.555 1633.51 464.786Z" fill="#7DE0FF"/>
</svg>
