<svg width="2145" height="1535" viewBox="0 0 2145 1535" fill="none" xmlns="http://www.w3.org/2000/svg">
<path d="M1526.18 1072.3C1694.63 817.106 1624.3 473.676 1369.11 305.228C1113.92 136.78 770.486 207.102 602.038 462.297C433.59 717.491 503.912 1060.92 759.107 1229.37C1014.3 1397.82 1357.73 1327.49 1526.18 1072.3Z" fill="#E5B883"/>
<path d="M1526.18 1072.3C1694.63 817.106 1624.3 473.676 1369.11 305.228C1113.92 136.78 770.486 207.102 602.038 462.297C433.59 717.491 503.912 1060.92 759.107 1229.37C1014.3 1397.82 1357.73 1327.49 1526.18 1072.3Z" fill="#E5B883"/>
<path opacity="0.41" d="M876.303 964.856C766.619 977.043 662.159 985.748 557.698 990.971C597.741 1081.5 660.417 1158.11 738.763 1215.56C893.714 1255.61 1073.04 1266.05 1130.49 1194.67C1055.63 1192.93 977.282 1184.22 907.641 1152.89C961.613 1173.78 1156.61 1166.81 1194.91 1119.81C1179.24 1118.07 1165.31 1112.84 1149.64 1111.1C1252.36 1093.69 1504.81 1088.47 1564 994.453C1503.07 987.489 1443.87 1032.76 1388.16 999.676C1440.39 966.597 1518.74 964.856 1590.12 950.928C1598.82 928.295 1604.05 903.921 1609.27 879.546C1445.62 914.367 1264.55 1037.98 1116.56 973.561C1184.46 940.482 1287.18 959.633 1339.41 895.215C1268.03 881.287 1180.98 935.259 1109.6 956.151C998.174 987.489 865.857 1027.53 750.95 1018.83C789.252 1010.12 846.706 990.971 876.303 964.856Z" fill="#AC2024"/>
<path opacity="0.41" d="M542.014 583.574C540.273 587.056 540.273 590.538 538.532 594.02C613.396 578.35 714.375 517.415 790.98 494.782C898.923 465.184 1003.38 472.149 1113.07 463.443C1053.87 466.925 1006.87 505.228 956.376 529.602C1022.53 540.048 1092.18 505.228 1154.85 486.077C1266.28 451.256 1381.18 414.695 1475.2 395.544C1466.49 386.839 1457.79 378.134 1449.08 369.429C1281.95 355.501 1116.55 365.947 947.671 383.357C777.052 400.767 681.295 517.415 542.014 583.574Z" fill="#AC2024"/>
<path opacity="0.41" d="M521.124 876.065C589.024 872.583 696.967 830.798 737.01 825.575C790.981 816.87 855.399 809.906 918.075 809.906C938.968 816.87 963.342 820.352 982.493 820.352C994.68 820.352 1006.87 818.611 1017.31 816.87C1020.8 816.87 1024.28 818.611 1029.5 818.611L1019.05 816.87C1097.4 806.424 1175.75 775.086 1245.39 745.488C1353.33 701.963 1490.87 677.589 1598.81 620.135C1597.07 611.43 1593.59 604.466 1591.85 597.502C1454.31 658.438 1315.03 708.927 1170.52 754.194C1121.77 769.863 1038.21 811.647 977.27 808.165L949.414 802.942C808.392 745.489 1027.76 641.028 1041.69 731.561C1031.24 703.704 949.414 724.597 968.565 775.086C1015.57 771.604 1088.69 757.676 1111.33 712.409C1050.39 682.812 919.817 632.323 871.068 708.927C848.435 743.748 858.881 771.604 879.773 790.755C770.089 792.496 620.362 790.755 515.901 841.244C517.642 851.69 519.383 860.396 521.124 870.842C519.383 870.842 519.383 872.583 521.124 876.065Z" fill="#AC2024"/>
<path opacity="0.82" d="M700.455 397.284C686.527 400.766 663.894 405.99 637.779 412.954C611.663 444.292 589.03 477.371 571.62 513.932C608.181 498.263 643.002 480.853 653.448 475.63C726.571 439.069 808.398 400.766 890.226 378.133C1006.87 346.795 1125.26 362.464 1241.91 345.054C1203.61 327.644 1142.67 336.349 1109.59 315.457C1180.98 268.449 1292.4 311.975 1389.9 322.421C1358.56 299.788 1325.48 280.636 1288.92 264.967C1233.21 264.967 1180.98 270.19 1140.93 273.672C1005.13 282.377 881.521 327.644 700.455 397.284Z" fill="#FFEACC"/>
<path opacity="0.82" d="M1243.64 780.309C1281.94 780.309 1320.25 769.863 1358.55 775.086C1276.72 842.986 1121.77 849.95 1019.05 856.914C860.618 869.101 688.257 889.993 533.307 931.777C533.307 931.777 533.307 931.777 533.307 933.518C710.891 937 907.626 865.619 1086.95 884.77C1066.06 928.295 994.676 935.259 954.633 964.857C1036.46 1003.16 1193.15 896.957 1271.5 865.619C1375.96 823.834 1508.28 792.496 1616.22 736.784C1614.48 721.114 1612.74 703.704 1611 686.294C1487.38 717.632 1344.62 726.337 1243.64 780.309Z" fill="#FFEACC"/>
<path opacity="0.82" d="M1304.59 555.717C1283.7 625.357 1200.13 609.688 1149.64 635.804C1196.65 651.473 1247.13 611.429 1292.4 620.134C1278.47 653.214 1234.95 672.365 1207.09 700.221C1288.92 689.775 1365.52 647.991 1435.16 607.947C1471.73 587.055 1520.47 564.422 1567.48 538.307C1558.78 519.155 1548.33 501.745 1537.88 484.335C1490.88 486.076 1442.13 484.335 1396.86 493.04C1325.48 505.227 1255.84 520.897 1186.2 540.048C1074.77 569.645 965.09 573.127 857.147 599.242C874.557 600.983 890.227 611.429 905.896 614.911C834.514 705.444 582.067 660.178 510.685 740.265C510.685 745.488 510.685 752.452 510.685 757.675C777.06 717.631 1036.47 574.868 1304.59 555.717Z" fill="#FFEACC"/>
<path opacity="0.82" d="M1346.36 1177.26C1295.87 1173.78 1165.3 1232.97 1135.7 1271.27C1207.08 1302.61 1471.72 1168.55 1496.09 1097.17C1433.41 1084.99 1274.98 1147.66 1221.01 1187.71C1234.94 1192.93 1243.64 1187.71 1261.05 1185.96L1346.36 1177.26Z" fill="#FFEACC"/>
<path opacity="0.23" d="M965.087 223.183C663.891 277.155 463.674 566.163 519.387 867.359C522.869 881.287 524.61 895.215 529.833 910.884C545.502 924.812 562.912 937 582.064 949.187C773.575 1065.83 980.756 1020.57 1149.63 888.251C1274.99 789.013 1367.26 637.545 1363.78 473.89C1360.3 364.206 1316.77 292.824 1250.61 245.817C1160.08 214.478 1062.58 205.773 965.087 223.183Z" fill="#FFEACC"/>
<path opacity="0.28" d="M881.517 306.752C658.667 301.529 533.314 670.624 712.638 799.459C1114.81 1088.47 1320.25 163.989 881.517 306.752Z" fill="#FFEACC"/>
<path opacity="0.21" d="M1609.26 668.883C1588.37 555.717 1536.14 456.479 1461.27 381.615C1463.01 388.579 1463.01 393.802 1464.76 400.766C1476.94 500.004 1464.76 604.465 1428.19 700.221C1311.55 1006.64 994.681 1166.81 681.299 1098.91C660.406 1093.69 632.55 1084.99 602.953 1074.54C721.342 1253.86 938.969 1354.84 1163.56 1314.8C1463.01 1259.09 1663.23 970.078 1609.26 668.883Z" fill="#AC2024"/>
<path opacity="0.28" d="M1609.26 668.884C1598.82 614.913 1583.15 566.164 1558.77 519.157C1541.36 588.797 1536.14 663.661 1525.69 733.302C1506.54 856.914 1456.05 917.849 1360.3 999.677C1238.43 1104.14 1079.99 1198.15 914.597 1198.15C843.216 1198.15 773.575 1179 703.935 1189.45C757.906 1234.71 820.583 1271.28 886.741 1293.91C951.159 1295.65 1012.09 1290.43 1043.43 1286.94C1320.25 1257.35 1515.25 1090.21 1611 855.173C1619.71 794.237 1619.71 731.561 1609.26 668.884Z" fill="#AC2024"/>
<path opacity="0.74" d="M1356.81 298.048C1375.97 310.235 1395.12 324.163 1412.53 338.091C1678.9 298.048 1877.38 329.386 1913.94 432.106C1969.65 588.797 1628.41 853.431 1151.37 1024.05C674.336 1194.67 242.565 1206.86 186.852 1050.17C150.291 947.446 286.09 795.978 521.127 656.697C524.609 635.805 531.573 614.912 536.796 594.02C178.147 782.05 -42.9616 999.677 7.52789 1144.18C75.4275 1337.43 608.178 1321.76 1196.64 1112.84C1785.1 902.18 2206.43 576.61 2136.79 383.357C2086.3 237.112 1765.95 210.997 1356.81 298.048Z" fill="#FFE4CC"/>
<path opacity="0.74" d="M1146.15 1011.86C1602.3 848.208 1927.87 595.761 1872.16 449.516C1839.08 358.983 1668.46 331.127 1436.9 358.983C1452.57 372.911 1468.24 388.58 1482.17 405.99C1597.08 407.731 1677.16 433.847 1698.06 487.818C1743.32 606.207 1478.69 811.647 1107.85 943.964C737.016 1078.02 401 1088.47 357.475 970.08C334.842 907.403 394.036 823.834 510.684 736.783C512.425 719.373 514.166 700.222 515.907 682.812C305.244 811.647 185.114 949.187 219.934 1043.2C275.647 1191.19 690.009 1177.26 1146.15 1011.86Z" fill="#EDCBAE"/>
</svg>
