<svg width="1635" height="1689" viewBox="0 0 1635 1689" fill="none" xmlns="http://www.w3.org/2000/svg">
<g opacity="0.56">
<path d="M1550.04 743.486C1476.92 776.565 1415.98 774.824 1377.68 769.601C1398.57 755.673 1415.98 736.522 1431.65 713.889C1449.06 687.774 1464.73 661.658 1482.14 635.543C1452.54 652.953 1414.24 642.507 1379.42 645.989H1377.68C1403.79 583.313 1431.65 511.931 1442.1 480.593C1422.94 513.672 1384.64 548.492 1344.6 539.787C1360.27 525.859 1374.2 504.967 1375.94 484.075C1349.82 504.967 1316.74 504.967 1285.4 510.19C1295.85 456.219 1318.48 383.096 1389.87 383.096C1334.15 323.901 1245.36 383.096 1186.17 398.765C1245.36 309.973 1311.52 207.253 1210.54 120.203C1287.15 205.512 1034.7 323.901 1019.03 336.088C1019.03 332.606 1055.59 212.476 966.799 141.095C972.022 172.433 973.763 207.253 956.353 236.851C952.871 189.843 923.274 135.872 884.971 106.274C905.864 151.541 907.604 268.189 829.259 269.93C749.172 271.671 740.467 151.541 777.028 108.016C738.726 142.836 683.014 195.066 696.942 247.297C578.553 226.405 566.366 85.3823 620.337 1.81357C622.078 0.0725587 622.078 0.0725587 620.337 1.81357C580.294 33.1518 545.473 94.0874 529.804 134.131C500.207 208.994 531.545 252.52 562.884 304.75C535.027 301.268 501.948 304.75 479.315 299.527C409.674 285.599 390.523 249.038 376.595 188.102C345.257 323.901 430.566 412.693 496.725 464.924C441.012 450.996 392.264 428.362 331.329 438.808C289.544 445.772 247.76 482.334 207.716 496.262C259.947 491.039 346.998 499.744 367.89 531.082C310.436 518.895 232.091 567.644 188.565 604.205C153.745 633.802 134.594 679.068 82.3634 682.551C125.889 715.63 199.011 673.845 249.501 677.327C240.796 682.551 115.443 793.975 75.3993 745.227C91.0684 804.422 169.414 840.983 214.681 854.911C165.932 872.321 45.802 837.501 17.9458 788.752C49.2841 863.616 125.889 962.854 207.716 992.451C150.263 1023.79 49.2841 1048.16 0.535645 1006.38C38.838 1063.83 78.8814 1110.84 145.04 1124.77C212.94 1138.7 272.134 1121.29 294.767 1086.47C279.098 1168.29 202.493 1215.3 96.2915 1230.97C192.047 1239.68 247.76 1243.16 308.695 1192.67C298.249 1257.09 294.767 1271.01 308.695 1337.17C324.364 1406.81 334.811 1476.45 305.213 1544.35C373.113 1485.16 435.789 1378.96 444.494 1291.91C439.271 1365.03 526.322 1420.74 500.207 1493.86C524.581 1472.97 562.884 1398.11 564.625 1394.63C578.553 1420.74 592.481 1445.12 594.222 1476.45C595.963 1513.01 575.071 1539.13 561.142 1572.21C599.445 1551.32 639.488 1532.17 663.862 1493.86C684.755 1460.78 672.568 1389.4 710.87 1375.47C709.129 1431.19 721.316 1459.04 752.654 1507.79C783.992 1556.54 778.769 1603.55 756.136 1655.78C792.698 1612.25 832.741 1572.21 839.705 1511.27C844.928 1460.78 813.59 1413.78 858.856 1366.77C813.59 1455.56 973.763 1519.98 1029.48 1497.35C940.684 1495.6 994.655 1337.17 998.137 1333.69C1010.32 1361.55 1027.73 1389.4 1055.59 1413.78C1092.15 1448.6 1153.09 1490.38 1198.35 1506.05C1191.39 1464.27 1165.27 1427.71 1161.79 1382.44C1158.31 1340.65 1175.72 1300.61 1170.5 1260.57C1231.43 1311.06 1264.51 1347.62 1248.84 1427.71C1281.92 1394.63 1292.37 1335.43 1287.15 1283.2C1283.66 1251.86 1243.62 1192.67 1267.99 1166.55C1267.99 1241.42 1457.77 1307.58 1520.44 1304.09C1469.95 1284.94 1402.05 1234.45 1368.97 1194.41C1358.53 1180.48 1339.38 1149.14 1327.19 1117.8C1360.27 1143.92 1403.79 1163.07 1435.13 1173.52C1402.05 1142.18 1388.12 1091.69 1384.64 1048.16C1384.64 1042.94 1382.9 1037.72 1382.9 1032.49C1445.58 1042.94 1520.44 1112.58 1511.74 1159.59C1522.18 1079.5 1510 1011.6 1447.32 950.667C1433.39 936.739 1424.69 928.034 1415.98 921.07C1429.91 919.329 1443.84 914.106 1457.77 903.659C1475.18 891.472 1490.84 875.803 1503.03 860.134C1462.99 863.616 1424.69 860.134 1389.87 842.724C1459.51 828.796 1523.92 778.306 1550.04 743.486ZM1163.53 696.479C1024.25 692.997 825.777 637.284 820.554 773.083C818.813 825.314 857.115 875.803 881.489 919.329C914.569 978.523 931.979 1049.9 952.871 1116.06C956.353 1129.99 959.835 1143.92 963.317 1156.11C893.676 1109.1 803.144 1133.47 719.575 1109.1L703.906 1119.55C702.165 1022.05 634.265 936.739 613.373 839.242C583.776 699.961 683.014 574.608 686.496 438.808L653.416 388.319C677.79 402.247 703.906 414.434 731.762 426.621L879.748 498.003C935.461 487.557 985.95 435.326 1013.81 376.132C1019.03 386.578 1025.99 395.283 1036.44 403.988C1062.55 508.449 1064.3 602.464 1137.42 645.989C1154.83 656.435 1179.2 663.399 1201.84 666.881C1187.91 677.327 1173.98 686.033 1163.53 696.479Z" fill="#FFFB64"/>
<path d="M1443.85 1170.04C1443.85 1170.04 1442.1 1170.04 1443.85 1170.04C1442.1 1170.04 1442.1 1170.04 1443.85 1170.04C1443.85 1171.78 1443.85 1171.78 1443.85 1170.04Z" fill="#FFFB64"/>
</g>
<path d="M799.665 1394.63C1104.47 1394.63 1351.57 1147.53 1351.57 842.724C1351.57 537.917 1104.47 290.822 799.665 290.822C494.858 290.822 247.763 537.917 247.763 842.724C247.763 1147.53 494.858 1394.63 799.665 1394.63Z" fill="#FEC20C"/>
<path opacity="0.38" d="M400.96 931.515C385.291 882.767 346.988 959.371 357.434 988.969C298.24 961.112 280.83 1142.18 387.031 1138.7C373.103 1178.74 414.888 1246.64 463.636 1225.75C472.341 1277.98 535.018 1365.03 590.73 1319.76C601.176 1368.51 649.925 1359.8 684.745 1340.65C695.191 1363.29 719.565 1382.44 745.681 1370.25C771.796 1358.06 757.868 1331.95 782.242 1321.5C777.019 1354.58 850.142 1366.77 855.365 1335.43C865.811 1373.73 933.71 1351.1 949.379 1321.5C977.236 1354.58 1060.8 1314.54 1092.14 1298.87C1147.86 1271.01 1193.12 1210.08 1203.57 1147.4C1219.24 1147.4 1236.65 1131.73 1243.61 1119.54C1255.8 1100.39 1247.09 1088.21 1255.8 1070.8C1276.69 1023.79 1327.18 995.933 1334.14 936.738C1337.63 914.105 1335.88 886.249 1327.18 863.615C1321.96 849.687 1302.81 835.759 1299.32 823.572C1288.88 783.529 1339.37 720.852 1287.14 689.514C1306.29 652.953 1295.84 543.269 1231.42 569.384C1240.13 517.153 1179.19 459.7 1130.44 492.779C1074.73 531.082 1088.66 640.766 1090.4 699.96C1081.7 680.809 1055.58 666.881 1034.69 679.068C1015.54 689.514 1017.28 717.37 1012.06 736.521C987.682 677.327 921.523 753.932 905.854 781.788C881.48 825.313 858.847 908.882 874.516 959.371C857.106 936.738 837.954 917.587 806.616 926.292C766.573 936.738 757.868 982.004 728.271 1002.9C683.004 945.443 630.774 988.968 594.212 1020.31C585.507 934.997 498.457 995.933 470.6 1027.27C484.528 976.781 456.672 955.889 400.96 931.515Z" fill="#EB9206"/>
<path opacity="0.41" d="M676.045 348.276C609.886 343.053 522.835 386.578 517.612 459.701C475.828 428.362 392.259 515.413 367.885 550.233C327.842 605.946 313.914 679.069 319.137 748.709C329.583 910.624 494.979 962.854 627.296 905.4C702.16 874.062 801.398 774.824 756.132 684.292C783.988 682.551 797.916 661.658 792.693 632.061C869.298 651.212 958.089 585.054 977.241 511.931C1022.51 341.312 858.852 259.484 676.045 348.276Z" fill="#FFFB64"/>
<path d="M676.047 1312.8C742.205 1312.8 764.839 1284.94 808.364 1248.38C876.264 1377.22 1121.75 1234.45 1184.42 1161.33C1292.37 1032.49 1315 914.106 1292.37 746.968C1280.18 651.212 1231.43 574.608 1156.57 515.413C1144.38 607.687 1184.42 705.184 1156.57 797.458C1140.9 847.947 1118.26 872.321 1074.74 847.947C1050.37 834.019 1052.11 811.386 1015.54 814.868C982.466 818.35 954.609 858.393 938.94 887.99C907.602 945.444 931.976 1149.14 837.961 1147.4C808.364 1110.84 750.91 1070.8 702.162 1089.95C656.896 1107.36 620.334 1168.29 559.399 1157.85C488.017 1145.66 481.053 1032.49 409.671 1015.08C392.261 1011.6 376.592 1029.01 362.664 1025.53C319.139 1013.34 451.456 1312.8 676.047 1312.8Z" fill="#EB9206"/>
<path d="M1132.19 1091.69C1041.65 1110.84 1069.51 985.487 1130.44 964.595C1217.5 934.998 1210.53 1037.72 1167.01 1082.98L1132.19 1091.69Z" fill="#EB9206"/>
<path d="M1215.74 764.378C1179.18 753.932 1170.48 680.809 1219.23 691.255C1219.23 722.593 1217.49 757.414 1257.53 740.004C1274.94 778.306 1283.64 851.429 1254.05 887.99C1201.82 954.148 1153.07 858.393 1194.85 802.68L1215.74 764.378Z" fill="#EB9206"/>
<path d="M686.482 1215.3C663.849 1262.31 618.583 1288.42 576.798 1251.86C535.014 1215.3 571.575 1163.07 613.36 1192.67C648.18 1135.21 801.389 1133.47 730.008 1218.78L686.482 1215.3Z" fill="#EB9206"/>
<path opacity="0.41" d="M456.669 774.824C287.791 774.824 467.115 494.521 501.936 642.507C585.504 661.658 554.166 510.19 573.317 473.629C606.396 414.434 719.562 370.909 714.339 471.888C726.526 452.736 766.57 437.067 757.865 475.37C817.059 416.175 942.412 435.326 897.146 538.046C877.995 581.572 830.987 604.205 787.462 611.169C749.16 618.133 723.044 604.205 688.224 600.723C700.411 626.838 696.929 665.14 662.109 670.363C660.368 741.745 649.922 813.126 590.727 858.393C566.353 877.544 526.31 903.659 493.23 900.177C428.813 896.695 446.223 834.019 456.669 774.824Z" fill="#FFFB64"/>
<path opacity="0.41" d="M839.694 393.541C820.543 402.246 777.018 414.433 763.09 386.577C749.162 360.462 789.205 315.196 804.874 346.534C855.363 311.714 914.558 376.131 848.399 391.8L839.694 393.541Z" fill="#FFFB64"/>
<path opacity="0.41" d="M494.969 543.27C521.085 508.449 486.264 473.629 449.703 487.557C428.811 496.262 392.249 541.529 421.847 550.234C399.213 557.198 376.58 581.572 407.919 590.277C430.552 597.241 468.854 569.385 486.264 557.198L494.969 543.27Z" fill="#FFFB64"/>
<path opacity="0.41" d="M1034.69 477.111C978.974 431.844 1083.44 376.132 1067.77 438.808C1126.96 386.578 1120 525.859 1090.4 557.197C1025.98 626.838 951.118 541.528 1031.2 487.557L1034.69 477.111Z" fill="#FFFB64"/>
<path opacity="0.41" d="M343.515 936.738C352.22 915.846 341.774 860.133 313.918 849.687C272.134 834.018 277.357 896.694 291.285 917.587C235.572 924.551 319.141 1048.16 336.551 954.148L343.515 936.738Z" fill="#FFFB64"/>
<path d="M938.928 433.586C945.892 398.765 937.187 365.686 911.072 341.312C891.921 322.161 851.877 301.269 825.762 322.161C789.201 287.34 721.301 309.974 705.632 353.499C696.927 334.348 655.143 341.312 637.732 344.794C609.876 351.758 590.725 369.168 582.02 397.024C535.013 365.686 463.631 417.917 434.034 450.996C378.321 510.19 333.055 583.313 312.163 663.4C287.788 752.191 284.306 832.278 353.947 900.178C435.775 980.264 548.941 983.746 656.884 961.113C752.639 940.221 850.136 832.278 869.287 738.263C916.295 760.897 938.928 692.997 928.482 658.177C1005.09 649.472 1079.95 438.809 938.928 433.586Z" fill="#EB9206"/>
<path opacity="0.16" d="M566.362 1084.72C555.916 1062.09 547.21 1029.01 522.836 1016.83C500.203 1006.38 458.419 1022.05 481.052 1051.65C435.785 997.674 383.555 1103.88 402.706 1145.66C362.663 1163.07 427.08 1224.01 442.75 1232.71C484.534 1257.09 552.433 1291.91 595.959 1253.6C597.7 1300.61 663.859 1318.02 696.938 1295.39C693.456 1349.36 768.319 1356.32 797.917 1323.24C801.399 1373.73 958.09 1344.14 985.946 1335.43C1032.95 1321.5 1071.26 1297.13 1109.56 1265.79C1137.41 1243.16 1182.68 1204.85 1184.42 1168.29C1219.24 1171.78 1247.1 1124.77 1262.77 1098.65C1287.14 1056.87 1287.14 1023.79 1262.77 983.746C1311.52 955.89 1348.08 860.134 1308.03 814.867C1348.08 799.198 1330.67 687.773 1290.62 679.068C1335.89 647.73 1267.99 541.528 1236.65 522.377C1151.34 471.887 1071.26 550.233 1053.85 630.32C1041.66 687.773 1045.14 748.709 1029.47 806.162C1010.32 879.285 961.572 945.444 891.931 980.264C850.147 1001.16 810.104 978.523 770.06 997.674C728.276 1016.83 714.348 1048.16 700.42 1089.95C683.01 1027.27 602.923 1069.06 566.362 1084.72Z" fill="#EB9206"/>
<path d="M1074.73 724.335C1045.14 733.04 991.165 722.594 972.013 696.478C951.121 670.363 961.567 602.464 1003.35 609.428C966.79 546.751 989.424 426.621 1067.77 402.247C1139.15 379.614 1180.94 477.111 1167.01 534.564C1227.94 501.485 1233.17 649.471 1193.12 682.55C1259.28 668.622 1240.13 792.234 1227.94 821.832C1194.86 903.659 1126.96 985.487 1050.36 1029.01C961.567 1079.5 813.581 1069.06 773.538 957.631C743.94 879.285 810.099 806.162 886.704 839.242C877.999 788.752 938.934 746.968 975.495 792.234C985.942 740.004 1053.84 759.155 1074.73 724.335Z" fill="#EB9206"/>
<path d="M399.213 1138.7C371.357 1164.81 411.4 1185.7 425.329 1203.11C444.48 1227.49 440.998 1257.09 468.854 1276.24C496.71 1295.39 524.566 1288.42 550.682 1309.32C582.02 1333.69 599.43 1354.58 642.955 1345.88C660.366 1342.4 656.884 1330.21 679.517 1333.69C693.445 1335.43 707.373 1354.58 721.301 1358.06C745.675 1365.03 754.38 1352.84 777.014 1352.84C801.388 1352.84 803.129 1363.29 825.762 1375.48C884.957 1406.81 893.662 1354.58 940.669 1342.4C965.043 1335.43 970.266 1349.36 994.64 1333.69C1012.05 1323.24 1013.79 1312.8 1031.2 1307.58C1055.58 1300.61 1052.09 1312.8 1074.73 1293.65C1088.66 1281.46 1095.62 1262.31 1111.29 1250.12C1128.7 1236.19 1151.33 1234.45 1168.74 1220.52C1193.12 1203.11 1201.82 1173.52 1215.75 1150.88C1233.16 1123.03 1280.17 1100.39 1288.87 1067.32C1292.35 1051.65 1280.17 1039.46 1283.65 1023.79C1287.13 1006.38 1308.02 995.934 1316.73 982.006C1328.92 959.372 1361.99 766.12 1313.25 774.825C1295.84 778.307 1297.58 856.653 1294.1 868.84C1285.39 912.365 1262.76 926.293 1241.86 959.372C1224.45 985.488 1236.64 1016.83 1224.45 1044.68C1210.53 1076.02 1180.93 1112.58 1161.78 1142.18C1137.4 1180.48 1121.73 1163.07 1081.69 1173.52C1025.98 1185.7 1027.72 1250.12 985.935 1274.5C954.597 1291.91 902.367 1279.72 871.028 1271.01C824.021 1258.83 820.539 1276.24 777.014 1291.91C736.97 1305.83 707.373 1284.94 674.294 1271.01C648.178 1258.83 634.25 1262.31 604.653 1265.79C561.128 1271.01 552.423 1260.57 522.825 1230.97C505.415 1213.56 493.228 1213.56 472.336 1201.37C442.739 1177 435.775 1136.96 399.213 1138.7Z" fill="#EB9206"/>
<path d="M151.991 242.074C157.214 301.269 145.027 356.981 214.667 381.355C244.265 391.802 266.898 386.579 294.754 377.873C326.092 370.909 334.797 374.391 364.395 388.319C353.949 332.607 320.869 308.233 261.675 311.715C197.257 315.197 171.142 296.046 151.991 242.074Z" fill="#FFFB64"/>
<path d="M1081.69 249.038C1045.13 240.333 1046.87 167.211 1055.58 141.095C1067.77 104.534 1097.36 87.1238 1123.48 59.2676C1092.14 95.8289 1116.51 113.239 1125.22 153.282C1133.92 202.031 1100.85 215.959 1081.69 249.038Z" fill="#FFFB64"/>
<path d="M1478.64 926.293C1522.17 966.336 1642.3 978.524 1633.59 887.991C1598.77 957.631 1513.46 870.581 1478.64 926.293Z" fill="#FFFB64"/>
<path d="M240.782 1253.6C143.285 1274.5 209.444 1389.4 171.142 1443.37C233.818 1391.14 246.005 1337.17 240.782 1253.6Z" fill="#FFFB64"/>
<path d="M1346.32 459.701C1374.18 388.32 1450.78 435.327 1496.05 398.766C1475.15 445.773 1403.77 496.262 1346.32 459.701Z" fill="#FFFB64"/>
<path d="M879.742 1488.64C824.03 1568.73 949.383 1617.48 938.937 1688.86C938.937 1652.3 963.311 1612.25 949.383 1577.43C935.455 1540.87 900.634 1523.46 879.742 1488.64Z" fill="#FFFB64"/>
<path d="M1321.95 1293.65C1297.57 1365.03 1402.03 1399.85 1431.63 1446.86C1433.37 1412.04 1450.78 1377.22 1426.41 1344.14C1400.29 1312.8 1353.28 1328.47 1321.95 1293.65Z" fill="#FFFB64"/>
<path d="M214.678 529.342C169.411 461.442 85.8425 565.903 35.353 576.349C64.9503 583.313 99.7706 600.723 131.109 588.536C162.447 576.349 181.598 518.896 214.678 529.342Z" fill="#FFFB64"/>
<path d="M1454.27 720.853C1478.64 658.176 1536.1 677.327 1569.18 626.838C1551.77 687.773 1534.36 708.666 1454.27 720.853Z" fill="#FFFB64"/>
<path d="M829.236 38.3745C829.236 76.6768 768.301 231.627 827.495 235.109C888.431 236.85 853.61 67.9718 829.236 38.3745Z" fill="#FFFB64"/>
<path d="M686.488 1513.02C615.107 1554.8 677.783 1629.66 642.963 1683.64C693.452 1634.89 703.898 1584.4 686.488 1523.46V1513.02Z" fill="#FFFB64"/>
<path d="M799.653 632.061C797.912 626.838 789.207 628.579 789.207 633.802C789.207 649.471 787.466 689.514 757.868 682.55C754.386 680.809 750.904 686.032 752.645 689.514C778.761 745.227 738.717 820.091 696.933 858.393C662.113 889.731 616.846 914.105 571.58 924.551C467.119 948.926 373.104 886.249 336.543 787.011C336.543 785.27 334.802 787.011 334.802 787.011C346.989 854.911 387.032 910.623 451.45 936.739C517.608 964.595 592.472 943.703 651.667 907.141C707.379 874.062 764.833 820.091 766.574 750.45C766.574 740.004 756.128 699.96 763.092 692.996C763.092 692.996 778.761 689.514 780.502 689.514C797.912 679.068 801.394 651.212 799.653 632.061Z" fill="#FFFB64"/>
<path d="M806.61 308.231C777.013 301.267 743.933 308.231 717.818 320.419C696.926 330.865 681.257 339.57 656.883 337.829C639.472 337.829 627.285 339.57 609.875 344.793C571.573 358.721 500.191 409.21 514.119 457.959C514.119 459.7 515.86 459.7 515.86 457.959C533.27 440.549 538.494 414.433 557.645 395.282C582.019 370.908 615.098 355.239 649.919 355.239C679.516 355.239 681.257 353.498 707.372 337.829C738.71 318.677 771.79 322.159 804.869 313.454C810.092 313.454 810.092 308.231 806.61 308.231Z" fill="#FFFB64"/>
<path d="M855.362 346.535C851.88 346.535 850.139 351.758 851.88 353.499C858.845 360.463 876.255 363.945 864.067 376.132C853.621 384.837 837.952 388.319 824.024 391.802C810.096 395.284 792.686 397.025 778.758 393.543C764.83 390.06 764.83 381.355 766.571 369.168C766.571 369.168 766.571 367.427 764.83 369.168C750.902 377.873 752.643 395.284 766.571 403.989C783.981 412.694 808.355 410.953 827.506 407.471C843.175 403.989 867.55 398.766 876.255 383.096C888.442 362.204 871.032 346.535 855.362 346.535Z" fill="#FFFB64"/>
<path d="M498.458 518.896C498.458 518.896 496.717 518.896 498.458 518.896C491.494 545.011 467.119 562.421 446.227 576.349C435.781 583.313 425.335 585.054 413.148 579.831C411.407 579.831 404.443 572.867 400.961 574.608C392.256 579.831 399.22 590.277 406.184 592.018C420.112 597.241 430.558 585.054 441.004 579.831C467.119 572.867 501.94 548.493 498.458 518.896Z" fill="#FFFB64"/>
<path d="M1106.07 450.995C1097.37 433.585 1085.18 423.139 1071.25 428.362C1071.25 423.139 1067.77 417.916 1060.81 414.434H1059.07C1059.07 423.139 1059.07 430.103 1057.33 438.808C1055.59 445.772 1066.03 449.254 1067.77 444.031C1078.22 419.657 1093.89 454.477 1095.63 459.7C1097.37 466.664 1099.11 471.887 1099.11 478.851C1099.11 503.225 1085.18 520.636 1079.96 543.269C1079.96 545.01 1081.7 548.492 1083.44 545.01C1107.82 525.859 1120 480.592 1106.07 450.995Z" fill="#FFFB64"/>
<path d="M575.058 696.478C573.317 698.22 575.058 703.443 578.54 701.702C592.468 691.255 615.101 684.291 618.583 710.407C620.324 722.594 613.36 736.522 606.396 746.968C592.468 767.86 569.835 790.493 545.461 797.457C522.827 804.421 494.971 800.939 488.007 774.824C481.043 750.45 491.489 727.817 517.604 726.076C524.568 726.076 528.05 717.371 521.086 712.148C510.64 705.184 529.791 686.032 538.496 684.291C543.72 684.291 550.684 689.514 554.166 687.773C561.13 684.291 557.648 673.845 552.425 670.363C543.719 663.399 531.532 666.881 522.827 672.104C507.158 680.809 494.971 701.702 503.676 715.63C482.784 726.076 474.079 755.673 479.302 776.565C489.748 811.385 522.827 816.609 554.166 806.162C588.986 792.234 629.029 760.896 632.511 719.112C635.993 679.068 597.691 668.622 575.058 696.478Z" fill="#FFFB64"/>
<path d="M810.103 487.558C796.175 473.63 775.283 484.076 770.059 501.486C768.318 504.968 773.542 508.45 777.024 506.709C799.657 494.522 792.693 546.752 768.319 550.234C752.649 551.975 735.239 539.788 723.052 534.565C707.383 527.601 693.455 520.637 684.75 503.227C683.009 501.486 681.268 499.745 677.786 499.745C665.599 499.745 658.635 503.227 649.93 510.191C637.742 468.407 580.289 538.047 620.332 548.493C622.073 548.493 623.814 546.752 622.073 545.011C618.591 538.047 618.591 532.824 620.332 525.86C620.332 524.119 637.742 499.745 639.483 520.637C639.483 524.119 644.706 529.342 648.188 525.86C670.822 508.45 669.081 522.378 683.009 532.824C695.196 541.529 709.124 541.529 721.311 551.975C745.685 569.385 761.354 567.644 785.729 548.493C806.621 536.306 830.995 508.45 810.103 487.558Z" fill="#FFFB64"/>
<path d="M474.082 600.723C447.967 595.5 427.075 618.133 414.888 637.284C395.737 668.622 346.988 773.083 420.111 776.565C421.852 776.565 423.593 774.824 421.852 773.083C407.924 759.155 395.737 748.709 397.478 726.076C399.219 710.407 406.183 694.737 411.406 680.809C418.37 665.14 427.075 645.989 439.262 632.061C446.226 623.356 472.341 604.205 479.305 623.356C479.305 623.356 481.046 625.097 481.046 623.356C494.974 616.392 489.751 604.205 474.082 600.723Z" fill="#FFFB64"/>
<path d="M327.835 849.689C299.979 827.055 275.605 872.322 287.792 896.696H289.533C289.533 884.509 293.015 868.84 301.72 860.135C315.648 844.466 331.317 863.617 336.54 877.545C343.504 898.437 340.022 926.293 334.799 947.186C334.799 948.927 336.54 950.668 338.281 948.927C357.432 928.034 352.209 870.581 327.835 849.689Z" fill="#FFFB64"/>
<path d="M923.272 484.074C918.049 461.441 891.934 421.397 865.819 444.031V445.772C900.639 447.513 912.826 487.556 907.603 517.153C902.38 541.528 884.97 557.197 878.006 579.83C878.006 581.571 879.747 585.053 881.488 583.312C916.308 571.125 931.977 515.412 923.272 484.074Z" fill="#FFFB64"/>
<path d="M956.338 386.578C956.338 383.096 952.856 381.355 949.374 379.614C945.892 377.872 942.41 376.132 938.928 377.873C935.446 377.873 930.223 381.355 928.482 386.578V388.319C926.741 391.801 925 397.024 923.259 400.506C921.518 405.729 923.259 410.952 928.482 414.434C933.705 419.657 944.151 421.398 949.374 414.434C951.115 412.693 951.115 412.693 952.856 410.952C958.079 402.247 958.079 395.283 956.338 386.578Z" fill="#FFFB64"/>
<path d="M987.674 372.65C975.486 372.65 975.486 391.802 987.674 391.802C999.861 391.802 999.861 372.65 987.674 372.65Z" fill="#FFFB64"/>
<path d="M383.543 645.99C380.061 637.285 373.097 633.803 364.392 639.026C364.392 639.026 362.651 639.026 362.651 640.767C352.205 642.508 343.5 651.213 338.277 659.918C334.795 668.623 331.313 680.81 336.536 691.256C336.536 698.22 343.5 701.702 350.464 701.702C352.205 701.702 355.687 703.443 357.428 703.443C378.32 699.961 390.507 663.4 383.543 645.99Z" fill="#FFFB64"/>
<path d="M353.955 614.651C338.286 614.651 338.286 639.026 353.955 639.026C367.883 639.026 369.624 614.651 353.955 614.651Z" fill="#FFFB64"/>
<path d="M905.855 659.918C893.668 647.731 877.999 649.472 864.071 658.177C850.143 661.659 836.215 672.105 825.768 680.81C810.099 694.738 799.653 713.889 801.394 734.782C801.394 750.451 811.84 764.379 829.25 762.638C846.661 760.897 853.625 746.969 860.589 734.782C888.445 752.192 935.452 687.774 905.855 659.918Z" fill="#FFFB64"/>
<path d="M857.098 753.932C853.616 755.673 850.134 757.414 848.393 759.156C844.911 760.897 841.429 766.12 843.17 771.343C843.17 778.307 850.134 783.53 855.357 781.789C860.58 781.789 864.062 778.307 865.803 773.084L867.544 771.343C874.508 764.379 869.285 750.45 857.098 753.932Z" fill="#FFFB64"/>
<path d="M649.92 595.5C649.92 592.018 648.179 590.277 646.438 586.795C642.956 581.572 635.991 579.831 629.027 581.572C616.84 588.536 609.876 604.205 611.617 618.134C611.617 619.875 611.617 619.875 611.617 621.616C611.617 626.839 615.099 632.062 618.581 633.803C632.509 642.508 646.438 628.58 649.92 616.393C653.402 609.429 653.402 600.723 649.92 595.5Z" fill="#FFFB64"/>
<path d="M580.272 607.687V609.428C583.754 619.874 597.682 619.874 601.164 609.428V607.687C608.128 588.535 575.049 588.535 580.272 607.687Z" fill="#FFFB64"/>
<path d="M521.086 868.839C528.05 863.616 528.05 854.911 522.827 851.429C522.827 851.429 522.827 851.429 522.827 849.688C526.309 851.429 519.345 847.947 519.345 847.947C517.604 847.947 515.863 847.947 514.122 847.947C514.122 847.947 514.122 847.947 512.381 847.947C505.417 849.688 503.676 854.911 503.676 860.134C503.676 865.357 505.417 870.58 512.381 872.321C512.381 872.321 512.381 872.321 514.122 872.321C515.863 872.321 517.604 872.321 519.345 872.321C517.604 870.58 524.568 867.098 521.086 868.839Z" fill="#FFFB64"/>
<path d="M548.949 840.982C536.762 840.982 536.762 860.134 548.949 860.134C561.136 860.134 561.136 840.982 548.949 840.982Z" fill="#FFFB64"/>
<path d="M559.397 884.508C559.397 875.803 554.174 872.321 547.21 870.58C535.023 868.839 517.613 872.321 517.613 887.99C517.613 889.731 517.613 891.473 519.354 893.214C519.354 900.178 522.836 908.883 531.541 912.365C533.282 912.365 535.023 912.365 536.764 912.365C548.951 917.588 562.879 910.624 562.879 896.696C562.879 893.213 561.138 887.99 559.397 884.508Z" fill="#FFFB64"/>
<path d="M655.149 426.621C649.926 424.88 644.703 424.88 641.221 428.362C639.48 428.362 637.739 428.362 635.998 428.362C629.034 430.103 625.552 437.067 625.552 444.031C625.552 450.995 630.775 456.218 637.739 456.218C642.962 456.218 648.185 456.218 653.408 454.477C656.89 452.736 660.373 447.513 662.114 444.031C667.337 438.808 662.114 428.362 655.149 426.621Z" fill="#FFFB64"/>
<path d="M693.454 370.909C679.526 370.909 679.526 393.542 693.454 393.542C709.123 393.542 709.123 370.909 693.454 370.909Z" fill="#FFFB64"/>
<path d="M731.75 736.521C730.009 726.075 726.527 717.37 717.822 712.147C710.858 708.665 702.153 708.665 695.189 712.147C693.448 712.147 693.448 712.147 691.707 712.147C679.52 715.629 674.297 729.557 670.815 738.262C665.592 750.45 662.11 764.378 665.592 778.306C672.556 800.939 696.93 811.385 714.34 792.234C728.268 780.047 733.491 755.673 731.75 736.521Z" fill="#FFFB64"/>
<path d="M707.371 677.328C700.407 673.846 693.443 672.105 686.479 675.587C682.997 677.328 681.256 679.069 679.515 682.552C670.81 684.293 667.328 696.48 672.551 703.444C684.738 719.113 702.148 708.667 710.853 694.739C714.335 687.775 712.594 679.07 707.371 677.328Z" fill="#FFFB64"/>
<path opacity="0.6" d="M824.024 919.328C794.427 915.846 763.089 933.256 745.679 955.889C736.974 966.335 735.232 980.264 726.527 990.71C709.117 1011.6 700.412 983.746 683.002 976.782C658.628 968.076 622.066 988.969 599.433 1004.64C580.282 941.961 493.231 978.523 470.598 1027.27C470.598 1029.01 470.598 1029.01 472.339 1029.01C510.641 1016.82 564.613 948.925 587.246 1018.57C588.987 1023.79 597.692 1027.27 601.174 1020.31C615.102 992.451 655.146 975.04 684.743 985.487C698.671 990.71 709.117 1002.9 723.045 1008.12C724.786 1009.86 728.268 1008.12 728.268 1004.64C726.527 975.04 770.053 945.443 794.427 938.479C808.355 934.997 824.024 933.256 836.211 938.479C848.398 943.702 855.363 954.148 867.55 961.112C869.291 962.853 872.773 961.112 872.773 957.63C871.032 936.738 846.657 922.81 824.024 919.328Z" fill="#FFFB64"/>
<path opacity="0.6" d="M1214.01 560.68C1207.04 541.528 1191.37 524.118 1168.74 524.118C1144.37 524.118 1125.22 545.01 1113.03 564.162C1102.58 581.572 1092.14 602.464 1088.65 623.356C1085.17 645.989 1090.4 666.881 1086.91 689.515C1055.58 665.14 1012.05 682.551 1008.57 727.817C1008.57 729.558 1010.31 729.558 1012.05 727.817C1027.72 696.479 1057.32 673.845 1085.17 708.666C1090.4 715.63 1097.36 708.666 1099.1 703.443C1102.58 677.328 1097.36 651.212 1100.84 625.097C1106.06 597.241 1125.22 546.751 1156.55 538.046C1189.63 531.082 1201.82 567.644 1201.82 593.759C1200.08 621.615 1184.41 644.248 1182.67 672.104C1182.67 680.81 1196.6 682.551 1198.34 673.845C1205.3 635.543 1229.68 600.723 1214.01 560.68Z" fill="#FFFB64"/>
<path opacity="0.6" d="M1099.1 858.394C1074.72 839.243 1043.38 806.163 1010.31 804.422C973.744 802.681 947.628 835.761 935.441 865.358C911.067 917.588 914.549 976.783 904.103 1032.5C898.88 1055.13 891.916 1077.76 881.47 1098.65C871.024 1123.03 858.837 1131.73 832.722 1136.96C829.24 1136.96 827.498 1142.18 830.98 1145.66C884.952 1196.15 923.254 1039.46 926.736 1013.34C935.441 957.632 931.959 884.509 975.485 840.984C1025.97 790.494 1052.09 874.063 1100.84 861.876C1100.84 861.876 1100.84 858.394 1099.1 858.394Z" fill="#FFFB64"/>
<path opacity="0.6" d="M683.005 1123.03C651.666 1131.73 623.81 1152.62 618.587 1185.7C594.213 1180.48 561.134 1182.22 550.687 1210.08C540.241 1234.45 554.17 1267.53 582.026 1269.27C585.508 1269.27 585.508 1265.79 583.767 1264.05C576.803 1258.83 568.098 1246.64 566.357 1237.93C561.134 1215.3 575.062 1204.86 597.695 1203.11C608.141 1201.37 616.846 1203.11 625.551 1201.37C629.033 1201.37 630.774 1196.15 630.774 1194.41C627.292 1170.03 658.63 1150.88 677.782 1143.92C703.897 1135.21 723.048 1136.96 730.012 1164.81C730.012 1166.55 733.494 1166.55 733.494 1164.81C745.681 1129.99 709.12 1116.06 683.005 1123.03Z" fill="#FFFB64"/>
<path opacity="0.6" d="M1200.08 988.969C1193.12 961.112 1161.78 952.407 1135.66 959.371C1100.84 966.335 1079.95 997.674 1069.51 1030.75C1060.8 1056.87 1059.06 1091.69 1085.17 1107.36C1106.07 1119.54 1144.37 1110.84 1156.56 1089.95C1158.3 1088.21 1154.81 1086.47 1154.81 1088.21C1140.89 1096.91 1130.44 1102.13 1113.03 1100.39C1097.36 1098.65 1083.43 1088.21 1079.95 1072.54C1074.73 1048.16 1090.4 1013.34 1106.07 995.933C1126.96 973.299 1161.78 966.336 1184.41 988.969C1186.15 990.71 1193.12 1001.16 1196.6 997.674L1198.34 995.933C1200.08 992.451 1201.82 990.71 1200.08 988.969Z" fill="#FFFB64"/>
<path opacity="0.6" d="M1198.35 682.551C1165.27 703.443 1175.72 741.745 1198.35 766.119C1128.71 792.235 1167.01 976.782 1247.1 905.401C1248.84 903.66 1247.1 900.178 1245.36 901.919C1205.31 908.883 1182.68 896.696 1177.46 853.17C1173.98 825.314 1180.94 778.307 1215.76 778.307C1224.47 778.307 1226.21 767.86 1219.24 762.637C1210.54 757.414 1203.57 750.45 1198.35 740.004C1184.42 713.889 1194.87 698.22 1227.95 692.997C1240.13 698.22 1254.06 724.335 1257.54 736.522C1257.54 738.263 1259.29 738.263 1259.29 736.522C1264.51 705.184 1233.17 659.918 1198.35 682.551Z" fill="#FFFB64"/>
<path opacity="0.6" d="M1003.35 1056.87C958.088 1041.2 926.75 1096.91 933.714 1135.22C919.785 1140.44 914.562 1156.11 916.303 1171.78C872.778 1183.96 799.655 1239.68 853.627 1281.46C878.001 1300.61 912.821 1297.13 938.937 1286.68C958.088 1279.72 992.908 1260.57 985.944 1236.19C985.944 1232.71 982.462 1232.71 978.98 1234.45C965.052 1244.9 959.829 1258.83 942.419 1267.53C925.009 1276.24 895.411 1284.94 876.26 1277.98C843.181 1267.53 844.922 1234.45 869.296 1213.56C886.706 1197.89 905.857 1192.67 926.75 1185.7C931.973 1183.96 933.714 1178.74 931.973 1173.52C935.455 1164.81 937.196 1156.11 940.678 1147.4C945.901 1149.14 951.124 1143.92 949.383 1138.7C940.678 1109.1 965.052 1046.42 1006.84 1067.32C1050.36 1089.95 1013.8 1147.4 996.39 1171.78C996.39 1173.52 996.39 1173.52 998.131 1173.52C1041.66 1154.37 1059.07 1074.28 1003.35 1056.87Z" fill="#FFFB64"/>
<path opacity="0.6" d="M1074.74 929.775C1067.77 914.106 1055.59 912.365 1043.4 914.106C1048.62 893.213 1046.88 865.357 1017.28 875.803C991.168 884.508 966.794 933.257 998.132 950.667C999.873 952.408 1003.35 948.926 1001.61 947.185C992.909 931.516 999.873 907.142 1012.06 894.954C1034.69 874.062 1034.69 907.142 1025.99 922.811C1022.51 929.775 1031.21 934.998 1036.43 929.775C1069.51 901.918 1071.25 968.077 1053.84 985.487C1045.14 994.192 1031.21 1001.16 1019.02 1004.64C999.873 1008.12 996.391 995.933 989.427 980.264C987.686 976.782 982.463 975.041 980.722 980.264C973.758 1001.16 989.427 1018.57 1010.32 1016.83C1031.21 1015.08 1053.84 1002.9 1067.77 987.228C1079.96 969.818 1083.44 947.185 1074.74 929.775Z" fill="#FFFB64"/>
<path opacity="0.6" d="M604.647 1058.61C601.165 1056.87 597.683 1055.13 594.201 1053.39C592.46 1051.64 590.719 1051.65 588.978 1051.65C582.014 1051.65 576.791 1053.39 571.568 1056.87C559.38 1062.09 550.675 1074.28 545.452 1086.47C543.711 1093.43 548.934 1100.39 554.157 1103.88C555.898 1103.88 557.639 1103.88 559.38 1103.88C569.826 1107.36 580.273 1103.88 588.978 1098.65C594.201 1095.17 599.424 1091.69 602.906 1088.21C606.388 1084.72 606.388 1081.24 606.388 1077.76C613.352 1070.8 609.87 1063.83 604.647 1058.61Z" fill="#FFFB64"/>
<path opacity="0.6" d="M547.212 1046.42C531.543 1046.42 531.543 1070.8 547.212 1070.8C562.881 1070.8 562.881 1046.42 547.212 1046.42Z" fill="#FFFB64"/>
<path opacity="0.6" d="M1140.9 766.119C1147.86 750.45 1151.34 729.558 1132.19 722.594C1121.75 719.112 1111.3 724.335 1104.34 733.04C1085.19 746.968 1071.26 771.343 1069.52 795.717C1069.52 800.94 1073 806.163 1078.22 807.904C1081.7 813.127 1088.67 816.609 1095.63 811.386C1097.37 809.645 1099.11 809.645 1100.85 807.904C1102.6 807.904 1104.34 806.163 1104.34 806.163C1106.08 806.163 1107.82 806.163 1109.56 804.422C1113.04 802.681 1114.78 799.199 1118.26 795.717C1121.75 792.235 1125.23 788.753 1126.97 783.53C1133.93 781.789 1139.16 773.084 1140.9 766.119Z" fill="#FFFB64"/>
<path opacity="0.6" d="M1071.25 724.336C1060.8 729.559 1057.32 741.746 1066.03 750.451C1069.51 753.933 1074.73 753.933 1079.95 752.192C1081.7 750.451 1083.44 750.451 1085.18 748.71L1086.92 746.969C1088.66 745.228 1088.66 745.228 1088.66 743.487C1095.62 731.3 1083.44 719.112 1071.25 724.336Z" fill="#FFFB64"/>
<path opacity="0.6" d="M458.404 1084.73C454.922 1077.76 449.699 1074.28 444.476 1070.8C440.994 1067.32 435.771 1063.83 432.288 1060.35C423.583 1055.13 414.878 1060.35 413.137 1069.06C409.655 1077.76 411.396 1086.47 414.878 1093.43C413.137 1110.84 423.583 1128.25 439.252 1135.21C447.958 1138.7 454.922 1135.21 458.404 1126.51C461.886 1124.77 463.627 1121.29 465.368 1116.06C467.109 1107.36 463.627 1093.43 458.404 1084.73Z" fill="#FFFB64"/>
<path opacity="0.6" d="M395.74 1069.06C390.517 1065.57 383.553 1067.32 381.812 1072.54C380.071 1076.02 380.071 1079.5 381.812 1082.98C383.553 1093.43 399.222 1093.43 404.445 1086.47C406.186 1079.5 402.704 1070.8 395.74 1069.06Z" fill="#FFFB64"/>
<path opacity="0.6" d="M460.153 975.042C454.93 957.632 441.002 947.186 427.074 950.668C423.592 934.998 411.405 919.329 393.995 917.588C367.879 914.106 355.692 940.222 357.433 962.855C357.433 964.596 360.915 964.596 360.915 962.855C366.138 948.927 376.584 924.552 397.477 936.74C407.923 943.704 407.923 957.632 409.664 968.078C411.405 975.042 421.851 975.042 423.592 968.078C427.074 957.632 437.52 969.819 439.261 973.301C444.484 980.265 444.484 988.97 441.002 997.675C435.779 1011.6 425.333 1013.34 414.887 1022.05C411.405 1025.53 413.146 1029.01 416.628 1030.75C449.707 1041.2 468.858 997.675 460.153 975.042Z" fill="#FFFB64"/>
<path opacity="0.6" d="M952.866 773.084C914.564 740.005 881.485 790.494 869.298 827.056C851.887 818.35 822.29 827.056 804.88 834.02C768.319 849.689 752.65 889.732 764.837 926.293C766.578 929.775 770.06 929.775 771.801 926.293C780.506 901.919 775.283 875.804 796.175 856.653C806.621 846.207 855.369 821.832 864.074 846.207C867.557 853.171 879.744 854.912 881.485 846.207C884.967 825.314 893.672 799.199 912.823 787.012C928.492 778.307 949.384 778.307 945.902 800.94C944.161 814.868 928.492 821.832 918.046 825.315C918.046 825.315 918.046 825.314 918.046 827.056C949.384 840.984 977.24 795.717 952.866 773.084Z" fill="#FFFB64"/>
<path opacity="0.6" d="M749.166 1180.48C749.166 1180.48 747.425 1180.48 745.684 1180.48C740.461 1185.7 742.202 1190.93 740.461 1197.89C738.72 1206.6 735.238 1211.82 728.274 1217.04C721.31 1220.52 712.605 1222.27 703.9 1222.27C700.418 1222.27 686.49 1222.27 684.749 1217.04C684.749 1215.3 683.008 1217.04 683.008 1217.04C683.008 1227.49 686.49 1230.97 695.195 1232.71C705.641 1236.19 719.569 1234.45 730.015 1229.23C740.461 1225.75 747.425 1218.78 750.907 1208.34C754.389 1201.37 757.872 1185.7 749.166 1180.48Z" fill="#FFFB64"/>
<path opacity="0.6" d="M796.155 1006.38C778.745 1009.86 759.594 1020.31 754.371 1037.72C750.889 1046.42 759.594 1053.39 766.558 1055.13H768.299L770.04 1056.87C785.709 1070.8 804.86 1060.35 815.306 1044.68C820.529 1039.46 825.752 1034.24 827.493 1027.27C834.458 1006.38 810.083 1002.9 796.155 1006.38Z" fill="#FFFB64"/>
<path opacity="0.6" d="M759.608 1063.83C759.608 1063.83 757.867 1063.83 757.867 1062.09C750.903 1058.61 742.198 1062.09 742.198 1070.8C742.198 1079.5 750.903 1082.98 757.867 1079.5C757.867 1079.5 759.608 1079.5 759.608 1077.76C766.572 1077.76 766.572 1067.31 759.608 1063.83Z" fill="#FFFB64"/>
<path opacity="0.6" d="M540.247 1311.06C522.837 1305.83 510.65 1293.65 498.463 1281.46C489.758 1269.27 475.83 1255.34 472.348 1239.68C472.348 1237.93 470.607 1239.68 470.607 1239.68C467.125 1267.53 486.276 1293.65 507.168 1311.06C517.614 1319.76 533.283 1326.73 545.47 1324.98C559.398 1323.24 569.844 1300.61 578.55 1319.76H580.291C573.327 1293.65 557.657 1314.54 540.247 1311.06Z" fill="#FFFB64"/>
<path opacity="0.6" d="M766.57 1316.28C763.088 1321.5 763.088 1323.24 761.347 1328.47C756.124 1345.88 763.088 1344.14 742.196 1356.32C719.563 1368.51 726.527 1363.29 712.599 1344.14C709.117 1340.65 707.376 1335.43 703.894 1331.95C702.153 1330.21 700.411 1330.21 700.411 1331.95C676.037 1359.81 663.85 1337.17 639.476 1330.21C629.03 1326.73 623.807 1328.47 616.843 1337.17C627.289 1323.24 660.368 1358.06 672.555 1358.06C679.519 1358.06 686.483 1358.06 693.447 1352.84C705.635 1344.14 702.152 1338.91 714.34 1352.84C724.786 1365.03 733.491 1380.7 752.642 1370.25C768.311 1361.55 777.016 1335.43 777.016 1319.76C775.275 1312.8 768.311 1312.8 766.57 1316.28Z" fill="#FFFB64"/>
<path opacity="0.6" d="M1189.65 1166.55C1187.91 1159.59 1179.2 1159.59 1177.46 1166.55C1173.98 1194.41 1180.94 1201.37 1139.16 1222.27C1135.68 1224.01 1132.19 1222.27 1128.71 1224.01C1120.01 1229.23 1114.78 1230.97 1109.56 1239.68C1100.86 1253.6 1099.11 1271.01 1090.41 1284.94C1071.26 1312.8 1046.88 1300.61 1020.77 1305.83C1012.06 1307.57 1006.84 1312.8 1001.62 1318.02C984.208 1330.21 982.467 1331.95 952.87 1326.73C947.647 1326.73 944.165 1321.5 938.942 1321.5C928.495 1321.5 923.272 1323.24 914.567 1328.47C911.085 1330.21 911.085 1333.69 907.603 1335.43C891.934 1344.14 881.488 1337.17 867.56 1330.21C865.819 1330.21 865.819 1330.21 865.819 1331.95C869.301 1347.62 878.006 1359.81 895.416 1361.55C909.344 1361.55 909.344 1354.58 919.79 1349.36C944.165 1335.43 965.057 1354.58 989.431 1344.14C1010.32 1335.43 1013.81 1316.28 1038.18 1314.54C1057.33 1314.54 1071.26 1318.02 1088.67 1302.35C1104.34 1288.42 1106.08 1267.53 1116.53 1250.12C1130.45 1227.49 1158.31 1236.19 1177.46 1217.04C1189.65 1204.85 1191.39 1183.96 1189.65 1166.55Z" fill="#FFFB64"/>
<path opacity="0.6" d="M1295.84 1009.86C1295.84 1008.12 1294.1 1006.38 1292.35 1008.12C1283.65 1013.34 1274.94 1020.31 1264.5 1023.79C1261.02 1025.53 1259.27 1029.01 1259.27 1032.5C1266.24 1049.91 1267.98 1105.62 1238.38 1102.14C1236.64 1102.14 1236.64 1103.88 1236.64 1103.88C1252.31 1119.55 1266.24 1105.62 1271.46 1089.95C1276.68 1074.28 1278.43 1051.65 1273.2 1034.24C1285.39 1027.27 1294.1 1020.31 1295.84 1009.86Z" fill="#FFFB64"/>
<path opacity="0.6" d="M1301.07 835.759C1297.58 834.018 1294.1 835.759 1292.36 840.982C1292.36 847.946 1292.36 849.687 1297.58 856.652C1308.03 872.321 1321.96 877.544 1321.96 900.177C1323.7 931.515 1316.73 964.594 1301.07 992.451C1301.07 994.192 1302.81 994.192 1302.81 994.192C1335.89 950.666 1358.52 867.098 1301.07 835.759Z" fill="#FFFB64"/>
<path opacity="0.6" d="M1236.64 186.362C1236.64 182.879 1231.42 182.879 1231.42 186.362C1231.42 189.844 1231.42 191.585 1231.42 195.067C1226.2 196.808 1220.97 217.7 1219.23 224.664C1208.79 245.556 1191.38 266.448 1170.48 278.635C1154.82 289.081 1137.41 296.045 1121.74 306.492C1102.59 318.679 1069.51 346.535 1099.1 367.427C1102.59 370.909 1106.07 365.686 1104.33 362.204C1086.92 325.643 1154.82 306.492 1177.45 292.563C1208.79 268.189 1240.13 228.146 1236.64 186.362Z" fill="#FFFB64"/>
<path opacity="0.6" d="M1220.97 256.002C1212.27 273.413 1205.3 290.823 1198.34 308.233C1189.63 330.866 1175.71 350.017 1165.26 372.65C1163.52 374.391 1167 377.873 1168.74 376.132C1207.04 355.24 1210.53 294.305 1220.97 256.002Z" fill="#FFFB64"/>
<path opacity="0.6" d="M1325.44 372.65C1299.33 367.427 1266.25 381.355 1243.62 391.801C1224.47 402.247 1193.13 421.398 1198.35 447.513C1200.09 452.736 1207.06 452.736 1208.8 449.254C1222.72 428.362 1234.91 414.434 1261.03 403.988C1281.92 395.283 1302.81 390.06 1325.44 386.578C1332.41 384.837 1332.41 374.391 1325.44 372.65Z" fill="#FFFB64"/>
<path opacity="0.6" d="M1318.47 381.355C1297.58 390.061 1281.91 405.73 1269.72 424.881C1259.28 442.291 1243.61 468.406 1245.35 491.039C1245.35 492.78 1248.83 494.521 1250.57 492.78C1262.76 477.111 1267.98 456.219 1276.69 438.809C1287.13 416.176 1301.06 397.025 1318.47 381.355C1320.21 381.355 1320.21 381.355 1318.47 381.355Z" fill="#FFFB64"/>
<path opacity="0.6" d="M669.083 276.895C662.119 268.19 653.414 266.449 644.709 261.225C629.04 252.52 616.853 240.333 604.665 228.146C580.291 202.031 561.14 170.693 557.658 135.872C557.658 132.39 552.435 130.649 550.694 134.131C526.32 188.103 559.399 249.038 588.996 294.305C566.363 252.52 545.471 205.513 552.435 158.506C557.658 184.621 573.327 210.736 588.996 231.628C604.666 252.52 637.745 289.082 667.342 283.859C670.824 282.118 672.565 278.636 669.083 276.895Z" fill="#FFFB64"/>
<path opacity="0.6" d="M742.197 224.663C736.974 208.994 735.233 191.584 733.492 175.915C733.492 174.174 730.01 172.433 730.01 174.174C719.564 189.843 712.6 208.994 707.377 226.404C703.895 242.073 696.931 262.966 705.636 276.894C707.377 278.635 709.118 278.635 709.118 276.894C716.082 261.225 714.341 242.073 719.564 224.663C723.046 214.217 724.787 203.771 728.269 193.325C728.269 219.44 735.233 252.519 757.866 264.707C759.607 264.707 759.607 264.707 759.607 262.966C754.384 250.778 745.679 238.591 742.197 224.663Z" fill="#FFFB64"/>
<path opacity="0.6" d="M921.524 177.656C911.078 212.476 904.113 245.555 874.516 269.93C907.595 256.001 919.783 210.735 921.524 177.656C921.524 177.656 923.265 177.656 921.524 177.656Z" fill="#FFFB64"/>
<path opacity="0.6" d="M985.944 215.959C985.944 214.218 982.462 214.218 982.462 215.959C977.239 242.074 959.828 266.449 942.418 287.341C945.9 250.78 938.936 212.477 923.267 179.398C928.49 221.182 933.713 259.485 930.231 301.269C930.231 304.751 935.454 308.233 938.936 304.751C956.346 285.6 977.239 264.708 984.203 238.592C991.167 210.736 984.203 233.369 985.944 245.557C987.685 262.967 987.685 282.118 992.908 299.528C992.908 303.01 998.131 303.01 998.131 299.528C1005.09 271.672 989.426 242.074 985.944 215.959Z" fill="#FFFB64"/>
<path opacity="0.6" d="M521.087 343.052C501.936 334.347 481.044 334.347 461.892 323.901C441 313.455 421.849 301.268 402.698 287.34C400.957 285.599 395.734 289.081 397.475 290.822C409.662 322.16 435.777 350.016 458.41 374.39C460.151 376.132 463.633 374.39 461.892 370.908C447.964 346.534 430.554 325.642 414.885 303.009C447.964 323.901 481.044 339.57 521.087 344.793C521.087 346.534 522.828 344.793 521.087 343.052Z" fill="#FFFB64"/>
<path opacity="0.6" d="M367.883 454.477C350.472 454.477 333.062 456.218 315.652 459.7C303.465 463.182 286.055 466.664 279.091 478.851C279.091 478.851 279.091 480.592 280.832 480.592C294.76 475.369 308.688 470.146 322.616 464.923C338.285 459.7 352.213 457.959 367.883 454.477C369.624 454.477 369.624 456.218 367.883 454.477Z" fill="#FFFB64"/>
<path opacity="0.6" d="M355.692 492.78C343.505 485.815 326.094 485.816 313.907 482.333C326.094 487.557 341.763 494.521 355.692 496.262C357.433 496.262 357.433 494.521 355.692 492.78Z" fill="#FFFB64"/>
<path opacity="0.6" d="M287.785 551.975C258.187 545.011 233.813 571.126 216.403 592.018C192.029 621.615 169.396 658.177 131.093 670.364C125.87 672.105 125.87 680.81 132.834 679.069C132.834 679.069 132.834 679.069 134.575 679.069C143.28 679.069 150.244 675.587 157.208 672.105C181.583 665.141 207.698 665.141 233.813 661.659C237.295 661.659 235.554 654.694 232.072 654.694C212.921 652.953 195.511 652.953 176.36 656.436C185.065 647.73 192.029 639.025 197.252 630.32C223.367 595.5 242.518 567.644 287.785 551.975C287.785 553.716 287.785 553.716 287.785 551.975Z" fill="#FFFB64"/>
<path opacity="0.6" d="M232.074 708.666C197.254 736.522 169.397 783.529 117.167 769.601C111.944 767.86 108.462 774.824 113.685 778.306C141.541 793.975 164.174 823.573 193.771 834.019C195.512 834.019 197.254 832.278 197.254 830.537C185.066 811.385 160.692 795.716 138.059 781.788C178.102 780.047 207.7 740.004 235.556 712.148C235.556 710.407 233.815 708.666 232.074 708.666Z" fill="#FFFB64"/>
<path opacity="0.6" d="M165.919 896.694C185.07 893.212 211.185 882.766 225.113 867.097V865.356C207.703 865.356 192.034 875.802 174.624 879.284C151.991 882.766 131.098 881.025 110.206 870.579C103.242 867.097 92.796 874.061 98.019 882.766C125.875 921.068 171.142 968.076 216.408 982.004C218.149 982.004 219.89 980.263 218.149 980.263C204.221 961.112 185.07 948.925 167.66 933.256C153.732 921.068 139.803 908.881 127.616 894.953C141.544 898.435 153.732 898.435 165.919 896.694Z" fill="#FFFB64"/>
<path opacity="0.6" d="M221.641 1086.47C179.857 1082.98 134.591 1079.5 99.7704 1055.13C141.555 1051.65 192.044 1041.2 219.9 1011.6C221.641 1009.86 219.9 1008.12 218.159 1008.12C195.526 1013.34 178.116 1027.27 155.483 1034.24C131.109 1041.2 106.734 1041.2 82.3603 1042.94C75.3962 1042.94 73.6552 1051.65 78.8782 1055.13C120.663 1079.5 171.152 1110.84 221.641 1089.95C223.382 1088.21 223.382 1086.47 221.641 1086.47Z" fill="#FFFB64"/>
<path opacity="0.6" d="M296.503 1170.03C282.575 1177 270.388 1189.19 254.719 1192.67C270.388 1170.03 293.021 1152.62 299.985 1126.51C299.985 1124.77 298.244 1123.03 296.503 1124.77C279.093 1147.4 261.683 1170.03 247.755 1194.41C246.014 1196.15 247.755 1197.89 249.496 1197.89C268.647 1196.15 287.798 1187.44 299.985 1171.78C299.985 1170.03 298.244 1168.29 296.503 1170.03Z" fill="#FFFB64"/>
<path opacity="0.6" d="M350.476 1331.95C338.289 1293.65 327.843 1257.09 334.807 1215.3C334.807 1211.82 331.325 1210.08 329.584 1213.56C317.397 1243.16 317.397 1271.01 324.361 1302.35C333.066 1337.17 343.512 1375.48 359.181 1406.81C359.181 1408.55 362.664 1408.55 362.664 1406.81C367.887 1380.7 357.44 1356.32 350.476 1331.95Z" fill="#FFFB64"/>
<path opacity="0.6" d="M393.997 1244.9C392.256 1243.16 388.774 1244.9 390.515 1246.64C399.22 1283.2 392.256 1311.06 383.551 1345.88C383.551 1347.62 385.292 1349.36 387.033 1347.62C407.925 1319.76 413.148 1276.24 393.997 1244.9Z" fill="#FFFB64"/>
<path opacity="0.6" d="M533.285 1358.06C522.839 1373.73 526.321 1392.88 519.357 1410.29C510.652 1385.92 496.724 1365.03 482.796 1344.14C496.724 1366.77 508.911 1391.14 517.616 1417.26C517.616 1420.74 521.098 1420.74 522.839 1417.26C535.026 1399.85 538.508 1378.96 538.508 1358.06C536.767 1358.06 533.285 1356.32 533.285 1358.06Z" fill="#FFFB64"/>
<path opacity="0.6" d="M625.551 1452.08C620.328 1425.96 604.659 1405.07 587.249 1385.92C585.508 1384.18 583.767 1385.92 585.508 1387.66C592.472 1410.3 608.141 1429.45 615.105 1452.08C622.069 1478.19 611.623 1500.83 608.141 1526.94C608.141 1530.43 613.364 1532.17 615.105 1528.68C622.069 1502.57 630.774 1478.19 625.551 1452.08Z" fill="#FFFB64"/>
<path opacity="0.6" d="M660.376 1448.6C653.412 1457.3 649.93 1467.75 642.966 1478.19C636.002 1490.38 630.779 1502.57 622.074 1513.01C622.074 1513.01 622.074 1514.76 622.074 1513.01C639.484 1495.6 658.635 1474.71 662.117 1450.34C663.858 1448.6 662.117 1446.86 660.376 1448.6Z" fill="#FFFB64"/>
<path opacity="0.6" d="M817.065 1488.64C817.065 1486.9 815.324 1486.9 813.583 1488.64C808.359 1509.53 806.619 1530.42 799.655 1549.58C799.655 1535.65 797.913 1521.72 792.69 1509.53C780.503 1479.93 756.129 1462.52 750.906 1427.7H749.165C749.165 1450.34 757.87 1464.27 766.575 1483.42C782.244 1516.5 787.467 1547.83 787.467 1584.4C787.467 1589.62 794.431 1589.62 796.172 1586.14C811.842 1553.06 824.029 1525.2 817.065 1488.64Z" fill="#FFFB64"/>
<path opacity="0.6" d="M982.457 1476.45C959.824 1462.53 968.529 1431.19 968.529 1410.29C968.529 1408.55 965.047 1406.81 965.047 1408.55C954.6 1429.45 958.082 1452.08 968.529 1471.23C952.859 1466.01 938.931 1459.04 925.003 1448.6C907.593 1436.41 897.147 1417.26 881.478 1403.33H879.737C879.737 1424.22 900.629 1443.37 914.557 1453.82C933.708 1467.75 954.6 1478.19 977.234 1483.42C984.198 1488.64 987.68 1479.94 982.457 1476.45Z" fill="#FFFB64"/>
<path opacity="0.6" d="M1168.75 1471.23C1139.15 1431.19 1146.11 1380.7 1149.59 1335.43C1149.59 1330.21 1144.37 1330.21 1140.89 1333.69C1128.7 1352.84 1132.18 1382.44 1135.67 1403.33C1137.41 1420.74 1142.63 1436.41 1149.59 1452.08C1135.67 1439.89 1121.74 1429.45 1109.55 1415.52C1090.4 1396.37 1074.73 1375.48 1055.58 1356.32H1053.84C1069.51 1405.07 1123.48 1446.86 1161.78 1476.45C1165.26 1479.94 1170.49 1474.71 1168.75 1471.23Z" fill="#FFFB64"/>
<path opacity="0.6" d="M1271.47 1258.83C1271.47 1257.09 1269.72 1258.83 1269.72 1258.83C1271.47 1284.94 1269.72 1307.58 1262.76 1331.95C1257.54 1295.39 1226.2 1253.6 1193.12 1243.16C1226.2 1262.31 1259.28 1307.58 1259.28 1347.62C1259.28 1351.1 1264.5 1351.1 1264.5 1347.62C1273.21 1321.5 1285.39 1286.68 1271.47 1258.83Z" fill="#FFFB64"/>
<path opacity="0.6" d="M1344.59 1182.22C1344.59 1180.48 1341.11 1180.48 1341.11 1183.96C1341.11 1197.89 1346.33 1208.34 1353.3 1220.52C1355.04 1224.01 1363.74 1232.71 1367.22 1237.93C1365.48 1236.19 1362 1234.45 1360.26 1232.71C1330.66 1211.82 1308.03 1185.7 1294.1 1150.88H1292.36C1297.58 1171.78 1306.29 1190.93 1321.96 1208.34C1334.14 1222.26 1353.3 1243.16 1374.19 1246.64C1375.93 1246.64 1377.67 1244.9 1375.93 1244.9C1362 1224.01 1353.3 1203.11 1344.59 1182.22Z" fill="#FFFB64"/>
<path opacity="0.6" d="M1375.93 1088.21C1374.19 1074.28 1374.19 1060.35 1370.71 1048.16C1370.71 1046.42 1365.49 1046.42 1365.49 1048.16C1360.26 1067.32 1365.49 1089.95 1370.71 1110.84C1363.74 1103.88 1358.52 1096.91 1351.56 1091.69C1342.85 1082.99 1332.41 1074.28 1320.22 1074.28C1318.48 1074.28 1318.48 1076.02 1318.48 1076.02C1328.92 1086.47 1339.37 1095.17 1349.82 1105.62C1358.52 1116.06 1367.23 1126.51 1379.41 1133.47C1382.9 1135.22 1388.12 1131.73 1388.12 1126.51C1381.16 1114.32 1377.67 1100.4 1375.93 1088.21Z" fill="#FFFB64"/>
<path opacity="0.6" d="M1436.87 966.336C1422.94 941.962 1405.53 910.623 1382.9 893.213C1381.16 891.472 1379.42 893.213 1379.42 894.954C1402.05 943.703 1443.84 985.487 1454.28 1039.46C1429.91 1016.83 1393.35 995.933 1360.27 1002.9V1004.64C1398.57 1016.83 1428.17 1027.27 1457.76 1055.13C1461.25 1058.61 1466.47 1055.13 1466.47 1049.9C1462.99 1020.31 1452.54 994.192 1436.87 966.336Z" fill="#FFFB64"/>
<path opacity="0.6" d="M1447.31 778.307C1429.9 781.789 1414.23 785.271 1398.56 787.012C1386.37 788.753 1374.18 787.012 1362 792.235V793.976C1382.89 802.681 1415.97 797.458 1438.6 788.753C1429.9 799.199 1417.71 806.163 1407.26 813.127C1395.08 820.091 1381.15 821.832 1368.96 827.055C1367.22 828.796 1367.22 830.537 1368.96 832.278C1381.15 840.983 1400.3 830.537 1410.75 823.573C1426.41 813.127 1436.86 797.458 1450.79 785.271C1454.27 781.789 1450.79 778.307 1447.31 778.307Z" fill="#FFFB64"/>
<path opacity="0.6" d="M1461.24 881.027C1452.53 875.804 1440.35 867.099 1429.9 870.581C1428.16 870.581 1428.16 872.322 1428.16 874.063C1433.38 879.286 1442.09 882.768 1449.05 886.25C1442.09 889.732 1433.38 887.991 1426.42 884.509C1417.71 882.768 1409.01 879.286 1400.3 875.804C1398.56 875.804 1398.56 875.804 1400.3 877.545C1410.75 884.509 1419.45 893.214 1433.38 894.955C1445.57 896.696 1452.53 894.955 1461.24 886.25C1464.72 884.509 1464.72 882.768 1461.24 881.027Z" fill="#FFFB64"/>
<path opacity="0.6" d="M1426.41 654.694C1398.56 666.881 1363.74 663.399 1346.32 692.996C1344.58 694.737 1348.07 696.478 1348.07 694.737C1370.7 682.55 1393.33 670.363 1419.45 663.399C1412.48 673.845 1405.52 686.032 1398.56 696.478C1389.85 713.888 1377.66 726.075 1363.74 738.263C1360.25 741.745 1363.74 745.227 1367.22 745.227C1403.78 740.003 1417.71 686.032 1429.89 658.176C1433.38 654.694 1429.89 652.953 1426.41 654.694Z" fill="#FFFB64"/>
<path opacity="0.6" d="M1396.81 550.233C1386.37 557.197 1377.66 565.903 1367.22 572.867C1355.03 579.831 1342.84 585.054 1330.66 588.536V590.277C1344.58 590.277 1355.03 586.795 1365.48 579.831C1370.7 576.349 1375.92 572.867 1381.15 569.385C1384.63 567.644 1388.11 562.421 1391.59 558.938C1382.89 567.644 1379.4 585.054 1374.18 593.759C1365.48 607.687 1353.29 621.615 1349.81 637.284C1349.81 639.025 1351.55 640.766 1353.29 639.025C1363.74 628.579 1372.44 612.91 1379.4 598.982C1386.37 585.054 1388.11 565.903 1396.81 550.233C1398.56 550.233 1398.56 551.974 1396.81 550.233Z" fill="#FFFB64"/>
<path opacity="0.6" d="M1330.66 508.449C1313.25 515.413 1288.87 518.895 1278.43 536.305C1278.43 536.305 1278.43 538.046 1280.17 538.046C1294.1 531.082 1308.02 527.6 1321.95 522.377C1316.73 527.6 1311.51 532.823 1304.54 539.787C1297.58 546.751 1288.87 553.715 1287.13 564.161C1287.13 565.903 1288.87 569.384 1290.61 567.643C1301.06 564.161 1308.02 553.715 1314.99 545.01C1321.95 536.305 1330.66 525.859 1337.62 515.413C1339.36 510.19 1334.14 506.708 1330.66 508.449Z" fill="#FFFB64"/>
<path opacity="0.22" d="M797.894 1394.62C1103.66 1394.62 1351.54 1145.97 1351.54 839.241C1351.54 532.511 1103.66 283.857 797.894 283.857C492.126 283.857 244.251 532.511 244.251 839.241C244.251 1145.97 492.126 1394.62 797.894 1394.62Z" fill="url(#paint0_radial_13_114821)"/>
<defs>
<radialGradient id="paint0_radial_13_114821" cx="0" cy="0" r="1" gradientUnits="userSpaceOnUse" gradientTransform="translate(797.798 839.213) scale(553.463 554.81)">
<stop stop-color="white"/>
<stop offset="0.0971266" stop-color="#FFFFEE"/>
<stop offset="0.2891" stop-color="#FEFFC1"/>
<stop offset="0.4141" stop-color="#FDFFA1"/>
<stop offset="0.5196" stop-color="#FEE879"/>
<stop offset="0.6413" stop-color="#FFCA45"/>
</radialGradient>
</defs>
</svg>
