<svg width="1167" height="1169" viewBox="0 0 1167 1169" fill="none" xmlns="http://www.w3.org/2000/svg">
<path d="M583.442 1168.24C905.557 1168.24 1166.68 907.112 1166.68 584.997C1166.68 262.882 905.557 1.75696 583.442 1.75696C261.328 1.75696 0.202393 262.882 0.202393 584.997C0.202393 907.112 261.328 1168.24 583.442 1168.24Z" fill="#D4803A"/>
<path opacity="0.49" d="M47.2028 356.923C64.613 356.923 85.5052 360.406 99.4333 351.7C80.2821 445.715 162.11 506.65 245.678 518.838C299.65 525.802 367.55 490.981 386.701 440.492C395.406 417.859 411.075 379.557 398.888 356.923C407.593 379.557 438.931 384.779 437.19 353.441C444.154 367.369 461.564 376.074 472.01 363.887C485.939 393.485 478.975 421.341 491.162 445.715C498.126 461.384 525.982 485.759 536.428 463.125H545.133C552.097 487.5 600.845 517.097 606.068 477.053C694.86 485.758 658.299 358.664 632.184 318.621C658.299 334.29 717.494 332.549 698.342 287.283C747.091 323.844 738.385 238.534 719.234 215.901C778.429 195.009 830.659 174.117 842.846 104.476C844.587 90.548 844.587 78.3608 842.846 64.4327C764.501 26.1303 675.709 3.49713 583.435 3.49713C343.175 1.75611 135.995 148.001 47.2028 356.923Z" fill="#552805"/>
<path opacity="0.49" d="M546.879 590.22C543.397 569.328 536.432 537.99 510.317 532.767C484.202 525.803 470.274 550.177 484.202 572.81C468.533 569.328 456.346 551.918 438.936 544.954C421.526 537.99 391.928 534.508 374.518 541.472C308.36 569.328 301.395 684.235 364.072 717.315C294.431 736.466 407.598 900.121 472.015 833.962C475.497 894.898 585.181 879.229 585.181 809.588C607.814 858.337 630.447 804.365 628.706 774.768C682.678 778.25 741.873 783.473 761.024 715.573C771.47 680.753 759.282 644.192 736.649 619.818C686.16 571.069 626.965 581.515 546.879 590.22Z" fill="#552805"/>
<path opacity="0.56" d="M235.243 383.038C264.841 304.693 146.451 257.685 162.12 346.477C122.077 285.541 61.1416 379.556 109.89 388.261C71.5877 431.787 22.8397 534.507 73.3291 588.478C137.747 656.378 179.531 524.061 193.459 485.758C205.646 501.427 223.056 503.169 228.279 482.277C257.877 489.241 301.402 499.687 297.92 447.456C294.438 398.708 245.689 402.19 235.243 383.038Z" fill="#542B24"/>
<path opacity="0.56" d="M539.921 741.689C536.439 703.386 477.244 699.904 489.432 731.243C447.647 724.278 449.388 799.142 475.503 816.552C505.1 837.444 552.108 820.034 541.662 779.991C581.705 785.214 585.187 739.948 541.662 748.653V741.689H539.921Z" fill="#542B24"/>
<path opacity="0.56" d="M914.236 447.457C961.243 433.529 940.351 349.96 928.164 320.363C919.458 299.47 898.567 261.168 870.71 276.837C851.559 287.283 849.818 323.845 858.523 339.514C804.551 315.14 766.249 349.96 764.508 412.637C764.508 442.234 816.739 539.73 841.113 484.018C846.336 504.91 862.005 531.026 888.12 524.062C917.718 517.097 910.754 473.572 914.236 447.457Z" fill="#542B24"/>
<path opacity="0.56" d="M586.928 179.341C583.446 123.629 672.238 123.629 640.899 191.528C673.979 168.895 682.684 229.83 675.72 248.982C665.274 282.061 623.489 302.953 592.151 302.953C557.331 302.953 525.992 280.32 512.064 250.723C499.877 224.608 503.359 168.895 539.921 207.197C531.216 170.636 552.108 142.78 573 191.528L586.928 179.341Z" fill="#542B24"/>
<path opacity="0.56" d="M569.517 69.6563C576.481 113.182 552.107 90.5483 536.438 109.699C519.027 132.333 545.143 139.297 566.035 137.556C566.035 142.779 567.776 151.484 567.776 156.707C579.963 148.002 576.481 135.815 579.963 123.628C581.704 116.664 592.15 100.995 593.891 95.7716C599.114 69.6563 583.445 43.5412 560.812 27.8721L569.517 69.6563Z" fill="#542B24"/>
<path opacity="0.56" d="M325.769 99.2541C303.135 100.995 310.099 116.664 297.912 125.37C283.984 137.557 278.761 135.816 261.351 142.78C221.307 158.449 240.459 181.082 217.825 200.233C209.12 207.197 129.034 226.348 169.077 247.241C209.12 268.133 249.164 189.787 259.61 167.154C278.761 181.082 304.876 167.153 306.617 144.52C339.697 158.448 393.668 127.11 404.114 94.031C411.078 74.8798 409.337 55.7288 386.704 48.7647C355.366 38.3186 337.956 74.8799 325.769 99.2541Z" fill="#542B24"/>
<path opacity="0.56" d="M776.697 945.387C794.108 933.199 809.777 908.825 802.813 886.192C792.367 853.113 757.546 853.113 752.323 887.933C720.985 863.559 693.129 874.005 672.236 910.566C633.934 985.43 720.985 973.243 762.769 938.423L776.697 945.387Z" fill="#542B24"/>
<path opacity="0.49" d="M834.152 968.02C781.922 919.272 668.756 981.948 660.051 1044.62C642.641 1175.2 865.491 1112.52 834.152 968.02Z" fill="#552805"/>
<path opacity="0.49" d="M1154.49 457.903C1135.34 372.593 1098.78 294.248 1046.55 228.089C994.317 243.758 982.13 332.55 997.799 388.262C1016.95 456.162 1036.1 537.989 969.943 588.479C938.605 611.112 891.597 607.63 865.482 635.486C844.59 658.12 846.331 696.422 855.036 724.278C818.475 717.314 790.619 743.429 804.547 781.732C778.431 779.991 761.021 800.883 761.021 825.257C698.345 769.545 642.632 865.3 618.258 912.308C583.438 905.344 564.286 886.193 536.43 915.79C508.574 945.387 510.315 1013.29 447.639 990.653C386.703 968.02 414.559 891.416 379.739 853.113C341.436 811.329 311.839 839.185 271.796 847.891C256.127 807.847 287.465 773.027 285.724 732.983C285.724 705.127 250.904 659.861 228.27 694.681C242.199 673.789 228.271 638.969 203.896 656.379C203.896 632.005 181.263 633.745 162.112 633.745C122.068 632.004 106.399 640.71 95.9532 654.638C111.622 625.04 99.4354 586.738 71.5791 626.781C64.6151 635.486 69.8379 672.048 50.6867 659.861C35.0176 651.155 48.9457 619.817 50.6867 607.63C50.6867 565.846 5.42023 504.91 5.42023 576.292C5.42023 635.487 40.2406 739.947 111.622 739.947C134.255 778.25 102.917 813.07 109.881 853.113C116.845 900.121 155.148 914.049 196.932 910.567C195.191 947.128 205.637 941.905 228.27 959.315C254.386 980.208 252.645 1009.8 278.76 1035.92C303.134 1060.29 303.134 1053.33 332.731 1049.85C348.401 1048.11 344.918 1030.7 365.811 1053.33C379.739 1067.26 364.069 1088.15 379.739 1100.34C398.89 1117.75 428.487 1102.08 431.969 1079.45C449.379 1082.93 489.423 1150.83 503.351 1102.08C529.466 1126.45 560.805 1147.35 569.51 1098.6C592.143 1126.45 614.776 1112.52 625.222 1084.67C639.15 1046.37 611.294 1011.55 609.553 973.243C606.071 896.639 649.596 952.351 689.64 940.164C686.158 900.121 729.683 924.495 747.093 898.38C790.618 919.272 832.403 927.977 879.41 915.79C905.525 908.826 996.058 858.336 961.238 825.257C1018.69 865.3 1069.18 790.437 1023.91 748.652C1065.7 741.688 1083.11 734.725 1104 691.199C1123.15 654.638 1138.82 604.148 1140.56 562.364C1140.56 529.284 1126.63 497.946 1126.63 466.608C1135.34 464.867 1145.79 463.126 1154.49 457.903Z" fill="#552805"/>
<path opacity="0.57" d="M682.685 677.27C694.872 710.349 733.174 679.011 724.469 651.155C717.505 628.522 653.087 595.443 661.793 630.263C660.052 593.702 611.303 604.148 600.857 630.263C581.706 675.529 616.526 703.386 658.31 699.903L682.685 677.27Z" fill="#C6BDBA"/>
<path opacity="0.76" d="M1124.9 786.954C1121.42 776.508 1131.86 757.357 1126.64 743.429C1123.16 734.724 1110.97 732.983 1105.75 724.278C1102.27 717.314 1109.23 703.385 1105.75 694.68C1098.78 675.529 1048.29 623.299 1018.7 623.299C1055.26 604.147 1063.96 550.176 1046.55 513.615C1044.81 490.982 1043.07 466.607 1065.7 466.607C1063.96 456.161 1069.19 449.197 1070.93 440.492C1091.82 466.607 1117.93 433.528 1105.75 410.895C1119.68 419.6 1131.86 412.636 1135.34 398.708C1126.64 370.852 1114.45 344.736 1102.26 318.621C1097.04 325.585 1095.3 336.031 1102.26 356.924C1084.85 323.844 1063.96 374.334 1065.7 393.485C1063.96 390.003 1060.48 386.521 1058.74 383.039C1032.62 403.931 1032.62 442.233 1030.88 473.572C1025.66 473.572 1020.44 477.054 1016.96 480.536C1013.47 478.795 1008.25 475.312 1004.77 475.312C1020.44 461.384 1034.37 409.154 1001.29 395.226C1006.51 395.226 1022.18 384.78 1025.66 367.37C1034.37 325.585 980.394 283.801 961.243 242.016C962.984 214.16 956.02 184.563 931.646 168.894C903.789 153.225 881.156 160.189 886.379 193.268C891.602 222.865 929.904 238.534 936.868 266.391C943.832 290.765 921.199 323.844 962.984 336.031C936.868 362.146 950.797 398.708 973.43 419.6C961.243 447.456 900.307 544.953 956.02 560.622C940.351 562.364 935.128 593.702 949.056 612.853C938.61 614.594 928.163 616.335 919.458 616.335C900.307 618.076 881.156 595.443 870.71 626.781C865.487 642.45 882.897 661.601 895.084 668.565C870.71 677.27 888.12 712.091 882.897 732.983C870.71 726.019 860.264 715.573 848.077 715.573C842.854 703.386 832.408 689.458 816.738 680.752C870.71 673.788 837.631 544.953 783.659 574.55C799.328 555.399 780.177 525.802 757.544 524.061C771.472 508.392 755.803 480.536 736.652 473.572C708.795 463.126 708.796 485.758 689.645 501.428C630.45 548.435 672.234 417.859 665.27 395.226C658.306 369.111 567.773 299.47 574.737 337.772C578.219 358.664 621.745 370.852 632.191 390.003C646.119 416.118 614.781 461.385 633.932 473.572C606.076 489.241 606.076 543.212 644.378 544.953C623.486 578.032 653.083 584.997 677.457 584.997C686.162 584.997 694.867 572.809 705.314 576.292C715.76 581.515 705.313 598.925 712.278 604.148C736.652 621.558 754.062 604.148 759.285 638.968C762.767 663.342 743.616 708.609 799.328 698.163C785.4 717.314 781.918 741.688 802.811 752.134C787.141 750.393 776.695 762.58 783.659 786.954C769.731 786.954 717.501 809.588 712.278 821.775C677.457 792.178 644.378 851.372 620.004 891.415C626.968 863.559 557.327 820.034 557.327 874.005C534.694 867.041 499.874 887.933 510.32 914.048C478.981 896.638 445.902 861.818 405.859 887.933C376.261 905.343 383.226 943.645 409.341 962.797C397.154 971.502 390.19 980.207 388.449 987.171C372.779 974.984 351.887 968.02 337.959 969.761C341.441 889.674 104.663 905.343 136.001 820.034C153.412 773.026 181.268 828.739 196.937 835.703C210.865 842.667 228.275 837.444 235.239 830.48C268.319 795.66 209.124 764.321 203.901 788.695C209.124 757.357 153.412 698.162 141.225 738.206C148.189 715.573 115.11 699.904 97.6994 715.573C101.181 692.94 78.5483 691.198 64.6202 703.385C68.1022 677.27 43.7278 649.414 17.6125 656.378C19.3536 633.745 29.7994 614.594 14.1303 593.702C8.90726 588.479 5.42544 584.996 0.202393 581.514C0.202393 584.996 0.202393 588.479 0.202393 591.961C0.202393 661.601 12.3894 726.019 33.2816 788.695C35.0226 786.954 36.7635 786.954 40.2455 785.213C38.5045 790.436 36.7638 793.918 36.7638 799.141C38.5048 804.364 40.2456 809.587 41.9867 814.81C47.2097 821.774 57.6559 823.516 69.843 820.034C54.1739 868.782 101.181 917.53 149.93 914.048C144.707 961.056 224.793 1001.1 259.614 971.502C261.355 978.466 263.095 985.43 266.578 988.912C257.872 1001.1 261.354 1021.99 249.167 1037.66C240.462 1048.11 230.016 1051.59 217.829 1051.59C226.534 1058.55 235.24 1065.52 245.686 1072.48C254.391 1067.26 264.837 1062.03 280.506 1062.03C294.434 1060.29 315.326 1077.7 315.326 1042.88C315.326 1034.18 301.398 1016.77 290.952 1002.84C301.398 1002.84 311.844 1001.1 320.549 995.876C327.513 1016.77 344.923 1023.73 364.074 1015.03C360.592 1037.66 378.003 1058.55 400.636 1056.81C411.082 1077.7 445.903 1100.34 473.759 1098.6C531.212 1095.11 472.017 1011.55 416.305 1041.14C416.305 1034.18 414.564 1027.21 411.082 1020.25C421.528 1018.51 433.715 1008.06 438.938 985.43C459.831 1011.55 494.651 995.876 501.615 964.538C543.399 971.502 538.176 917.531 572.996 917.531C541.658 940.164 515.543 1069 585.184 1048.11C628.709 1034.18 578.22 898.379 637.414 940.164C642.637 919.271 644.378 887.933 661.788 874.005C668.752 868.782 677.457 875.746 680.939 874.005C684.421 872.264 693.126 867.041 701.831 860.077C712.277 853.113 715.76 840.926 729.688 837.444C743.616 833.962 748.839 840.926 759.285 840.926C774.954 840.926 795.846 830.48 809.774 847.89C825.444 868.782 801.069 905.343 844.595 903.602C910.753 901.861 858.523 816.552 889.861 800.882C895.084 804.364 896.825 804.364 900.307 806.105C902.049 766.062 914.236 788.695 933.387 773.026C959.502 752.134 949.056 717.313 929.904 692.939C961.243 713.831 959.502 670.306 989.099 675.529C990.84 698.162 1003.03 713.832 1025.66 708.609C1022.18 739.947 1036.11 738.206 1048.29 759.098C1062.22 781.731 1053.52 802.623 1091.82 807.846C1091.82 816.551 1097.04 830.48 1104.01 842.667C1110.97 828.739 1116.19 816.552 1121.42 802.624C1128.38 790.436 1126.64 788.695 1124.9 786.954ZM820.221 753.875C821.962 753.875 823.702 753.875 825.444 753.875H827.185C828.926 757.357 830.666 760.839 832.407 764.321C828.925 760.839 823.703 757.357 820.221 753.875ZM1001.29 633.745C1001.29 632.004 999.545 630.263 999.545 630.263C1001.29 630.263 1003.03 630.263 1004.77 628.522C1003.03 630.263 1001.29 632.004 1001.29 633.745Z" fill="#C6BDBA"/>
<path opacity="0.57" d="M445.9 438.752C442.418 437.011 438.936 437.01 437.195 440.492C435.454 442.234 433.712 443.975 431.971 445.716C421.525 456.162 416.302 470.09 414.561 484.018C412.82 489.241 412.821 496.205 411.08 501.428C411.08 506.651 418.044 506.651 419.785 503.169C421.526 501.428 423.266 497.946 425.007 496.205C426.749 496.205 428.49 494.464 428.49 492.723C433.713 487.5 437.194 480.536 440.677 473.572C445.9 464.867 451.123 456.162 454.605 447.457C458.087 442.234 451.123 435.27 445.9 438.752Z" fill="#C6BDBA"/>
<path opacity="0.57" d="M451.121 607.629C447.639 598.924 435.452 590.219 425.006 597.183C421.524 600.665 418.042 604.147 414.56 607.629C402.373 612.852 391.927 628.522 391.927 642.45C391.927 651.155 395.409 658.119 400.632 661.601C400.632 661.601 400.632 663.342 402.373 663.342C407.596 668.565 412.819 668.565 416.301 666.824C421.524 666.824 426.747 665.083 430.229 663.342L431.97 661.601C442.416 658.119 452.862 651.155 452.862 637.227C452.862 635.486 452.862 633.745 452.862 632.004C454.603 621.557 452.862 614.593 451.121 607.629Z" fill="#C6BDBA"/>
<path opacity="0.57" d="M395.416 572.81C395.416 571.069 395.416 571.069 395.416 572.81C393.675 571.069 393.675 571.069 393.675 569.328H391.934H390.193C390.193 569.328 390.193 569.328 388.452 569.328H386.711L384.97 571.068C383.229 572.809 383.229 574.551 384.97 576.292C384.97 578.033 384.97 578.033 384.97 579.774C384.97 583.256 388.452 584.997 391.934 584.997C395.416 584.997 398.898 583.256 398.898 579.774C398.898 578.033 398.898 578.033 398.898 576.292C397.157 576.292 397.157 574.551 395.416 572.81Z" fill="#C6BDBA"/>
<path opacity="0.57" d="M630.451 66.1748C628.71 43.5416 600.854 31.3545 586.926 17.4263C595.631 31.3545 611.3 40.0595 620.005 52.2466C633.933 74.8798 611.3 85.326 600.853 100.995C597.371 106.218 597.372 109.7 595.631 116.664C593.89 128.852 586.925 137.556 585.184 149.744C585.184 151.485 586.925 153.226 588.666 151.485C595.63 142.78 597.372 135.815 604.336 128.851C606.077 127.11 606.077 125.369 604.336 123.628C593.89 102.736 630.451 87.067 630.451 66.1748Z" fill="#C6BDBA"/>
<path opacity="0.57" d="M458.087 59.2104C454.605 59.2104 456.346 66.1746 459.828 66.1746C482.461 69.6566 506.835 85.3259 501.612 107.959C499.871 120.146 485.943 135.815 478.979 144.52C445.9 181.081 407.597 188.045 364.072 170.635C360.59 168.894 357.108 172.376 357.108 174.117C350.144 196.751 351.885 219.384 315.324 214.161C310.101 214.161 306.619 215.902 306.619 221.125C304.878 262.909 271.798 226.348 259.611 229.83C243.942 233.312 231.755 240.276 217.827 250.722C209.122 255.945 200.417 266.391 189.97 269.873C160.373 276.837 142.963 255.945 149.927 229.83C153.409 212.42 174.301 193.269 188.229 182.823V181.081C155.15 195.01 95.956 276.837 160.374 287.283C177.784 290.765 193.453 283.801 207.381 275.096C236.978 257.686 240.46 247.24 275.28 248.981C289.208 248.981 299.654 252.463 311.842 245.499C318.806 240.276 318.805 233.312 327.511 228.089C337.957 222.866 346.662 229.83 355.367 219.384C362.331 212.42 360.59 189.787 365.813 186.305C374.518 179.341 412.82 191.527 425.008 188.045C445.9 184.563 465.051 170.635 480.72 154.966C517.282 123.628 536.432 45.2822 458.087 59.2104Z" fill="#C6BDBA"/>
<path opacity="0.57" d="M478.991 228.089C477.25 224.607 472.027 228.088 473.768 231.57C480.732 245.499 491.178 257.686 494.66 271.614C498.142 287.283 487.696 316.88 468.545 309.916C465.063 308.175 463.322 302.952 461.581 302.952C456.358 301.211 452.876 299.47 447.653 297.729C438.948 295.988 437.206 316.88 433.724 295.988C433.724 290.765 425.019 290.765 425.019 295.988C412.832 308.175 405.868 308.175 402.386 297.729C398.904 292.506 397.163 285.542 395.422 280.319C393.681 275.096 386.717 275.096 384.976 280.319C379.753 309.916 374.53 344.736 358.861 370.852C324.041 428.305 289.22 330.809 313.594 295.988C313.594 295.988 313.594 294.247 311.853 295.988C289.22 318.621 290.961 391.744 329.263 398.708C371.048 405.672 384.976 337.773 391.94 299.47C402.386 318.622 419.797 332.55 430.243 313.398C431.984 315.139 435.465 315.139 442.429 315.139C444.17 315.139 449.394 311.657 454.617 313.398C465.063 315.139 463.322 320.362 470.286 322.103C477.25 323.844 477.25 325.586 484.214 325.586C532.962 318.622 494.66 248.981 478.991 228.089Z" fill="#C6BDBA"/>
<path opacity="0.57" d="M339.698 522.32C337.957 518.838 332.734 520.579 332.734 524.061C332.734 536.249 322.288 590.22 301.395 567.587C297.913 564.105 292.691 565.845 290.95 571.069C289.209 576.292 285.727 605.889 270.057 593.702C264.834 590.22 266.575 574.551 268.316 569.328C268.316 562.364 259.611 562.364 257.87 567.587C252.647 586.738 233.496 618.076 209.122 612.853C172.561 604.148 202.158 551.917 210.863 536.248C210.863 534.507 209.122 532.767 209.122 534.508C195.194 557.141 163.855 607.63 207.381 621.558C228.273 628.522 247.424 611.112 259.611 591.961C261.352 600.666 266.575 609.371 275.28 611.112C290.949 614.594 297.913 597.184 301.395 583.256C327.511 597.184 351.885 544.954 339.698 522.32Z" fill="#C6BDBA"/>
<path opacity="0.57" d="M223.05 437.011C219.568 433.529 214.345 437.011 214.345 442.234C219.568 456.162 210.864 471.831 195.195 457.903C191.713 454.421 186.489 456.162 184.748 459.644C177.784 473.572 163.856 487.5 151.669 470.09C141.223 452.68 156.892 438.751 172.561 431.787C177.784 430.046 177.784 421.342 172.561 419.601C148.187 410.896 158.633 372.593 183.007 374.334C202.158 376.075 221.31 409.154 200.417 423.082C198.676 424.823 200.418 428.306 202.159 426.565C231.756 410.895 205.641 365.629 177.784 367.37C146.446 369.111 137.741 405.672 156.892 424.823C137.741 435.27 125.554 456.162 141.223 478.795C156.892 501.428 179.525 490.982 191.712 473.572C200.417 478.795 210.864 480.536 221.31 473.572C233.497 461.385 231.755 447.457 223.05 437.011Z" fill="#C6BDBA"/>
<path opacity="0.57" d="M639.162 231.571C649.608 222.866 656.572 210.679 647.867 196.751C635.68 177.599 613.047 189.786 607.824 205.456C606.083 210.679 613.047 214.161 616.529 210.679C621.752 205.456 632.198 195.01 637.421 205.456C642.644 217.643 625.234 224.607 616.529 228.089C607.824 229.83 611.306 242.017 620.011 242.017C646.126 238.535 656.572 278.578 632.198 287.284C618.27 292.507 586.931 289.025 588.672 269.873C588.672 268.132 586.931 264.65 583.449 262.909C557.334 259.427 557.334 226.348 583.449 222.866V221.125C545.147 215.902 543.406 264.651 574.744 273.356C576.485 301.212 626.975 308.176 646.126 294.248C670.5 275.096 661.795 242.017 639.162 231.571Z" fill="#C6BDBA"/>
<path opacity="0.57" d="M910.756 341.256C900.31 330.81 882.9 330.81 870.713 339.515C863.749 344.738 858.526 353.443 856.785 362.148C855.044 362.148 851.562 362.148 848.08 363.889C835.893 370.853 828.929 388.263 825.447 400.45C823.706 412.637 827.188 431.789 839.375 438.753C853.303 447.458 858.526 433.529 860.267 423.083C860.267 421.342 858.526 421.343 858.526 421.343C853.303 433.53 846.339 430.048 842.857 419.602C841.116 412.638 839.375 407.414 841.116 400.45C842.857 395.227 844.598 390.004 848.08 384.781C849.821 383.04 851.562 377.817 853.303 377.817C855.044 377.817 855.044 377.817 856.785 377.817C856.785 379.558 856.785 381.299 858.526 383.04C860.267 393.486 875.937 388.263 874.196 379.558C868.973 355.184 898.57 336.033 907.275 367.371C912.498 391.745 896.828 405.673 886.382 423.083C882.9 428.306 888.123 431.788 893.346 431.788C928.167 426.565 935.131 363.889 910.756 341.256Z" fill="#C6BDBA"/>
<path opacity="0.57" d="M656.574 632.004C644.387 628.522 628.718 632.005 623.495 644.192C618.272 654.638 623.495 665.084 632.2 670.307C642.646 677.271 654.833 673.789 663.538 665.084C665.279 663.343 665.279 663.343 665.279 661.602C668.761 663.343 672.244 663.343 673.985 659.861C679.208 647.674 668.761 635.486 656.574 632.004Z" fill="#C6BDBA"/>
<path opacity="0.57" d="M299.659 872.264C297.918 868.782 294.436 865.3 290.954 865.3H289.213L287.471 863.559C285.73 861.818 282.249 863.559 282.249 865.3C282.249 867.041 282.249 867.041 282.249 868.782C282.249 870.523 282.249 870.523 282.249 872.264C282.249 875.746 282.248 879.229 285.73 882.711C289.212 886.193 294.436 886.193 297.918 882.711C299.659 880.97 299.658 880.969 301.399 879.228C301.399 875.746 301.4 874.005 299.659 872.264Z" fill="#C6BDBA"/>
<path opacity="0.57" d="M344.914 863.559C344.914 860.077 341.432 858.336 339.691 858.336C336.209 858.336 334.468 860.077 334.468 863.559C332.727 867.041 334.468 874.005 337.95 875.746C339.691 875.746 341.432 875.746 343.173 875.746C344.914 872.264 346.655 867.041 344.914 863.559Z" fill="#C6BDBA"/>
<path opacity="0.57" d="M350.157 905.344C348.416 903.603 344.934 901.863 343.193 900.122C341.452 898.381 339.71 896.639 337.969 894.898C336.228 893.157 332.746 891.416 329.264 893.157C327.523 893.157 325.782 893.157 324.041 893.157C318.818 894.898 317.077 901.862 320.559 905.344C320.559 907.085 320.559 907.086 322.3 908.827C325.782 912.309 329.264 914.05 332.746 915.791L334.487 917.532C336.229 917.532 337.969 919.272 339.71 919.272C343.192 921.013 348.416 921.014 350.157 917.532C357.121 915.791 355.38 908.827 350.157 905.344Z" fill="#C6BDBA"/>
<path opacity="0.57" d="M1044.81 896.638C1039.59 863.559 994.323 853.113 968.208 868.782C962.985 872.264 968.207 877.487 971.69 875.746C1020.44 856.595 1027.4 879.228 989.1 940.164C973.431 940.164 961.244 934.941 949.057 926.236C945.574 922.754 942.093 927.977 942.093 933.2C931.646 980.207 915.977 992.394 896.826 971.502C893.344 969.761 889.862 969.761 889.862 973.243C882.898 1002.84 848.077 968.02 841.113 961.056C837.631 957.574 830.667 962.797 834.149 966.279C874.193 1027.21 802.811 1091.63 747.099 1105.56C661.789 1128.19 637.415 1048.11 673.976 985.43C673.976 985.43 673.976 983.689 672.235 985.43C613.041 1060.29 672.235 1145.6 762.768 1109.04C802.811 1093.37 851.56 1053.33 855.042 1006.32C855.042 1001.1 855.042 990.653 853.301 985.43C862.006 990.653 870.711 995.877 879.416 995.877C889.862 995.877 889.862 985.43 898.567 985.43C915.977 987.171 919.459 1009.8 940.351 999.358C957.762 990.653 954.28 971.502 957.762 957.574C957.762 955.833 957.761 948.869 954.279 943.646C961.243 947.128 975.172 948.869 973.431 948.869C1008.25 954.092 1051.78 934.941 1044.81 896.638Z" fill="#C6BDBA"/>
<path opacity="0.57" d="M860.264 125.369C855.041 125.369 855.041 132.333 858.523 134.074C874.192 137.556 874.192 156.707 867.228 168.894C858.523 184.563 837.631 188.045 821.962 184.563C816.739 182.822 813.257 188.045 814.998 191.527C816.739 198.491 827.185 238.535 804.552 226.347C801.07 224.606 794.106 226.347 795.847 231.57C797.588 240.275 802.811 289.024 776.696 269.873C771.473 266.391 766.25 269.873 767.991 275.096C771.473 301.211 757.545 330.809 743.617 351.701C734.912 363.888 701.832 402.19 689.645 358.665C693.127 384.78 708.796 388.262 731.429 376.075C759.286 358.665 776.696 316.88 780.178 285.542C806.293 299.47 813.257 269.873 811.516 243.758C821.962 247.24 828.926 245.499 834.149 229.83C835.89 222.866 828.926 205.455 832.408 200.232C832.408 198.491 844.595 200.232 853.3 196.75C879.416 186.304 907.272 127.11 860.264 125.369Z" fill="#C6BDBA"/>
<path opacity="0.57" d="M720.987 699.905C719.246 696.423 714.023 696.422 714.023 701.645C712.282 722.537 691.39 769.545 668.757 724.279C667.016 720.797 660.052 720.797 660.052 726.02C653.088 750.394 613.045 752.135 621.75 720.797C621.75 717.315 620.008 713.833 616.526 715.574C552.109 732.984 531.217 644.192 574.742 609.372C520.771 645.933 546.886 736.466 613.045 726.02C609.563 757.358 651.347 764.322 667.016 738.207C687.908 769.545 729.692 739.948 720.987 699.905Z" fill="#C6BDBA"/>
<path opacity="0.57" d="M477.244 813.069C466.798 821.775 423.272 821.775 442.424 804.364C445.906 800.882 442.424 797.4 438.942 797.4C409.345 793.918 390.193 774.767 398.898 745.169C405.862 722.536 428.496 706.867 444.165 729.5C445.906 732.982 451.129 729.5 449.388 727.759C431.977 701.644 404.121 713.831 393.675 738.206C379.747 771.285 400.639 797.4 431.977 804.364C416.308 826.998 468.539 839.184 484.208 816.551C484.208 813.069 480.726 809.587 477.244 813.069Z" fill="#C6BDBA"/>
<path opacity="0.57" d="M806.294 1001.1C785.402 980.207 747.1 1015.03 736.654 1032.44C734.913 1035.92 736.654 1037.66 740.136 1039.4C755.805 1044.62 771.474 1037.66 780.179 1023.73C781.92 1020.25 776.697 1016.77 774.956 1018.51C767.992 1025.47 759.287 1032.44 750.582 1030.7C762.769 1015.03 790.626 990.653 804.554 1008.06C823.705 1032.44 776.698 1053.33 761.028 1056.81C733.172 1063.78 696.611 1049.85 719.244 1016.77C740.136 987.171 776.697 976.725 809.777 969.761C773.215 966.279 710.539 992.394 705.316 1034.18C700.093 1072.48 750.582 1070.74 773.215 1063.78C792.366 1056.81 835.892 1027.21 806.294 1001.1Z" fill="#C6BDBA"/>
<path opacity="0.57" d="M167.338 679.012C169.079 675.53 170.82 670.307 169.079 666.825C167.338 661.602 162.115 659.861 158.633 656.379C156.892 654.638 153.41 656.379 151.669 659.861C149.928 665.084 148.187 672.048 149.928 677.271C149.928 679.012 149.928 680.753 149.928 680.753C151.669 684.235 153.41 687.718 158.633 689.459C160.374 689.459 162.115 689.459 162.115 689.459C163.856 689.459 165.597 689.459 167.338 689.459C174.302 689.459 170.82 682.494 167.338 679.012Z" fill="#C6BDBA"/>
<path opacity="0.57" d="M243.944 729.501C243.944 729.501 242.203 729.501 243.944 729.501C242.203 729.501 242.203 731.242 242.203 731.242C242.203 734.724 240.462 738.207 240.462 741.689C240.462 745.171 245.685 746.912 247.426 743.43C247.426 741.689 249.167 739.947 249.167 739.947C250.908 739.947 250.908 738.206 250.908 736.465V734.725C250.908 729.502 247.426 727.76 243.944 729.501Z" fill="#C6BDBA"/>
<path opacity="0.57" d="M97.7003 759.098C94.2183 752.134 88.9952 746.911 80.2902 745.17C75.0671 743.429 71.5851 746.911 71.5851 752.134C71.5851 755.616 71.5852 759.098 73.3262 762.58C75.0672 771.285 78.5488 774.767 83.7719 781.731C85.5129 785.213 92.4771 783.472 94.2181 779.99C97.7001 774.767 101.182 766.062 97.7003 759.098Z" fill="#C6BDBA"/>
<g opacity="0.57">
<path d="M40.2352 372.593C47.1992 423.083 73.3149 468.349 125.545 494.464C195.186 527.543 282.237 508.392 325.762 445.716C336.208 466.608 343.172 485.759 369.287 487.5C409.331 490.982 402.367 459.644 418.036 435.27C472.007 623.299 741.864 508.393 693.116 334.291C729.677 348.219 769.721 289.024 750.57 257.686C778.426 269.873 783.649 235.053 778.426 214.161C795.836 212.42 818.469 195.01 814.987 175.859C844.584 181.082 865.477 158.449 870.7 132.333C875.923 113.182 868.959 90.5488 860.253 69.6566C778.426 26.1313 684.411 0.0160522 585.173 0.0160522C336.208 1.75707 125.545 154.966 40.2352 372.593Z" fill="#C6BDBA"/>
</g>
<g opacity="0.57">
<path d="M412.826 66.1747C378.006 47.0235 289.213 118.405 259.616 139.297C203.904 181.082 149.932 252.463 139.486 323.845C132.522 374.334 174.307 423.083 228.278 423.083C292.696 421.342 372.782 325.586 372.782 266.391C398.897 289.024 438.941 320.363 456.351 266.391C534.697 329.068 614.784 148.002 569.517 137.556C611.302 158.448 665.273 87.0669 656.568 48.7646C635.676 -36.5452 440.682 34.8364 412.826 66.1747Z" fill="#C6BDBA"/>
</g>
<g opacity="0.34">
<path d="M583.438 1168.24C905.525 1168.24 1166.68 907.085 1166.68 584.997C1166.68 407.413 1086.59 247.24 961.238 141.038C968.202 161.93 1044.81 283.801 990.835 508.392C924.676 778.25 632.186 933.2 306.616 846.149C106.399 792.178 21.0894 680.753 5.42023 654.638C38.4995 943.646 285.724 1168.24 583.438 1168.24Z" fill="#542B24"/>
</g>
<g opacity="0.34">
<path d="M1137.1 398.708C1124.91 423.082 1119.69 454.42 1112.72 475.313C1097.05 524.061 1079.64 572.81 1063.97 621.558C1027.41 729.501 952.549 842.667 848.088 891.416C790.634 919.272 736.663 961.056 673.986 980.207C621.756 995.876 564.302 1001.1 510.33 1013.29C430.244 1032.44 374.532 1058.55 290.963 1044.62C249.179 1037.66 212.617 1023.73 179.537 1006.32C209.135 1034.18 242.214 1060.29 277.034 1082.93C294.445 1089.89 311.855 1095.11 327.524 1100.34C418.057 1126.45 506.848 1128.19 599.122 1105.56C733.18 1072.48 895.095 995.876 994.333 898.38C1070.94 825.257 1121.43 739.947 1154.51 640.709C1157.99 630.263 1161.47 614.594 1166.69 597.184C1166.69 593.702 1166.69 591.961 1166.69 588.479C1168.43 518.838 1156.25 456.162 1137.1 398.708Z" fill="#542B24"/>
</g>
<g opacity="0.31">
<path d="M489.427 214.161C527.729 205.456 557.327 158.449 567.773 123.628C583.442 69.6569 557.327 48.7645 506.837 50.5056C484.204 50.5056 466.794 50.5058 445.902 62.6929C430.232 71.398 418.045 92.2901 402.376 100.995C383.225 109.7 360.592 100.995 339.7 113.182C313.584 127.11 313.584 137.556 303.138 165.413C203.9 116.664 106.404 308.176 169.08 381.298C209.124 430.047 301.397 402.191 346.664 376.076C390.189 351.701 428.491 280.32 433.714 233.312C451.124 247.24 505.096 273.355 489.427 214.161Z" fill="#C6BDBA"/>
</g>
<g opacity="0.31">
<path d="M419.788 217.643C459.831 222.866 512.061 175.858 466.795 148.002C421.528 120.146 365.816 161.93 339.701 195.01C289.211 163.671 228.276 212.42 226.535 269.873C224.794 299.47 242.204 320.363 271.801 325.586C318.809 332.55 351.888 285.542 386.709 262.909L419.788 217.643Z" fill="#C6BDBA"/>
</g>
<path opacity="0.33" d="M475.489 583.256C445.891 536.249 367.546 527.544 337.948 578.033C317.056 611.113 315.315 694.681 362.323 710.35C330.984 685.976 324.02 637.228 336.207 600.666C357.1 537.99 428.482 550.177 465.043 590.22C472.007 595.443 478.971 588.479 475.489 583.256Z" fill="#542B24"/>
<path opacity="0.33" d="M506.851 537.989C498.146 537.989 487.699 539.73 484.217 546.694C478.994 555.399 484.218 565.845 491.182 572.809C492.923 574.55 492.922 572.809 492.922 571.068C489.44 564.104 485.959 553.658 491.182 548.435C496.405 543.212 505.11 543.212 512.074 544.953C520.779 546.694 527.743 550.176 532.966 557.14C539.93 565.845 538.189 574.551 539.93 584.997C539.93 586.738 543.412 588.479 545.153 584.997C555.599 562.364 529.484 537.989 506.851 537.989Z" fill="#542B24"/>
<path opacity="0.33" d="M541.662 604.148C539.921 604.148 539.921 605.889 541.662 604.148C602.598 605.889 701.835 579.774 736.656 647.673C738.397 651.155 743.62 649.414 743.62 645.932C750.584 565.845 581.706 588.479 541.662 604.148Z" fill="#542B24"/>
<path opacity="0.33" d="M849.817 348.219C851.558 348.219 849.817 346.478 849.817 346.478C823.702 329.068 778.435 349.961 766.248 377.817C750.579 416.119 774.953 478.796 811.515 496.206C814.997 497.947 820.22 494.465 816.738 490.983C794.104 461.386 759.284 424.824 776.694 384.781C792.364 348.22 823.702 360.407 849.817 348.219Z" fill="#542B24"/>
<path opacity="0.33" d="M886.372 282.06C863.739 280.319 851.552 302.952 865.48 320.362C863.739 311.657 861.998 301.211 867.221 294.247C874.185 285.542 889.854 289.024 898.559 295.988C910.746 306.434 912.487 322.103 922.933 334.291C924.674 336.032 928.156 334.29 928.156 330.808C922.933 309.916 910.746 283.801 886.372 282.06Z" fill="#542B24"/>
<path opacity="0.33" d="M618.259 141.039C586.921 144.521 590.403 172.377 576.475 189.787C572.993 179.341 567.77 167.154 555.583 170.636C541.655 174.118 536.432 189.787 534.691 203.716C527.727 196.752 520.762 193.269 512.057 198.492C496.388 210.679 512.057 238.535 520.762 248.982H522.504C519.022 242.017 515.54 235.054 513.799 226.349C520.763 203.715 527.727 201.974 534.691 215.902C536.432 219.384 543.396 217.643 541.655 214.161C541.655 205.456 543.396 172.377 564.288 189.787C566.029 189.787 567.77 200.233 569.511 200.233C571.252 203.715 574.734 203.715 576.475 201.974C583.439 196.751 586.921 189.787 588.662 182.823C592.144 174.118 595.626 158.449 606.072 156.708C616.518 158.449 625.224 161.931 635.67 163.672C635.67 168.895 637.411 172.377 637.411 177.6C637.411 181.082 644.375 181.082 644.375 175.859C649.598 154.967 639.152 137.557 618.259 141.039Z" fill="#542B24"/>
<path opacity="0.33" d="M202.158 295.988C172.56 285.542 163.855 313.398 162.114 337.772C149.927 323.844 125.553 323.844 109.883 336.031C85.5092 355.182 99.4374 390.003 129.035 390.003C130.776 390.003 132.517 386.521 130.776 384.78C75.0633 348.219 148.186 315.139 160.373 348.219C162.114 351.701 167.337 351.7 167.337 346.477C169.078 325.585 170.819 289.024 202.158 301.211C226.532 309.916 245.683 346.477 235.237 370.851C235.237 370.851 235.237 372.593 236.978 370.851C252.647 346.477 226.532 304.693 202.158 295.988Z" fill="#542B24"/>
<path opacity="0.33" d="M95.961 426.565C95.961 424.824 95.961 424.824 95.961 426.565C68.1048 456.163 26.3202 560.624 83.7737 583.257C85.5147 583.257 85.5148 581.516 85.5148 579.775C50.6945 536.249 66.3638 468.35 95.961 426.565Z" fill="#542B24"/>
<path opacity="0.33" d="M391.927 69.6568C383.222 53.9877 371.035 52.2467 355.366 60.9518C343.178 67.9158 339.697 80.103 330.991 88.8081C324.027 97.5132 320.545 97.513 313.581 102.736C299.653 114.923 290.948 130.592 271.797 139.297C261.351 142.779 252.646 141.039 243.941 149.744C221.308 174.118 247.423 184.564 200.415 208.938C184.746 215.902 174.3 217.643 162.113 229.83C160.372 231.571 162.113 235.053 165.595 235.053C169.077 235.053 172.559 233.312 176.041 233.312C177.782 233.312 177.782 231.571 176.041 231.571C177.782 231.571 219.566 212.42 224.789 207.197C235.236 198.492 235.235 189.787 240.458 179.341C257.869 141.038 261.351 158.448 287.466 144.52C301.394 135.815 310.099 109.7 329.25 111.441C330.991 111.441 332.733 109.7 332.733 107.959C334.474 95.7723 360.589 43.5415 381.481 73.1388C386.704 78.3619 393.668 73.1389 391.927 69.6568Z" fill="#542B24"/>
<path opacity="0.33" d="M564.283 27.8727C562.542 27.8727 560.801 31.3546 560.801 33.0956C566.024 48.7647 566.024 62.6929 569.507 78.3621C571.248 87.0672 572.988 88.8081 566.024 94.0311C560.801 99.2542 559.06 97.5132 552.096 99.2542C548.614 99.2542 545.132 100.995 541.65 102.736C531.204 109.7 525.981 130.592 543.391 127.11C539.909 113.182 545.132 106.219 555.578 107.96C559.06 107.96 560.801 107.96 564.283 107.96C566.024 107.96 567.766 107.959 569.507 106.218C574.73 104.477 576.471 100.995 578.212 95.7722C579.953 87.0672 574.729 76.621 574.729 67.9159C572.988 57.4698 571.248 47.0239 569.507 36.5778C581.694 38.3188 585.175 67.916 592.14 74.8801C593.881 76.6211 597.362 74.88 597.362 73.139C600.844 57.4698 583.434 22.6497 564.283 27.8727Z" fill="#542B24"/>
<path opacity="0.33" d="M783.655 867.041C764.504 858.336 755.798 877.487 745.352 889.675C734.906 880.969 722.719 874.005 710.532 879.228C696.604 884.451 687.899 898.379 680.935 910.566C675.712 921.012 658.302 961.056 686.158 954.092C687.899 954.092 687.899 952.351 686.158 952.351C668.748 947.128 684.417 922.754 691.381 912.307C694.863 907.084 696.604 903.603 700.086 900.121C714.014 884.452 729.683 887.933 743.612 901.861C745.353 903.602 748.835 903.602 750.576 901.861C754.058 898.379 759.28 887.933 762.762 886.192C771.467 886.192 778.432 886.192 787.137 884.451C788.878 886.192 788.878 889.675 790.619 891.416C792.36 896.639 790.619 903.603 790.619 908.826C790.619 914.049 795.842 914.048 799.324 910.566C806.288 896.638 801.065 874.005 783.655 867.041Z" fill="#542B24"/>
<path opacity="0.33" d="M513.797 703.386C496.387 698.163 485.941 710.35 484.2 724.279C470.271 722.538 461.566 732.983 458.084 748.653C454.602 762.581 451.121 793.919 465.049 802.624C466.79 804.365 468.531 802.624 470.272 800.883C472.013 788.696 461.567 724.278 487.682 738.206C492.905 739.947 498.128 736.466 496.387 731.242C492.905 719.055 501.61 710.35 513.797 715.573C522.502 719.055 524.243 724.279 527.725 732.984C529.466 739.948 532.948 746.911 532.948 753.875C532.948 755.616 534.689 753.875 534.689 753.875C539.912 734.724 532.948 710.35 513.797 703.386Z" fill="#542B24"/>
<path opacity="0.33" d="M566.037 755.616C562.555 752.134 557.332 748.652 552.109 748.652C546.886 748.652 539.921 750.393 539.921 755.616C539.921 757.357 539.921 757.357 541.663 757.357C545.145 757.357 546.886 753.875 552.109 755.616C555.591 755.616 557.332 757.357 560.814 759.098C562.555 760.839 564.295 762.58 564.295 764.321C564.295 766.062 559.073 767.803 557.332 767.803C555.591 767.803 555.59 769.544 553.849 771.285V773.026C553.849 774.767 555.591 776.508 557.332 776.508C567.778 776.508 573.001 764.321 566.037 755.616Z" fill="#542B24"/>
<path opacity="0.33" d="M790.624 966.28C767.991 973.244 741.875 971.503 722.724 987.172C707.055 997.618 693.127 1018.51 689.645 1037.66C689.645 1041.14 693.127 1042.88 694.868 1041.14C708.796 1027.21 714.019 1008.06 729.688 995.877C748.839 981.949 773.214 983.69 792.365 969.762C792.365 966.28 790.624 964.539 790.624 966.28Z" fill="#542B24"/>
<path opacity="0.33" d="M787.147 988.912C771.478 987.171 755.808 990.653 741.88 1001.1C731.434 1009.8 719.247 1028.95 727.952 1041.14C727.952 1042.88 729.693 1042.88 731.434 1041.14C734.916 1035.92 734.916 1028.95 736.657 1023.73C738.398 1016.77 743.621 1011.54 748.844 1006.32C759.29 997.617 773.219 994.135 787.147 988.912C787.147 988.912 787.147 990.653 787.147 988.912Z" fill="#542B24"/>
<path opacity="0.33" d="M801.069 1008.06C801.069 1008.06 799.328 1008.06 801.069 1008.06C806.292 1023.73 790.623 1034.18 778.436 1041.14C771.472 1044.62 764.508 1046.37 757.544 1049.85C754.062 1051.59 747.097 1051.59 745.356 1056.81C743.615 1058.55 745.356 1060.29 747.098 1062.04C752.321 1063.78 759.285 1060.29 764.508 1058.55C773.213 1055.07 781.918 1049.85 790.623 1044.63C801.069 1034.18 813.256 1018.51 801.069 1008.06Z" fill="#542B24"/>
<path opacity="0.33" d="M776.693 959.316C748.837 941.905 705.311 968.021 684.419 985.431C661.786 1006.32 640.894 1044.63 670.491 1069C672.232 1070.74 673.974 1069 673.974 1067.26C649.599 1002.84 722.722 964.539 776.693 959.316C778.434 959.316 778.434 961.057 776.693 959.316Z" fill="#542B24"/>
<path opacity="0.33" d="M566.031 919.273C553.844 926.237 531.211 973.244 513.801 957.575C510.319 955.834 506.837 955.834 505.096 959.316C499.873 978.467 489.427 995.878 465.053 987.173C454.607 983.69 449.383 976.726 440.678 971.503C451.124 988.913 461.571 1002.84 482.463 997.618C499.873 994.136 508.578 981.949 513.801 968.021C536.434 976.726 566.032 940.165 569.514 921.014C569.514 921.014 567.773 917.531 566.031 919.273Z" fill="#542B24"/>
<path opacity="0.33" d="M686.164 877.487C680.94 863.559 670.494 861.818 660.048 872.264C649.602 880.969 647.861 893.156 646.12 905.344C646.12 908.826 644.379 931.459 637.415 933.2C635.674 933.2 632.192 926.236 628.71 926.236C616.523 931.459 611.3 933.2 613.041 950.61C614.782 962.797 620.005 968.02 620.005 980.207C620.005 992.394 618.264 999.358 611.3 1009.8C599.113 1030.7 574.739 1055.07 552.106 1030.7C552.106 1030.7 550.365 1030.7 550.365 1032.44C572.998 1074.22 618.264 1028.96 628.71 999.358C633.933 983.689 628.71 973.243 628.71 957.574C625.228 921.013 630.451 950.61 639.156 945.387C642.638 943.646 647.861 943.646 651.343 940.164C654.825 936.682 654.826 929.718 656.567 926.236C656.567 922.754 656.566 921.013 658.307 917.531C656.566 900.121 663.53 887.934 679.2 882.711C679.2 886.193 689.646 882.71 686.164 877.487Z" fill="#542B24"/>
<path opacity="0.33" d="M1037.85 233.311C1030.88 235.052 1023.92 240.276 1018.7 245.499C1011.73 252.463 1006.51 259.427 1003.03 268.132C1001.29 273.355 996.062 282.06 999.544 287.283C1001.29 289.024 1003.03 289.024 1003.03 287.283C1006.51 283.801 1006.51 278.578 1008.25 275.096C1011.73 268.132 1015.21 261.168 1020.44 255.945C1023.92 250.722 1029.14 245.499 1034.36 242.016C1037.85 240.275 1043.07 240.276 1046.55 236.794C1046.55 233.312 1039.59 233.311 1037.85 233.311Z" fill="#542B24"/>
<path opacity="0.33" d="M264.843 694.681C256.138 684.234 245.692 680.752 235.246 684.234C235.246 659.86 221.318 637.227 198.685 651.155C184.756 621.558 129.044 633.745 99.447 649.414C102.929 635.486 104.67 616.335 92.4825 611.112C75.0724 604.148 69.8493 638.968 66.3673 645.932C68.1083 642.45 76.8136 628.522 78.5546 628.522C92.4827 621.558 85.5185 649.414 83.7775 659.86C83.7775 663.342 87.2595 670.306 92.4825 666.824C109.893 654.637 181.275 628.522 186.498 663.342C186.498 668.565 193.461 668.565 196.943 666.824C219.577 665.083 226.541 675.529 219.577 696.422C217.836 703.386 224.8 706.868 230.023 701.644C257.879 710.35 266.584 727.76 257.879 750.393C256.138 757.357 252.656 766.062 250.915 773.026C249.174 778.249 256.138 781.731 259.62 776.508C275.289 753.875 285.736 717.314 264.843 694.681Z" fill="#542B24"/>
<path opacity="0.57" d="M682.682 205.456C679.199 188.046 668.753 175.859 651.343 184.564C647.861 186.305 649.602 191.528 653.084 191.528C694.868 188.046 661.789 271.615 649.602 285.543C628.71 308.176 599.112 306.435 572.997 297.73C543.4 289.025 531.213 275.097 515.544 248.982C515.544 247.241 513.803 248.982 513.803 248.982C529.472 285.543 552.105 301.212 592.149 308.177C621.746 313.4 646.12 306.435 663.53 280.32C679.199 261.169 687.905 231.571 682.682 205.456Z" fill="#C6BDBA"/>
<path opacity="0.57" d="M270.068 400.449C266.586 398.708 264.845 403.931 268.327 405.672C331.004 442.233 290.961 539.73 230.025 487.5C228.284 485.759 224.802 485.759 223.061 487.5C214.356 489.241 205.651 490.982 198.687 492.723C196.946 489.24 191.723 490.982 191.723 494.464C186.5 522.32 176.054 548.435 160.385 572.809C115.118 635.486 52.4414 591.961 43.7363 532.766C45.4773 576.292 80.2976 632.004 130.787 609.371C155.161 598.925 172.571 571.068 183.018 548.435C186.5 539.73 191.722 511.874 196.945 506.651C196.945 506.651 209.133 510.133 207.392 511.874C214.356 508.392 224.802 501.428 231.766 501.428C250.917 501.428 264.845 513.615 287.478 504.91C343.191 482.277 311.853 417.859 270.068 400.449Z" fill="#C6BDBA"/>
<path opacity="0.57" d="M461.574 844.409C405.861 880.97 365.818 811.329 343.185 771.286C355.372 820.035 407.602 893.157 465.056 851.373C472.02 847.891 466.797 840.927 461.574 844.409Z" fill="#C6BDBA"/>
<path opacity="0.57" d="M637.407 779.99C637.407 778.249 633.924 778.249 633.924 779.99C630.442 793.918 632.183 809.588 625.219 821.775C616.514 837.444 600.845 833.961 590.399 823.515H588.658C585.176 840.926 611.291 842.667 621.738 835.703C637.407 825.257 640.889 795.659 637.407 779.99Z" fill="#C6BDBA"/>
<path opacity="0.57" d="M604.334 861.818C586.924 830.48 557.326 849.631 552.103 877.488C532.952 875.747 498.132 887.934 513.801 910.567C513.801 887.934 534.693 879.229 553.844 886.193C555.585 887.934 559.067 884.452 559.067 882.711C559.067 872.265 560.808 861.819 571.254 856.596C581.7 851.373 590.405 858.337 599.11 865.301C602.592 867.042 606.075 865.301 604.334 861.818Z" fill="#C6BDBA"/>
<path opacity="0.57" d="M769.733 675.53C769.733 673.789 767.992 673.789 766.251 675.53C762.769 703.386 762.769 729.502 743.618 752.135C727.949 771.286 693.128 786.955 667.013 781.732C665.272 781.732 665.272 783.473 667.013 783.473C731.43 800.883 778.438 732.983 769.733 675.53Z" fill="#C6BDBA"/>
<path opacity="0.57" d="M952.543 384.781C952.543 383.04 950.802 383.04 949.061 384.781C945.579 402.191 949.061 428.306 935.133 440.493C928.169 445.716 917.723 445.716 912.5 454.421C903.795 464.868 907.277 478.796 905.536 490.983C905.536 497.947 903.795 503.17 902.054 510.134C891.607 517.098 881.162 522.321 872.457 529.285C855.046 531.026 846.341 504.911 839.377 494.465H837.636C841.118 532.767 895.09 558.882 909.018 511.875C912.5 497.947 907.277 477.055 914.241 464.868C919.464 454.422 931.651 454.421 940.356 445.716C954.284 431.788 954.284 403.932 952.543 384.781Z" fill="#C6BDBA"/>
<path opacity="0.57" d="M412.823 87.0662C404.118 125.369 358.851 172.376 315.326 148.002C313.585 146.261 311.844 148.002 311.844 149.743C294.434 158.448 278.765 168.894 261.354 177.599C259.613 177.599 259.613 177.599 257.872 179.34C250.908 201.973 207.383 276.837 167.34 243.758C167.34 243.758 165.599 243.758 167.34 243.758C183.009 262.909 210.865 247.24 226.534 235.053C243.944 222.865 249.168 196.75 264.837 188.045C275.283 182.822 285.729 186.304 296.175 179.34C306.621 172.376 310.103 158.448 322.29 154.966C334.477 151.484 348.405 158.448 364.074 151.484C390.189 139.297 414.564 114.922 416.305 85.3251C416.305 87.0661 412.823 85.3252 412.823 87.0662Z" fill="#C6BDBA"/>
<path opacity="0.57" d="M463.324 369.11C451.137 372.592 445.914 376.074 433.727 363.887C431.986 362.146 430.245 362.146 428.504 363.887C425.022 372.592 418.058 374.333 407.611 370.851C405.87 367.369 400.648 369.11 400.648 372.592C414.576 437.009 351.899 503.168 292.704 511.873C350.158 520.578 405.871 449.196 409.353 396.966C409.353 393.484 409.353 388.261 409.353 384.779C412.835 384.779 414.576 386.52 418.058 384.779C421.54 383.038 423.281 379.556 426.763 377.815C437.209 372.592 428.504 376.074 438.95 376.074C447.655 376.074 454.619 376.074 465.065 374.333C470.288 374.333 468.547 367.369 463.324 369.11Z" fill="#C6BDBA"/>
<path opacity="0.57" d="M604.336 477.054C595.631 489.241 581.703 501.428 566.034 494.464C559.07 490.982 555.588 484.018 552.106 478.795C548.624 473.572 545.141 468.349 538.177 466.608C536.436 466.608 534.696 466.608 534.696 468.349C525.991 485.759 505.098 463.126 499.875 454.421H498.134C501.616 464.867 510.321 477.054 520.767 480.536C525.99 482.277 527.732 480.536 532.955 480.536C534.696 480.536 536.436 477.054 536.436 477.054C541.659 477.054 543.4 485.759 546.882 489.241C555.588 501.428 562.552 510.134 578.221 508.393C593.89 506.652 607.818 496.205 609.559 480.536C609.559 477.054 606.077 475.313 604.336 477.054Z" fill="#C6BDBA"/>
<path opacity="0.57" d="M834.14 146.262C818.471 170.636 761.017 214.162 729.679 208.939C726.197 208.939 722.715 210.679 724.456 214.161C729.679 229.831 733.161 245.5 733.161 262.91C733.161 266.392 724.456 308.176 714.01 294.248C710.528 289.025 703.564 294.248 707.046 297.73C722.715 329.069 660.039 322.105 646.111 323.846C644.37 323.846 644.37 327.327 646.111 329.069C667.003 332.551 684.413 339.515 703.564 325.587C710.528 320.364 715.751 315.141 715.751 308.177C733.161 313.4 740.125 257.687 738.384 245.5C738.384 238.536 733.161 224.608 734.902 219.385C734.902 219.385 766.241 207.197 769.723 205.456C795.838 189.787 825.435 179.341 837.622 148.003C841.104 146.262 835.881 144.521 834.14 146.262Z" fill="#C6BDBA"/>
<path opacity="0.57" d="M564.291 386.522C562.55 381.299 553.845 381.298 550.363 383.039C543.399 386.522 539.917 391.744 538.176 396.967C538.176 396.967 538.176 398.709 536.435 398.709C536.435 400.45 536.435 402.191 536.435 403.932C536.435 407.414 536.435 410.896 536.435 414.378C538.176 419.601 543.399 423.083 548.622 421.342C564.291 414.378 571.255 400.45 564.291 386.522Z" fill="#C6BDBA"/>
<path opacity="0.57" d="M595.633 424.823C592.15 424.823 592.15 431.787 595.633 431.787C599.115 430.046 599.115 424.823 595.633 424.823Z" fill="#C6BDBA"/>
<path opacity="0.57" d="M785.392 109.7C780.169 85.326 755.794 53.988 729.679 48.7649C703.564 43.5419 680.931 71.3981 684.413 95.7723C682.672 80.1032 691.377 66.1751 703.564 57.47C722.715 43.5419 740.125 52.247 754.053 66.1751C766.24 76.6212 776.687 88.8082 781.91 104.477C787.133 121.888 785.392 142.78 774.946 158.449C761.018 177.6 736.643 184.564 719.233 165.413C708.787 154.967 703.564 137.557 701.823 123.629C701.823 106.219 712.269 57.4701 743.608 88.8083C752.313 97.5134 759.276 137.557 745.348 146.262C734.902 151.485 719.233 132.334 724.456 121.888C734.903 104.477 736.643 121.887 738.384 127.11C738.384 128.851 741.867 128.851 741.867 127.11C740.126 118.405 736.644 97.5135 724.456 107.96C714.01 116.665 720.974 146.262 731.42 153.226C761.018 168.895 767.982 80.1033 729.679 71.3982C710.528 67.9162 701.823 94.0315 698.341 107.96C694.859 128.852 700.082 153.226 715.751 168.895C729.679 182.823 748.83 184.564 764.5 174.118C783.651 158.449 790.615 132.333 785.392 109.7Z" fill="#C6BDBA"/>
</svg>
