<svg width="1225" height="1253" viewBox="0 0 1225 1253" fill="none" xmlns="http://www.w3.org/2000/svg">
<path d="M707.315 120.27C675.977 68.04 632.451 17.5506 569.774 3.6225C480.983 -15.5287 465.313 55.8529 416.565 68.04C282.507 104.601 266.838 125.494 138.003 238.66C37.0237 327.451 -11.7246 480.661 31.8008 607.755C50.952 666.949 -18.6886 670.431 5.68558 717.439C35.2828 778.374 2.20345 807.971 21.3546 872.389C30.0597 898.504 89.2543 901.986 104.923 928.101C120.593 955.958 97.9593 1006.45 117.11 1041.27C146.708 1095.24 252.91 1147.47 312.104 1147.47C371.299 1338.98 541.918 1206.66 655.084 1197.96C712.538 1192.74 754.322 1241.48 813.517 1238C921.46 1229.3 909.273 1161.4 977.172 1098.72C1038.11 1043.01 1126.9 1058.68 1154.76 948.994C1166.94 903.727 1121.68 870.648 1128.64 835.828C1135.6 795.784 1179.13 792.302 1189.58 757.482C1219.17 665.208 1271.4 390.128 1132.12 367.495C1118.19 207.321 883.157 21.0326 707.315 120.27Z" fill="#CCB672"/>
<path opacity="0.5" d="M169.346 816.676C106.669 908.95 150.195 1074.35 266.843 1093.5C331.26 1103.94 355.634 1036.04 418.311 1060.42C451.39 1072.61 433.98 1150.95 496.657 1173.58C541.923 1190.99 608.082 1145.73 655.089 1142.25C714.284 1138.76 754.327 1168.36 818.745 1147.47C931.91 1109.17 987.623 942.029 864.011 882.835C754.327 830.604 620.269 1074.35 585.449 898.504C541.923 905.468 521.031 889.799 486.211 921.137C461.836 848.015 392.196 799.266 327.778 854.979C353.894 640.834 108.41 654.762 169.346 816.676Z" fill="#655538"/>
<path opacity="0.5" d="M864.007 330.934C813.518 -13.7868 421.789 250.847 517.545 370.977C380.005 379.682 534.955 557.266 651.603 503.295C540.178 734.85 1032.89 750.519 917.978 491.108C1083.37 498.072 992.842 200.358 837.892 357.049L864.007 330.934Z" fill="#655538"/>
<path opacity="0.5" d="M37.0205 539.856C52.6896 586.863 85.7687 614.719 129.294 585.122C185.007 548.561 132.776 487.625 144.963 447.582C186.748 318.747 289.468 397.093 357.367 283.927C453.123 122.012 280.763 193.394 205.899 235.178C96.215 297.855 43.9845 350.085 49.2076 499.813L37.0205 539.856Z" fill="#655538"/>
<path opacity="0.5" d="M785.667 421.466C568.04 322.228 985.883 43.6658 945.84 405.797C1050.3 386.646 1109.5 492.848 1053.78 579.898C1151.28 632.129 1079.9 797.526 1036.37 874.13C959.768 1008.19 810.041 1062.16 660.313 1032.56C515.809 1002.97 366.082 877.612 392.197 713.957C409.607 599.05 527.996 513.74 628.975 607.755C658.573 588.604 688.17 569.453 719.508 552.042C670.76 487.625 702.098 435.394 785.667 421.466Z" fill="#655538"/>
<path opacity="0.5" d="M959.756 875.872C1041.58 809.713 1071.18 781.857 1060.73 672.173C1050.29 559.007 1048.55 579.899 968.461 552.043C933.64 539.856 848.331 600.791 827.438 522.446C813.51 471.956 938.863 435.395 966.72 381.423C1018.95 278.703 933.64 148.127 811.769 144.645C747.352 142.904 729.941 179.466 677.711 172.502C642.891 167.279 620.258 104.602 552.358 116.789C543.653 -39.9022 326.026 191.653 312.098 310.042C279.019 318.747 251.162 348.344 247.68 393.61C110.14 381.423 85.7659 592.086 233.752 595.568C197.191 703.511 305.134 767.929 373.033 653.022C402.631 602.532 355.623 550.302 366.069 501.553C373.033 470.215 416.559 424.949 432.228 397.092C404.372 477.179 571.509 336.157 623.74 292.632C616.776 313.524 623.74 339.639 618.517 357.049C670.747 341.38 738.647 344.862 797.841 346.603C804.805 370.977 804.805 424.949 797.841 447.582C749.093 452.805 649.855 517.222 665.524 579.899C677.711 628.647 745.611 593.827 759.539 623.424C829.179 760.965 634.186 696.547 580.214 823.641C519.279 969.886 681.193 1027.34 797.841 1037.79C860.518 1043.01 952.791 1056.94 996.317 999.484C1039.84 942.03 1025.91 875.872 959.756 875.872Z" fill="#E3DBB1"/>
<path opacity="0.27" d="M1186.09 757.483C1215.69 665.209 1267.92 390.128 1128.64 367.495C1116.45 207.322 883.155 21.0331 707.312 120.271C702.089 111.566 696.866 102.861 691.643 95.8968C721.24 167.278 825.701 238.66 864.004 294.372C834.407 323.97 810.032 367.495 801.327 407.538C846.594 438.877 895.342 454.546 942.349 478.92C930.162 491.107 919.716 527.668 904.047 541.597C959.759 588.604 999.803 619.942 1020.7 698.288C1038.11 766.187 1018.95 968.145 938.867 994.26C822.219 1032.56 869.227 865.425 801.327 839.31C717.758 807.972 655.082 905.469 667.269 983.814C585.441 921.138 599.369 1023.86 552.362 1039.53C501.872 1056.94 444.419 1055.2 388.707 1043.01C310.361 1025.6 251.166 992.52 165.856 983.814C144.964 982.073 127.554 990.778 110.144 999.483C110.144 1015.15 110.144 1030.82 117.108 1043.01C146.705 1096.98 252.907 1149.21 312.102 1149.21C371.296 1340.72 541.916 1208.41 655.082 1199.7C712.535 1194.48 754.32 1243.23 813.514 1239.74C921.457 1231.04 909.27 1163.14 977.17 1100.46C1038.11 1044.75 1126.9 1060.42 1154.75 950.735C1166.94 905.469 1121.67 872.389 1128.64 837.569C1133.86 795.785 1175.65 792.303 1186.09 757.483Z" fill="#21004C"/>
<path opacity="0.17" d="M385.226 947.252C258.132 1100.46 635.932 1281.53 752.58 1130.06C815.257 1177.07 890.121 1161.4 949.315 1117.87C1034.62 1056.94 991.1 1006.45 1027.66 933.324C1081.63 820.158 1240.06 734.849 1121.68 583.38C1227.88 501.553 1116.45 297.854 1031.14 247.364C907.531 174.242 630.71 221.249 785.66 428.43C834.408 494.588 912.754 473.696 919.718 562.488C928.423 656.503 815.257 668.69 883.157 787.079C924.941 860.202 1041.59 835.827 909.272 938.547C843.113 989.037 728.206 938.547 735.17 1065.64C637.673 975.109 608.076 938.547 385.226 947.252Z" fill="#21004C"/>
<path opacity="0.4" d="M430.498 435.394C489.692 383.164 508.844 303.077 493.175 228.213C409.606 188.17 326.037 299.595 322.555 383.164C254.655 325.71 212.871 405.797 204.166 475.437C110.151 430.171 68.3667 675.654 282.512 661.726C301.663 736.59 378.267 750.518 413.088 675.654C498.397 834.087 665.535 482.402 428.757 449.322V435.394H430.498Z" fill="#FFE4A1"/>
<path opacity="0.68" d="M202.419 217.768C150.189 243.883 99.6993 273.48 70.1021 327.451C31.7997 397.092 19.6127 489.366 14.3896 567.712C14.3896 578.158 28.3178 579.899 31.7998 569.453C73.5842 451.064 56.174 330.933 179.786 259.552C219.829 236.919 261.614 214.286 306.88 203.839C338.219 196.875 373.039 202.098 367.816 243.883C364.334 271.739 338.219 292.631 315.585 306.559C266.837 341.38 185.009 355.308 150.189 407.538C131.038 437.135 125.815 475.438 118.851 508.517C113.628 534.632 108.404 616.46 68.361 597.309C64.8789 595.568 59.656 599.05 61.397 604.273C106.663 687.842 148.448 468.474 151.93 454.546C186.75 346.603 359.111 367.495 388.708 254.329C425.269 125.494 254.65 191.652 202.419 217.768Z" fill="#E6D4A3"/>
<path opacity="0.68" d="M627.223 346.602C627.223 332.674 625.482 318.746 625.482 304.818C625.482 296.113 616.777 287.408 606.331 290.89C578.475 301.336 561.065 315.264 555.842 344.861C554.101 357.048 568.029 362.271 574.993 353.566C580.216 344.861 588.921 336.156 595.885 330.933C595.885 343.12 597.626 353.566 595.885 365.753C594.144 376.2 606.331 381.422 615.036 379.681C655.08 374.458 832.663 336.156 787.397 423.207C761.282 473.696 702.087 445.84 665.526 480.66C655.08 491.106 653.339 501.553 646.375 513.74C642.893 518.963 644.634 529.409 641.152 534.632C622.001 560.747 611.554 539.855 609.813 518.963C609.813 513.74 606.331 508.517 601.108 508.517C550.619 499.812 435.712 491.107 480.978 412.761C484.46 407.538 477.496 404.056 474.014 407.538C446.158 431.912 439.194 459.768 468.791 485.883C484.46 499.812 508.835 506.776 527.986 513.74C540.173 517.222 555.842 518.963 568.029 524.186C590.662 534.632 588.921 525.927 588.921 559.006C588.921 564.229 592.403 569.452 597.626 569.452C618.518 572.934 639.411 578.157 656.821 562.488C681.195 539.855 669.008 508.517 709.051 494.589C740.389 484.142 769.987 492.848 796.102 468.473C811.771 452.804 827.44 419.725 827.44 395.351C825.699 310.041 693.382 336.156 627.223 346.602Z" fill="#E6D4A3"/>
<path opacity="0.68" d="M423.524 825.382C421.783 818.418 414.819 813.195 407.855 813.195C383.481 816.677 359.107 821.9 334.732 825.382C345.178 752.259 313.84 679.136 225.048 693.065C178.041 700.029 84.0263 780.115 153.667 823.641C157.149 825.382 160.631 823.641 160.631 820.159C160.631 797.526 151.926 778.374 165.854 755.741C178.041 734.849 205.897 724.403 228.531 720.921C305.135 710.475 315.581 781.856 299.912 841.051C298.171 849.756 305.135 863.684 315.581 861.943C343.438 858.461 369.553 853.238 397.409 848.015C406.114 884.576 395.668 914.174 362.589 938.548C355.625 943.771 350.402 952.476 357.366 961.181C388.704 1008.19 312.099 1049.97 275.538 1056.94C247.682 1062.16 219.825 1058.68 198.933 1037.79C167.595 1006.45 178.041 961.181 165.854 922.879C162.372 914.174 151.926 914.174 148.444 922.879C110.141 1013.41 191.969 1107.43 284.243 1088.28C338.215 1076.09 420.042 1020.38 392.186 957.699C428.747 922.879 440.934 879.353 423.524 825.382Z" fill="#E6D4A3"/>
<path opacity="0.68" d="M635.932 52.3714C616.781 27.9971 564.55 5.36373 543.658 40.184C540.176 43.6661 545.399 48.8891 548.881 48.8891C562.809 50.6301 576.737 45.4071 592.406 48.8891C604.593 52.3711 615.039 61.0764 622.004 73.2635C639.414 101.12 622.004 128.976 594.147 139.422C564.55 149.868 510.579 151.609 498.392 115.048C486.205 81.9685 524.507 66.2994 550.622 64.5584C554.104 64.5584 557.586 57.5944 552.363 55.8533C521.025 48.8893 487.945 57.5942 479.24 92.4145C472.276 123.753 494.909 151.609 522.766 162.055C559.327 174.242 613.298 169.019 639.414 137.681C658.565 111.566 655.083 76.7456 635.932 52.3714Z" fill="#E6D4A3"/>
<path opacity="0.68" d="M1059 456.287C1055.52 452.805 1050.29 458.028 1050.29 463.251C1055.52 480.661 1065.96 496.33 1069.45 513.74C1072.93 525.928 1076.41 586.863 1052.04 585.122C1043.33 585.122 1031.14 564.23 1018.96 560.748C968.467 550.302 891.862 611.237 857.042 546.82C853.56 541.597 846.596 545.079 848.337 550.302C853.56 586.863 888.38 595.568 921.46 593.827C944.093 593.827 966.726 586.863 989.359 583.381C1015.47 578.158 1015.47 581.64 1034.63 595.568C1055.52 611.237 1069.45 606.014 1081.63 583.381C1104.27 543.338 1097.3 485.884 1059 456.287Z" fill="#E6D4A3"/>
<path opacity="0.68" d="M1184.36 541.596C1186.1 484.142 1201.77 421.466 1130.39 398.833C1118.2 395.351 1109.49 412.761 1121.68 419.725C1146.06 435.394 1161.73 461.509 1161.73 491.107C1161.73 508.517 1149.54 524.186 1149.54 539.855C1149.54 555.524 1154.76 567.711 1158.24 585.121C1165.21 640.834 1137.35 694.805 1149.54 752.259C1151.28 757.482 1156.5 755.741 1158.24 752.259C1172.17 708.733 1182.62 661.726 1187.84 616.46C1189.58 590.344 1182.62 565.97 1184.36 541.596Z" fill="#E6D4A3"/>
<path opacity="0.68" d="M945.834 158.573C928.424 148.127 909.273 153.35 890.122 155.091C872.712 155.091 858.783 153.35 843.114 142.904C836.15 137.681 830.927 130.717 823.963 125.494C804.812 116.789 787.402 128.976 771.733 141.163C766.51 146.386 773.474 155.091 778.697 151.609C813.517 132.458 815.258 149.868 837.891 165.537C848.337 172.501 860.524 175.983 874.452 177.724C888.381 179.465 905.791 174.242 919.719 175.983C942.352 179.465 951.057 205.58 964.985 221.25C968.467 224.732 973.69 221.25 973.69 217.768C975.431 193.393 966.726 170.76 945.834 158.573Z" fill="#E6D4A3"/>
<path opacity="0.68" d="M489.692 1218.85C480.987 1211.89 474.022 1210.15 463.576 1210.15C446.166 1208.4 439.202 1204.92 427.015 1192.74C423.533 1189.25 414.828 1189.25 411.346 1192.74C399.159 1206.66 383.49 1218.85 371.303 1197.96C364.338 1185.77 362.597 1168.36 367.821 1154.43C369.562 1150.95 362.597 1147.47 360.856 1150.95C348.669 1173.58 339.964 1199.7 362.597 1220.59C381.749 1238 402.641 1229.3 420.051 1215.37C439.202 1232.78 461.835 1234.52 489.692 1227.56C493.174 1227.56 493.174 1220.59 489.692 1218.85Z" fill="#E6D4A3"/>
<path opacity="0.68" d="M56.1785 762.705C54.4375 743.554 56.1786 720.921 52.6966 701.769C52.6966 700.028 43.9915 680.877 43.9915 680.877C43.9915 680.877 43.9914 679.136 42.2504 679.136C26.5812 698.288 30.0633 713.957 30.0633 740.072C31.8043 783.597 26.5814 830.605 37.0275 874.13C38.7685 879.353 43.9914 879.353 47.4735 875.871C66.6246 846.274 57.9196 795.784 56.1785 762.705Z" fill="#E6D4A3"/>
<path opacity="0.68" d="M851.818 853.238C822.221 703.511 595.889 844.533 662.047 935.066C662.047 936.807 663.788 935.066 665.529 935.066C667.27 877.613 719.501 792.303 792.624 807.972C839.631 818.418 832.667 872.389 839.631 907.21C850.077 954.217 877.933 1006.45 851.818 1053.46C829.185 1095.24 763.026 1130.06 717.76 1121.35C709.055 1119.61 703.832 1131.8 710.796 1135.28C761.285 1163.14 832.667 1116.13 864.005 1076.09C912.754 1011.67 865.746 921.138 851.818 853.238Z" fill="#E6D4A3"/>
</svg>
