<svg width="1650" height="1650" viewBox="0 0 1650 1650" fill="none" xmlns="http://www.w3.org/2000/svg">
<path d="M1140.26 1333.65C1421.38 1159.34 1507.97 790.133 1333.65 509.013C1159.34 227.893 790.133 141.31 509.013 315.625C227.893 489.94 141.31 859.143 315.625 1140.26C489.94 1421.38 859.143 1507.97 1140.26 1333.65Z" fill="#8D705C"/>
<path opacity="0.72" d="M1423.59 786.093C1421.85 786.093 1420.11 786.093 1416.63 786.093C1418.37 782.611 1420.11 780.87 1421.85 777.388C1413.15 678.15 1381.81 582.394 1327.84 500.567C1219.9 446.595 1071.91 444.854 972.671 437.89L356.352 455.3C354.611 455.3 352.87 455.3 351.129 457.041C298.898 523.2 260.596 601.545 239.704 688.596C197.919 866.18 239.704 1043.76 340.683 1179.56C452.108 1216.12 558.31 1245.72 680.181 1254.43C798.57 1263.13 920.441 1254.43 1040.57 1254.43C1078.87 1254.43 1117.18 1257.91 1153.74 1249.2C1205.97 1237.02 1239.05 1198.71 1284.31 1170.86C1299.98 1162.15 1313.91 1155.19 1327.84 1149.97C1364.4 1094.25 1392.26 1029.84 1407.92 960.195C1421.85 902.741 1427.08 843.547 1423.59 786.093Z" fill="#5C2000"/>
<path opacity="0.89" d="M1259.94 411.774C1218.15 401.328 1171.15 401.328 1124.14 403.069C1087.58 404.81 1045.79 397.846 1009.23 401.328C1000.53 403.069 993.563 389.141 983.116 390.882C974.411 392.623 967.447 411.774 955.26 413.515C934.368 416.997 913.476 411.774 892.584 416.997C843.835 429.184 828.166 436.148 779.418 432.666C727.187 427.443 676.698 418.738 622.726 411.774C587.906 406.551 561.791 418.738 526.971 416.997C495.632 415.256 471.258 394.364 438.179 392.623C429.474 392.623 417.287 394.364 403.359 397.846C372.02 427.443 345.905 460.522 321.531 497.084L338.941 495.343C403.358 566.724 427.733 495.343 495.632 498.825C539.158 500.566 610.539 599.804 634.913 521.458C643.619 524.94 657.547 523.199 662.77 526.681C664.511 521.458 664.511 516.235 666.252 511.012C721.964 523.199 876.915 610.25 925.663 568.465C962.224 538.868 922.181 528.422 970.929 514.494C986.599 509.271 1045.79 511.012 1064.94 519.717C1085.84 491.861 1178.11 495.343 1211.19 502.307C1244.27 507.53 1306.95 559.76 1333.06 549.314C1334.8 561.501 1346.99 573.688 1348.73 584.134C1353.95 582.393 1359.18 578.911 1364.4 577.17C1341.77 516.235 1305.2 460.522 1259.94 411.774Z" fill="#96C4D1"/>
<path opacity="0.72" d="M1406.2 676.409C1400.97 658.999 1395.75 641.589 1390.53 624.179C1376.6 625.92 1360.93 627.661 1345.26 622.438C1320.89 613.733 1305.22 580.653 1279.1 570.207C1207.72 544.092 1127.63 566.725 1056.25 570.207C1035.36 571.948 1014.47 559.761 993.577 564.984C972.684 570.207 965.72 585.876 950.051 591.1C908.267 606.769 854.295 617.215 807.288 608.51C786.396 605.028 763.763 589.358 742.87 592.84C716.755 596.322 706.309 627.661 673.23 625.92C647.115 624.179 641.892 605.028 620.999 598.063C594.884 589.358 575.733 599.804 551.359 598.063C528.726 596.322 509.574 578.912 490.423 577.171C464.308 575.43 443.416 589.358 420.783 589.358C361.588 589.358 325.027 564.984 286.724 559.761C271.055 592.84 257.127 629.402 246.681 665.963C278.019 652.035 312.84 634.625 333.732 638.107C328.509 686.855 396.408 695.56 427.747 681.632C432.97 787.834 577.474 674.668 614.035 674.668C652.338 674.668 812.511 805.244 829.921 719.935C842.108 740.827 869.965 749.532 889.116 730.381C908.267 746.05 963.979 751.273 988.354 742.568C1019.69 730.381 1031.88 686.855 1066.7 681.632C1117.19 674.668 1190.31 753.014 1226.87 672.927C1230.35 721.676 1350.48 718.193 1406.2 676.409Z" fill="#96C4D1"/>
<path opacity="0.83" d="M1420.11 761.719C1322.62 749.532 1225.12 770.424 1131.11 793.057C1089.32 803.503 943.076 791.316 937.853 819.172C918.702 810.467 889.105 803.503 866.472 808.726C856.026 810.467 836.875 836.583 833.393 834.842C809.018 833.101 805.536 808.726 779.421 800.021C746.342 789.575 734.155 810.468 704.557 813.95C655.809 819.173 617.507 803.503 565.276 813.95C495.636 826.137 469.52 826.136 373.764 819.172C331.98 822.654 272.786 793.057 225.778 796.539C224.037 855.734 229.26 911.446 243.188 967.159C298.901 979.346 363.318 974.123 417.29 986.31C518.269 1010.68 643.622 1021.13 749.824 1007.2C812.5 998.497 843.839 988.051 897.81 1014.17C927.407 1028.09 963.969 1052.47 1004.01 1024.61C1023.16 1071.62 1075.39 1029.84 1110.21 1028.09C1145.03 1026.35 1167.67 1033.32 1209.45 1024.61C1268.65 1010.68 1345.25 998.497 1406.19 967.159C1406.19 963.677 1407.93 961.936 1407.93 958.454C1423.6 894.036 1427.08 827.878 1420.11 761.719Z" fill="#96C4D1"/>
<path opacity="0.72" d="M1345.25 1123.85C1293.02 1118.63 1225.12 1165.63 1185.08 1165.63C1164.19 1123.85 1049.28 1191.75 1002.27 1183.04C969.195 1177.82 946.562 1146.48 916.964 1144.74C885.626 1143 838.619 1170.86 807.28 1176.08C779.424 1181.3 748.086 1190.01 721.971 1179.56C709.784 1174.34 695.855 1148.22 685.409 1144.74C666.258 1141.26 666.258 1153.45 645.366 1158.67C577.466 1174.34 453.854 1216.12 384.214 1156.93C370.286 1158.67 352.875 1163.89 335.465 1170.86C361.581 1209.16 392.919 1242.24 425.998 1273.58C457.336 1268.35 488.675 1257.91 509.567 1240.5C516.531 1277.06 553.092 1275.32 582.689 1278.8C600.1 1280.54 617.51 1273.58 629.697 1275.32C648.848 1278.8 676.704 1289.25 695.855 1296.21C760.273 1313.62 810.762 1306.66 876.921 1294.47C906.518 1289.25 969.195 1264.87 997.051 1270.09C1019.68 1275.32 1038.84 1301.43 1068.43 1311.88C1096.29 1320.58 1131.11 1322.32 1162.45 1320.58C1237.31 1268.35 1299.99 1202.19 1345.25 1123.85Z" fill="#96C4D1"/>
<path opacity="0.72" d="M546.12 1165.63C486.926 1198.71 309.342 1174.34 389.429 1075.1C434.695 1019.39 586.164 1010.68 633.171 1066.39C685.402 1127.33 612.279 1137.78 561.79 1153.45L546.12 1165.63Z" fill="#F2902B"/>
<path opacity="0.72" d="M1162.44 1183.04C1139.8 1162.15 1106.72 1177.82 1080.61 1190.01C1078.87 1198.71 1078.87 1207.42 1080.61 1216.12C1110.2 1230.05 1143.28 1235.27 1167.66 1210.9L1162.44 1183.04Z" fill="#F2902B"/>
<path opacity="0.72" d="M1378.34 1026.35C1397.49 982.826 1331.33 986.309 1312.18 1014.16C1322.63 941.042 1221.65 942.783 1185.09 981.085C1148.53 960.193 1105 975.862 1073.66 1003.72C1044.07 960.193 991.835 974.121 953.532 995.014C929.158 913.186 730.682 954.97 685.416 1001.98C607.07 1080.32 845.589 1082.06 890.856 1059.43C887.374 1143 1007.5 1078.58 1035.36 1057.69C1070.18 1083.81 1110.22 1087.29 1138.08 1052.47C1155.49 1082.06 1205.98 1068.14 1221.65 1040.28C1249.5 1090.77 1376.6 1116.88 1378.34 1026.35Z" fill="#F2902B"/>
<path opacity="0.72" d="M1394 638.106C1371.37 625.919 1345.25 627.66 1327.84 667.703C1296.5 639.847 1212.93 575.43 1190.3 648.552C1143.29 613.732 1134.59 652.034 1096.29 658.998C1063.21 664.221 1052.76 650.293 1017.94 641.588C962.228 629.401 962.228 658.998 913.48 678.149C859.508 699.042 835.134 662.48 788.127 648.552C735.896 632.883 718.486 667.703 676.702 667.703C648.846 667.703 631.435 634.624 600.097 639.847C584.428 643.329 570.5 667.703 554.831 671.185C537.421 674.667 528.716 662.48 516.528 662.48C478.226 660.739 432.96 664.221 372.024 660.739C399.88 606.768 311.089 585.876 281.491 625.919C274.527 620.696 269.304 617.214 262.34 613.732C253.635 638.106 246.671 662.48 239.707 686.854C232.743 716.452 227.52 746.049 225.779 775.646C269.304 791.315 325.017 786.092 359.837 765.2C391.175 812.208 424.255 801.762 471.262 796.538C509.564 791.315 561.795 791.315 605.32 766.941C629.694 862.697 734.155 772.164 786.386 770.423C835.134 766.941 869.955 806.984 927.408 794.797C969.192 786.092 984.861 772.164 1033.61 775.646C1049.28 775.646 1063.21 784.351 1078.88 782.61C1104.99 779.128 1118.92 756.495 1139.81 753.013C1172.89 746.049 1169.41 759.977 1202.49 770.423C1259.94 789.574 1266.91 758.236 1305.21 742.567C1348.73 725.157 1341.77 747.79 1383.55 742.567C1397.48 740.826 1407.93 737.344 1416.63 730.38C1411.41 700.783 1404.45 669.444 1394 638.106Z" fill="#F2902B"/>
<path opacity="0.83" d="M1421.86 867.921C1407.93 860.957 1394 853.993 1383.56 845.288C1378.33 864.439 1374.85 887.072 1376.59 907.964C1310.43 914.928 1273.87 833.101 1199.01 840.065C1197.27 855.734 1192.04 867.921 1197.27 883.59C1174.63 887.072 1150.26 880.108 1131.11 874.885C1132.85 881.849 1127.63 890.554 1129.37 899.259C1085.84 906.223 918.705 817.431 920.446 888.813C878.661 878.367 768.978 806.985 753.308 888.813C728.934 866.18 694.114 867.921 697.596 902.741C659.294 887.072 617.509 880.108 600.099 918.411C567.02 904.482 446.89 813.95 438.185 899.259C419.034 883.59 363.321 836.583 351.134 883.59C335.465 864.439 304.127 862.698 290.198 918.411C298.904 887.072 251.896 841.806 222.299 843.547C224.04 876.626 227.522 909.705 232.745 941.044C257.119 961.936 291.939 977.605 319.796 977.605C335.465 925.374 387.695 979.346 419.033 991.533C481.71 1012.43 492.156 989.792 455.595 949.749C459.077 948.008 466.041 941.044 467.782 939.303C500.861 961.936 533.941 981.087 577.466 988.051C589.653 949.749 598.358 951.49 640.142 956.713C657.553 958.454 669.74 981.087 694.114 977.605C713.265 974.123 727.193 949.749 741.121 941.044C782.906 916.669 819.467 913.187 864.733 930.598C890.849 941.044 930.892 993.274 943.079 949.749C970.935 939.302 995.309 954.972 1009.24 974.123C1004.01 932.339 1082.36 918.411 1110.22 953.231C1108.48 948.008 1108.48 942.785 1108.48 937.562C1148.52 951.49 1223.38 965.418 1214.68 911.446C1244.27 946.267 1273.87 972.382 1312.17 925.374C1329.58 954.972 1360.92 960.195 1397.48 965.418C1399.22 956.713 1402.71 948.008 1407.93 942.785C1418.38 914.928 1420.12 892.295 1421.86 867.921Z" fill="#205673"/>
<path opacity="0.83" d="M452.106 465.745C443.401 434.407 385.948 425.702 396.394 464.004C373.761 460.522 354.609 470.968 345.904 493.602C366.796 526.681 419.027 507.53 446.883 500.566C462.552 497.084 479.962 483.155 495.632 481.414C511.301 481.414 516.524 498.825 539.157 495.343C563.531 514.494 626.208 493.602 657.546 491.861C702.812 490.12 758.525 526.681 798.568 504.048C807.273 540.609 852.54 535.386 873.432 509.271C932.626 547.573 944.814 505.789 991.821 491.861C1004.01 488.379 1026.64 502.307 1042.31 502.307C1057.98 502.307 1080.61 491.861 1094.54 490.12C1099.76 490.12 1106.73 502.307 1115.43 502.307C1125.88 500.566 1143.29 486.638 1151.99 486.638C1169.4 486.638 1179.85 491.86 1200.74 497.084C1232.08 504.048 1286.05 533.645 1299.98 491.861C1277.35 457.04 1214.67 451.817 1178.11 453.558C1160.7 453.558 1134.58 464.004 1118.92 462.263C1103.25 460.522 1099.76 450.076 1087.58 450.076C1044.05 444.853 1024.9 462.263 984.857 465.745C951.778 467.486 923.921 448.335 889.101 448.335C864.727 448.335 835.13 457.04 810.755 460.522C741.115 470.968 680.179 436.148 610.539 465.745C593.128 441.371 460.811 450.076 452.106 465.745Z" fill="#205673"/>
<path opacity="0.72" d="M1028.39 1337.99C962.231 1339.73 911.741 1304.91 850.806 1304.91C796.834 1304.91 741.122 1315.36 683.668 1315.36C627.956 1315.36 560.056 1277.06 513.049 1289.24C506.085 1303.17 495.639 1311.88 481.71 1317.1C495.639 1327.55 511.308 1336.25 525.236 1344.96C539.164 1341.48 553.092 1337.99 567.02 1337.99C586.171 1337.99 612.287 1348.44 638.402 1353.66C767.237 1383.26 875.18 1376.3 1004.02 1367.59C1019.68 1365.85 1045.8 1369.33 1073.66 1372.81C1099.77 1360.63 1125.89 1346.7 1150.26 1331.03C1110.22 1331.03 1070.17 1336.25 1028.39 1337.99Z" fill="#C6AA89"/>
<path opacity="0.72" d="M880.398 369.99C920.441 366.508 948.298 359.544 990.082 366.508C1045.79 375.213 1085.84 359.544 1138.07 359.544C1171.15 359.544 1193.78 373.472 1221.64 380.436C1221.64 378.695 1221.64 376.954 1221.64 375.213C1200.74 357.803 1179.85 340.393 1157.22 324.724C1094.54 309.055 1004.01 317.76 967.449 319.501C857.765 324.724 756.786 310.796 701.073 309.055C666.253 312.537 633.174 326.465 598.354 326.465C572.238 326.465 546.123 314.278 518.267 310.796C497.375 322.983 476.483 338.652 455.59 354.321C471.259 356.062 485.188 359.544 490.411 369.99C586.166 403.07 692.368 364.767 795.088 364.767C828.168 364.767 850.801 371.731 880.398 369.99Z" fill="#C6AA89"/>
<path opacity="0.72" d="M1319.14 1113.4C1305.21 1144.74 1272.13 1134.29 1244.28 1137.78C1233.83 1139.52 1226.87 1143 1218.16 1148.22C1211.2 1153.45 1205.98 1158.67 1199.01 1162.15C1186.82 1169.12 1174.64 1167.37 1160.71 1162.15C1132.85 1153.45 1110.22 1153.45 1080.62 1158.67C1047.54 1165.63 1017.95 1174.34 984.867 1165.63C953.528 1156.93 925.672 1148.22 892.593 1148.22C857.773 1148.22 824.693 1151.71 789.873 1151.71C756.794 1151.71 721.973 1146.48 692.376 1130.81C664.52 1116.88 643.628 1092.51 622.736 1068.14C608.807 1050.73 594.879 1031.57 573.987 1019.39C549.613 1005.46 523.498 1008.94 497.382 1012.42C493.9 1012.42 495.641 1017.65 497.382 1017.65C525.239 1015.91 554.836 1015.91 577.469 1036.8C596.62 1052.47 610.548 1075.1 626.218 1094.25C668.002 1143 725.455 1163.89 789.873 1162.15C824.693 1160.41 859.514 1151.71 896.075 1153.45C913.485 1153.45 930.895 1155.19 948.305 1160.41C965.716 1165.63 983.126 1174.34 1002.28 1177.82C1030.13 1181.3 1054.51 1174.34 1082.36 1169.12C1101.51 1165.63 1122.41 1162.15 1139.82 1167.37C1153.75 1170.86 1167.67 1179.56 1183.34 1177.82C1197.27 1176.08 1205.98 1169.12 1216.42 1160.41C1233.83 1146.48 1249.5 1148.22 1268.65 1148.22C1293.03 1148.22 1315.66 1143 1324.36 1116.88C1329.59 1111.66 1320.88 1108.18 1319.14 1113.4Z" fill="#EDD8AB"/>
<path opacity="0.72" d="M584.437 1075.1C554.839 1045.5 495.645 1043.76 457.343 1047.24C417.299 1050.73 359.846 1069.88 373.774 1120.37C366.81 1036.8 509.573 1045.5 558.321 1068.14C568.767 1073.36 584.437 1082.06 586.178 1095.99C587.919 1111.66 570.509 1127.33 558.321 1134.3C537.429 1146.48 406.853 1186.53 410.335 1136.04C413.817 1108.18 462.566 1101.22 483.458 1099.48C493.904 1099.48 516.537 1097.73 523.501 1108.18C528.724 1115.14 525.242 1109.92 521.76 1116.89C518.278 1123.85 507.832 1127.33 500.868 1130.81C488.681 1136.04 474.753 1136.04 462.566 1134.3C457.343 1134.3 457.343 1141.26 462.566 1143C492.163 1146.48 518.278 1137.78 537.429 1113.4C539.17 1111.66 537.429 1109.92 537.429 1108.18C518.278 1089.03 485.199 1090.77 460.825 1095.99C439.932 1099.48 408.594 1109.92 403.371 1134.3C398.148 1158.67 420.781 1170.86 441.673 1172.6C474.753 1176.08 513.055 1165.63 544.393 1153.45C572.25 1141.26 615.775 1106.44 584.437 1075.1Z" fill="#EDD8AB"/>
<path opacity="0.72" d="M1282.57 1143C1263.42 1149.96 1246.01 1160.41 1228.6 1169.12C1214.67 1176.08 1197.26 1183.04 1183.34 1176.08C1176.37 1172.6 1171.15 1162.15 1164.18 1158.67C1141.55 1144.74 1115.44 1148.22 1091.06 1151.71C1042.31 1158.67 1000.53 1184.78 951.781 1167.37C915.219 1155.19 897.809 1136.04 857.766 1143C821.205 1149.96 767.233 1191.75 730.672 1179.56C708.038 1172.6 692.369 1148.22 664.513 1151.71C655.808 1153.45 650.585 1156.93 643.621 1160.41C619.247 1172.6 596.614 1176.08 568.757 1176.08C523.491 1176.08 481.706 1188.27 441.663 1207.42C438.181 1209.16 439.922 1214.38 443.404 1214.38C469.519 1217.86 486.93 1210.9 511.304 1203.94C540.901 1196.97 565.275 1198.71 594.873 1196.97C631.434 1193.49 657.549 1165.63 692.369 1183.04C711.521 1193.49 721.967 1205.68 744.6 1203.94C793.348 1200.45 835.133 1158.67 883.881 1165.63C901.291 1167.37 915.219 1179.56 930.888 1186.53C950.04 1195.23 969.191 1200.45 990.083 1200.45C1026.64 1202.2 1061.46 1183.04 1098.03 1176.08C1125.88 1170.86 1148.52 1165.63 1171.15 1183.04C1178.11 1188.27 1179.85 1191.75 1186.82 1195.23C1221.64 1209.16 1265.16 1170.86 1289.54 1153.45C1293.02 1149.96 1289.54 1141.26 1282.57 1143Z" fill="#EDD8AB"/>
<path opacity="0.72" d="M897.81 1146.48C866.471 1122.11 838.615 1141.26 803.795 1149.97C779.421 1155.19 765.493 1160.41 746.341 1143C737.636 1134.3 734.154 1125.59 721.967 1120.37C706.298 1115.14 692.37 1120.37 678.442 1122.11C652.327 1123.85 647.104 1109.92 633.175 1089.03C617.506 1066.4 605.319 1040.28 582.686 1024.61C558.312 1007.2 530.456 1007.2 502.599 1008.94C488.671 1008.94 474.743 1014.17 460.815 1007.2C446.887 998.497 450.369 984.569 439.923 974.123C419.031 948.007 394.656 968.9 370.282 974.123C325.016 982.828 288.454 968.9 246.67 954.971C244.929 954.971 243.188 956.712 243.188 958.453C250.152 989.792 284.972 1001.98 314.57 1007.2C331.98 1010.68 351.131 1010.68 370.282 1008.94C384.21 1007.2 403.361 996.756 413.808 1005.46C419.031 1010.68 422.513 1024.61 431.218 1031.58C439.923 1038.54 450.369 1045.5 460.815 1047.25C495.635 1054.21 535.679 1031.58 565.276 1059.43C589.65 1082.07 601.837 1116.89 622.729 1141.26C641.881 1162.15 664.514 1162.15 690.629 1156.93C704.557 1155.19 708.039 1151.71 720.226 1162.15C721.967 1163.89 723.708 1169.12 725.449 1170.86C732.413 1177.82 746.341 1184.79 756.787 1186.53C810.759 1193.49 831.651 1116.89 892.587 1153.45C897.81 1151.71 899.551 1148.22 897.81 1146.48Z" fill="#EDD8AB"/>
<path opacity="0.72" d="M1394 784.352C1364.4 754.755 1308.69 763.46 1273.87 777.388C1246.01 789.575 1223.38 810.467 1192.04 819.173C1162.44 826.137 1139.81 812.209 1111.95 806.985C1087.58 803.503 1064.94 808.727 1040.57 815.691C1010.97 822.655 984.857 826.137 953.519 826.137C923.922 826.137 899.547 836.583 871.691 845.288C833.389 855.734 812.497 847.029 779.417 831.36C734.151 808.727 690.625 836.583 645.359 848.77C607.057 859.216 582.683 841.806 547.862 827.878C523.488 817.432 500.855 815.691 474.74 819.173C406.84 826.137 337.199 840.065 269.3 817.432C316.307 840.065 358.092 855.734 412.063 852.252C436.437 850.511 462.552 847.029 488.668 843.547C506.078 840.065 521.747 836.583 539.157 840.065C553.085 843.547 563.531 850.511 575.718 857.475C619.244 880.108 657.546 866.18 701.072 850.511C718.482 843.547 737.633 836.583 755.043 841.806C767.23 845.288 772.453 852.252 782.899 859.216C795.086 867.921 807.274 871.403 822.943 874.885C845.576 878.367 866.468 871.403 887.36 866.18C920.439 855.734 948.296 853.993 983.116 852.252C1037.09 848.77 1073.65 812.209 1129.36 833.101C1164.18 845.288 1190.3 847.029 1225.12 829.619C1249.49 817.432 1270.38 800.021 1296.5 793.057C1313.91 789.575 1333.06 789.575 1348.73 796.54C1383.55 808.727 1367.88 833.101 1350.47 852.252C1345.25 857.475 1350.47 867.921 1357.43 864.439C1397.48 850.511 1425.33 817.432 1394 784.352Z" fill="#EDD8AB"/>
<path opacity="0.72" d="M1317.4 483.156C1313.91 479.674 1312.17 477.933 1308.69 474.451C1306.95 470.969 1303.47 467.487 1299.99 465.746C1299.99 465.746 1298.24 465.746 1298.24 467.487C1298.24 470.969 1303.47 474.451 1305.21 477.933C1310.43 479.674 1313.91 481.415 1317.4 483.156C1319.14 483.156 1317.4 483.156 1317.4 483.156Z" fill="#EDD8AB"/>
<path opacity="0.72" d="M1279.09 455.3C1270.38 450.077 1261.68 448.336 1251.23 450.077V451.818C1261.68 448.336 1270.38 450.077 1279.09 455.3C1279.09 455.3 1279.09 457.041 1279.09 455.3Z" fill="#EDD8AB"/>
<path opacity="0.72" d="M1096.3 437.889C1047.55 394.364 1007.5 415.256 950.051 432.666C903.044 446.594 863.001 429.184 815.993 430.925C781.173 432.666 746.353 441.371 711.532 446.594C668.007 453.558 622.741 444.853 579.215 448.335C535.69 451.817 506.093 446.594 467.79 429.184C436.452 415.256 377.258 397.846 368.552 446.594C366.811 451.817 373.775 458.781 378.999 455.299C406.855 434.407 427.747 429.184 462.567 441.371C481.718 446.594 500.87 457.04 520.021 460.522C547.877 465.745 579.215 458.781 607.071 457.04C643.633 453.558 676.712 460.522 713.273 460.522C746.353 460.522 775.95 448.335 809.029 444.853C842.109 441.371 871.706 451.817 904.785 451.817C932.641 451.817 957.016 441.371 983.131 432.666C1023.17 416.997 1054.51 418.738 1096.3 437.889C1096.3 437.889 1096.3 439.63 1096.3 437.889Z" fill="#EDD8AB"/>
<path opacity="0.72" d="M1162.43 338.653C1115.43 316.019 1080.6 336.911 1035.34 349.098C997.036 359.545 970.921 343.876 937.842 329.947C911.726 319.501 885.611 319.501 857.755 324.724C812.489 335.17 774.186 336.911 727.179 331.688C697.582 328.206 666.243 322.983 636.646 326.465C619.236 328.206 605.308 335.17 589.639 340.393C561.782 349.098 547.854 345.617 519.998 338.653C500.847 333.429 490.401 335.17 474.732 347.358C466.027 356.063 474.732 369.991 485.178 366.509C514.775 359.545 539.149 375.214 567.005 373.473C596.603 371.732 620.977 356.063 650.574 352.581C716.733 345.617 775.927 369.991 842.086 352.581C882.129 342.135 906.503 345.617 944.806 361.286C965.698 369.991 977.885 371.732 1000.52 368.25C1059.71 356.063 1101.5 319.501 1162.43 338.653C1162.43 338.653 1162.43 340.394 1162.43 338.653Z" fill="#EDD8AB"/>
<path opacity="0.72" d="M1301.74 509.272C1256.47 509.272 1230.36 472.71 1186.83 465.746C1139.83 458.782 1101.52 493.602 1051.03 479.674C1014.47 470.969 995.322 472.71 962.242 490.12C939.609 502.307 923.94 491.861 901.307 493.602C887.379 495.343 875.191 504.048 863.004 511.012C833.407 530.164 812.515 533.646 777.695 517.977C758.544 509.272 741.133 497.084 721.982 491.861C688.903 483.156 661.047 488.379 629.708 498.825C584.442 512.754 553.104 491.861 507.837 484.897C466.053 477.933 426.01 483.156 385.966 491.861V493.602C445.161 483.156 495.65 481.415 549.622 507.53C577.478 519.718 596.629 524.941 626.226 517.977C643.636 512.754 662.788 504.048 681.939 505.789C708.054 507.53 728.946 526.682 749.838 540.61C782.918 561.502 815.997 575.43 852.558 558.02C868.227 551.056 882.156 533.646 899.566 528.423C916.976 523.2 934.386 533.646 953.537 528.423C972.688 523.2 983.135 504.048 1004.03 498.825C1024.92 493.602 1045.81 505.79 1066.7 509.272C1113.71 516.236 1155.49 477.933 1200.76 497.084C1237.32 511.012 1259.96 538.869 1301.74 533.646C1315.67 531.905 1317.41 509.272 1301.74 509.272Z" fill="#EDD8AB"/>
<path opacity="0.72" d="M683.659 733.863C666.249 697.302 605.314 685.115 587.904 726.899C584.421 733.863 591.385 744.309 600.091 739.086C610.537 732.122 624.465 723.417 638.393 726.899C650.58 728.64 671.472 740.827 666.249 756.497C659.285 779.13 608.796 773.907 593.126 768.684C572.234 761.72 558.306 746.05 544.378 728.64C528.709 709.489 514.781 688.597 490.407 678.151C474.738 671.187 459.068 672.928 441.658 671.187C410.32 669.446 396.392 657.259 372.018 643.331C330.233 618.956 290.19 669.446 318.046 706.007C338.938 733.863 410.32 759.979 432.953 721.676C436.435 716.453 431.212 712.971 425.989 714.712C394.651 728.64 325.01 728.64 318.046 683.374C312.823 650.295 345.902 645.072 363.313 657.259C368.536 660.741 372.018 667.705 378.982 671.187C392.91 681.633 410.32 686.856 425.989 688.597C450.363 690.338 472.996 685.115 493.889 699.043C509.558 709.489 520.004 726.899 530.45 740.827C547.86 763.46 567.011 780.871 596.609 786.094C633.17 798.281 709.775 786.094 683.659 733.863Z" fill="#EDD8AB"/>
<path opacity="0.72" d="M1153.74 683.373C1148.51 690.337 1155.48 697.301 1162.44 697.301C1179.85 697.301 1212.93 700.783 1188.56 726.898C1179.85 735.603 1146.77 740.827 1136.33 735.603C1132.85 733.862 1127.62 721.675 1124.14 718.193C1110.21 704.265 1087.58 700.783 1070.17 697.301C1045.79 692.078 1004.01 690.337 1031.87 658.999C1035.35 655.517 1037.09 648.553 1033.61 645.07C995.305 594.581 925.664 613.732 882.139 650.294C878.657 653.776 878.657 662.481 883.88 664.222C897.808 671.186 930.887 690.337 915.218 711.229C899.549 733.862 847.319 723.416 829.909 712.97C800.311 695.56 781.16 665.963 751.563 648.553C749.822 646.812 748.081 650.294 749.822 652.035C793.347 700.783 835.131 773.906 913.477 737.344C958.744 716.452 934.369 676.409 904.772 655.517C934.369 634.624 986.6 617.214 1009.23 650.294C995.305 669.445 988.341 690.337 1012.72 706.006C1031.87 718.193 1108.47 719.934 1111.95 746.049C1111.95 751.272 1115.43 756.495 1120.66 758.236C1158.96 768.683 1221.64 766.942 1219.9 712.97C1219.9 672.927 1176.37 652.035 1153.74 683.373Z" fill="#EDD8AB"/>
<path opacity="0.72" d="M1371.37 697.301C1366.15 676.409 1348.74 648.553 1327.85 639.848C1305.21 631.142 1284.32 648.552 1286.06 671.186C1286.06 678.15 1296.51 685.114 1303.47 678.15C1312.18 667.704 1315.66 657.258 1331.33 667.704C1338.29 672.927 1345.26 681.632 1348.74 690.337C1341.77 690.337 1333.07 690.337 1327.85 692.078C1319.14 695.56 1313.92 706.006 1305.21 711.229C1287.8 718.193 1279.1 700.783 1273.87 688.596C1263.43 669.445 1256.46 636.365 1230.35 632.883C1230.35 632.883 1228.61 632.883 1230.35 634.624C1244.28 643.329 1249.5 667.704 1254.72 683.373C1259.95 697.301 1265.17 712.97 1277.36 723.416C1287.8 732.121 1299.99 733.862 1312.18 728.639C1319.14 725.157 1326.1 716.452 1333.07 714.711C1341.77 711.229 1355.7 712.97 1366.15 711.229C1369.63 707.747 1371.37 702.524 1371.37 697.301Z" fill="#EDD8AB"/>
<path opacity="0.72" d="M387.7 1019.39C352.88 1010.68 316.319 1036.8 302.391 1068.14C295.427 1082.07 293.686 1102.96 305.873 1115.14C311.096 1120.37 318.06 1122.11 325.024 1120.37C333.729 1118.63 333.729 1113.4 337.211 1106.44C337.211 1104.7 337.211 1102.96 335.47 1102.96C331.988 1102.96 328.506 1102.96 325.024 1101.22C321.542 1104.7 321.542 1102.96 321.542 1099.48C321.542 1097.73 319.801 1094.25 319.801 1092.51C319.801 1082.07 321.542 1071.62 328.506 1064.66C333.729 1057.69 338.952 1052.47 345.916 1047.25C365.067 1062.91 385.959 1055.95 392.923 1029.84C394.664 1024.61 391.182 1019.39 387.7 1019.39ZM356.362 1042.02C361.585 1040.28 366.808 1038.54 373.772 1036.8C370.29 1043.76 363.326 1043.76 356.362 1042.02Z" fill="#EDD8AB"/>
<path opacity="0.72" d="M340.685 1089.03C340.685 1082.06 330.239 1082.06 328.498 1089.03C328.498 1090.77 328.498 1092.51 328.498 1092.51C328.498 1099.47 340.685 1099.47 340.685 1092.51C340.685 1092.51 340.685 1090.77 340.685 1089.03Z" fill="#EDD8AB"/>
<path opacity="0.72" d="M1150.24 1176.08C1141.54 1172.6 1134.57 1169.12 1125.87 1172.6C1122.39 1174.34 1120.65 1174.34 1117.16 1176.08C1115.42 1176.08 1115.42 1176.08 1113.68 1176.08C1111.94 1176.08 1108.46 1176.08 1111.94 1176.08C1110.2 1176.08 1108.46 1176.08 1106.72 1176.08C1099.75 1177.82 1096.27 1181.3 1092.79 1186.53C1092.79 1186.53 1092.79 1186.53 1091.05 1188.27C1089.31 1190.01 1089.31 1191.75 1089.31 1193.49C1085.83 1205.68 1094.53 1214.38 1104.98 1219.61C1108.46 1221.35 1111.94 1221.35 1115.42 1219.61C1120.65 1219.61 1125.87 1217.86 1131.09 1217.86C1136.31 1217.86 1141.54 1216.12 1146.76 1216.12C1155.47 1214.38 1160.69 1205.68 1162.43 1198.71C1162.43 1190.01 1158.95 1179.56 1150.24 1176.08Z" fill="#EDD8AB"/>
<path opacity="0.72" d="M1092.78 1188.27L1094.52 1184.78C1094.52 1186.53 1092.78 1188.27 1092.78 1188.27Z" fill="#EDD8AB"/>
<path opacity="0.72" d="M937.862 1202.19C923.934 1198.71 889.113 1193.49 878.667 1209.16C868.221 1212.64 869.962 1230.05 880.408 1233.53C896.077 1238.76 922.193 1240.5 937.862 1231.79C951.79 1226.57 955.272 1205.68 937.862 1202.19Z" fill="#EDD8AB"/>
<path opacity="0.72" d="M1124.14 1261.39C1110.21 1261.39 1110.21 1282.28 1124.14 1282.28C1136.33 1280.54 1136.33 1261.39 1124.14 1261.39Z" fill="#EDD8AB"/>
<path opacity="0.72" d="M662.776 1247.46C638.402 1231.79 603.582 1212.64 582.689 1242.24C580.948 1245.72 579.207 1247.46 579.207 1250.94C577.466 1256.17 577.466 1261.39 584.43 1264.87C607.064 1277.06 634.92 1280.54 659.294 1271.83C671.481 1268.35 673.222 1252.68 662.776 1247.46Z" fill="#EDD8AB"/>
<path opacity="0.72" d="M819.461 981.087C796.828 981.087 796.828 1015.91 819.461 1015.91C842.094 1015.91 842.094 981.087 819.461 981.087Z" fill="#EDD8AB"/>
<path opacity="0.72" d="M751.557 1012.42C737.629 1007.2 706.29 1005.46 702.808 1028.09C699.326 1028.09 695.844 1028.09 692.362 1028.09C674.952 1028.09 669.729 1055.95 688.88 1059.43C706.29 1062.91 721.959 1061.17 735.888 1057.69H737.628C741.111 1059.43 746.334 1059.43 751.557 1059.43C760.262 1059.43 763.744 1050.73 762.003 1043.76C770.708 1035.06 762.003 1017.65 751.557 1012.42Z" fill="#EDD8AB"/>
<path opacity="0.72" d="M828.173 977.604C821.209 975.863 812.504 979.345 805.54 981.086C800.317 981.086 795.094 982.827 791.612 986.309C786.389 989.791 784.648 995.014 786.389 1001.98C786.389 1003.72 788.13 1003.72 788.13 1005.46C788.13 1005.46 788.13 1005.46 788.13 1007.2C789.871 1015.91 800.317 1015.91 807.281 1015.91C815.986 1015.91 824.692 1012.42 833.397 1010.68C838.62 1008.94 843.843 1005.46 845.584 998.497C847.325 988.05 838.62 979.345 828.173 977.604Z" fill="#EDD8AB"/>
<path opacity="0.72" d="M1205.97 984.567C1190.3 984.567 1164.19 984.567 1158.97 1001.98C1158.97 1003.72 1157.22 1003.72 1157.22 1005.46C1148.52 1019.39 1165.93 1033.32 1178.12 1026.35C1179.86 1026.35 1181.6 1026.35 1183.34 1026.35C1185.08 1026.35 1186.82 1026.35 1188.56 1026.35C1197.27 1026.35 1204.23 1026.35 1212.94 1024.61C1233.83 1017.65 1228.61 986.308 1205.97 984.567Z" fill="#EDD8AB"/>
<path opacity="0.72" d="M1057.98 1021.13C1057.98 1015.91 1054.5 1012.42 1051.02 1010.68C1047.54 1007.2 1042.32 1003.72 1035.35 1005.46C1028.39 1005.46 1024.9 1007.2 1019.68 1012.42C1014.46 1017.65 1014.46 1029.84 1019.68 1035.06C1024.9 1038.54 1030.13 1042.02 1035.35 1042.02C1040.57 1042.02 1045.8 1040.28 1051.02 1036.8C1054.5 1029.84 1057.98 1026.35 1057.98 1021.13Z" fill="#EDD8AB"/>
<path opacity="0.72" d="M1240.8 897.517C1228.61 895.776 1216.42 894.035 1204.24 890.553C1195.53 885.33 1186.83 880.107 1176.38 888.812C1167.68 899.258 1176.38 911.446 1188.57 909.705C1205.98 906.223 1223.39 906.223 1240.8 899.259C1240.8 899.259 1240.8 897.517 1240.8 897.517Z" fill="#EDD8AB"/>
<path opacity="0.72" d="M1200.75 892.295C1199.01 892.295 1199.01 895.777 1200.75 895.777C1223.39 901 1246.02 895.776 1268.65 894.035C1244.28 890.553 1223.39 887.072 1200.75 892.295Z" fill="#EDD8AB"/>
<path opacity="0.72" d="M963.971 883.59C944.82 871.403 911.741 873.144 901.295 895.777V897.518C899.554 897.518 899.554 897.518 897.813 897.518C894.331 895.777 892.59 901 896.072 902.741C906.518 909.705 915.223 913.187 929.151 913.187C934.374 913.187 939.597 911.446 944.82 911.446C948.302 909.705 953.525 907.964 957.007 907.964C967.453 907.964 976.159 890.554 963.971 883.59Z" fill="#EDD8AB"/>
<path opacity="0.72" d="M735.897 900.999C732.415 900.999 727.192 904.481 725.451 909.704C725.451 911.445 727.192 913.186 728.933 913.186C730.674 913.186 732.415 911.445 734.156 909.704H735.897C735.897 909.704 737.638 911.445 737.638 913.186C739.379 914.927 742.861 914.926 742.861 911.444C742.861 906.221 741.12 900.999 735.897 900.999Z" fill="#EDD8AB"/>
<path opacity="0.72" d="M690.626 907.964C667.992 906.223 645.359 901 622.726 904.482C608.798 906.223 577.46 913.187 579.201 932.338C580.942 946.266 596.611 944.525 607.057 941.043C610.539 941.043 614.021 939.302 617.503 939.302C640.136 961.935 678.438 956.712 701.072 935.82C711.518 923.633 701.072 907.964 690.626 907.964Z" fill="#EDD8AB"/>
<path opacity="0.72" d="M453.856 890.553C448.633 888.812 441.669 888.812 436.446 892.294C434.705 892.294 432.964 894.035 432.964 894.035L431.223 895.776C427.741 894.035 426 897.517 424.259 899.258V900.999C424.259 900.999 424.259 900.999 424.259 902.74C424.259 904.481 422.518 904.481 422.518 906.222C420.777 909.704 422.518 913.186 424.259 914.927C426 918.409 431.223 918.409 434.705 918.409H436.446C443.41 920.15 450.374 916.668 455.597 913.186C460.82 911.445 462.561 904.481 462.561 899.258C462.561 897.517 459.079 892.294 453.856 890.553Z" fill="#EDD8AB"/>
<path opacity="0.72" d="M1338.29 901C1329.59 894.036 1319.14 887.072 1306.95 890.554C1294.77 894.036 1284.32 906.223 1284.32 918.41C1284.32 927.115 1293.03 934.079 1299.99 930.597C1303.47 928.856 1306.95 928.856 1308.69 927.115C1312.18 925.374 1313.92 923.633 1315.66 921.892C1315.66 921.892 1317.4 921.892 1319.14 920.151H1320.88C1334.81 928.856 1350.48 911.446 1338.29 901Z" fill="#EDD8AB"/>
<path opacity="0.72" d="M1179.85 742.567C1155.47 730.38 1138.06 733.862 1110.21 737.344C1068.42 740.826 1051.01 732.121 1023.16 706.006C1004 690.337 979.63 669.444 953.515 667.703C930.882 665.962 915.213 681.632 918.695 706.006C922.177 733.862 946.551 733.862 965.702 740.826C936.105 746.049 908.249 753.013 882.134 768.682C878.652 770.423 876.911 773.905 875.17 777.387C807.27 751.272 770.709 655.516 687.14 676.409C683.658 678.15 680.176 681.632 680.176 685.114C681.917 700.783 687.14 709.488 699.327 718.193C713.255 728.639 732.406 742.567 748.075 747.79C749.816 747.79 753.299 747.79 753.299 744.308C758.522 714.711 716.737 712.97 702.809 693.819C781.155 706.006 810.752 808.726 899.544 803.503C908.249 803.503 913.472 794.798 909.99 787.834C941.328 779.129 972.666 772.165 1004 761.718C1012.71 759.977 1016.19 749.531 1012.71 742.567C1000.52 723.416 986.595 725.157 969.184 716.452C948.292 706.006 955.256 697.301 974.407 706.006C983.112 709.488 991.818 714.711 1000.52 719.934C1024.9 733.862 1044.05 751.272 1071.9 758.236C1106.72 766.941 1146.77 759.977 1179.85 747.79C1181.59 744.308 1181.59 742.567 1179.85 742.567Z" fill="#EDD8AB"/>
<path opacity="0.72" d="M384.209 737.345C342.425 754.755 276.267 742.568 265.821 692.078C265.821 688.596 258.856 688.596 258.856 693.819C260.597 754.755 344.166 772.165 384.209 737.345C385.951 737.345 385.951 739.086 384.209 737.345Z" fill="#EDD8AB"/>
<path opacity="0.72" d="M617.501 770.423C591.386 784.352 542.638 789.574 530.45 754.754C528.709 749.531 523.486 744.308 518.263 746.049C486.925 749.531 427.731 665.962 406.838 716.452C406.838 718.193 408.579 718.193 408.579 718.193C425.99 678.15 459.069 739.085 472.997 751.272C483.443 761.718 495.63 770.423 509.558 772.164C532.192 815.69 593.127 817.431 620.983 773.905C620.983 770.423 619.242 768.682 617.501 770.423Z" fill="#EDD8AB"/>
<path opacity="0.72" d="M452.113 599.804C439.926 615.473 420.775 617.214 403.365 618.955C401.624 618.955 399.882 622.437 401.623 624.178C412.07 629.401 424.257 631.142 436.444 625.919C445.149 620.696 450.372 610.25 452.113 599.804C452.113 598.063 452.113 599.804 452.113 599.804Z" fill="#EDD8AB"/>
<path opacity="0.72" d="M1294.76 608.509C1263.43 610.25 1239.05 611.991 1226.87 575.43C1226.87 573.689 1223.38 571.948 1221.64 571.948C1197.27 571.948 1192.04 570.207 1172.89 584.135C1162.45 591.099 1152 608.509 1136.33 592.84C1129.37 585.876 1131.11 573.689 1122.4 568.466C1078.88 533.645 1061.47 615.473 1042.32 627.66C1017.94 643.329 1002.27 610.25 986.605 599.804C970.936 591.099 955.267 594.581 939.598 601.545C904.777 615.473 883.885 652.034 850.806 608.509C835.137 587.617 824.691 580.653 796.834 580.653C789.87 580.653 782.906 587.617 782.906 594.581C788.129 672.927 695.856 592.84 657.553 594.581C652.33 594.581 648.848 598.063 647.107 603.286C627.956 671.186 551.351 617.214 511.308 598.063C493.898 589.358 476.488 585.876 459.077 582.394C452.113 580.653 445.149 580.653 438.185 577.171C427.739 573.689 408.588 552.796 425.998 542.35C436.444 537.127 464.3 571.948 469.524 580.653C469.524 580.653 471.265 580.653 469.524 580.653C462.559 566.725 436.444 528.422 417.293 533.645C403.365 537.127 403.365 558.02 408.588 568.466C420.775 598.063 464.301 599.804 490.416 610.25C520.013 622.437 546.128 641.588 577.467 652.034C601.841 660.739 633.179 665.962 654.071 646.811C662.776 639.847 666.258 617.214 671.481 611.991C673.222 610.25 699.338 622.437 708.043 625.919C753.309 646.811 812.504 667.704 814.245 605.027C838.619 610.25 859.511 655.516 890.849 652.034C927.411 648.552 920.447 585.876 969.195 599.804C991.828 606.768 1000.53 636.365 1023.17 646.811C1044.06 655.516 1064.95 652.034 1073.66 631.142C1080.62 617.214 1091.07 561.502 1113.7 585.876C1118.92 591.099 1118.92 601.545 1125.89 606.768C1141.56 620.696 1167.67 622.437 1183.34 608.509C1188.56 603.286 1190.3 589.358 1197.27 585.876C1221.64 568.466 1219.9 603.286 1228.61 615.473C1247.76 636.365 1279.1 632.883 1301.73 618.955C1305.21 618.955 1303.47 608.509 1294.76 608.509Z" fill="#EDD8AB"/>
<path opacity="0.72" d="M1040.58 1351.92C1014.47 1353.66 995.316 1350.18 970.941 1341.48C958.754 1337.99 948.308 1332.77 936.121 1334.51C916.97 1337.99 862.998 1378.04 861.257 1337.99C861.257 1332.77 857.775 1329.29 852.552 1329.29C833.401 1331.03 819.473 1337.99 800.322 1341.48C767.242 1348.44 751.573 1331.03 723.717 1327.55C685.415 1322.32 647.112 1351.92 617.515 1313.62C614.033 1310.14 608.81 1310.14 603.587 1311.88C584.436 1322.32 551.357 1317.1 532.205 1308.4C532.205 1308.4 530.464 1308.4 530.464 1310.14C539.169 1317.1 549.616 1324.07 560.062 1329.29C572.249 1334.51 586.177 1329.29 598.364 1332.77C610.551 1336.25 617.515 1348.44 629.702 1351.92C640.148 1357.14 654.077 1357.14 664.523 1355.4C676.71 1355.4 687.156 1350.18 699.343 1348.44C721.976 1344.96 732.422 1350.18 753.314 1357.14C788.135 1367.59 810.768 1350.18 842.106 1346.7C845.588 1376.3 871.703 1378.04 899.56 1367.59C927.416 1357.14 941.344 1355.4 970.941 1364.11C997.057 1372.81 1019.69 1379.78 1044.06 1362.37C1049.29 1362.37 1047.55 1351.92 1040.58 1351.92Z" fill="#EDD8AB"/>
<path opacity="0.72" d="M883.881 251.601C873.435 251.601 862.989 255.083 856.025 260.306C852.543 263.788 852.543 269.011 856.025 272.493C862.989 279.457 873.435 282.939 883.881 281.198C892.586 281.198 899.55 274.234 899.55 265.529C899.55 256.824 892.586 251.601 883.881 251.601Z" fill="#EDD8AB"/>
<path opacity="0.72" d="M701.078 262.046C687.15 262.046 687.15 282.939 701.078 282.939C715.006 282.939 715.006 262.046 701.078 262.046Z" fill="#EDD8AB"/>
<path opacity="0.72" d="M1026.65 300.35C1023.16 288.163 1009.24 284.681 998.79 284.681C993.567 284.681 990.085 282.94 984.862 284.681C977.898 284.681 972.675 288.163 967.452 289.904C957.006 295.127 960.488 312.537 970.934 314.278C976.157 314.278 979.639 316.019 984.862 316.019C988.344 316.019 993.567 316.019 997.049 316.019C1005.75 317.76 1012.72 321.242 1021.42 316.019C1026.65 312.537 1028.39 305.573 1026.65 300.35Z" fill="#EDD8AB"/>
<path opacity="0.72" d="M779.421 371.731C763.752 371.731 763.752 394.364 779.421 394.364C793.349 394.364 793.349 371.731 779.421 371.731Z" fill="#EDD8AB"/>
<path opacity="0.72" d="M499.13 368.25C485.202 371.732 483.461 390.883 495.648 397.847C499.13 399.588 500.871 401.329 504.353 401.329C500.871 399.588 506.094 401.329 507.835 403.07C509.576 403.07 513.058 403.07 514.799 404.811C525.245 406.552 533.95 399.588 535.691 390.883C539.173 369.991 514.799 364.768 499.13 368.25Z" fill="#EDD8AB"/>
<path opacity="0.72" d="M640.139 286.421C636.657 286.421 633.175 284.68 627.952 284.68C617.506 284.68 617.506 300.349 627.952 300.349C631.434 300.349 634.916 300.349 640.139 298.608C647.103 300.349 647.103 288.162 640.139 286.421Z" fill="#EDD8AB"/>
<path opacity="0.72" d="M730.675 352.58C711.524 328.206 671.481 328.206 648.847 347.357C643.624 349.098 638.401 352.58 633.178 357.803C626.214 364.767 626.214 380.437 636.66 385.66C666.257 399.588 692.373 396.106 721.97 385.66C737.639 380.437 741.121 364.767 730.675 352.58Z" fill="#EDD8AB"/>
<path opacity="0.72" d="M1089.32 366.507C1075.39 366.507 1075.39 389.141 1089.32 389.141C1104.99 389.141 1104.99 366.507 1089.32 366.507Z" fill="#EDD8AB"/>
<path opacity="0.72" d="M840.371 262.048C815.996 235.932 768.989 237.673 742.874 262.048C737.651 267.271 734.169 275.976 737.651 282.94C741.133 293.386 748.097 296.868 756.802 298.609C758.543 302.091 762.025 305.573 765.507 307.314C791.622 314.278 812.514 307.314 835.147 296.868C849.076 289.904 847.335 272.494 840.371 262.048Z" fill="#EDD8AB"/>
<path opacity="0.72" d="M850.798 376.954C842.093 376.954 842.093 389.141 850.798 389.141C859.503 389.141 859.503 376.954 850.798 376.954Z" fill="#EDD8AB"/>
<path opacity="0.72" d="M967.45 406.552C965.709 396.106 957.004 385.66 944.816 385.66C936.111 387.401 929.147 389.142 922.183 392.624C916.96 389.142 909.996 389.142 903.032 389.142C878.658 392.624 875.176 420.48 897.809 429.185C901.291 430.926 904.773 432.667 908.255 432.667C909.996 432.667 911.737 434.408 911.737 434.408C916.96 436.149 922.183 436.149 927.406 436.149C936.111 436.149 943.075 432.667 951.781 430.926C960.486 429.185 969.191 418.739 967.45 406.552Z" fill="#EDD8AB"/>
<path opacity="0.72" d="M668 568.466C666.259 566.725 664.518 564.984 662.777 563.243C661.036 561.502 659.295 561.502 657.554 559.761C650.59 551.056 636.662 563.243 645.367 571.948C650.59 577.171 659.295 582.394 666.259 577.171C669.741 575.43 673.223 570.207 668 568.466Z" fill="#EDD8AB"/>
<path opacity="0.72" d="M621 561.502C619.259 568.466 622.741 573.689 629.705 577.171C640.151 580.653 648.857 575.43 659.303 575.43C664.526 575.43 671.49 578.912 676.713 578.912C678.454 578.912 678.454 578.912 680.195 578.912C687.159 580.653 695.864 577.171 695.864 570.207C701.087 528.422 626.223 524.94 621 561.502Z" fill="#EDD8AB"/>
<path opacity="0.72" d="M514.783 554.537C513.042 551.055 509.56 549.314 504.337 547.573C495.632 545.832 488.668 551.055 488.668 559.76C488.668 568.465 497.373 573.688 504.337 571.947C509.56 570.206 511.301 568.465 514.783 564.983C518.265 563.242 518.265 558.019 514.783 554.537Z" fill="#EDD8AB"/>
<path opacity="0.72" d="M1174.62 504.048C1162.44 495.343 1146.77 495.343 1134.58 498.825C1127.62 500.566 1115.43 505.789 1110.21 514.494C1108.47 512.753 1106.72 512.753 1104.98 511.012C1096.28 509.271 1087.57 516.235 1091.06 524.94C1096.28 538.868 1111.95 545.832 1127.62 545.832C1134.58 545.832 1143.29 544.091 1150.25 542.35C1157.21 540.609 1164.18 533.645 1171.14 531.904C1185.07 528.422 1185.07 511.012 1174.62 504.048Z" fill="#EDD8AB"/>
<path opacity="0.72" d="M338.954 516.236L337.213 514.495C331.99 509.272 325.026 507.531 318.062 511.013C311.098 514.495 307.616 519.718 307.616 526.682C307.616 542.351 326.767 551.056 337.213 538.869L338.954 537.128C344.177 531.905 344.177 521.459 338.954 516.236Z" fill="#EDD8AB"/>
<path opacity="0.72" d="M1279.1 517.977C1273.88 509.271 1261.69 505.789 1251.24 504.048C1242.54 502.307 1233.83 504.048 1225.13 505.789C1214.68 509.271 1207.72 517.977 1205.98 526.682C1204.24 533.646 1209.46 542.351 1216.42 544.092H1218.17C1218.17 554.538 1228.61 563.243 1239.06 563.243C1247.76 563.243 1256.47 561.502 1266.91 559.761C1273.88 558.02 1279.1 551.056 1280.84 545.833C1286.06 537.128 1284.32 526.682 1279.1 517.977Z" fill="#EDD8AB"/>
<path opacity="0.72" d="M1005.75 1090.77C962.227 1115.14 920.443 1118.63 883.881 1082.06C878.658 1076.84 869.953 1076.84 862.989 1082.06C817.723 1127.33 765.492 1095.99 711.521 1094.25C708.039 1094.25 706.298 1097.73 708.039 1101.22C742.859 1153.45 826.428 1144.74 871.694 1111.66C889.104 1127.33 911.738 1137.78 936.112 1136.04C967.45 1134.3 984.86 1115.14 1007.49 1095.99C1010.98 1092.51 1007.49 1090.77 1005.75 1090.77Z" fill="#EDD8AB"/>
<path opacity="0.72" d="M1355.71 1075.1C1338.3 1076.84 1322.63 1087.29 1305.22 1089.03C1279.1 1092.51 1256.47 1085.55 1232.09 1075.1C1228.61 1073.36 1225.13 1073.36 1221.65 1076.84C1199.02 1097.73 1158.97 1134.29 1131.12 1094.25C1127.63 1089.03 1120.67 1085.55 1113.71 1089.03C1089.33 1104.7 1028.4 1129.07 1016.21 1089.03C993.576 1153.45 1078.89 1136.04 1117.19 1116.88C1150.27 1149.96 1192.05 1120.37 1225.13 1094.25C1258.21 1125.59 1362.67 1143 1360.93 1083.81C1364.41 1078.58 1360.93 1075.1 1355.71 1075.1Z" fill="#EDD8AB"/>
<path opacity="0.72" d="M1312.17 563.242C1293.02 556.278 1272.13 554.537 1252.98 564.983C1239.05 571.948 1230.35 591.099 1212.94 587.617C1200.75 585.876 1185.08 561.501 1174.63 554.537C1162.45 545.832 1152 537.127 1138.07 533.645C1118.92 530.163 1099.77 537.127 1084.1 547.573C1061.47 561.501 1054.5 578.912 1024.91 573.689C1007.5 571.948 991.828 559.76 974.418 559.76C953.525 559.76 936.115 573.689 915.223 577.171C866.475 589.358 840.359 535.386 791.611 552.796C775.942 558.019 765.496 568.466 751.568 578.912C725.453 599.804 713.265 584.135 685.409 578.912C661.035 573.689 638.402 573.689 622.733 587.617C617.51 580.653 614.028 571.947 612.287 563.242C608.805 552.796 594.876 545.832 586.171 552.796C561.797 568.466 502.603 592.84 481.71 559.76C471.264 542.35 473.005 523.199 453.854 511.012C415.552 486.638 384.214 516.235 372.026 551.055C365.062 549.314 358.098 547.573 351.134 545.832C330.242 538.868 323.278 570.207 342.429 578.912C354.616 584.135 368.544 585.876 380.732 591.099C392.919 594.581 401.624 584.135 403.365 573.689C403.365 554.537 415.552 545.832 439.926 547.573C441.667 552.796 445.149 558.019 445.149 563.242C446.89 568.465 448.631 575.429 452.113 580.653C459.077 594.581 471.264 603.286 485.192 606.768C516.531 617.214 554.833 608.509 586.171 594.581C591.394 606.768 600.099 618.955 612.287 629.401C620.992 636.365 634.92 636.365 640.143 625.919C657.553 591.099 704.56 632.883 732.417 627.66C767.237 622.437 784.647 580.652 819.467 584.135C852.547 587.617 869.957 617.214 908.259 610.25C929.151 606.768 946.561 591.099 967.454 587.617C986.605 584.135 1005.76 592.84 1024.91 598.063C1049.28 605.027 1066.69 603.286 1087.58 587.617C1115.44 568.466 1134.59 561.501 1162.45 584.135C1172.89 592.84 1179.86 601.545 1188.56 611.991C1204.23 629.401 1226.86 631.142 1249.5 625.919C1261.69 622.437 1273.87 610.25 1286.06 610.25C1315.66 608.509 1329.58 646.811 1345.25 664.221C1353.96 674.667 1371.37 669.444 1376.59 655.516C1385.3 615.473 1346.99 575.429 1312.17 563.242Z" fill="#913E12"/>
<path opacity="0.72" d="M899.56 1097.73C887.373 1057.69 842.107 1059.43 807.286 1064.66C782.912 1068.14 758.538 1075.1 732.423 1075.1C709.79 1075.1 694.121 1068.14 673.228 1061.17C671.487 1061.17 668.005 1061.17 668.005 1062.91C643.631 1104.7 711.531 1116.89 737.646 1116.89C763.761 1116.89 788.135 1111.66 812.51 1108.18C840.366 1104.7 868.222 1113.4 894.337 1102.96C899.56 1102.96 901.301 1101.22 899.56 1097.73Z" fill="#913E12"/>
<path opacity="0.72" d="M478.231 1055.95C450.375 1057.69 366.806 1080.32 384.216 1123.85C385.957 1127.33 389.439 1129.07 392.921 1129.07C410.332 1127.33 422.519 1106.44 438.188 1097.73C460.821 1087.29 485.195 1085.55 509.57 1085.55C520.016 1085.55 539.167 1082.07 544.39 1094.25C551.354 1111.66 528.721 1127.33 516.534 1130.81C504.347 1136.04 490.418 1137.78 476.49 1134.3C471.267 1132.55 466.044 1130.81 460.821 1129.07H459.08H460.821C471.267 1123.85 466.044 1104.7 453.857 1106.44C439.929 1106.44 422.519 1113.4 424.26 1130.81C426.001 1146.48 443.411 1156.93 457.339 1160.41C493.9 1174.34 553.095 1158.67 563.541 1115.14C573.987 1069.88 513.052 1054.21 478.231 1055.95Z" fill="#913E12"/>
<path opacity="0.72" d="M958.747 1188.27C948.301 1165.63 899.553 1163.89 892.588 1190.01C890.847 1193.49 892.588 1198.71 896.07 1200.45C906.517 1205.68 915.222 1202.19 927.409 1202.19C930.891 1202.19 936.114 1202.19 937.855 1202.19C941.337 1202.19 946.56 1202.19 950.042 1203.94C948.301 1202.19 950.042 1205.68 950.042 1207.42C950.042 1210.9 950.042 1212.64 948.301 1214.38C944.819 1223.09 934.373 1226.57 925.668 1230.05C904.776 1237.01 885.624 1233.53 868.214 1223.09C862.991 1219.6 856.027 1212.64 856.027 1205.68C856.027 1195.23 873.437 1191.75 880.401 1188.27C866.473 1188.27 845.581 1193.49 849.063 1212.64C852.545 1230.05 873.437 1242.24 889.106 1245.72C909.999 1250.94 936.114 1243.98 953.524 1230.05C965.711 1216.12 963.97 1203.94 958.747 1188.27Z" fill="#913E12"/>
<path opacity="0.72" d="M1199 1188.27C1195.52 1179.56 1181.59 1183.04 1179.85 1190.01C1178.11 1200.45 1181.59 1207.42 1179.85 1217.86C1179.85 1223.09 1176.37 1228.31 1171.15 1230.05C1164.18 1231.79 1157.22 1231.79 1152 1231.79C1146.77 1231.79 1139.81 1230.05 1132.84 1228.31C1118.92 1224.83 1104.99 1221.35 1094.54 1214.38C1089.32 1210.9 1085.84 1207.42 1084.1 1202.19C1082.36 1198.71 1080.61 1196.97 1082.36 1193.49C1082.36 1195.23 1084.1 1190.01 1084.1 1190.01C1087.58 1188.27 1089.32 1186.53 1092.8 1186.53C1104.99 1183.04 1118.92 1181.3 1131.1 1177.82C1143.29 1174.34 1141.55 1155.19 1127.62 1155.19C1104.99 1153.45 1075.39 1163.89 1063.2 1183.04C1054.5 1196.97 1061.46 1212.64 1071.91 1224.83C1078.87 1231.79 1085.84 1235.27 1092.8 1240.5C1101.51 1245.72 1108.47 1250.94 1118.92 1254.43C1134.59 1259.65 1160.7 1259.65 1174.63 1247.46C1190.3 1231.79 1209.45 1209.16 1199 1188.27Z" fill="#913E12"/>
<path opacity="0.72" d="M789.871 1386.74C779.425 1390.22 768.979 1391.97 756.792 1388.48C753.31 1388.48 732.418 1379.78 739.382 1378.04C749.828 1374.56 744.605 1360.63 735.9 1362.37C721.972 1367.59 688.893 1374.56 676.705 1362.37C666.259 1353.66 650.59 1369.33 661.036 1378.04C676.705 1390.22 701.08 1388.48 721.972 1383.26C723.713 1386.74 725.454 1391.97 730.677 1395.45C748.087 1409.38 777.684 1409.38 791.612 1388.48C791.612 1386.74 791.612 1386.74 789.871 1386.74Z" fill="#913E12"/>
<path opacity="0.72" d="M946.558 1379.78C934.371 1379.78 929.148 1386.74 916.961 1390.23C899.551 1395.45 882.141 1390.23 868.212 1379.78C864.73 1378.04 857.766 1378.04 856.025 1381.52C836.874 1404.15 810.759 1398.93 793.349 1379.78C791.608 1378.04 789.867 1379.78 789.867 1381.52C793.349 1416.34 836.874 1416.34 862.989 1402.41C889.105 1419.82 955.263 1428.53 953.522 1386.74C953.522 1383.26 950.04 1381.52 946.558 1379.78Z" fill="#913E12"/>
<path opacity="0.72" d="M1171.15 354.322C1164.18 347.358 1155.48 342.135 1145.03 340.394C1125.88 336.912 1098.02 342.135 1085.84 357.804C1084.1 361.286 1085.84 366.509 1089.32 364.768C1104.99 363.027 1118.92 356.063 1134.58 356.063C1151.99 356.063 1162.44 366.509 1167.66 383.919C1169.41 389.142 1176.37 389.142 1178.11 383.919C1181.59 373.473 1179.85 364.768 1171.15 354.322Z" fill="#913E12"/>
<path opacity="0.72" d="M1078.87 354.32C1059.72 352.579 1049.28 356.061 1031.87 361.284C1005.75 368.248 990.082 361.284 965.708 350.838C937.852 340.392 918.7 345.615 897.808 361.284C876.916 335.169 835.132 329.946 810.757 354.32C782.901 333.428 725.448 343.874 728.93 382.177C728.93 385.659 732.412 387.4 735.894 387.4C755.045 382.177 784.642 345.615 803.793 375.212C807.275 382.176 817.722 382.176 821.204 375.212C835.132 347.356 876.916 354.32 887.362 380.435C889.103 385.658 896.067 385.658 899.549 383.917C943.075 354.32 962.226 378.694 1005.75 380.435C1033.61 380.435 1052.76 361.284 1078.87 354.32C1078.87 354.32 1078.87 356.061 1078.87 354.32Z" fill="#913E12"/>
<path opacity="0.72" d="M728.932 416.997C708.04 418.738 683.666 425.702 674.961 394.364C673.219 390.882 669.737 387.4 666.255 389.141C650.586 394.364 629.694 404.81 617.507 376.954C615.766 373.472 614.025 371.731 610.543 371.731C600.097 371.731 589.651 369.99 579.205 371.731C579.205 371.731 577.464 371.731 577.464 373.472C568.759 403.069 528.715 418.738 500.859 413.515C474.744 408.292 462.557 389.141 450.37 369.99C446.887 363.026 436.441 368.249 438.182 375.213C445.147 425.702 520.01 451.818 556.571 415.256C568.759 403.069 575.723 363.026 601.838 387.4C605.32 390.882 605.32 404.81 612.284 410.033C627.953 422.22 647.104 418.738 662.773 410.033C673.219 436.148 706.299 448.336 730.673 425.702C735.896 422.22 732.414 416.997 728.932 416.997Z" fill="#913E12"/>
<g opacity="0.72">
<path d="M239.714 951.489C286.721 1169.12 455.6 1351.92 688.896 1407.64C1010.98 1482.5 1333.07 1284.02 1409.68 961.936C1449.72 793.057 1413.16 625.92 1324.37 491.861C1326.11 570.207 1305.22 646.812 1280.84 721.675C1190.31 1010.68 833.4 1205.68 540.909 1130.81C436.449 1106.44 323.283 1040.28 239.714 951.489Z" fill="#9F9CAD"/>
</g>
<g opacity="0.46">
<path d="M1207.72 364.768C1171.16 418.739 1139.82 476.192 1113.7 514.495C922.191 801.762 551.355 805.244 239.713 695.56C187.483 930.597 279.756 1163.89 459.081 1301.43C608.808 1376.3 777.687 1385 941.342 1343.22C1136.34 1292.73 1266.91 1165.63 1385.3 1003.72C1390.52 995.015 1397.49 988.051 1402.71 979.346C1404.45 974.123 1406.19 968.9 1406.19 963.677C1461.91 733.863 1376.6 504.049 1207.72 364.768Z" fill="#9F9CAD"/>
</g>
<g opacity="0.3">
<path d="M784.651 272.494C681.931 298.609 573.988 317.76 485.197 383.919C401.628 444.854 267.57 577.171 262.347 685.114C248.419 1007.2 638.406 972.382 849.069 871.403C1082.36 758.237 1308.7 331.688 889.112 300.35L784.651 272.494Z" fill="#FAECCF"/>
</g>
<g opacity="0.44">
<path d="M751.573 410.033C704.565 349.098 587.917 385.659 535.687 422.221C506.09 443.113 490.42 464.005 471.269 491.861C443.413 535.387 429.485 530.163 392.924 563.243C305.873 641.588 396.406 728.639 469.528 765.2C573.989 819.172 706.306 800.021 805.544 742.567C883.89 697.301 1035.36 528.422 857.775 498.825C923.933 484.897 859.516 418.738 751.573 410.033Z" fill="#FAECCF"/>
</g>
<path opacity="0.21" d="M1409.67 697.301C1406.19 688.596 1392.26 688.596 1392.26 699.042C1394 759.978 1395.74 824.395 1383.55 885.331C1373.11 939.302 1353.96 993.274 1333.07 1045.5C1296.5 1134.3 1247.76 1210.9 1169.41 1268.35C1087.58 1329.29 983.121 1358.89 882.142 1369.33C822.948 1374.56 763.753 1374.56 706.3 1365.85C659.292 1358.89 612.285 1332.77 563.536 1331.03C561.795 1331.03 560.054 1332.77 561.795 1334.51C589.652 1374.56 652.328 1388.48 697.595 1398.93C758.53 1411.12 821.207 1414.6 883.883 1409.38C993.567 1400.67 1106.73 1367.59 1195.52 1301.43C1273.87 1243.98 1324.36 1153.45 1362.66 1064.66C1409.67 944.525 1446.23 822.654 1409.67 697.301Z" fill="#05AFEA"/>
</svg>
