<svg width="1198" height="1186" viewBox="0 0 1198 1186" fill="none" xmlns="http://www.w3.org/2000/svg">
<path d="M1196.93 564.237C1214.34 853.246 857.429 1185.78 568.42 1185.78C277.671 1185.78 -13.0788 893.289 2.5903 578.165C18.2594 252.595 317.714 1.88916 608.463 1.88916C897.472 1.88916 1176.03 202.106 1196.93 564.237Z" fill="#F17241"/>
<path d="M1008.89 421.474C1054.16 417.992 1061.12 364.02 1040.23 327.459C1146.43 336.164 1035.01 50.6374 895.728 195.142C857.426 235.185 866.131 323.977 812.16 344.869C740.778 372.725 716.404 271.746 763.411 280.451C744.26 242.149 820.865 188.178 803.455 134.206C813.901 134.206 824.347 132.465 833.052 130.724C853.944 75.0116 780.821 52.3784 739.037 68.0476C742.519 28.0042 719.885 5.37102 679.842 15.8171C683.324 12.3351 685.065 8.85305 686.806 5.37101C660.691 1.88898 634.576 0.147949 606.72 0.147949C507.482 0.147949 406.503 29.7452 315.97 81.9757C343.827 88.9397 369.942 97.6448 380.388 118.537C420.431 195.142 298.56 182.955 256.775 196.883C133.163 236.926 80.9331 485.891 249.812 440.625C251.553 447.589 251.553 468.481 249.812 475.445C253.294 477.186 268.963 475.445 270.704 477.186C279.409 543.345 208.027 536.381 164.502 559.014C101.825 592.093 84.4152 623.431 77.4512 694.813C65.2641 835.835 270.704 997.75 371.683 849.763C385.611 900.253 434.359 907.217 467.438 872.397C502.259 926.368 564.935 912.44 606.72 928.109C678.101 954.224 698.994 987.304 786.044 969.893C902.692 945.519 989.743 811.461 895.728 708.741C806.936 611.244 697.252 687.849 599.756 720.928C551.007 738.338 467.438 766.195 415.208 747.043C390.834 738.338 326.416 687.849 357.755 656.511C369.942 644.324 425.654 684.367 453.51 663.475C505.741 625.172 462.215 548.568 415.208 529.417C463.956 527.676 446.546 463.258 425.654 430.179C429.136 431.92 437.841 437.143 437.841 435.402C453.511 417.992 507.482 181.214 584.087 320.495C601.497 353.574 524.892 491.114 615.425 454.553C603.238 513.747 671.137 609.503 709.439 524.194C737.296 600.798 829.569 579.906 819.123 499.819C850.461 524.194 895.728 529.417 918.361 491.114C911.397 548.568 960.145 531.158 975.814 559.014C989.743 585.129 989.743 612.985 988.002 644.324C984.52 708.741 949.699 783.605 1040.23 804.497C1196.92 841.058 1139.47 468.481 1008.89 421.474Z" fill="#FF4F24"/>
<path d="M19.9912 738.338C25.2143 759.23 32.178 780.122 40.8831 799.273C33.919 778.381 26.9553 757.489 19.9912 738.338Z" fill="#FF4F24"/>
<path d="M726.848 1023.86C655.466 1015.16 646.761 1055.2 573.639 1013.42C540.559 994.267 545.782 975.116 502.257 968.152C472.66 962.929 448.285 985.562 432.616 983.821C396.055 978.598 389.091 949 354.271 942.036C321.191 935.072 312.486 954.224 282.889 957.706C234.141 962.929 174.946 968.152 127.939 947.259C176.687 1009.94 235.882 1063.91 302.04 1105.69C312.486 1091.76 322.933 1081.32 338.602 1077.84C375.163 1069.13 559.71 1103.95 589.308 1123.1C596.272 1128.33 610.2 1159.66 622.387 1184.04C681.581 1177.07 742.517 1156.18 801.711 1128.33C806.934 1079.58 780.819 1030.83 726.848 1023.86Z" fill="#FF4F24"/>
<path opacity="0.59" d="M848.709 212.552C867.86 193.401 880.048 146.393 843.486 141.17C803.443 135.947 815.631 184.696 806.925 207.329C799.961 226.48 749.472 256.077 791.256 283.934C827.817 308.308 862.637 235.185 857.414 205.588L848.709 212.552Z" fill="#7D0204"/>
<path opacity="0.59" d="M570.16 616.468C604.98 565.978 577.124 529.417 549.268 489.374C538.822 475.446 514.447 491.115 504.001 468.482C495.296 449.33 524.894 423.215 516.188 405.805C490.073 358.798 462.217 374.467 462.217 431.92C462.217 461.517 497.037 508.525 514.447 529.417C488.332 548.568 484.85 562.496 512.706 583.388C394.317 712.224 693.772 712.224 570.16 606.022V616.468V616.468Z" fill="#7D0204"/>
<path opacity="0.59" d="M819.116 835.836C817.375 747.044 671.13 710.483 678.095 820.167C651.979 788.828 561.446 734.857 554.482 811.461C510.957 811.461 422.165 813.202 382.122 802.756C296.812 781.864 328.151 713.965 279.402 659.993C234.136 609.504 122.711 595.576 119.229 696.554C117.488 759.231 211.502 821.908 267.215 801.015C265.474 867.174 418.683 821.908 470.914 828.872C516.18 835.836 591.044 901.994 627.605 870.656C645.015 900.253 672.871 908.958 697.245 886.325C707.691 928.109 779.074 947.261 815.635 924.627C857.42 895.03 848.714 818.426 819.116 835.836Z" fill="#7D0204"/>
<path opacity="0.59" d="M639.8 111.573C667.657 45.4147 491.815 5.37133 498.779 134.206C450.03 113.314 387.354 156.84 411.728 212.552C326.418 175.991 136.647 290.898 244.59 383.172C354.274 477.186 469.181 275.229 493.555 191.66C512.706 198.624 528.376 196.883 545.786 202.106C561.455 235.185 589.311 231.703 608.462 257.819C625.873 282.193 591.052 330.941 646.765 332.682C732.075 330.941 716.405 155.099 639.8 111.573Z" fill="#7D0204"/>
<path opacity="0.59" d="M928.798 376.209C961.878 350.093 1029.78 287.417 994.957 240.409C956.655 188.179 893.978 235.186 904.424 289.158C850.452 296.122 840.007 350.093 841.748 397.101C812.15 386.655 780.812 388.396 754.697 407.547C709.431 364.021 582.336 355.316 636.308 451.072C676.351 522.454 805.186 498.08 840.006 440.626C862.639 482.41 932.28 492.857 927.057 433.662C944.467 531.159 1045.45 393.619 920.093 384.914L928.798 376.209Z" fill="#7D0204"/>
<path opacity="0.59" d="M843.493 1022.12C892.241 1048.24 951.436 1009.94 987.997 971.634C1014.11 942.036 1068.08 813.201 984.515 848.022C998.443 835.835 989.739 832.353 998.444 821.906C920.098 799.273 909.651 896.77 935.767 943.778C902.687 938.554 869.609 947.26 867.868 982.08C853.94 978.598 834.788 982.08 820.86 978.598C813.896 1001.23 827.824 999.49 843.493 1008.2V1022.12V1022.12Z" fill="#7D0204"/>
<path opacity="0.59" d="M63.5166 524.194C65.2576 531.158 63.5162 538.122 65.2572 546.828C127.934 560.756 154.049 465 87.8907 452.813C115.747 428.438 140.121 367.503 87.8907 358.798C114.006 337.906 129.675 303.085 127.934 268.265C174.941 264.783 239.359 219.517 227.172 167.286C169.718 162.063 100.078 289.157 79.1856 334.424C61.7755 369.244 -25.2752 560.756 63.5166 524.194Z" fill="#7D0204"/>
<path opacity="0.59" d="M935.758 703.519C974.06 755.75 1003.66 564.238 920.089 576.425C914.866 529.418 859.154 529.418 850.448 576.425C782.549 552.051 745.987 630.396 812.146 656.512C840.002 666.958 864.376 640.843 892.232 654.771C916.606 666.958 904.42 703.519 928.794 719.188L935.758 703.519Z" fill="#7D0204"/>
<path opacity="0.59" d="M1155.13 461.516C1163.83 435.401 1165.57 353.573 1116.82 358.796C1043.7 367.501 1109.86 449.329 1115.08 468.48C1122.05 499.818 1108.12 562.495 1149.9 576.423C1212.58 595.574 1149.9 498.077 1132.49 484.149L1155.13 461.516Z" fill="#7D0204"/>
<path opacity="0.59" d="M563.186 1046.5C556.222 994.268 486.581 964.67 469.171 1029.09C420.423 1023.86 349.041 975.117 308.998 1004.71C279.4 933.332 181.904 1006.45 234.134 1056.94C253.285 1076.1 356.006 1063.91 385.603 1069.13C441.315 1077.84 472.653 1070.87 526.625 1070.87C578.855 1070.87 617.157 1121.36 657.201 1102.21C658.942 1114.4 665.906 1126.58 667.647 1138.77C721.618 1152.7 744.252 1100.47 712.913 1062.17C678.093 1020.38 622.381 1046.5 563.186 1046.5Z" fill="#7D0204"/>
<path opacity="0.59" d="M1061.13 632.137C1094.2 579.907 1061.13 473.705 991.485 520.712C989.744 512.007 984.521 503.302 982.78 492.856C878.319 477.187 989.744 560.756 1000.19 576.425C1019.34 609.504 1026.31 644.324 1022.82 682.627C1019.34 710.483 1003.67 757.49 1031.53 773.159C1113.36 823.649 1076.79 666.958 1054.16 639.101L1061.13 632.137Z" fill="#7D0204"/>
<path opacity="0.6" d="M352.512 304.826C458.714 224.739 218.454 163.803 274.166 282.192C230.641 297.862 171.446 339.646 251.533 360.538C308.987 376.207 324.656 317.013 361.217 289.157L352.512 304.826Z" fill="#750400"/>
<path opacity="0.66" d="M251.549 726.152C270.701 606.022 120.973 626.914 171.463 687.85C37.4044 682.627 302.039 903.736 251.549 719.188V726.152Z" fill="#750400"/>
<path opacity="0.6" d="M772.121 874.138C794.754 849.764 786.048 783.605 740.781 787.087C678.105 790.569 719.89 868.915 763.416 874.138H772.121Z" fill="#750400"/>
<path opacity="0.6" d="M718.137 414.51C603.23 304.826 695.505 579.907 733.807 452.813L718.137 414.51Z" fill="#750400"/>
<path opacity="0.6" d="M624.122 165.544C606.712 132.465 544.035 28.0039 538.812 130.724C537.071 170.767 603.229 257.818 632.827 189.918L624.122 165.544Z" fill="#750400"/>
<path opacity="0.6" d="M695.506 1100.47C695.506 1020.38 645.016 1069.13 617.16 1062.17C578.858 1051.72 551.001 1022.12 509.217 1023.87C537.073 1069.13 578.858 1053.46 617.16 1079.58C646.757 1098.73 655.463 1144 693.765 1147.48C700.729 1131.81 705.952 1110.92 702.47 1093.51L695.506 1100.47Z" fill="#750400"/>
<path opacity="0.6" d="M1123.79 585.129C1111.6 597.316 1087.23 621.69 1069.82 644.323C1080.27 579.905 1085.49 477.186 1015.85 518.97C958.396 553.79 1010.63 686.107 1055.89 710.482C1068.08 700.035 1069.82 687.848 1071.56 670.438C1090.71 644.323 1153.39 604.28 1123.79 585.129Z" fill="#750400"/>
<path opacity="0.21" d="M1151.65 449.33C1127.28 391.876 1048.93 275.228 1029.78 219.516C1021.07 193.401 1015.85 172.508 1008.89 151.616C899.203 52.3784 756.439 0.147949 608.453 0.147949C577.115 0.147949 544.036 3.62998 512.697 8.85303C559.705 64.5655 653.72 115.055 685.058 141.17C747.735 193.401 782.555 264.782 747.734 344.869C733.806 377.948 707.691 388.394 702.468 424.956C697.245 458.035 723.36 494.596 718.137 532.899C707.691 619.949 599.748 767.936 500.51 766.195C448.28 764.454 437.834 719.187 403.014 698.295C382.121 686.108 343.819 682.626 326.408 670.439C284.624 639.101 293.329 602.539 232.394 593.834C162.753 583.388 176.681 623.431 131.415 653.029C79.1846 687.849 33.9182 680.885 0.838867 651.288C19.99 827.13 129.674 990.786 272.437 1088.28C378.639 1123.1 463.949 1159.66 561.446 1149.22C880.051 1116.14 1296.15 773.159 1151.65 449.33Z" fill="#000072"/>
<path opacity="0.27" d="M918.356 85.457C827.823 127.241 887.018 243.889 916.615 303.084C953.177 379.689 982.773 477.185 958.399 562.495C939.248 630.395 876.572 633.877 841.752 686.107C819.119 720.928 834.788 750.525 826.082 788.827C810.413 867.173 747.737 950.742 660.686 940.296C638.053 938.555 601.491 915.921 578.858 912.439C566.671 910.698 547.52 926.367 524.887 921.144C497.031 915.921 474.397 879.36 451.764 867.173C369.936 825.388 258.512 835.835 235.878 942.037C197.576 1119.62 387.347 1077.84 481.362 1102.21C552.743 1119.62 559.707 1177.07 651.981 1140.51C697.247 1123.1 766.888 1079.58 763.406 1025.61C820.86 1074.35 934.026 1030.83 977.551 987.303C1054.16 910.698 1062.86 820.165 1050.67 720.928C1176.03 720.928 1123.8 592.092 1090.72 524.193C1188.21 513.747 1099.42 317.012 1071.57 275.228L1120.31 308.307C1076.79 210.81 1003.67 137.687 918.356 85.457Z" fill="#000072"/>
<path opacity="0.37" d="M601.487 80.2344C537.07 1.88876 343.817 43.6731 343.817 156.839C253.284 153.357 214.982 186.436 169.715 263.041C147.082 301.343 152.305 308.307 119.226 344.869C84.4057 384.912 47.8444 421.473 32.1753 477.186C9.54207 560.755 37.3984 665.216 138.377 672.18C178.421 675.662 188.867 633.877 230.651 663.475C249.802 677.403 253.284 727.892 282.881 748.784C403.011 830.612 545.775 776.641 557.962 633.877C627.603 672.18 690.28 647.805 719.877 571.201C730.323 543.344 739.027 485.891 732.063 458.035C725.099 430.179 688.538 409.286 688.538 384.912C686.797 350.092 906.165 214.293 780.812 205.588C796.482 198.623 817.373 153.357 792.999 127.242C871.344 50.6372 658.941 71.5294 601.487 80.2344Z" fill="#FBB901"/>
<path opacity="0.4" d="M500.515 290.898C557.969 217.775 429.134 120.278 397.796 188.178C368.198 172.509 331.637 179.473 319.45 212.552C134.902 99.3859 19.9953 644.324 282.889 477.186C328.155 531.158 260.256 597.316 357.753 619.949C474.401 646.065 519.667 505.042 517.926 417.992C646.761 475.445 653.725 179.473 500.515 290.898Z" fill="#FFE4A1"/>
<path opacity="0.58" d="M336.851 216.033C335.11 216.033 333.369 219.515 336.851 219.515C354.261 222.997 368.189 236.925 371.671 254.336C373.412 261.3 373.412 270.005 371.671 276.969C371.671 280.451 356.002 304.825 354.261 297.861C352.52 294.379 349.038 292.638 345.556 296.12C333.369 306.566 328.146 320.494 321.182 332.681C303.771 364.02 279.397 369.243 246.318 360.537C244.577 360.537 244.577 362.278 244.577 362.278C261.987 376.207 284.62 376.207 303.771 365.761C326.405 353.573 329.887 327.458 347.297 308.307C349.038 310.048 350.779 311.789 354.261 310.048C403.009 294.379 389.081 212.551 336.851 216.033Z" fill="#FFE4A1"/>
<path opacity="0.58" d="M261.986 740.08C258.504 722.67 258.504 710.483 261.986 691.332C268.95 651.289 209.756 611.245 174.935 632.137C173.194 633.878 173.194 635.619 174.935 635.619C188.863 639.101 202.791 637.36 216.72 640.842C227.166 644.325 237.612 651.289 244.576 658.253C258.504 675.663 251.54 686.109 249.799 705.26C244.576 736.598 286.36 774.901 237.612 794.052C253.281 794.052 261.986 781.865 263.727 766.196C267.209 757.491 263.727 750.527 261.986 740.08Z" fill="#FFE4A1"/>
<path opacity="0.58" d="M578.853 92.4219C577.112 92.4219 577.112 92.4219 578.853 92.4219C598.004 111.573 615.414 128.983 624.119 153.357C627.601 163.804 631.083 175.991 631.083 186.437C629.342 210.811 610.191 207.329 592.781 203.847C591.04 203.847 589.299 205.588 591.04 207.329C615.414 228.221 641.529 210.811 641.529 181.214C638.047 148.134 611.932 104.609 578.853 92.4219Z" fill="#FFE4A1"/>
<path opacity="0.58" d="M726.841 435.401C718.136 412.768 698.985 390.135 672.87 386.653C671.129 386.653 671.129 388.394 672.87 388.394C692.021 393.617 707.691 411.027 716.396 428.437C719.878 437.142 723.359 447.588 721.618 458.034C718.136 471.963 707.69 473.704 697.244 478.927C695.503 480.668 697.244 482.409 697.244 482.409C726.841 487.632 735.546 456.293 726.841 435.401Z" fill="#FFE4A1"/>
<path opacity="0.58" d="M277.656 475.445C246.318 473.704 253.282 452.811 246.318 431.919C246.318 430.178 244.577 430.178 242.836 430.178C195.829 440.624 150.562 423.214 159.268 365.761C162.75 344.869 166.231 323.976 173.195 304.825C188.865 256.077 214.98 210.81 268.951 200.364C190.606 175.99 150.562 334.422 150.562 384.912C150.562 430.178 188.865 433.66 225.426 437.142C251.541 438.883 234.131 454.552 246.318 470.222C253.282 480.668 265.469 478.927 275.915 477.186C279.397 478.927 277.656 475.445 277.656 475.445Z" fill="#FFE4A1"/>
<path opacity="0.58" d="M512.696 289.157C512.696 290.898 512.696 290.898 512.696 289.157C540.552 273.488 575.373 266.524 594.524 297.862C606.711 317.013 606.711 337.905 599.747 358.797C592.783 376.207 582.336 395.359 570.149 409.287C564.926 414.51 557.962 421.474 549.257 423.215C537.07 424.956 531.847 416.251 523.142 411.028C521.401 411.028 519.66 411.028 521.401 412.769C524.883 435.402 550.998 435.402 566.667 424.956C589.301 409.287 603.229 381.43 610.193 357.056C629.344 294.38 563.185 240.408 512.696 289.157Z" fill="#FFE4A1"/>
<path opacity="0.58" d="M523.145 534.64C509.217 531.158 498.771 538.122 497.03 552.05C495.289 562.496 512.699 592.093 514.44 588.611C512.699 590.352 497.03 600.798 495.289 604.28C490.066 611.244 486.584 618.209 484.843 626.914C483.102 642.583 490.066 658.252 507.476 661.734C509.217 661.734 510.958 659.993 509.217 658.252C493.548 649.547 486.584 637.36 493.548 619.95C498.771 606.021 507.476 597.316 521.404 593.834C523.145 593.834 524.886 590.352 521.404 588.611C500.512 574.683 491.807 539.863 523.145 534.64Z" fill="#FFE4A1"/>
<path opacity="0.58" d="M780.814 825.388C775.591 806.237 758.18 778.381 735.547 790.568C733.806 790.568 735.547 794.05 737.288 792.309C759.922 787.086 772.108 804.496 779.072 825.388C782.554 841.058 784.296 860.209 768.626 868.914V870.655C787.778 875.878 784.296 834.094 780.814 825.388Z" fill="#FFE4A1"/>
<path opacity="0.3" d="M1129.02 590.352C1113.35 574.682 1087.23 600.798 1073.3 619.949C1078.53 581.646 1088.97 501.56 1038.48 510.265C1036.74 510.265 1036.74 512.006 1038.48 512.006C1085.49 529.416 1062.86 593.833 1064.6 632.136C1064.6 635.618 1069.82 637.359 1071.56 633.877C1076.79 623.431 1085.49 616.467 1094.2 607.762C1097.68 604.28 1111.61 590.351 1116.83 592.092C1129.02 595.575 1116.83 614.726 1113.35 619.949C1101.16 635.618 1071.56 646.064 1068.08 668.697C1068.08 670.438 1071.56 672.179 1071.56 670.438C1087.23 649.546 1109.87 637.359 1125.53 616.467C1130.76 609.503 1135.98 599.057 1129.02 590.352Z" fill="#FFE4A1"/>
<path opacity="0.3" d="M707.693 1091.76C707.693 1090.02 705.952 1088.28 704.211 1090.02C686.801 1096.99 690.282 1056.94 679.836 1048.24C662.426 1032.57 632.829 1056.94 613.678 1056.94C625.865 1062.17 638.052 1056.94 650.239 1051.72C674.613 1044.76 679.836 1056.94 683.318 1077.84C685.059 1084.8 685.059 1093.51 692.023 1096.99C693.764 1098.73 697.247 1096.99 698.988 1096.99C705.952 1100.47 704.211 1091.76 704.211 1109.17C704.211 1116.14 702.47 1121.36 702.47 1126.59C702.47 1128.33 704.21 1128.33 705.951 1126.59C711.174 1116.14 712.916 1103.95 707.693 1091.76Z" fill="#FFE4A1"/>
<path opacity="0.3" d="M994.963 252.596C987.999 216.035 956.661 205.589 930.546 233.445C965.366 205.589 989.74 231.704 987.999 264.783C986.258 283.934 975.812 303.086 967.106 318.755C953.178 343.129 935.768 365.762 918.358 390.136C916.617 393.618 921.84 397.1 923.581 393.618C953.178 357.057 1003.67 301.345 994.963 252.596Z" fill="#FFE4A1"/>
<path opacity="0.3" d="M592.791 625.172C582.345 611.244 587.568 609.502 591.05 592.092C596.273 560.754 575.381 529.416 551.007 510.265C549.266 508.524 547.524 510.265 547.524 512.006C568.417 550.308 594.532 569.459 571.898 618.208C570.157 619.949 571.899 623.431 573.64 623.431C627.611 653.028 563.194 694.812 523.15 668.697C523.15 668.697 521.409 668.697 523.15 670.438C545.783 694.812 608.46 689.589 604.978 647.805C603.237 637.359 596.273 632.136 592.791 625.172Z" fill="#FFE4A1"/>
<path opacity="0.3" d="M958.395 588.611C946.208 571.201 930.539 562.496 913.129 569.46C914.87 553.791 907.906 538.121 892.237 534.639C869.604 529.416 855.676 557.273 850.453 574.683C850.453 576.424 852.194 576.424 852.194 574.683C848.712 579.906 864.38 557.273 862.639 559.014C866.121 555.532 867.862 552.05 871.344 548.567C900.942 546.826 911.388 555.532 904.424 574.683C902.683 578.165 907.906 581.647 909.647 579.906C920.093 579.906 932.281 581.647 942.727 581.647C946.209 585.129 951.431 590.352 953.172 595.575C960.136 606.021 963.619 616.467 965.36 628.654C965.36 644.323 961.877 658.251 961.877 673.921C961.877 675.662 963.619 675.662 963.619 673.921C977.547 647.805 975.805 614.726 958.395 588.611Z" fill="#FFE4A1"/>
<path opacity="0.3" d="M1026.29 851.504C1019.33 832.353 1005.4 828.871 989.729 835.835C993.212 830.612 994.952 825.389 996.693 820.166C996.693 818.425 996.693 816.684 994.952 816.684C977.542 811.46 968.837 820.166 954.909 828.871C963.614 823.648 970.578 816.684 979.283 823.648C987.988 830.612 984.506 830.612 979.283 839.317C977.542 841.058 981.024 844.54 982.765 842.799C1012.36 823.648 1028.03 851.504 1022.81 879.36C1019.33 896.77 1008.88 907.216 1000.18 921.144C1000.18 922.885 1000.17 922.886 1001.92 922.886C1022.81 907.216 1035 879.36 1026.29 851.504Z" fill="#FFE4A1"/>
<path opacity="0.3" d="M585.824 776.642C578.86 778.383 571.896 783.606 566.673 788.829C563.19 792.311 559.708 804.498 556.226 806.239L542.298 804.498C524.888 806.239 514.442 816.685 493.55 809.721C491.809 809.721 490.068 811.462 491.809 813.203C510.96 828.872 542.298 802.757 554.485 816.685C556.226 818.426 559.708 816.685 561.449 814.944C585.823 750.527 651.982 801.016 679.838 830.613H681.58C669.393 795.793 622.385 764.455 585.824 776.642Z" fill="#FFE4A1"/>
<path opacity="0.3" d="M338.6 875.879C300.298 898.512 263.736 914.181 218.47 898.512C174.945 882.843 138.383 848.022 114.009 811.461C73.9658 752.267 60.0376 665.216 114.009 612.985C42.6275 659.993 79.1886 774.9 119.232 828.871C147.088 865.433 185.391 900.253 232.398 910.699C268.959 919.404 317.708 908.958 338.6 875.879C340.341 875.879 340.341 875.879 338.6 875.879Z" fill="#FFE4A1"/>
</svg>
