<svg width="1769" height="1493" viewBox="0 0 1769 1493" fill="none" xmlns="http://www.w3.org/2000/svg">
<path opacity="0.51" d="M250.835 1231.51C221.238 1335.97 123.741 1254.15 153.338 1161.87C158.561 1146.2 181.194 1130.53 184.676 1113.12C188.159 1099.2 179.453 1090.49 181.194 1078.3C186.417 1038.26 163.784 1020.85 217.756 989.512C219.497 994.735 217.756 998.218 219.497 1003.44C261.281 984.289 278.691 925.095 303.065 888.533C346.591 825.857 397.08 754.475 459.757 710.95C452.793 764.921 395.339 808.447 386.634 862.418C428.419 872.864 525.915 737.065 571.182 712.691C548.548 754.475 511.987 794.518 498.059 841.526C527.657 838.044 546.808 810.188 567.7 789.295C633.858 721.396 703.499 660.46 774.881 596.043C861.931 519.438 995.989 334.89 1116.12 315.739C1072.59 376.675 1022.1 448.056 968.133 502.028C1001.21 495.064 1029.07 472.431 1058.67 455.021C1044.74 467.208 1036.03 484.618 1025.59 500.287C1116.12 489.841 1213.62 374.934 1272.81 317.48C1391.2 202.573 1504.37 89.4075 1647.13 0.615723C1532.22 96.3716 1471.29 192.127 1426.02 277.437C1481.73 258.286 1525.26 218.243 1577.49 192.127C1542.67 247.84 1493.92 307.034 1445.17 350.56C1572.27 300.07 1666.28 206.055 1769 120.746C1749.85 240.876 1596.64 338.373 1535.7 442.833C1584.45 434.128 1631.46 390.603 1671.5 362.747C1621.01 442.833 1563.56 508.992 1495.66 571.669C1446.91 616.935 1368.57 662.201 1333.75 710.95C1445.17 679.611 1523.52 578.633 1627.98 536.848C1547.89 672.647 1366.83 787.554 1231.03 857.195C1145.72 900.72 1056.92 930.318 968.133 965.138C931.572 979.066 870.636 996.476 851.485 1033.04C905.457 1046.97 971.615 999.958 1018.62 980.807C1091.75 951.21 1164.87 923.354 1239.73 897.239C1184.02 951.21 1105.67 977.325 1046.48 1026.07C1109.16 1029.56 1173.57 998.217 1227.54 970.361C1034.29 1109.64 811.442 1217.59 595.556 1318.56C529.398 1349.9 447.57 1395.17 372.706 1386.46C301.324 1386.46 261.281 1339.46 250.835 1231.51Z" fill="#58C6D5"/>
<path opacity="0.43" d="M741.804 878.087C665.2 926.836 572.926 947.728 524.177 1031.3C482.393 1104.42 555.516 1116.61 611.228 1095.71C698.279 1066.12 722.653 982.548 787.071 933.8C795.776 966.879 839.301 940.764 856.711 923.354C888.05 998.217 1025.59 848.49 1055.19 822.375C1076.08 949.469 1272.81 737.065 1291.97 697.022C1311.12 655.237 1330.27 613.453 1368.57 582.115C1401.65 556 1448.66 554.258 1455.62 502.028C1441.69 505.51 1424.28 502.028 1410.35 507.251C1450.4 397.567 1607.09 373.193 1661.06 270.473C1603.61 277.437 1551.38 333.15 1504.37 364.488C1434.73 409.754 1358.12 453.28 1283.26 488.1C1309.38 449.798 1368.57 409.754 1380.76 371.452C1307.63 367.97 1218.84 510.733 1166.61 554.258C1123.09 592.561 1074.34 627.381 1030.81 663.943C1058.67 665.684 1083.04 641.309 1100.45 620.417C1046.48 601.266 978.582 670.907 957.69 716.173C968.136 700.504 975.1 679.612 975.1 660.46C903.719 660.46 825.373 820.634 741.804 878.087Z" fill="#F9F9F9"/>
<path opacity="0.58" d="M419.716 881.568C390.119 918.13 313.514 986.029 391.86 1010.4C477.17 1036.52 529.4 900.719 588.594 865.899C585.112 874.604 586.854 883.309 583.372 892.014C628.638 890.273 666.94 827.597 691.315 794.518C741.804 728.359 792.293 670.905 863.675 625.639C848.006 639.567 846.265 655.236 846.265 674.387C950.726 679.61 1114.38 529.883 1178.8 458.501C1093.49 500.286 1008.18 555.998 919.387 592.56C933.315 562.962 952.467 535.106 957.69 502.027C900.236 507.25 788.811 613.452 745.286 653.495C673.904 717.913 607.746 792.776 527.659 848.489C531.141 843.266 536.364 838.043 541.587 832.82C499.803 845.007 480.652 890.273 447.573 916.389C444.091 904.202 431.903 892.014 428.421 878.086C414.493 885.05 404.047 898.979 419.716 881.568Z" fill="#F9F9F9"/>
<path opacity="0.58" d="M407.527 1033.04C428.419 932.058 578.146 796.259 668.679 757.956C656.492 785.813 639.082 815.41 630.377 843.266C675.644 836.302 696.536 787.554 738.32 775.366C734.838 796.259 727.874 815.41 722.651 836.302C724.392 841.525 729.615 843.266 734.838 841.525C816.666 757.956 898.493 679.61 994.249 608.229C961.17 648.272 924.608 697.021 915.903 747.51C978.58 723.136 1022.11 658.718 1083.04 625.639C1072.6 663.941 1044.74 709.208 1027.33 747.51C1116.12 757.956 1278.04 550.775 1330.27 484.617C1344.19 573.408 1253.66 620.416 1222.32 690.057C1274.55 695.28 1314.6 637.826 1356.38 613.452C1365.09 662.2 1264.11 738.805 1232.77 768.402C1260.62 773.626 1297.19 752.733 1326.78 740.546C1265.85 806.705 1175.31 838.043 1093.49 871.122C886.306 956.432 700.018 1074.82 511.988 1194.95L407.527 1033.04Z" fill="#F9F9F9"/>
<path opacity="0.58" d="M520.687 1224.55C501.536 1241.96 484.126 1266.33 464.975 1285.48C527.652 1320.31 675.638 1222.81 719.163 1181.02C675.638 1245.44 800.991 1179.28 811.437 1172.32C888.042 1128.79 964.647 1083.53 1039.51 1040C971.611 1033.04 895.006 1095.71 825.365 1107.9C830.588 1106.16 872.373 1076.56 886.301 1062.64C834.071 1057.41 783.581 1106.16 726.128 1099.2C743.538 1059.15 811.437 1013.89 854.963 998.217C717.422 1019.11 588.587 1181.02 520.687 1224.55Z" fill="#F9F9F9"/>
<path opacity="0.58" d="M351.812 994.736C346.589 996.477 341.365 996.477 336.142 994.736C322.214 951.211 334.402 919.873 374.445 897.239C452.791 853.714 411.006 904.203 435.38 926.836C491.093 977.326 499.798 902.462 558.993 878.088C593.813 864.16 616.446 865.901 602.518 914.649C632.115 921.614 666.936 893.757 691.31 878.088C696.533 923.354 651.266 949.47 646.043 991.254C696.533 1001.7 753.986 973.844 804.476 961.657C787.066 987.772 759.209 1012.15 738.317 1034.78C783.583 1062.64 854.965 1020.85 905.455 1022.59C863.67 1057.41 807.958 1076.56 773.137 1121.83C811.44 1125.31 858.447 1106.16 891.527 1114.87C778.361 1254.15 597.295 1308.12 426.675 1325.53L351.812 994.736Z" fill="#F9F9F9"/>
<path d="M496.315 1257.63C529.395 1285.48 484.128 1356.87 461.495 1374.28C423.193 1403.87 377.926 1405.61 339.624 1372.54C318.732 1389.95 269.984 1396.91 263.019 1360.35C210.789 1367.31 155.076 1356.87 120.256 1315.08C87.1767 1275.04 71.5079 1182.76 142.89 1172.32C127.22 1161.87 116.774 1132.28 134.184 1120.09C66.2849 1034.78 245.609 893.756 318.732 980.807C318.732 965.138 327.437 939.023 346.588 949.469C376.185 846.749 597.294 933.8 522.431 1045.22C539.841 1038.26 553.769 1060.89 543.323 1066.12C600.777 1071.34 686.086 1121.83 670.417 1189.73C659.971 1231.51 614.705 1273.3 569.438 1271.56C541.582 1271.56 520.69 1269.82 496.315 1257.63Z" fill="#507B7A"/>
<path opacity="0.59" d="M233.43 973.843C191.645 982.548 153.343 1046.97 189.904 1083.53C207.315 1100.94 304.811 1113.12 283.919 1074.82C327.445 1093.97 365.747 1033.04 322.222 1031.3C365.747 1001.7 250.84 965.138 233.43 973.843Z" fill="#507B7A"/>
<path opacity="0.59" d="M205.564 1268.07C229.938 1254.15 169.003 1187.99 148.111 1238.48C139.405 1257.63 155.074 1280.26 170.744 1292.45C182.931 1302.89 214.269 1313.34 203.823 1287.23C209.046 1297.67 222.974 1302.89 233.42 1292.45C250.83 1276.78 212.528 1269.82 202.082 1264.59L205.564 1268.07Z" fill="#507B7A"/>
<path opacity="0.59" d="M198.601 1318.56C219.493 1367.31 261.277 1332.49 207.306 1315.08L198.601 1318.56Z" fill="#507B7A"/>
<path opacity="0.59" d="M388.362 1221.07C416.218 1189.73 400.549 1132.27 353.541 1128.79C290.865 1121.83 259.527 1219.33 306.534 1255.89C296.088 1278.52 282.16 1301.15 313.498 1318.56C337.873 1332.49 372.693 1313.34 353.541 1283.74C363.988 1299.41 379.657 1290.71 377.916 1273.3C442.334 1329.01 444.074 1198.43 388.362 1221.07Z" fill="#507B7A"/>
<path opacity="0.59" d="M440.596 1052.19C397.071 1057.41 445.82 1125.31 445.82 1083.53C466.712 1111.38 492.827 1045.22 492.827 1029.56C491.086 956.433 398.812 1001.7 440.596 1046.97V1052.19Z" fill="#507B7A"/>
<path opacity="0.59" d="M388.375 1015.63C384.893 1029.55 379.671 1062.63 404.045 1060.89C426.678 1057.41 423.196 1019.11 400.562 1019.11L388.375 1015.63Z" fill="#507B7A"/>
<path opacity="0.59" d="M524.173 1174.06C506.763 1170.58 489.352 1142.72 501.54 1127.05C520.691 1102.68 555.511 1134.02 552.029 1156.65C576.404 1121.83 614.706 1149.69 611.224 1184.51C606.001 1219.33 546.806 1250.66 518.95 1224.55C518.95 1236.74 489.353 1233.25 478.907 1226.29C444.086 1200.17 482.389 1179.28 506.763 1170.58L524.173 1174.06Z" fill="#507B7A"/>
<path opacity="0.59" d="M456.278 1165.35C444.091 1151.43 452.796 1121.83 471.947 1142.72C485.875 1158.39 471.947 1184.5 452.796 1167.09L456.278 1165.35Z" fill="#507B7A"/>
<path opacity="0.59" d="M451.047 1301.15C445.824 1309.86 440.601 1330.75 428.414 1334.23C411.004 1339.46 400.558 1318.56 384.889 1320.3C344.845 1323.79 374.442 1377.76 405.78 1362.09C416.226 1409.1 463.234 1339.45 468.457 1320.3C524.17 1315.08 444.083 1208.88 454.529 1309.86L451.047 1301.15Z" fill="#507B7A"/>
<path opacity="0.59" d="M243.865 1215.84C275.203 1170.58 189.894 1121.83 193.376 1168.84C188.153 1153.17 156.814 1090.49 146.368 1128.79C139.404 1153.17 191.635 1207.14 209.045 1221.07C209.045 1221.07 210.786 1217.58 210.786 1215.84C216.009 1229.77 212.527 1259.37 231.678 1266.33C273.462 1278.52 242.124 1221.07 243.865 1215.84Z" fill="#507B7A"/>
<path opacity="0.59" d="M404.043 945.986C379.669 923.353 365.741 959.914 384.892 973.842C377.928 972.101 367.482 973.842 360.518 972.101C357.036 1013.89 416.23 963.396 423.194 947.727C426.676 956.432 449.309 965.137 458.014 954.691C473.684 933.799 417.971 912.907 400.561 944.245L404.043 945.986Z" fill="#507B7A"/>
<path opacity="0.36" d="M177.705 996.476C149.848 994.735 121.992 1060.89 149.848 1064.38C127.215 1093.97 177.705 1132.28 202.079 1102.68C214.266 1135.76 263.014 1158.39 275.201 1114.87C292.611 1121.83 311.763 1113.12 311.763 1092.23C351.806 1106.16 388.368 1040 360.511 1040C353.547 1040 337.878 1064.38 329.173 1067.86C318.727 1071.34 301.316 1062.63 292.611 1067.86C283.906 1073.08 287.388 1090.49 278.683 1095.71C264.755 1107.9 249.086 1100.94 233.417 1095.71C184.668 1078.3 156.813 1055.67 177.705 996.476Z" fill="#7DAFAC"/>
<path opacity="0.36" d="M149.849 1198.43C125.475 1168.84 95.8774 1207.14 118.511 1231.51C108.065 1240.22 108.065 1290.71 130.698 1285.48C146.367 1282 135.921 1234.99 132.439 1224.55C148.108 1226.29 158.554 1212.36 162.036 1196.69C158.554 1193.21 158.554 1194.95 155.072 1193.21C151.59 1194.95 151.59 1198.43 151.59 1201.92L149.849 1198.43Z" fill="#7DAFAC"/>
<path opacity="0.36" d="M276.947 1191.47C282.17 1181.02 301.321 1139.24 275.206 1140.98C245.609 1142.72 257.796 1193.21 269.983 1207.14C254.314 1219.33 252.573 1269.82 275.206 1278.52C322.214 1299.41 278.688 1212.36 275.206 1201.92L276.947 1191.47Z" fill="#7DAFAC"/>
<path opacity="0.36" d="M435.374 1127.05C463.23 1059.15 346.582 1140.98 416.223 1160.13C417.964 1160.13 417.964 1160.13 416.223 1160.13C400.554 1172.32 409.259 1203.66 430.151 1203.66C468.453 1203.66 440.597 1144.46 431.892 1128.79L435.374 1127.05Z" fill="#7DAFAC"/>
<path opacity="0.36" d="M487.608 968.619C477.162 952.95 454.529 963.396 458.011 982.547C447.565 975.583 435.377 977.324 423.19 975.583C421.449 980.806 417.967 982.547 416.226 987.77C404.039 972.101 362.255 970.36 365.737 998.216C369.219 1027.81 412.744 1005.18 424.932 996.475C438.86 1012.14 520.687 992.994 487.608 968.619Z" fill="#7DAFAC"/>
<path opacity="0.36" d="M496.321 1080.04C503.285 1071.34 510.249 1062.63 511.99 1052.19C506.767 1053.93 501.544 1052.19 496.321 1053.93C513.731 1029.55 532.882 979.065 487.616 973.842C498.062 963.396 505.026 952.95 506.767 940.763C458.018 897.238 364.003 886.792 344.852 951.209C327.442 940.763 316.996 966.878 316.996 982.547C250.838 905.943 102.851 1008.66 118.52 1092.23C130.707 1107.9 151.6 1120.09 172.492 1130.53C160.305 1139.24 123.743 1120.09 128.966 1149.69C130.707 1163.61 184.679 1186.25 155.082 1196.69C144.635 1200.17 132.449 1184.51 116.78 1194.95C95.8874 1208.88 99.369 1238.48 109.815 1259.37C135.93 1309.86 245.614 1341.2 231.686 1252.4C235.168 1261.11 240.392 1262.85 245.615 1268.07C266.507 1234.99 266.507 1201.92 268.248 1165.35C278.694 1175.8 294.363 1175.8 306.55 1165.35C316.996 1217.58 351.817 1229.77 402.306 1208.88C445.831 1191.47 440.608 1163.61 428.421 1123.57C468.465 1140.98 499.803 1224.55 555.515 1177.54C599.04 1139.24 538.105 1076.56 496.321 1080.04Z" fill="#7DAFAC"/>
<path opacity="0.59" d="M541.575 1069.6C552.021 1064.38 539.834 1043.48 520.683 1048.71C595.547 935.54 374.438 850.23 344.84 952.95C327.43 942.504 316.984 968.619 316.984 984.289C303.056 968.619 285.646 959.914 268.236 958.173C266.495 970.361 273.459 965.137 285.646 979.065C299.574 994.734 299.574 999.958 299.574 1020.85C299.574 1040 294.351 1071.34 332.654 1057.41C369.215 1043.48 365.733 973.842 419.704 979.065C468.453 984.288 444.078 1043.48 419.704 1062.63C473.676 1052.19 438.855 1191.47 362.25 1151.43C357.027 1179.28 395.33 1184.51 416.222 1184.51C423.186 1184.51 430.15 1182.76 437.114 1182.76C423.186 1231.51 369.215 1233.25 318.725 1222.81C316.984 1243.7 322.207 1282 287.387 1276.78C296.092 1320.3 242.121 1320.3 224.71 1290.71C221.228 1316.82 186.408 1323.79 165.516 1323.79C146.365 1323.79 130.696 1320.3 115.027 1313.34C116.768 1315.08 118.508 1316.82 118.508 1318.56C155.07 1360.35 209.041 1370.79 261.272 1363.83C268.236 1400.39 315.243 1393.43 337.876 1376.02C376.179 1409.1 421.445 1407.36 459.747 1377.76C484.122 1358.61 527.647 1288.97 494.568 1261.11C518.942 1273.3 539.834 1275.04 567.691 1276.78C612.957 1278.52 659.964 1238.48 668.669 1194.95C686.079 1125.31 599.029 1073.08 541.575 1069.6ZM557.244 1123.57C548.539 1165.35 511.978 1167.09 478.899 1161.87C491.086 1151.43 499.791 1139.24 503.273 1121.83C508.496 1100.94 501.532 1078.3 510.237 1060.89C532.87 1074.82 565.949 1081.79 557.244 1123.57Z" fill="#507B7A"/>
<path opacity="0.59" d="M243.865 1001.7C242.124 1001.7 243.865 1005.18 245.606 1003.44C273.463 986.03 282.167 1036.52 259.534 1043.48C249.088 1046.97 238.642 1041.74 228.196 1041.74C226.455 1041.74 226.455 1043.48 228.196 1043.48C242.124 1046.97 236.901 1060.89 229.937 1067.86C224.714 1074.82 217.75 1078.3 207.304 1076.56C188.153 1073.08 179.447 1050.45 179.447 1033.04C181.188 994.735 216.009 975.584 250.829 977.325C222.973 973.843 193.376 986.03 182.93 1012.15C174.225 1033.04 177.707 1064.38 200.34 1074.82C216.009 1081.79 242.124 1067.86 238.642 1048.71C238.642 1045.22 236.901 1043.48 235.16 1041.74C235.16 1041.74 235.16 1041.74 233.419 1041.74C236.901 1041.74 242.124 1041.74 243.865 1043.48C252.57 1045.22 261.275 1046.97 268.239 1038.26C282.167 1022.59 268.239 982.548 243.865 1001.7Z" fill="#507B7A"/>
<path opacity="0.59" d="M175.973 1222.81C163.786 1217.58 149.858 1226.29 146.376 1238.48C137.671 1262.85 162.045 1302.89 188.16 1301.15C191.642 1301.15 191.642 1297.67 188.16 1297.67C165.527 1294.19 142.894 1264.59 149.858 1241.96C155.081 1222.81 174.232 1221.07 186.419 1233.25C193.383 1240.22 200.347 1250.66 207.311 1257.63C198.606 1245.44 191.642 1228.03 175.973 1222.81Z" fill="#507B7A"/>
<path opacity="0.59" d="M235.162 1241.96C217.752 1245.44 222.975 1226.29 216.011 1215.84C207.306 1203.66 191.637 1196.69 181.19 1186.25C169.003 1174.06 155.075 1161.87 149.852 1144.46C149.852 1140.98 146.37 1132.27 148.111 1128.79C153.334 1123.57 160.298 1128.79 163.78 1132.27C170.744 1137.5 175.967 1146.2 181.19 1154.91C181.19 1156.65 182.932 1154.91 182.932 1154.91C175.967 1139.24 165.521 1123.57 146.37 1123.57C146.37 1123.57 144.629 1123.57 144.629 1125.31C139.406 1158.39 167.262 1184.51 191.637 1201.92C200.342 1208.88 210.788 1214.1 214.27 1224.55C216.011 1229.77 216.011 1234.99 217.752 1240.22C221.234 1248.92 228.198 1250.66 235.162 1245.44C238.644 1243.7 236.903 1241.96 235.162 1241.96Z" fill="#507B7A"/>
<path opacity="0.59" d="M341.363 1282C334.399 1292.45 315.247 1313.34 310.024 1288.97C306.542 1276.78 310.024 1262.85 322.212 1255.89C323.953 1255.89 323.953 1252.4 322.212 1252.4C306.542 1243.7 292.614 1224.55 289.132 1207.14C287.391 1200.17 287.391 1170.58 301.319 1182.76C308.283 1187.99 306.542 1200.17 304.801 1207.14C304.801 1207.14 306.543 1208.88 306.543 1207.14C311.766 1198.43 311.765 1186.25 304.801 1179.28C299.578 1174.06 294.355 1174.06 289.132 1181.02C271.722 1203.66 297.838 1240.22 316.989 1254.15C304.802 1262.85 301.32 1282 308.284 1295.93C318.73 1316.82 339.621 1295.93 344.845 1283.74C346.586 1280.26 343.104 1280.26 341.363 1282Z" fill="#507B7A"/>
<path opacity="0.59" d="M393.601 1026.07C388.378 1022.59 381.414 1027.81 379.673 1033.04C374.45 1045.22 384.896 1064.38 398.824 1059.15C400.565 1059.15 398.824 1057.41 398.824 1057.41C388.378 1060.89 379.673 1046.97 381.414 1038.26C383.155 1033.04 388.378 1026.07 393.601 1031.3C398.824 1034.78 400.565 1040 400.565 1045.22C400.565 1046.97 402.306 1046.97 402.306 1045.22C402.306 1036.52 400.565 1029.55 393.601 1026.07Z" fill="#507B7A"/>
<path opacity="0.59" d="M442.335 928.576C433.63 926.835 426.666 928.576 417.961 932.058C412.738 933.799 404.033 942.504 397.069 940.763C393.587 940.763 393.587 937.281 388.364 939.022C383.141 940.763 377.918 942.504 376.177 947.727C370.954 954.691 370.954 963.396 376.177 970.36C360.508 970.36 355.285 991.253 374.436 989.512C369.213 987.771 362.249 982.548 367.472 977.325C370.954 973.843 377.918 973.843 381.4 975.584C383.141 975.584 384.882 973.843 383.141 972.102C369.213 963.396 379.659 940.763 395.328 945.986C397.069 945.986 397.069 949.469 400.551 949.469C405.774 949.469 412.738 942.504 416.22 940.763C421.443 939.022 424.925 937.281 430.148 935.54C438.853 933.799 458.004 937.281 451.04 952.95C451.04 954.691 452.782 956.432 454.523 954.691C461.487 939.022 452.781 932.058 442.335 928.576Z" fill="#507B7A"/>
<path opacity="0.59" d="M445.83 998.217C428.42 1012.15 431.902 1033.04 444.089 1048.71C428.42 1055.67 421.456 1071.34 431.902 1087.01C438.866 1097.45 447.571 1099.2 451.053 1090.49C461.499 1104.42 477.169 1073.08 477.169 1060.89C477.169 1059.15 473.687 1059.15 473.687 1060.89C470.205 1067.86 459.758 1100.94 451.053 1083.53C449.312 1080.04 445.83 1081.79 445.83 1083.53C444.089 1100.94 430.161 1080.04 430.161 1074.82C428.42 1062.63 435.385 1055.67 447.572 1052.19C449.313 1052.19 449.312 1048.71 449.312 1048.71C437.125 1034.78 431.902 1015.63 447.572 1001.7C458.018 992.994 471.946 992.994 478.91 1006.92H480.651C475.428 989.512 458.018 987.771 445.83 998.217Z" fill="#507B7A"/>
<path opacity="0.59" d="M409.271 1334.23C402.307 1327.27 393.602 1316.82 383.156 1318.56C374.451 1320.3 369.228 1327.27 369.228 1335.97C369.228 1349.9 390.12 1369.05 402.307 1353.38C404.048 1351.64 402.307 1349.9 400.566 1349.9C395.343 1353.38 390.12 1355.12 383.156 1349.9C377.933 1346.42 374.451 1341.2 374.451 1335.97C372.71 1327.27 377.933 1320.3 386.638 1320.3C393.602 1322.05 402.307 1329.01 409.271 1334.23C409.271 1334.23 409.271 1335.97 409.271 1334.23Z" fill="#507B7A"/>
<path opacity="0.59" d="M224.715 1325.53C219.492 1318.56 210.787 1316.82 203.823 1315.08C202.082 1315.08 202.082 1316.82 202.082 1316.82C205.564 1323.79 212.528 1332.49 219.492 1335.97C219.492 1335.97 221.233 1335.97 221.233 1334.23C219.492 1330.75 216.009 1329.01 214.268 1325.53C212.527 1323.79 209.046 1320.3 207.304 1316.82C212.528 1320.3 219.492 1322.04 224.715 1325.53C224.715 1327.27 224.715 1327.27 224.715 1325.53Z" fill="#507B7A"/>
<path opacity="0.59" d="M513.73 1214.1C505.025 1221.07 489.356 1233.25 478.91 1221.07C464.982 1205.4 484.133 1184.51 496.32 1177.54C496.32 1177.54 496.32 1175.8 496.32 1177.54C478.91 1179.28 463.241 1207.14 473.687 1222.81C484.133 1236.74 506.766 1228.03 515.471 1217.58C515.471 1215.84 513.73 1214.1 513.73 1214.1Z" fill="#507B7A"/>
<path opacity="0.59" d="M506.761 1123.57C491.092 1130.53 494.574 1156.65 511.984 1158.39C506.761 1154.91 501.538 1151.42 499.797 1144.46C498.056 1135.76 501.538 1127.05 510.243 1125.31C525.912 1121.83 539.84 1135.76 545.063 1149.68C545.063 1151.43 548.545 1151.43 548.545 1149.68C546.804 1132.27 522.43 1116.6 506.761 1123.57Z" fill="#507B7A"/>
<path opacity="0.59" d="M226.463 1015.63C219.499 1010.4 212.535 1013.89 205.571 1019.11C200.348 1024.33 193.384 1034.78 200.348 1041.74C205.571 1046.96 217.758 1041.74 219.499 1034.78C221.24 1027.81 214.276 1024.33 210.794 1029.55C209.053 1031.3 210.794 1031.3 212.535 1031.3C219.499 1027.81 217.758 1034.78 214.276 1038.26C212.535 1040 207.312 1041.74 203.83 1038.26C202.089 1036.52 202.089 1033.04 202.089 1031.3C203.83 1022.59 212.535 1013.89 221.24 1017.37C231.686 1020.85 228.204 1033.04 222.981 1038.26C217.758 1043.48 210.794 1048.71 203.83 1048.71C188.161 1050.45 181.197 1033.04 186.42 1019.11C191.643 1006.92 207.312 991.252 219.499 1003.44C207.312 987.77 188.161 1006.92 182.938 1019.11C175.973 1034.78 186.42 1052.19 203.83 1050.45C219.499 1050.45 243.873 1027.81 226.463 1015.63Z" fill="#507B7A"/>
<path opacity="0.59" d="M195.119 1266.33C193.378 1257.63 186.413 1248.92 179.449 1241.96C175.967 1238.48 167.262 1233.25 162.039 1236.74C151.593 1243.7 167.262 1264.59 170.744 1271.56C175.967 1278.52 193.378 1302.89 200.342 1285.48C202.083 1280.26 200.342 1273.3 195.119 1266.33ZM189.896 1288.97C182.931 1288.97 177.709 1278.52 174.227 1275.04C169.003 1266.33 162.04 1257.63 160.299 1247.18C158.558 1233.25 174.226 1240.22 179.449 1245.44C184.672 1250.66 189.896 1257.63 193.378 1264.59C188.155 1257.63 181.191 1250.66 175.968 1248.92C175.968 1248.92 174.227 1248.92 174.227 1250.66C172.485 1261.11 182.931 1271.56 189.896 1278.52C191.637 1278.52 191.637 1278.52 193.378 1278.52C193.378 1276.78 193.378 1275.04 193.378 1273.3C196.86 1278.52 200.342 1288.97 189.896 1288.97ZM186.414 1266.33C188.155 1268.07 189.896 1269.82 189.896 1271.56C184.672 1266.33 174.227 1254.15 175.968 1252.4C177.709 1250.66 184.672 1259.37 188.154 1264.59C188.154 1262.85 186.414 1264.59 186.414 1266.33Z" fill="#507B7A"/>
<path opacity="0.59" d="M350.068 1147.94C332.658 1134.02 327.435 1158.39 334.399 1170.58C337.881 1175.8 346.585 1186.25 353.549 1179.28C358.772 1174.06 351.808 1165.35 344.844 1163.61C343.103 1163.61 341.363 1165.35 343.104 1167.1C344.845 1167.1 346.586 1168.84 348.327 1170.58C346.586 1181.02 343.103 1181.02 336.139 1172.32C334.398 1168.84 332.658 1163.61 332.658 1160.13C332.658 1153.17 334.399 1146.2 343.104 1149.68C344.845 1151.43 348.327 1153.17 350.068 1154.91C360.514 1165.35 363.996 1201.92 339.622 1193.21C325.693 1187.99 318.729 1174.06 320.47 1160.13C322.211 1144.46 334.399 1135.76 350.068 1134.02C330.917 1132.27 316.989 1147.94 316.989 1167.1C316.989 1182.76 332.658 1205.4 350.068 1196.69C369.219 1186.25 362.255 1156.65 350.068 1147.94Z" fill="#507B7A"/>
<path opacity="0.59" d="M477.167 1010.4C471.944 1003.44 463.24 1003.44 456.275 1008.66C447.57 1015.63 449.311 1029.56 452.793 1038.26C451.052 1045.22 451.052 1055.67 456.275 1062.63C461.499 1069.6 468.463 1069.6 473.686 1064.38C485.873 1052.19 487.613 1024.33 477.167 1010.4ZM456.275 1059.15C454.534 1053.93 454.534 1046.97 456.275 1040C456.275 1034.78 459.757 1019.11 466.721 1026.07C468.462 1027.81 468.462 1034.78 468.462 1038.26C468.462 1040 468.462 1043.48 468.462 1043.48C466.721 1045.22 463.24 1043.48 464.981 1038.26C464.981 1036.52 463.239 1034.78 463.239 1036.52C459.757 1040 456.275 1052.19 464.981 1052.19C473.686 1052.19 473.686 1036.52 471.944 1031.3C471.944 1026.07 468.462 1017.37 461.498 1019.11C454.534 1020.85 452.793 1029.56 451.052 1034.78C449.311 1027.81 449.311 1022.59 451.052 1015.63C454.534 1001.7 468.462 999.958 475.426 1012.15C482.39 1024.33 480.65 1040 473.686 1052.19C470.204 1062.63 461.499 1071.34 456.275 1059.15Z" fill="#507B7A"/>
<path opacity="0.59" d="M391.854 1382.98C377.926 1398.65 363.998 1377.76 363.998 1365.57C363.998 1363.83 362.257 1363.83 360.516 1363.83C353.552 1369.05 341.365 1367.31 339.624 1356.87C339.624 1355.12 337.882 1355.12 336.141 1356.87C327.436 1365.57 323.954 1353.38 320.472 1348.16C320.472 1348.16 318.731 1346.42 318.731 1348.16C311.767 1351.64 308.285 1356.87 304.803 1362.09C297.839 1370.79 285.652 1374.28 278.688 1362.09C275.206 1358.61 275.206 1353.38 271.724 1348.16C271.724 1348.16 269.983 1348.16 271.724 1348.16C276.947 1360.35 285.652 1381.24 303.062 1369.05C306.544 1367.31 308.285 1363.83 310.026 1360.35C311.767 1358.61 313.508 1355.12 315.249 1353.38C322.214 1348.16 320.473 1351.64 323.955 1356.87C325.696 1358.61 327.436 1362.09 330.919 1362.09C332.66 1362.09 336.141 1360.35 337.882 1360.35C341.365 1360.35 344.847 1369.05 351.811 1369.05C355.293 1369.05 357.034 1369.05 358.775 1369.05C362.257 1369.05 362.257 1367.31 362.257 1367.31C363.998 1369.05 363.998 1374.28 363.998 1376.02C369.221 1389.95 384.89 1400.39 395.336 1384.72C395.336 1382.98 393.595 1381.24 391.854 1382.98Z" fill="#507B7A"/>
<path opacity="0.59" d="M358.782 1318.56C358.782 1316.82 357.041 1316.82 357.041 1318.56C357.041 1322.04 355.3 1325.53 353.559 1329.01C350.077 1334.23 339.631 1346.42 334.408 1330.75C334.408 1329.01 332.667 1329.01 330.926 1330.75C325.703 1337.71 318.739 1337.71 310.034 1330.75C310.034 1330.75 308.293 1330.75 306.552 1330.75C294.365 1353.38 264.768 1339.45 269.991 1315.08C264.768 1327.27 269.991 1339.45 282.178 1344.68C287.401 1346.42 292.624 1346.42 297.847 1344.68C301.329 1342.94 303.07 1341.2 304.811 1339.45C306.552 1337.71 308.293 1337.71 308.293 1337.71C308.293 1337.71 308.293 1339.45 311.775 1339.45C315.257 1339.45 315.257 1341.2 318.739 1341.2C322.221 1341.2 325.703 1335.97 329.185 1337.71C330.926 1337.71 334.408 1342.94 337.89 1342.94C351.818 1342.94 360.524 1329.01 358.782 1318.56Z" fill="#507B7A"/>
<path opacity="0.59" d="M654.752 1160.13C651.27 1134.02 625.155 1120.09 600.781 1123.57C611.227 1109.64 590.335 1092.23 574.666 1100.94C572.924 1102.68 574.666 1104.42 576.407 1104.42C588.594 1099.2 612.968 1111.38 593.817 1125.31C592.076 1127.05 593.817 1128.79 595.558 1128.79C616.45 1123.57 637.342 1132.28 647.788 1151.43C658.234 1172.32 646.047 1191.47 625.155 1200.17C625.155 1200.17 623.414 1201.92 625.155 1201.92C628.637 1212.36 628.637 1221.07 618.191 1224.55C612.968 1226.29 606.004 1226.29 599.04 1228.03C597.299 1228.03 597.298 1228.03 597.298 1229.77C595.557 1250.66 581.629 1255.89 562.478 1257.63C539.845 1259.37 518.953 1255.89 501.543 1241.96H499.802C492.838 1250.66 477.169 1254.15 470.205 1243.7C470.205 1241.96 468.463 1241.96 466.722 1243.7C459.758 1252.41 451.054 1241.96 447.572 1236.74C445.831 1235 444.089 1236.74 444.089 1238.48C445.83 1255.89 449.313 1273.3 445.83 1290.71C437.125 1322.05 400.564 1320.31 383.154 1295.93C393.6 1315.08 421.456 1325.53 438.867 1308.12C454.536 1292.45 449.313 1264.59 447.572 1243.7C451.054 1247.18 454.535 1250.66 458.017 1250.66C461.499 1250.66 464.981 1248.92 466.722 1248.92C470.204 1248.92 473.687 1254.15 478.91 1254.15C485.874 1254.15 489.356 1252.41 494.579 1248.92C498.061 1247.18 496.32 1247.18 499.802 1247.18C503.284 1247.18 508.507 1252.41 511.989 1254.15C520.694 1257.63 529.399 1259.37 538.104 1259.37C552.032 1261.11 571.183 1261.11 583.371 1254.15C586.853 1252.41 590.335 1248.92 592.076 1245.44C595.558 1238.48 593.817 1231.51 602.522 1228.03C611.227 1226.29 623.414 1226.29 626.896 1217.59C628.637 1212.36 625.155 1205.4 626.896 1200.17C628.637 1198.43 633.86 1196.69 635.601 1194.95C639.083 1193.21 640.824 1189.73 642.565 1187.99C653.011 1181.02 656.493 1170.58 654.752 1160.13Z" fill="#507B7A"/>
<path opacity="0.36" d="M242.131 961.655C224.72 959.914 202.087 977.324 188.159 987.77C167.267 1001.7 148.116 1017.37 139.411 1041.74C132.447 1060.89 135.929 1083.53 149.857 1097.45C172.49 1120.09 191.642 1116.61 221.239 1111.38C203.829 1156.65 257.8 1153.17 287.397 1140.98C313.512 1130.53 348.332 1109.64 344.85 1076.56C341.368 1048.71 308.289 1052.19 287.397 1050.45C290.879 1034.78 306.548 1022.59 304.807 1005.18C299.584 977.324 275.21 965.137 242.131 961.655Z" fill="#7DAFAC"/>
<path opacity="0.36" d="M177.714 1210.62C162.044 1172.32 111.555 1175.8 99.3679 1214.1C90.6628 1240.22 102.85 1278.52 123.742 1295.93C137.67 1308.12 162.044 1309.86 179.454 1304.64C226.462 1285.48 205.57 1238.48 177.714 1210.62Z" fill="#7DAFAC"/>
<path opacity="0.36" d="M390.121 912.906C362.264 921.611 346.595 966.878 370.969 987.77C383.156 999.957 412.754 984.288 419.718 972.101C433.646 952.95 416.236 921.611 390.121 912.906Z" fill="#7DAFAC"/>
<path opacity="0.36" d="M327.437 961.656C327.437 973.843 327.437 1022.59 344.847 1026.07C376.185 1029.56 344.847 954.692 327.437 961.656Z" fill="#7DAFAC"/>
<path opacity="0.36" d="M520.681 1170.58C505.012 1182.76 478.897 1167.09 468.451 1154.91C444.077 1128.79 471.933 1100.94 499.79 1090.49C536.351 1076.56 576.394 1090.49 604.25 1116.61C644.294 1156.65 576.394 1187.99 520.681 1170.58Z" fill="#7DAFAC"/>
<path opacity="0.36" d="M409.266 1271.56C395.338 1259.37 395.338 1240.22 372.705 1234.99C351.813 1229.77 339.626 1236.74 336.144 1259.37C332.662 1287.22 350.072 1322.05 370.964 1339.46C409.266 1370.79 430.159 1330.75 428.418 1294.19L409.266 1271.56Z" fill="#7DAFAC"/>
<path opacity="0.36" d="M287.39 1313.34C278.685 1316.82 269.979 1348.16 275.202 1358.61C278.684 1363.83 285.648 1367.31 292.612 1365.57C310.023 1360.35 297.835 1330.75 292.612 1320.3L287.39 1313.34Z" fill="#7DAFAC"/>
<path opacity="0.36" d="M539.841 1053.93C531.136 1050.45 505.02 1053.93 503.279 1066.12C499.797 1087.01 553.769 1067.86 536.359 1055.67L539.841 1053.93Z" fill="#7DAFAC"/>
<path opacity="0.58" d="M1634.95 275.696C1445.18 345.336 1311.12 517.697 1124.83 599.525C1103.94 608.23 1090.01 601.265 1069.12 622.158C1053.45 637.827 1055.19 655.237 1046.49 667.424C1020.37 700.503 973.363 738.806 936.801 771.885C848.01 851.972 726.139 890.274 626.901 954.692C579.894 986.03 473.692 1024.33 452.799 1081.79C527.663 1080.05 623.419 998.217 686.095 958.174C771.405 904.202 861.938 851.972 942.024 791.036C935.06 799.741 933.319 813.669 928.096 824.115C1013.41 865.9 1130.05 667.424 1182.29 637.827C1345.94 547.294 1488.7 399.308 1634.95 275.696Z" fill="#F9F9F9"/>
<path opacity="0.58" d="M602.515 669.165C515.465 697.021 546.803 825.856 651.264 717.913C639.076 738.806 639.077 761.439 661.71 771.885C696.53 789.295 745.278 731.842 764.43 712.691C868.89 604.748 929.826 461.984 1056.92 374.934C1044.73 387.121 1041.25 404.531 1032.55 418.459C1079.55 437.61 1130.04 390.603 1161.38 362.746C1130.04 421.941 1081.29 554.258 1196.2 491.581C1305.89 430.646 1415.57 268.731 1464.32 153.824C1373.78 211.278 1321.55 350.559 1215.35 390.603C1211.87 331.408 1276.29 272.214 1253.65 211.278C1177.05 188.645 1150.93 293.106 1096.96 320.962C1098.7 310.516 1093.48 296.588 1093.48 286.142C1006.43 268.732 901.97 432.387 853.221 489.841C800.991 549.035 712.199 646.532 602.515 669.165Z" fill="#F9F9F9"/>
<path opacity="0.58" d="M327.429 1036.52C353.544 890.275 41.9029 1057.41 182.925 1147.95C61.0541 1109.64 0.118688 1295.93 106.321 1297.67C40.162 1374.28 221.227 1402.13 268.235 1330.75C266.494 1367.31 301.314 1374.28 332.653 1369.05C381.401 1508.34 583.359 1316.82 482.38 1245.44C529.387 1337.72 567.689 1215.84 579.876 1184.51C597.287 1140.98 626.884 1137.5 590.323 1083.53C545.056 1015.63 428.408 1046.97 327.429 1036.52Z" fill="#F9F9F9"/>
<path opacity="0.58" d="M304.802 939.023C287.391 874.606 196.858 869.383 162.038 923.354C78.4693 1052.19 367.478 1132.28 304.802 928.577V939.023Z" fill="#F9F9F9"/>
<path opacity="0.58" d="M621.667 1290.71C719.164 1255.89 630.372 1146.2 604.257 1212.36C503.278 1167.1 506.759 1369.05 588.587 1332.49C564.213 1341.2 553.767 1358.61 565.954 1381.24C600.774 1443.92 675.638 1341.2 689.566 1318.56L621.667 1290.71Z" fill="#F9F9F9"/>
<path opacity="0.58" d="M54.097 1207.14C88.9173 1222.81 97.6222 1177.54 94.1402 1147.94C87.1761 1102.68 40.1686 1102.68 48.8737 1139.24C48.8737 1139.24 61.0609 1123.57 59.3198 1123.57C-22.5079 1097.45 -15.5439 1264.59 57.5787 1275.04C14.0533 1339.46 92.3992 1436.95 130.702 1374.28C135.925 1377.76 125.479 1379.5 139.407 1382.98C193.378 1356.87 144.63 1276.78 94.1402 1280.26C148.112 1259.37 106.327 1205.4 59.3198 1224.55L54.097 1207.14Z" fill="#F9F9F9"/>
<path opacity="0.58" d="M402.299 1424.77C435.378 1376.02 350.068 1348.16 363.996 1412.58C376.183 1382.98 329.176 1365.57 301.32 1377.76C276.945 1295.93 162.039 1466.55 289.133 1452.62C290.874 1536.19 391.853 1463.07 421.45 1452.62C452.788 1442.18 475.421 1478.74 515.465 1440.43C536.357 1421.28 545.062 1403.87 534.616 1396.91C579.882 1337.72 454.529 1374.28 433.637 1384.72L402.299 1424.77Z" fill="#F9F9F9"/>
<path d="M1074.32 620.417C1034.28 625.64 1006.42 667.424 982.05 693.54C971.604 703.986 948.97 731.842 931.56 730.101C905.445 728.36 917.632 712.691 921.114 705.727C922.855 702.245 926.337 698.763 928.078 695.281C931.56 688.317 931.56 683.094 929.819 677.871C929.819 676.13 928.078 674.388 926.337 676.129C867.143 690.058 818.394 731.842 781.833 780.59C769.646 796.259 760.94 813.67 747.012 827.598C743.53 831.08 738.308 838.044 734.826 839.785C720.897 845.008 719.156 829.339 720.897 818.893C722.638 804.965 729.602 794.518 731.343 780.59C731.343 778.849 729.602 778.849 729.602 778.849C712.192 780.59 694.782 792.777 682.595 806.706C675.631 813.67 647.774 855.454 640.81 841.526C635.587 831.08 654.738 798 658.22 789.295C661.703 780.59 668.667 768.403 666.926 757.957C666.926 756.216 665.185 756.216 665.185 756.216C628.624 764.921 602.508 798 576.393 822.375C545.055 850.231 522.421 890.274 485.86 911.166C524.162 895.497 548.537 851.972 579.875 824.116C597.285 808.447 614.695 789.296 633.846 775.367C639.069 771.885 656.48 757.957 663.444 759.698C668.667 761.439 659.962 778.85 658.22 784.073C652.997 796.26 628.623 834.562 640.81 846.749C654.738 860.677 679.113 818.893 684.336 813.67C691.3 806.705 698.264 799.742 706.969 792.778C712.192 789.296 722.638 780.59 727.861 789.295C729.602 791.036 722.638 803.224 722.638 806.706C719.156 817.152 712.192 836.303 724.379 846.749C741.79 858.936 762.682 827.598 769.646 817.152C797.502 780.59 823.617 745.77 860.178 717.914C870.624 710.95 882.812 703.986 894.999 697.022C900.222 693.54 929.819 677.871 926.337 695.281C922.855 707.468 907.186 716.173 912.409 730.101C924.596 759.698 969.862 721.396 980.308 709.209C997.718 691.798 1013.39 670.907 1030.8 653.496C1039.5 646.532 1053.43 630.863 1063.88 630.863C1072.58 630.863 1067.36 634.345 1065.62 641.309C1063.88 648.273 1060.4 653.496 1056.91 660.46C1056.91 662.201 1058.65 663.943 1060.4 662.201C1067.36 650.014 1074.32 639.568 1077.81 627.381C1077.81 622.158 1076.06 620.417 1074.32 620.417Z" fill="#F9F9F9"/>
<path d="M769.656 991.253C783.584 977.325 806.217 959.915 804.476 939.023C804.476 937.282 802.735 935.54 800.994 935.54C774.878 940.763 752.245 952.951 729.612 965.138C710.461 973.843 686.087 992.994 665.195 991.253C644.302 991.253 656.489 973.843 663.453 961.656C670.418 951.209 677.382 940.764 682.605 930.317C693.051 912.907 701.756 897.238 701.756 876.346C701.756 874.605 700.015 872.864 696.533 874.605C635.597 902.461 574.662 954.692 548.546 1017.37C548.546 1019.11 550.288 1019.11 550.288 1017.37C578.144 958.174 637.338 909.426 694.792 881.569C691.31 921.613 653.007 951.21 642.561 989.512C642.561 991.253 642.561 992.994 644.302 992.994C661.712 1001.7 679.122 994.735 694.792 987.771C719.166 977.325 741.799 963.397 766.173 952.95C769.655 951.209 788.807 940.764 794.03 942.505C797.512 940.764 797.512 940.763 795.771 944.245C795.771 947.727 794.03 951.209 792.289 952.95C787.065 963.397 776.619 972.102 767.914 980.807C753.986 994.735 736.576 1006.92 727.871 1024.33C727.871 1026.07 727.871 1027.81 729.612 1027.81C741.799 1034.78 753.986 1027.81 766.173 1022.59C747.022 1043.48 726.13 1066.12 710.461 1092.23C708.72 1093.97 712.202 1095.71 713.943 1093.97C736.576 1069.6 755.727 1041.74 780.101 1017.37C781.842 1015.63 780.102 1012.15 776.619 1012.15C769.655 1013.89 734.835 1029.56 734.835 1022.59C740.058 1015.63 764.432 998.217 769.656 991.253Z" fill="#F9F9F9"/>
<path d="M1328.52 477.654C1328.52 475.913 1326.78 475.912 1325.04 475.912C1304.14 481.136 1293.7 507.251 1284.99 524.661C1272.8 552.517 1265.84 589.078 1239.73 606.489C1224.06 616.935 1206.65 615.194 1190.98 622.158C1175.31 627.381 1163.12 639.568 1150.93 650.014C1121.34 674.388 1096.96 703.986 1070.85 731.842C1048.21 757.957 1023.84 785.813 997.725 808.446C987.278 817.152 976.833 825.856 964.646 831.079C954.2 836.302 948.976 838.044 940.271 824.115C938.53 820.633 940.271 818.892 936.789 815.41C924.602 801.482 895.005 818.893 884.559 825.857C854.961 843.267 830.587 872.864 794.026 874.605C820.141 874.605 839.292 862.418 860.184 846.749C870.631 838.044 882.818 831.08 895.005 824.115C901.969 820.633 908.933 817.151 915.897 815.41C922.861 813.669 928.084 808.446 935.048 822.374C935.048 824.115 935.048 825.857 935.048 827.598C942.013 839.785 948.976 843.267 962.904 838.044C980.314 831.08 995.984 818.892 1009.91 806.705C1062.14 759.698 1102.19 700.504 1156.16 655.237C1171.83 641.309 1187.5 630.863 1206.65 625.64C1220.57 622.158 1234.5 620.417 1246.69 611.712C1265.84 597.784 1272.8 575.15 1281.51 554.258C1286.73 540.33 1291.96 528.143 1298.92 515.956C1302.4 508.992 1323.29 475.912 1325.04 493.323C1326.78 508.992 1316.33 529.884 1311.11 543.812C1305.88 555.999 1298.92 569.927 1293.7 582.115C1291.96 585.597 1295.44 587.338 1297.18 583.856C1312.85 554.258 1333.74 512.474 1328.52 477.654Z" fill="#F9F9F9"/>
<path d="M1178.8 448.056C1178.8 446.315 1177.06 446.315 1175.32 446.315C1100.46 461.984 1049.97 528.143 987.293 566.445C976.847 573.409 966.4 578.632 954.213 585.596C943.767 590.819 915.911 606.488 915.911 587.337C915.911 575.15 931.581 555.999 938.545 545.553C947.25 531.624 959.436 519.437 957.695 502.027C957.695 500.286 955.954 500.286 954.213 498.545C900.242 493.322 851.493 547.294 818.414 583.855C797.522 606.488 778.371 629.121 755.738 650.013C724.399 679.611 687.838 705.726 656.5 735.323C708.73 695.28 759.22 656.978 802.745 608.229C837.565 569.927 879.349 515.955 933.321 505.509C942.026 503.768 950.731 500.286 950.731 512.473C950.731 519.437 942.027 529.883 938.545 535.106C931.581 545.552 926.357 555.999 919.393 566.445C914.17 575.15 900.242 592.56 912.429 601.265C921.135 608.229 936.803 599.524 945.508 596.042C962.918 589.078 980.329 578.632 995.998 568.186C1023.85 550.776 1048.23 529.883 1072.6 510.732C1088.27 498.545 1103.94 486.358 1121.35 475.912C1128.32 472.43 1135.28 467.207 1143.98 463.725C1145.73 461.984 1185.77 444.574 1171.84 463.725C1170.1 465.466 1173.58 468.948 1175.32 465.466C1180.55 460.243 1180.55 458.502 1178.8 448.056Z" fill="#F9F9F9"/>
<path d="M482.382 811.929C449.302 817.152 433.633 855.453 409.259 874.605C402.295 879.828 386.625 890.274 379.661 885.051C372.697 879.828 381.403 851.972 384.885 845.008C391.849 818.892 404.036 792.777 417.964 770.144C419.705 768.403 416.223 766.662 414.482 768.403C369.215 817.152 323.949 872.864 299.575 935.54C299.575 937.281 301.316 937.281 301.316 935.54C329.172 879.828 362.252 829.339 404.036 784.072C402.295 785.813 402.295 789.295 400.554 791.036C395.331 801.482 391.849 810.187 386.626 820.634C377.921 843.267 372.697 865.9 372.697 888.533C372.697 890.274 374.438 890.274 374.438 890.274C412.741 892.015 430.151 853.712 454.525 831.079C456.266 829.338 475.417 813.669 477.158 817.151C478.899 820.633 463.23 845.008 463.23 846.749C458.007 857.195 452.784 871.123 461.489 881.569C463.23 883.31 466.712 881.569 464.971 879.828C452.784 862.418 478.899 832.82 484.122 815.41C485.863 813.669 484.123 811.929 482.382 811.929Z" fill="#F9F9F9"/>
<path d="M1215.35 717.912C1197.94 723.135 1177.05 742.287 1168.35 759.697C1157.9 778.848 1166.61 794.517 1187.5 778.848C1199.69 770.143 1201.43 742.287 1185.76 759.697C1184.02 761.438 1185.76 763.179 1187.5 761.438C1189.24 761.438 1190.98 761.438 1192.72 761.438C1190.98 768.402 1187.5 771.884 1180.53 773.625C1173.57 777.107 1168.35 778.848 1166.61 770.143C1164.86 763.179 1173.57 754.474 1177.05 749.251C1184.02 740.546 1194.46 730.1 1204.91 724.877C1213.61 719.654 1222.32 716.171 1227.54 728.358C1231.02 737.063 1224.06 750.992 1220.58 757.956C1211.87 773.625 1197.94 787.553 1184.02 799.74C1171.83 810.186 1159.64 818.891 1145.71 825.855C1138.75 829.337 1128.3 832.819 1119.6 832.819C1105.67 832.819 1100.45 818.891 1105.67 806.704C1119.6 777.107 1156.16 761.438 1164.87 728.358C1164.87 726.617 1164.86 726.618 1163.12 724.877C1133.53 714.431 1096.97 757.956 1077.81 775.366C1062.15 789.294 1049.96 806.704 1036.03 822.373C1027.32 832.819 1018.62 841.524 1009.91 850.229C1002.95 855.452 983.799 872.863 985.54 853.712C985.54 851.971 983.8 850.23 982.059 851.971C964.649 864.158 954.202 883.309 936.792 897.237C926.346 905.942 914.159 909.424 900.231 907.683C888.044 905.942 858.446 897.237 875.856 876.345C875.856 874.604 875.857 874.604 874.116 874.604C854.964 895.496 882.82 909.424 901.971 911.165C917.641 912.906 929.827 907.683 942.015 897.237C950.72 890.273 955.943 881.568 962.907 874.604C966.389 871.121 969.872 865.899 973.354 862.417C978.577 857.194 980.317 853.712 980.317 864.158C980.317 865.899 982.058 865.898 983.799 865.898C1013.4 860.675 1034.29 827.596 1053.44 806.704C1072.59 782.33 1095.22 761.438 1121.34 742.287C1128.3 737.064 1133.53 733.581 1140.49 730.099C1150.94 726.617 1164.86 721.394 1154.42 737.063C1143.97 754.474 1126.56 768.402 1112.63 784.071C1103.93 794.517 1084.78 822.373 1103.93 832.819C1124.82 845.006 1156.16 822.373 1171.83 810.186C1194.46 792.776 1224.06 768.402 1231.02 738.805C1236.25 726.617 1232.76 710.948 1215.35 717.912Z" fill="#F9F9F9"/>
<path d="M1601.87 444.574C1568.79 446.315 1549.64 481.135 1533.97 505.509C1528.75 512.473 1523.52 521.178 1518.3 528.142C1516.56 529.883 1504.37 543.812 1500.89 542.071C1493.93 538.589 1502.63 526.401 1504.37 522.919C1514.82 507.25 1530.49 496.804 1533.97 477.653C1533.97 475.912 1533.97 475.912 1532.23 475.912C1499.15 468.948 1483.48 495.063 1471.29 521.178C1464.33 536.847 1459.11 554.258 1448.66 568.186C1431.25 594.301 1399.91 616.934 1366.83 609.97C1366.83 609.97 1365.09 611.711 1366.83 611.711C1405.13 623.898 1445.18 587.337 1460.85 555.999C1467.81 540.329 1473.03 522.92 1481.74 507.25C1486.96 496.804 1493.93 486.358 1506.11 481.135C1514.82 477.653 1527.01 474.171 1523.52 489.84C1521.78 496.804 1514.82 502.027 1509.6 507.25C1504.37 514.214 1483.48 535.106 1490.44 543.811C1495.67 550.775 1506.11 543.812 1511.34 540.33C1542.67 514.214 1553.12 451.538 1600.13 448.056C1603.61 449.797 1603.61 444.574 1601.87 444.574Z" fill="#F9F9F9"/>
<path d="M1476.5 357.524C1469.54 364.488 1432.98 397.567 1434.72 373.193C1434.72 371.452 1432.98 369.711 1431.24 371.452C1419.05 376.675 1410.34 387.121 1401.64 395.826C1392.93 404.531 1370.3 430.646 1359.86 420.2C1352.89 413.236 1359.86 409.754 1365.08 402.79C1368.56 399.308 1372.04 394.085 1375.52 390.603C1379.01 383.639 1384.23 376.675 1380.75 369.711C1380.75 367.97 1379.01 367.97 1379.01 367.97C1321.55 374.934 1278.03 425.423 1244.95 467.208C1215.35 503.769 1177.05 582.115 1121.34 575.151C1159.64 589.079 1194.46 542.072 1215.35 515.956C1248.43 472.431 1283.25 423.682 1330.26 394.085C1340.7 387.121 1354.63 376.675 1368.56 376.675C1387.71 376.675 1370.3 394.085 1365.08 402.79C1359.86 409.754 1349.41 420.2 1352.89 428.905C1365.08 455.021 1417.31 394.085 1426.01 387.121C1439.94 376.675 1429.5 383.639 1434.72 390.603C1436.46 394.085 1439.94 394.085 1443.42 394.085C1457.35 394.085 1474.76 374.934 1483.47 364.488C1479.99 357.524 1478.24 355.783 1476.5 357.524Z" fill="#F9F9F9"/>
<path d="M1013.41 1050.45C987.291 1050.45 962.916 1066.12 942.024 1081.79C931.577 1088.75 922.873 1097.46 912.427 1104.42C905.463 1107.9 900.24 1113.12 891.535 1114.87C877.607 1118.35 875.866 1118.35 882.83 1104.42C884.571 1102.68 882.829 1099.2 879.347 1099.2C856.714 1097.46 834.081 1128.79 816.671 1140.98C797.52 1156.65 766.182 1167.1 741.807 1161.87C706.987 1153.17 722.656 1121.83 747.03 1113.12C712.21 1120.09 705.246 1160.13 743.548 1167.1C769.664 1172.32 799.261 1161.87 820.153 1146.2C835.822 1135.76 854.973 1106.16 875.865 1104.42C874.124 1107.9 872.383 1111.38 872.383 1114.87C872.383 1116.61 872.384 1118.35 874.125 1118.35C891.535 1125.31 910.685 1109.64 924.613 1099.2C952.47 1078.3 978.586 1053.93 1013.41 1048.71C1015.15 1053.93 1015.15 1050.45 1013.41 1050.45Z" fill="#F9F9F9"/>
<path opacity="0.51" d="M625.152 1041.74C618.188 1041.74 618.188 1053.93 625.152 1053.93C632.116 1052.19 632.116 1041.74 625.152 1041.74Z" fill="#58C6D5"/>
<path opacity="0.51" d="M661.713 1026.07C658.231 1026.07 658.231 1031.3 661.713 1031.3C663.454 1029.56 663.454 1026.07 661.713 1026.07Z" fill="#58C6D5"/>
<path opacity="0.51" d="M790.552 907.684C781.847 907.684 781.847 919.871 790.552 919.871C799.257 919.871 799.257 907.684 790.552 907.684Z" fill="#58C6D5"/>
<path opacity="0.51" d="M832.331 881.569C828.849 881.569 828.849 888.533 832.331 888.533C837.554 888.533 837.554 881.569 832.331 881.569Z" fill="#58C6D5"/>
<path opacity="0.51" d="M844.526 778.849C837.562 785.813 842.785 799.741 853.231 799.741H854.972C860.195 799.741 865.419 794.518 865.419 789.295V787.554C865.419 777.108 851.49 771.885 844.526 778.849Z" fill="#58C6D5"/>
<path opacity="0.51" d="M921.123 754.473C914.158 750.991 905.453 752.733 898.489 757.956C893.265 761.438 889.784 768.402 893.266 775.366C896.748 782.33 905.453 784.071 910.676 780.589C917.64 777.107 924.604 770.142 924.604 763.178C924.604 759.696 922.864 756.214 921.123 754.473Z" fill="#58C6D5"/>
<path opacity="0.51" d="M886.307 740.547C886.307 742.288 886.306 744.029 888.047 747.511C889.788 750.993 895.011 750.993 896.752 747.511C898.493 745.77 898.493 744.029 898.493 740.547C900.234 731.842 886.307 731.842 886.307 740.547Z" fill="#58C6D5"/>
<path opacity="0.51" d="M572.914 992.993C562.468 992.993 562.468 1008.66 572.914 1008.66C583.36 1008.66 583.36 992.993 572.914 992.993Z" fill="#58C6D5"/>
<path opacity="0.51" d="M605.989 965.137C597.284 965.137 597.284 979.065 605.989 979.065C614.695 980.806 614.695 965.137 605.989 965.137Z" fill="#58C6D5"/>
<path opacity="0.51" d="M581.628 918.129C574.664 904.201 552.031 916.389 560.736 930.317C567.7 944.245 588.592 932.058 581.628 918.129Z" fill="#58C6D5"/>
<path opacity="0.51" d="M609.478 824.115C597.291 824.115 597.291 843.266 609.478 843.266C621.665 845.007 621.665 824.115 609.478 824.115Z" fill="#58C6D5"/>
<path opacity="0.51" d="M363.998 1093.97C355.293 1093.97 355.293 1106.16 363.998 1106.16C370.962 1107.9 370.962 1093.97 363.998 1093.97Z" fill="#58C6D5"/>
<path opacity="0.51" d="M391.857 1076.56C384.893 1076.56 384.893 1088.75 391.857 1088.75C398.821 1087.01 398.821 1076.56 391.857 1076.56Z" fill="#58C6D5"/>
<path opacity="0.51" d="M400.565 1100.94C379.673 1100.94 379.673 1134.02 400.565 1134.02C421.457 1134.02 421.457 1100.94 400.565 1100.94Z" fill="#58C6D5"/>
<path opacity="0.51" d="M264.758 1140.98C256.053 1140.98 256.053 1153.17 264.758 1153.17C273.463 1153.17 273.463 1140.98 264.758 1140.98Z" fill="#58C6D5"/>
<path opacity="0.7" d="M245.608 996.476C235.162 996.476 224.716 1005.18 224.716 1017.37C224.716 1027.81 233.421 1038.26 245.608 1038.26C256.055 1038.26 266.5 1029.56 266.5 1017.37C266.5 1006.92 257.796 996.476 245.608 996.476Z" fill="#F9F9F9"/>
<path opacity="0.7" d="M198.61 1026.07C198.61 1027.81 198.61 1027.81 198.61 1026.07C200.351 1029.56 202.092 1029.56 203.833 1027.81C203.833 1027.81 203.833 1027.81 203.833 1026.07C209.056 1019.11 193.387 1019.11 198.61 1026.07Z" fill="#F9F9F9"/>
<path opacity="0.7" d="M245.606 1073.08C236.901 1073.08 236.901 1085.27 245.606 1085.27C254.311 1087.01 254.311 1073.08 245.606 1073.08Z" fill="#F9F9F9"/>
<path opacity="0.7" d="M264.753 1064.38C259.53 1064.38 259.53 1073.08 264.753 1073.08C269.976 1073.08 269.976 1064.38 264.753 1064.38Z" fill="#F9F9F9"/>
<path opacity="0.7" d="M233.417 1318.56C224.712 1318.56 224.712 1330.75 233.417 1330.75C242.122 1330.75 242.122 1318.56 233.417 1318.56Z" fill="#F9F9F9"/>
<path opacity="0.7" d="M170.744 1332.49C167.262 1334.23 169.003 1339.45 172.485 1339.45H174.226C175.967 1339.45 175.967 1339.45 177.708 1337.71C179.449 1334.23 174.226 1329.01 170.744 1332.49Z" fill="#F9F9F9"/>
<path opacity="0.7" d="M228.202 1177.54C217.756 1177.54 217.756 1193.21 228.202 1193.21C238.648 1193.21 238.648 1177.54 228.202 1177.54Z" fill="#F9F9F9"/>
<path opacity="0.7" d="M231.688 1201.91C222.983 1201.91 222.983 1214.1 231.688 1214.1C240.393 1214.1 240.393 1201.91 231.688 1201.91Z" fill="#F9F9F9"/>
<path opacity="0.7" d="M404.043 1074.82C398.82 1074.82 398.82 1083.53 404.043 1083.53C409.266 1081.78 409.266 1074.82 404.043 1074.82Z" fill="#F9F9F9"/>
<path opacity="0.7" d="M414.499 1088.75C409.276 1088.75 409.276 1097.45 414.499 1097.45C419.722 1099.2 419.722 1088.75 414.499 1088.75Z" fill="#F9F9F9"/>
<path opacity="0.7" d="M675.635 1106.16C666.93 1106.16 658.225 1114.86 658.225 1123.57C658.225 1132.27 665.189 1140.98 675.635 1140.98C684.34 1140.98 693.045 1132.27 693.045 1123.57C691.304 1114.86 684.34 1106.16 675.635 1106.16Z" fill="#F9F9F9"/>
<path opacity="0.7" d="M717.423 1118.35C717.423 1118.35 715.682 1118.35 717.423 1118.35C710.459 1116.61 710.459 1125.31 715.682 1123.57H717.423C719.164 1123.57 719.164 1120.09 717.423 1118.35Z" fill="#F9F9F9"/>
<path opacity="0.7" d="M586.842 1029.55C569.432 1029.55 569.432 1057.41 586.842 1057.41C605.993 1057.41 605.993 1029.55 586.842 1029.55Z" fill="#F9F9F9"/>
<path opacity="0.7" d="M623.413 1017.37C618.19 1013.88 614.708 1022.59 619.931 1024.33C625.154 1027.81 626.895 1020.85 623.413 1017.37Z" fill="#F9F9F9"/>
<path opacity="0.7" d="M769.655 919.871C762.691 919.871 762.691 932.058 769.655 932.058C778.36 932.058 778.36 919.871 769.655 919.871Z" fill="#F9F9F9"/>
<path opacity="0.7" d="M814.925 904.201C814.925 904.201 814.925 905.942 814.925 904.201C816.666 905.942 816.666 904.201 814.925 904.201Z" fill="#F9F9F9"/>
<path opacity="0.7" d="M687.826 745.769C682.603 745.769 682.603 754.474 687.826 754.474C693.049 754.474 693.049 745.769 687.826 745.769Z" fill="#F9F9F9"/>
<path opacity="0.7" d="M717.422 719.653C712.199 710.948 703.494 721.395 710.458 724.877C710.458 724.877 710.458 724.877 712.199 724.877C715.681 728.359 720.904 724.876 717.422 719.653Z" fill="#F9F9F9"/>
<path opacity="0.7" d="M914.161 895.496C921.853 895.496 928.089 889.261 928.089 881.569C928.089 873.876 921.853 867.64 914.161 867.64C906.469 867.64 900.233 873.876 900.233 881.569C900.233 889.261 906.469 895.496 914.161 895.496Z" fill="#F9F9F9"/>
<path opacity="0.7" d="M947.247 864.159C947.247 864.159 945.505 864.159 945.505 865.9C942.023 867.641 947.246 872.864 948.987 869.382C948.987 869.382 948.987 867.641 950.728 867.641C950.728 864.159 948.988 862.418 947.247 864.159Z" fill="#F9F9F9"/>
<path opacity="0.7" d="M929.833 838.044C928.092 831.08 921.128 824.115 912.423 824.115C901.977 822.374 891.53 829.338 888.048 839.784C888.048 841.525 888.048 843.267 888.048 845.008C888.048 850.231 889.79 855.454 895.013 858.936C903.718 862.418 912.422 865.9 919.386 860.677C928.091 855.454 931.574 845.008 929.833 838.044Z" fill="#F9F9F9"/>
<path opacity="0.7" d="M973.354 771.884C964.648 771.884 964.648 784.072 973.354 784.072C980.318 785.813 980.318 771.884 973.354 771.884Z" fill="#F9F9F9"/>
<path opacity="0.7" d="M1130.05 622.156C1126.57 620.415 1123.08 620.416 1119.6 618.675C1114.38 618.675 1109.16 622.156 1105.67 625.639C1100.45 627.38 1095.23 629.12 1093.49 630.861C1083.04 637.825 1074.34 653.495 1079.56 665.682C1081.3 670.905 1088.26 677.869 1095.23 676.128C1116.12 674.387 1138.75 655.236 1140.49 634.344C1138.75 630.862 1135.27 623.897 1130.05 622.156Z" fill="#F9F9F9"/>
<path opacity="0.7" d="M1091.74 611.711C1086.51 611.711 1086.51 620.416 1091.74 620.416C1098.7 620.416 1098.7 611.711 1091.74 611.711Z" fill="#F9F9F9"/>
<path opacity="0.7" d="M1345.93 757.956C1338.97 759.697 1328.52 759.697 1326.78 768.402C1326.78 770.143 1328.52 771.884 1330.26 771.884C1338.97 771.884 1340.71 763.179 1345.93 757.956C1347.67 757.956 1347.67 757.956 1345.93 757.956Z" fill="#F9F9F9"/>
<path opacity="0.7" d="M999.469 940.763C994.246 937.281 989.022 940.763 989.022 945.986C989.022 951.209 994.245 954.691 997.727 951.209C997.727 951.209 997.728 951.209 999.469 951.209C1002.95 947.727 1002.95 942.504 999.469 940.763Z" fill="#F9F9F9"/>
<path opacity="0.7" d="M1365.08 735.323C1365.08 735.323 1366.83 735.323 1365.08 735.323C1366.83 737.064 1366.83 737.064 1368.57 737.064V735.323C1372.05 731.841 1363.34 731.841 1365.08 735.323Z" fill="#F9F9F9"/>
<path opacity="0.7" d="M1338.96 737.064L1337.22 738.806C1335.48 740.547 1337.22 742.288 1338.96 740.547L1340.71 738.806C1340.71 737.064 1340.71 735.323 1338.96 737.064Z" fill="#F9F9F9"/>
<path opacity="0.7" d="M1372.05 764.92C1372.05 757.956 1359.86 754.474 1358.12 763.179C1358.12 763.179 1358.12 763.179 1358.12 764.92C1356.38 773.625 1372.05 775.366 1372.05 764.92Z" fill="#F9F9F9"/>
<path opacity="0.7" d="M1464.32 622.156C1462.58 620.415 1459.09 620.415 1457.35 622.156C1457.35 622.156 1457.35 622.156 1455.61 622.156C1452.13 625.638 1455.61 630.861 1459.09 630.861C1464.32 632.602 1467.8 625.638 1464.32 622.156Z" fill="#F9F9F9"/>
<path opacity="0.7" d="M1509.59 597.782C1507.85 597.782 1507.85 599.523 1509.59 597.782C1509.59 599.523 1509.59 597.782 1509.59 597.782Z" fill="#F9F9F9"/>
<path opacity="0.7" d="M1594.9 495.063C1586.19 495.063 1586.19 508.991 1594.9 508.991C1603.6 508.991 1603.6 495.063 1594.9 495.063Z" fill="#F9F9F9"/>
<path opacity="0.7" d="M1634.94 458.502C1627.98 458.502 1627.98 468.949 1634.94 468.949C1641.91 468.949 1641.91 458.502 1634.94 458.502Z" fill="#F9F9F9"/>
<path opacity="0.7" d="M1671.51 428.904C1664.54 428.904 1664.54 441.091 1671.51 441.091C1680.21 441.091 1680.21 428.904 1671.51 428.904Z" fill="#F9F9F9"/>
<path opacity="0.7" d="M1634.94 495.063C1627.98 495.063 1627.98 507.251 1634.94 507.251C1643.65 505.51 1643.65 495.063 1634.94 495.063Z" fill="#F9F9F9"/>
<path opacity="0.7" d="M1621.01 481.135C1621.01 475.912 1615.78 470.689 1608.82 472.43C1605.34 474.171 1603.6 475.912 1601.86 477.653C1598.37 482.876 1601.86 491.581 1608.82 493.322C1615.78 493.322 1622.75 488.099 1621.01 481.135Z" fill="#F9F9F9"/>
<path opacity="0.7" d="M1574.01 669.164C1567.04 669.164 1567.04 681.351 1574.01 681.351C1580.97 681.351 1580.97 669.164 1574.01 669.164Z" fill="#F9F9F9"/>
<path opacity="0.7" d="M1619.28 615.193C1619.28 615.193 1619.28 616.934 1619.28 615.193C1621.02 616.934 1621.02 615.193 1619.28 615.193Z" fill="#F9F9F9"/>
<path opacity="0.7" d="M1629.71 601.264C1629.71 601.264 1629.71 603.005 1629.71 601.264C1631.45 603.005 1631.45 601.264 1629.71 601.264Z" fill="#F9F9F9"/>
<path opacity="0.7" d="M1624.49 620.416C1624.49 620.416 1624.49 622.157 1624.49 620.416C1626.23 622.157 1626.23 620.416 1624.49 620.416Z" fill="#F9F9F9"/>
<path opacity="0.7" d="M1020.36 961.655C1011.66 961.655 1011.66 975.583 1020.36 975.583C1029.07 973.842 1029.07 961.655 1020.36 961.655Z" fill="#F9F9F9"/>
<path opacity="0.7" d="M1079.55 939.022C1070.85 939.022 1070.85 952.95 1079.55 952.95C1088.26 952.95 1088.26 939.022 1079.55 939.022Z" fill="#F9F9F9"/>
<path opacity="0.7" d="M1239.73 874.603C1227.55 874.603 1227.55 892.013 1239.73 892.013C1250.18 892.013 1250.18 874.603 1239.73 874.603Z" fill="#F9F9F9"/>
<path opacity="0.7" d="M1096.96 890.274C1086.52 890.274 1086.52 907.684 1096.96 907.684C1107.41 907.684 1107.41 890.274 1096.96 890.274Z" fill="#F9F9F9"/>
<path opacity="0.7" d="M915.902 1113.12C907.197 1113.12 900.233 1120.09 900.233 1128.79C900.233 1137.5 907.197 1144.46 915.902 1144.46C924.607 1144.46 931.571 1137.5 931.571 1128.79C931.571 1120.09 924.607 1113.12 915.902 1113.12Z" fill="#F9F9F9"/>
<path opacity="0.7" d="M1074.35 1067.86C1063.9 1067.86 1063.9 1085.27 1074.35 1085.27C1086.53 1085.27 1086.53 1067.86 1074.35 1067.86Z" fill="#F9F9F9"/>
<path opacity="0.7" d="M1168.35 1036.52C1156.16 1036.52 1156.16 1055.67 1168.35 1055.67C1180.54 1053.93 1180.54 1036.52 1168.35 1036.52Z" fill="#F9F9F9"/>
<path opacity="0.7" d="M1250.18 420.199C1241.47 420.199 1241.47 434.128 1250.18 434.128C1258.88 434.128 1258.88 420.199 1250.18 420.199Z" fill="#F9F9F9"/>
<path opacity="0.7" d="M1293.7 395.825C1291.96 395.825 1291.96 397.566 1293.7 395.825C1293.7 397.566 1293.7 395.825 1293.7 395.825Z" fill="#F9F9F9"/>
<path opacity="0.7" d="M1488.69 193.867C1486.95 193.867 1486.95 193.867 1485.21 193.867C1483.47 195.608 1481.72 195.608 1481.72 199.09C1479.98 206.054 1488.69 211.277 1493.91 206.054C1499.13 200.831 1495.65 193.867 1488.69 193.867Z" fill="#F9F9F9"/>
<path opacity="0.7" d="M1540.92 145.118C1533.95 145.118 1533.95 155.565 1540.92 155.565C1547.88 155.565 1547.88 145.118 1540.92 145.118Z" fill="#F9F9F9"/>
<path opacity="0.7" d="M1516.56 115.521C1509.59 115.521 1509.59 125.968 1516.56 125.968C1523.52 125.968 1523.52 115.521 1516.56 115.521Z" fill="#F9F9F9"/>
<path opacity="0.7" d="M1521.77 159.047C1514.81 152.083 1504.36 153.824 1499.14 162.529C1490.43 174.716 1506.1 186.903 1518.29 181.68C1527 176.457 1528.74 166.011 1521.77 159.047Z" fill="#F9F9F9"/>
<path opacity="0.7" d="M1544.4 113.781C1539.18 113.781 1539.18 120.745 1544.4 120.745C1547.89 120.745 1547.89 113.781 1544.4 113.781Z" fill="#F9F9F9"/>
<path opacity="0.7" d="M1570.52 89.4062C1565.3 89.4062 1565.3 98.1113 1570.52 98.1113C1575.75 98.1113 1575.75 89.4062 1570.52 89.4062Z" fill="#F9F9F9"/>
<path opacity="0.7" d="M1077.81 399.307C1076.07 401.048 1076.07 404.53 1077.81 406.271C1081.29 413.235 1091.74 409.753 1091.74 402.789C1093.48 395.825 1083.03 392.343 1077.81 399.307Z" fill="#F9F9F9"/>
<path opacity="0.7" d="M1067.37 439.351C1051.7 437.61 1051.7 461.984 1065.63 460.243H1067.37C1081.3 460.243 1081.3 441.092 1067.37 439.351Z" fill="#F9F9F9"/>
<path opacity="0.7" d="M1093.49 430.645C1086.52 430.645 1086.52 442.832 1093.49 442.832C1102.19 442.832 1102.19 430.645 1093.49 430.645Z" fill="#F9F9F9"/>
<path opacity="0.7" d="M1123.07 383.637C1114.37 383.637 1107.41 390.601 1107.41 399.306C1107.41 408.011 1114.37 414.975 1123.07 414.975C1131.78 414.975 1138.74 408.011 1138.74 399.306C1138.74 390.601 1131.78 383.637 1123.07 383.637Z" fill="#F9F9F9"/>
<path opacity="0.7" d="M1161.38 313.998C1152.68 313.998 1152.68 326.185 1161.38 326.185C1170.09 326.185 1170.09 313.998 1161.38 313.998Z" fill="#F9F9F9"/>
<path opacity="0.7" d="M1213.61 307.033C1211.87 307.033 1211.87 310.515 1213.61 310.515C1215.36 310.515 1215.36 307.033 1213.61 307.033Z" fill="#F9F9F9"/>
<path opacity="0.7" d="M1018.62 392.344C1009.91 392.344 1009.91 404.531 1018.62 404.531C1025.58 404.531 1025.58 392.344 1018.62 392.344Z" fill="#F9F9F9"/>
<path opacity="0.7" d="M969.885 475.912C959.439 475.912 959.439 493.322 969.885 493.322C980.331 493.322 980.331 475.912 969.885 475.912Z" fill="#F9F9F9"/>
<path opacity="0.7" d="M1224.06 237.393C1217.09 237.393 1217.09 249.58 1224.06 249.58C1231.02 247.839 1231.02 237.393 1224.06 237.393Z" fill="#F9F9F9"/>
<path opacity="0.7" d="M1227.53 268.73C1210.12 268.73 1210.12 294.846 1227.53 294.846C1244.94 294.846 1244.94 268.73 1227.53 268.73Z" fill="#F9F9F9"/>
<path opacity="0.7" d="M1171.83 277.436C1166.61 286.141 1180.54 293.105 1185.76 282.659C1189.24 273.954 1177.05 270.472 1171.83 277.436Z" fill="#F9F9F9"/>
<path opacity="0.7" d="M1685.44 235.652C1678.48 228.688 1668.03 230.429 1662.81 239.134V240.875C1655.84 253.062 1669.77 265.249 1681.96 260.026H1683.7C1690.66 253.062 1692.4 240.875 1685.44 235.652Z" fill="#F9F9F9"/>
<path opacity="0.7" d="M1709.8 199.091C1701.09 199.091 1701.09 213.019 1709.8 213.019C1718.5 213.019 1718.5 199.091 1709.8 199.091Z" fill="#F9F9F9"/>
<path opacity="0.7" d="M1749.85 213.019C1744.62 213.019 1744.62 221.724 1749.85 221.724C1755.07 219.983 1755.07 213.019 1749.85 213.019Z" fill="#F9F9F9"/>
<path opacity="0.7" d="M1673.23 305.291C1662.79 305.291 1662.79 322.702 1673.23 322.702C1685.42 322.702 1685.42 305.291 1673.23 305.291Z" fill="#F9F9F9"/>
<path opacity="0.7" d="M1645.38 345.335C1643.64 341.853 1640.16 340.112 1636.68 341.853C1636.68 341.853 1636.68 341.853 1634.94 341.853C1629.71 343.594 1627.97 350.558 1633.2 354.04C1633.2 354.04 1634.94 354.04 1634.94 355.781C1641.9 359.263 1650.61 350.558 1645.38 345.335Z" fill="#F9F9F9"/>
<path opacity="0.7" d="M1701.1 282.659C1694.13 282.659 1694.13 293.105 1701.1 293.105C1708.06 293.105 1708.06 282.659 1701.1 282.659Z" fill="#F9F9F9"/>
<path opacity="0.7" d="M1673.24 336.631C1673.24 336.631 1671.5 336.631 1673.24 336.631C1662.79 331.408 1652.35 336.631 1652.35 347.077C1652.35 357.523 1662.8 362.746 1671.5 359.264H1673.24C1681.95 355.782 1681.95 341.854 1673.24 336.631Z" fill="#F9F9F9"/>
<path opacity="0.7" d="M1553.11 273.954C1544.41 273.954 1544.41 286.141 1553.11 286.141C1560.08 286.141 1560.08 273.954 1553.11 273.954Z" fill="#F9F9F9"/>
<path opacity="0.7" d="M1589.67 232.169C1577.49 232.169 1577.49 249.579 1589.67 249.579C1600.12 249.579 1600.12 232.169 1589.67 232.169Z" fill="#F9F9F9"/>
<path opacity="0.7" d="M1577.48 162.529C1560.07 162.529 1560.07 188.644 1577.48 188.644C1593.15 188.644 1593.15 162.529 1577.48 162.529Z" fill="#F9F9F9"/>
<path opacity="0.7" d="M1641.9 132.931C1640.16 131.19 1640.16 129.449 1638.42 129.449C1634.93 127.708 1631.45 129.449 1627.97 131.19C1626.23 132.931 1626.23 136.413 1627.97 138.154C1631.45 150.342 1648.86 141.636 1641.9 132.931Z" fill="#F9F9F9"/>
<path opacity="0.7" d="M1617.54 185.162C1610.58 185.162 1610.58 195.608 1617.54 195.608C1626.25 195.608 1626.25 185.162 1617.54 185.162Z" fill="#F9F9F9"/>
<path opacity="0.7" d="M1431.24 670.905C1419.06 670.905 1419.06 690.056 1431.24 690.056C1443.43 690.056 1443.43 670.905 1431.24 670.905Z" fill="#F9F9F9"/>
<path opacity="0.7" d="M1506.11 632.603C1490.44 632.603 1490.44 658.718 1506.11 658.718C1521.78 658.718 1521.78 632.603 1506.11 632.603Z" fill="#F9F9F9"/>
<path opacity="0.7" d="M1634.94 549.035C1619.27 549.035 1619.27 575.15 1634.94 575.15C1652.35 575.15 1652.35 549.035 1634.94 549.035Z" fill="#F9F9F9"/>
<path opacity="0.7" d="M1589.67 603.006C1577.49 613.452 1594.9 632.603 1605.34 620.416C1605.34 620.416 1605.34 620.416 1605.34 618.675C1617.53 608.229 1601.86 592.56 1589.67 603.006Z" fill="#F9F9F9"/>
<path opacity="0.7" d="M1633.19 589.076C1626.23 589.076 1626.23 601.264 1633.19 601.264C1641.9 601.264 1641.9 589.076 1633.19 589.076Z" fill="#F9F9F9"/>
<path opacity="0.7" d="M1507.84 700.503C1495.66 700.503 1495.66 719.654 1507.84 719.654C1520.03 719.654 1520.03 700.503 1507.84 700.503Z" fill="#F9F9F9"/>
<path opacity="0.7" d="M1466.06 730.101C1453.87 730.101 1453.87 750.993 1466.06 750.993C1478.25 750.993 1478.25 730.101 1466.06 730.101Z" fill="#F9F9F9"/>
<path opacity="0.7" d="M1307.64 348.818C1297.19 348.818 1297.19 364.487 1307.64 364.487C1316.34 364.487 1316.34 348.818 1307.64 348.818Z" fill="#F9F9F9"/>
<path opacity="0.7" d="M1342.46 317.48C1330.27 317.48 1330.27 336.631 1342.46 336.631C1354.64 336.631 1354.64 317.48 1342.46 317.48Z" fill="#F9F9F9"/>
<path opacity="0.7" d="M1290.22 253.061C1271.07 253.061 1271.07 282.658 1290.22 282.658C1307.63 282.658 1309.37 253.061 1290.22 253.061Z" fill="#F9F9F9"/>
<path opacity="0.7" d="M1323.3 209.536C1318.08 206.054 1314.6 209.536 1314.6 213.018C1314.6 216.5 1319.82 219.982 1321.56 218.241H1323.3C1325.04 214.759 1325.04 211.277 1323.3 209.536Z" fill="#F9F9F9"/>
<path opacity="0.7" d="M1351.15 213.019C1344.18 213.019 1344.18 225.206 1351.15 225.206C1359.85 223.465 1359.85 213.019 1351.15 213.019Z" fill="#F9F9F9"/>
<path opacity="0.7" d="M1330.26 266.99C1314.59 266.99 1314.59 291.364 1330.26 291.364C1345.93 291.364 1345.93 266.99 1330.26 266.99Z" fill="#F9F9F9"/>
<path opacity="0.7" d="M675.638 601.265C672.156 603.006 670.415 603.006 668.674 606.488C665.192 611.711 668.674 620.416 675.638 620.416C680.861 620.416 687.826 615.193 686.085 609.97C687.826 604.747 680.861 599.524 675.638 601.265Z" fill="#F9F9F9"/>
<path opacity="0.7" d="M731.353 597.783C731.353 596.042 731.353 596.042 731.353 597.783C731.353 594.301 729.611 592.56 727.87 592.56C727.87 592.56 727.871 592.56 726.13 592.56C719.166 590.819 713.942 599.524 719.165 604.747C724.388 609.97 733.094 604.747 731.353 597.783Z" fill="#F9F9F9"/>
<path opacity="0.7" d="M628.634 684.834C628.634 683.093 628.634 683.093 628.634 684.834C625.152 679.611 619.929 681.352 619.929 686.576C619.929 691.799 625.152 691.799 628.634 688.317C630.375 686.576 630.375 684.834 628.634 684.834Z" fill="#F9F9F9"/>
<path opacity="0.7" d="M619.914 684.834C611.209 677.87 597.281 677.87 590.317 686.575C585.094 693.539 579.871 702.244 583.353 710.949C586.835 719.654 593.799 726.618 604.245 726.618C614.692 726.618 621.655 721.395 626.878 712.69C632.101 703.985 628.62 691.798 619.914 684.834Z" fill="#F9F9F9"/>
<path opacity="0.7" d="M665.2 676.128C663.459 676.128 663.459 676.128 665.2 676.128C659.977 679.61 659.977 686.574 663.459 688.315H665.2C670.423 691.797 675.645 688.315 675.645 681.351C675.645 676.128 668.682 672.646 665.2 676.128Z" fill="#F9F9F9"/>
<path opacity="0.7" d="M649.526 717.912C639.08 717.912 639.08 733.581 649.526 733.581C658.231 733.581 658.231 717.912 649.526 717.912Z" fill="#F9F9F9"/>
<path opacity="0.7" d="M607.741 898.979C599.036 898.979 599.036 912.907 607.741 912.907C616.446 914.648 616.446 898.979 607.741 898.979Z" fill="#F9F9F9"/>
<path opacity="0.7" d="M654.748 874.603C653.007 874.603 653.007 876.344 654.748 874.603C654.748 876.344 654.748 874.603 654.748 874.603Z" fill="#F9F9F9"/>
<path opacity="0.7" d="M585.105 966.878C578.141 966.878 578.141 979.064 585.105 979.064C592.069 979.064 592.069 966.878 585.105 966.878Z" fill="#F9F9F9"/>
<path opacity="0.7" d="M656.493 1302.89C654.752 1302.89 654.752 1306.38 656.493 1306.38C658.234 1306.38 658.234 1302.89 656.493 1302.89Z" fill="#F9F9F9"/>
<path opacity="0.7" d="M658.224 1329.01C658.224 1329.01 656.483 1329.01 658.224 1329.01C654.742 1323.79 647.778 1325.53 647.778 1330.75C647.778 1335.97 654.742 1337.71 658.224 1334.23C658.224 1332.49 658.224 1330.75 658.224 1329.01Z" fill="#F9F9F9"/>
<path opacity="0.7" d="M694.789 1309.86C693.048 1309.86 693.048 1311.6 694.789 1309.86C694.789 1311.6 694.789 1309.86 694.789 1309.86Z" fill="#F9F9F9"/>
<path opacity="0.7" d="M578.136 1334.23C564.207 1334.23 564.207 1355.12 578.136 1355.12C592.064 1355.12 592.064 1334.23 578.136 1334.23Z" fill="#F9F9F9"/>
<path opacity="0.7" d="M522.431 1372.53C510.244 1372.53 510.244 1389.94 522.431 1389.94C534.618 1389.94 534.618 1372.53 522.431 1372.53Z" fill="#F9F9F9"/>
<path opacity="0.7" d="M332.662 1405.61C320.475 1405.61 320.475 1426.51 332.662 1426.51C344.85 1426.51 344.85 1405.61 332.662 1405.61Z" fill="#F9F9F9"/>
<path opacity="0.7" d="M299.574 1395.17C297.833 1391.69 294.351 1389.95 290.868 1393.43C287.386 1396.91 289.127 1400.39 292.609 1402.13C294.35 1403.87 297.832 1403.87 297.832 1402.13C299.573 1398.65 299.574 1396.91 299.574 1395.17Z" fill="#F9F9F9"/>
<path opacity="0.7" d="M283.911 1435.21C275.206 1435.21 275.206 1447.4 283.911 1447.4C292.616 1449.14 292.616 1435.21 283.911 1435.21Z" fill="#F9F9F9"/>
<path opacity="0.7" d="M334.407 1447.4C320.479 1447.4 320.479 1470.03 334.407 1470.03C348.335 1470.03 348.335 1447.4 334.407 1447.4Z" fill="#F9F9F9"/>
<path opacity="0.7" d="M372.71 1438.69C362.264 1438.69 362.264 1454.36 372.71 1454.36C383.156 1454.36 383.156 1438.69 372.71 1438.69Z" fill="#F9F9F9"/>
<path opacity="0.7" d="M311.766 1431.73C306.543 1431.73 306.543 1440.43 311.766 1440.43C316.989 1440.43 316.989 1431.73 311.766 1431.73Z" fill="#F9F9F9"/>
<path opacity="0.7" d="M437.126 1416.06C419.716 1416.06 419.716 1443.92 437.126 1443.92C456.277 1443.92 456.277 1416.06 437.126 1416.06Z" fill="#F9F9F9"/>
<path opacity="0.7" d="M471.941 1398.65C461.494 1398.65 461.494 1416.06 471.941 1416.06C484.128 1416.06 484.128 1398.65 471.941 1398.65Z" fill="#F9F9F9"/>
<path opacity="0.7" d="M487.607 1431.73C485.866 1431.73 485.866 1429.99 487.607 1431.73C482.384 1429.99 478.902 1431.73 478.902 1435.21C478.902 1438.69 484.125 1442.17 485.866 1440.43H487.607C489.348 1436.95 489.348 1433.47 487.607 1431.73Z" fill="#F9F9F9"/>
<path opacity="0.7" d="M261.272 1384.72C249.085 1384.72 249.085 1402.13 261.272 1402.13C273.459 1402.13 273.459 1384.72 261.272 1384.72Z" fill="#F9F9F9"/>
<path opacity="0.7" d="M372.7 1376.02C360.513 1376.02 360.513 1395.17 372.7 1395.17C384.887 1396.91 384.887 1376.02 372.7 1376.02Z" fill="#F9F9F9"/>
<path opacity="0.7" d="M132.443 1351.64C127.22 1351.64 127.22 1358.61 132.443 1358.61C135.925 1358.61 135.925 1351.64 132.443 1351.64Z" fill="#F9F9F9"/>
<path opacity="0.7" d="M163.786 1348.16C155.081 1348.16 155.081 1362.09 163.786 1362.09C174.232 1362.09 174.232 1348.16 163.786 1348.16Z" fill="#F9F9F9"/>
<path opacity="0.7" d="M88.9201 1276.78C81.956 1276.78 81.956 1287.22 88.9201 1287.22C95.8841 1288.97 95.8841 1276.78 88.9201 1276.78Z" fill="#F9F9F9"/>
<path opacity="0.7" d="M74.9918 1214.1C71.5098 1208.88 64.5461 1210.62 64.5461 1215.84C64.5461 1221.07 71.5098 1222.81 74.9918 1219.33C74.9918 1217.58 74.9918 1215.84 74.9918 1214.1Z" fill="#F9F9F9"/>
<path opacity="0.7" d="M88.9172 1214.1C87.1762 1214.1 87.1762 1215.84 88.9172 1214.1C88.9172 1215.84 88.9172 1214.1 88.9172 1214.1Z" fill="#F9F9F9"/>
<path opacity="0.7" d="M54.0932 1175.8C48.8701 1175.8 48.8701 1182.76 54.0932 1182.76C59.3162 1184.5 59.3162 1175.8 54.0932 1175.8Z" fill="#F9F9F9"/>
<path opacity="0.7" d="M83.7034 1153.17C81.9624 1151.42 80.2216 1151.42 78.4806 1153.17C73.2575 1156.65 74.9987 1163.61 81.9628 1163.61C87.1859 1163.61 88.9264 1156.65 83.7034 1153.17Z" fill="#F9F9F9"/>
<path opacity="0.7" d="M27.9871 1203.66C19.282 1203.66 10.5769 1210.62 10.5769 1221.07C10.5769 1229.77 17.541 1238.48 27.9871 1238.48C36.6921 1238.48 45.3972 1231.51 45.3972 1221.07C43.6562 1210.62 36.6921 1203.66 27.9871 1203.66Z" fill="#F9F9F9"/>
<path opacity="0.7" d="M41.91 1135.76C33.205 1135.76 33.205 1149.68 41.91 1149.68C50.6151 1149.68 50.6151 1135.76 41.91 1135.76Z" fill="#F9F9F9"/>
<path opacity="0.7" d="M90.6587 1302.89C74.9896 1302.89 74.9896 1325.53 90.6587 1325.53C104.587 1325.53 104.587 1302.89 90.6587 1302.89Z" fill="#F9F9F9"/>
<path opacity="0.7" d="M88.9149 1342.94C76.7278 1342.94 76.7278 1362.09 88.9149 1362.09C101.102 1362.09 101.102 1342.94 88.9149 1342.94Z" fill="#F9F9F9"/>
<path opacity="0.7" d="M186.417 944.244C177.712 944.244 177.712 958.172 186.417 958.172C195.122 956.431 195.122 944.244 186.417 944.244Z" fill="#F9F9F9"/>
<path opacity="0.7" d="M224.712 932.058C216.007 932.058 216.007 944.245 224.712 944.245C233.417 944.245 233.417 932.058 224.712 932.058Z" fill="#F9F9F9"/>
<path opacity="0.7" d="M228.203 965.137C222.98 956.432 209.052 959.914 209.052 968.619C209.052 979.065 221.239 980.806 226.462 973.842C229.944 970.36 229.944 966.878 228.203 965.137Z" fill="#F9F9F9"/>
<path opacity="0.7" d="M209.057 921.612C217.711 921.612 224.726 914.597 224.726 905.943C224.726 897.289 217.711 890.274 209.057 890.274C200.403 890.274 193.388 897.289 193.388 905.943C193.388 914.597 200.403 921.612 209.057 921.612Z" fill="#F9F9F9"/>
<path opacity="0.7" d="M266.505 911.166C259.541 911.166 259.541 923.353 266.505 923.353C273.469 923.353 273.469 911.166 266.505 911.166Z" fill="#F9F9F9"/>
<path opacity="0.7" d="M97.621 1080.04C85.4339 1080.04 85.4339 1099.2 97.621 1099.2C109.808 1097.45 109.808 1080.04 97.621 1080.04Z" fill="#F9F9F9"/>
<path opacity="0.7" d="M108.07 1022.59C90.6603 1022.59 90.6603 1048.71 108.07 1048.71C125.481 1050.45 125.481 1022.59 108.07 1022.59Z" fill="#F9F9F9"/>
<path opacity="0.7" d="M592.068 1377.76C579.88 1377.76 579.88 1396.91 592.068 1396.91C604.255 1395.17 604.255 1377.76 592.068 1377.76Z" fill="#F9F9F9"/>
<path opacity="0.7" d="M541.582 1325.53C536.359 1325.53 536.359 1334.23 541.582 1334.23C548.546 1334.23 548.546 1325.53 541.582 1325.53Z" fill="#F9F9F9"/>
<path opacity="0.7" d="M592.069 1294.19C576.4 1294.19 576.4 1316.82 592.069 1316.82C605.998 1316.82 607.739 1294.19 592.069 1294.19Z" fill="#F9F9F9"/>
<path opacity="0.7" d="M632.115 1339.45C632.115 1337.71 632.115 1337.71 632.115 1339.45C623.41 1337.71 618.187 1341.2 618.187 1349.9C618.187 1356.86 625.151 1360.35 632.115 1360.35H633.856C642.561 1356.87 642.561 1341.2 632.115 1339.45Z" fill="#F9F9F9"/>
<path opacity="0.7" d="M524.175 1282C522.434 1285.48 522.434 1288.97 524.175 1290.71C529.398 1299.41 543.327 1295.93 543.327 1285.48C543.327 1276.78 529.398 1275.04 524.175 1282Z" fill="#F9F9F9"/>
<path opacity="0.7" d="M668.673 1255.89C665.191 1255.89 665.191 1262.85 668.673 1262.85C672.155 1261.11 672.155 1255.89 668.673 1255.89Z" fill="#F9F9F9"/>
<path opacity="0.7" d="M726.136 1228.03C717.431 1228.03 717.431 1241.96 726.136 1241.96C734.841 1240.22 734.841 1228.03 726.136 1228.03Z" fill="#F9F9F9"/>
<path opacity="0.7" d="M689.569 1203.66C686.087 1203.66 682.605 1203.66 679.123 1203.66C672.159 1205.4 666.936 1214.1 668.677 1221.07C670.418 1228.03 677.382 1231.51 684.346 1231.51C689.569 1231.51 696.533 1228.03 698.274 1221.07C701.756 1214.1 696.533 1205.4 689.569 1203.66Z" fill="#F9F9F9"/>
<path opacity="0.7" d="M285.653 869.382C273.466 869.382 273.466 888.533 285.653 888.533C297.84 888.533 297.84 869.382 285.653 869.382Z" fill="#F9F9F9"/>
<path opacity="0.7" d="M310.029 825.855C301.324 825.855 301.324 839.783 310.029 839.783C318.734 839.783 318.734 825.855 310.029 825.855Z" fill="#F9F9F9"/>
<path opacity="0.7" d="M282.166 818.892C269.979 817.151 259.533 824.115 261.274 836.302C263.015 848.489 275.202 851.971 285.648 848.489C285.648 848.489 285.648 848.489 287.389 848.489C297.835 841.525 296.095 820.633 282.166 818.892Z" fill="#F9F9F9"/>
<path opacity="0.7" d="M350.066 775.366C339.62 775.366 339.62 791.035 350.066 791.035C358.771 789.294 358.771 775.366 350.066 775.366Z" fill="#F9F9F9"/>
<path opacity="0.7" d="M384.888 742.287C377.924 742.287 377.924 752.733 384.888 752.733C391.853 752.733 391.853 742.287 384.888 742.287Z" fill="#F9F9F9"/>
</svg>
